<svg id="Layer_1" data-name="Layer 1" xmlns="http://www.w3.org/2000/svg" viewBox="0 0 262 302.86"><defs><style>.cls-1{fill:#4a4a4a;}</style></defs><title>hackgt_favicon</title><path class="cls-1" d="M69.18,180.83l-69-38.59L0,46.76,81.45,0l84.18,47.41v94.83l-49,28.22q.09,37.17.19,74.34l62.89,35.8,62.9-35.31q.16-37.68.34-75.35l-48.68-28.21V121.78l68,37.12q-.12,48.75-.26,97.51l-81.76,46.45L97.42,255.93l-.15-96.17,48.53-29.13v-73L82.42,21.29,20,56.12l-.07,75.44q24.63,14.25,49.24,28.52Z"/><polygon class="cls-1" points="44.72 73.82 44.72 118.63 83.53 141.03 122.33 118.63 122.33 73.82 83.53 51.42 44.72 73.82"/><polygon class="cls-1" points="140.7 184.77 140.7 229.58 179.51 251.98 218.31 229.58 218.31 184.77 179.51 162.37 140.7 184.77"/></svg>