<svg xmlns="http://www.w3.org/2000/svg" viewBox="0 0 808.86 196.68"><defs><style>.cls-1,.cls-2{fill:#0f2942;}.cls-2{font-size:178.26px;font-family:Barlow-Regular, Barlow;}.cls-3{letter-spacing:-0.01em;}</style></defs><title>Website LogoAsset 2</title><g id="Layer_2" data-name="Layer 2"><g id="Layer_1-2" data-name="Layer 1"><path class="cls-1" d="M44.93,117.43.11,92.37,0,30.37,52.9,0l54.67,30.79V92.37L75.71,110.7,75.83,159l40.85,23.25,40.84-22.94q.12-24.47.23-48.93L126.13,92.05v-13l44.13,24.1q-.09,31.66-.17,63.33L117,196.68,63.27,166.21l-.1-62.46L94.68,84.83V37.4L53.53,13.82,13,36.45l0,49,32,18.52Z"/><polygon class="cls-1" points="29.05 47.94 29.05 77.04 54.24 91.59 79.44 77.04 79.44 47.94 54.24 33.39 29.05 47.94"/><polygon class="cls-1" points="91.38 119.99 91.38 149.09 116.58 163.64 141.78 149.09 141.78 119.99 116.58 105.44 91.38 119.99"/><text class="cls-2" transform="translate(210.11 154.44)">Hack<tspan class="cls-3" x="389.66" y="0">G</tspan><tspan x="497.33" y="0">T</tspan></text></g></g></svg>