<svg xmlns="http://www.w3.org/2000/svg" viewBox="0 0 277.75 151.82">
    <defs>
        <style>
            .cls-1 {
                fill: #fefefe;
            }
            .cls-2 {
                fill: #ededed;
            }
            .cls-3 {
                fill: #7bc0be;
            }
        </style>
    </defs>
    <title>Slide 7 - Cloud 1Asset 1</title>
    <g id="Layer_2" data-name="Layer 2">
        <g id="Draw_Layer" data-name="Draw Layer"><path
            class="cls-1"
            d="M191.26.85h-.44l-1.91.05c-.68,0-1.37.06-2,.1l-.79.05c-1.75.1-3.52.15-5.24.21-2,.06-4.1.13-6.15.27-2.22.14-4.57.39-7.4.8l-.26,0c-1.75.25-3.57.51-5.33.88l-.41.08c-1.75.37-3.56.76-5.3,1.31-2.06.65-4,1.32-5.92,2a45.89,45.89,0,0,0-7.86,3.62c-1.53.91-3,2-4.39,3l-.23.18c-.77.56-1.41,1.08-2,1.59-1.55,1.36-3.14,2.76-4.6,4.29a45.07,45.07,0,0,0-3.54,4.24A19.83,19.83,0,0,0,126,26a28.18,28.18,0,0,0-4.12-1.15l-3.3-.65a102.53,102.53,0,0,0-13.11-1.53c-3.85-.27-7.64-.44-11.85-.63l-1.7,0C86.45,22,81,23.1,75.48,24.34a75.22,75.22,0,0,0-11.6,4l-1,.38A35.41,35.41,0,0,0,54,34.38c-1.38,1.12-2.73,2.33-4,3.6l-.67.65c-.48.45-1,.92-1.41,1.41l-1.65,1.88-.56.64A57.23,57.23,0,0,0,41,48.84c-.38.57-.87,1.32-1.29,2.09-.25.46-.51.92-.77,1.38s-.45.86-.72,1.46c-.11.22-.22.45-.32.68a16.67,16.67,0,0,0-1.24,3.11,18.15,18.15,0,0,0-.28,7.32l-.52,0h-.25a22.72,22.72,0,0,0-5.62,1,27.25,27.25,0,0,0-4.84,1.94,28.23,28.23,0,0,0-3.48,2.1,51.81,51.81,0,0,0-5.5,4.37c-1.67,1.56-3.15,3-4.53,4.48a38.06,38.06,0,0,0-5.89,7.76,47.36,47.36,0,0,0-2.37,5.17,38.48,38.48,0,0,0-1.33,4c-.34,1.25-.63,2.55-.88,3.85s-.43,2.66-.57,3.76a14.24,14.24,0,0,0-.15,2.21A16.71,16.71,0,0,0,.6,107.5l0,.33c.12,1.11.25,2.27.44,3.39a34.25,34.25,0,0,0,.87,4,15.5,15.5,0,0,0,1.39,3.35A21,21,0,0,0,5,120.9l.49.65a26.55,26.55,0,0,0,2.79,3.09,39.23,39.23,0,0,0,7.83,5.9,64.5,64.5,0,0,0,10.72,4.63,20.65,20.65,0,0,0,3.78,1l.29,0c1.14.18,2.33.37,3.51.45.33,0,.68,0,1.08,0s.93,0,1.32,0a53.38,53.38,0,0,0,9.92-1.37A46.94,46.94,0,0,0,53.28,133a29.55,29.55,0,0,0,4.59-2.39c1.11-.68,2.21-1.44,3.29-2.24a22.58,22.58,0,0,0,2,2.12A31.59,31.59,0,0,0,67.51,134a36.74,36.74,0,0,0,3.4,1.88A44.78,44.78,0,0,0,75,137.7c1.81.69,3.73,1.38,5.89,2.09l1.53.5c1.17.37,2.38.75,3.53,1.22l.73.29c.8.32,1.63.66,2.46.95a27.53,27.53,0,0,0,3.77,1.07,59.37,59.37,0,0,0,6,.84c2.56.25,5.19.27,7.73.3l1.8,0h.62l3.12,0c1.63,0,3,0,4.2-.12a59,59,0,0,0,9.81-1.5,54.35,54.35,0,0,0,9.39-3.27,40.75,40.75,0,0,0,5.68-3.13l.06,0,0,0c.93.46,1.89.87,2.82,1.27l.57.25c1.33.6,2.74,1.26,4.08,2l1.1.63.43.25a41.9,41.9,0,0,0,4.45,2.22,33.19,33.19,0,0,0,6.22,2l.5.11c2.33.51,4.74,1,7.15,1.35l3,.38.32,0c.64.09,1.3.11,1.94.14l.81,0c1,.06,2.05.09,3.12.09,3,0,6-.22,8.53-.44a92.63,92.63,0,0,0,11.91-2.07l1.27-.27.66-.15c1.33-.28,2.71-.58,4-1a38.8,38.8,0,0,0,4.93-1.82l.38-.16c1.26-.54,2.52-1.14,3.73-1.72l.1-.05c1.37-.66,2.74-1.4,4.07-2.11l1.86-1,3.47-1.85,1.33-.71,1.71-.93.74-.41.72-.42.24-.13c.21-.12.42-.24.62-.37a3.26,3.26,0,0,0,.4-.24l.11-.06a3.28,3.28,0,0,1,.38-.27l.24-.14c1.28-.26,2.56-.64,3.8-1,.76-.22,1.55-.45,2.33-.65l1-.25c1.55-.4,3.15-.8,4.71-1.26a61.71,61.71,0,0,0,7.28-2.76c1.58-.7,3.2-1.5,4.93-2.44a44.35,44.35,0,0,0,11.58-8.47,31.58,31.58,0,0,0,5.59-8.11c.36-.72.7-1.47,1-2.19.15-.32.29-.65.44-1,1.16-2.49,2.12-4.74,3-6.87.64-1.66,1.31-3.45,1.85-5.3.08-.28.17-.56.25-.85a19.34,19.34,0,0,0,.52-2.75l.06-.47a20.06,20.06,0,0,0,.12-3.09l0-1.65a42.49,42.49,0,0,0-.45-5.37,27.1,27.1,0,0,0-1.3-4.83,40.75,40.75,0,0,0-3.67-8.53,47.88,47.88,0,0,0-4.16-5.63c-.47-.56-1-1.21-1.64-1.81a26.68,26.68,0,0,0-3.29-2.67c-.6-.43-1.22-.85-1.82-1.26s-1.33-.89-2-1.37a60.15,60.15,0,0,1-4.68-4.91c-.31-.36-.62-.71-.94-1.06l-.33-.38-.34-.38a11.9,11.9,0,0,0-5-3.16,12.28,12.28,0,0,0-2.67-.37h-.44a33,33,0,0,0-2.27-6.58A27.1,27.1,0,0,0,240,30l-.79-1-.79-1c-.4-.58-.78-1.17-1.17-1.76a40.35,40.35,0,0,0-3.43-4.73,29,29,0,0,0-4-3.54l-1.29-1c-.7-.57-1.28-1-1.9-1.49l-.73-.53c-1.39-1-2.82-2-4.25-3A36.48,36.48,0,0,0,217,9.18c-2.57-1.28-5-2.36-7.48-3.3-1.07-.41-2.18-.8-3.24-1.17L204.17,4c-.61-.22-1.23-.46-1.84-.7A28.93,28.93,0,0,0,191.26.85Z"/><path
            class="cls-2"
            d="M245.75,45.58a10.91,10.91,0,0,0-4.92,1.21,4.41,4.41,0,0,0,.88,8.1l1.16.17a4.41,4.41,0,0,0,1.84-.36,17.05,17.05,0,0,1,2.47.09,16.81,16.81,0,0,1,2.08.56,17.81,17.81,0,0,1,2.1,1.45c1.92,1.62,3.8,3.27,5.74,4.87l-.05,0a8.69,8.69,0,0,1,1.16,1.19c.37.55.72,1.11,1.06,1.69.44.75.9,1.5,1.29,2.28s.71,1.57,1.05,2.37c.24.54.5,1.08.73,1.62a23.51,23.51,0,0,1,.82,3.41c.08,1.07.08,2.13.06,3.2s-.06,2.17-.18,3.24a67.77,67.77,0,0,1-2,7c-.71,2.27-1.45,4.53-2.34,6.73-.75,1.56-1.57,3.07-2.46,4.56a52.72,52.72,0,0,1-2.95,4.4c-.45.5-.91,1-1.41,1.42-.67.63-1.35,1.26-2,1.9L248,108.49c-.79.75-1.54,1.57-2.39,2.27s-2,1.29-3,1.91c-.6.37-1.2.73-1.81,1.07s-1.13.63-1.72.91c-.94.32-1.87.65-2.8,1l-1.47.62a20.85,20.85,0,0,1-3.45.9,35.71,35.71,0,0,1-6.62-.1c-1.26-.24-2.5-.55-3.74-.88a27.6,27.6,0,0,1-3.35-1.16,8.94,8.94,0,0,1-1.21-.68,20.21,20.21,0,0,1-2.12-2.12,1.62,1.62,0,0,1-.1-.18,8.45,8.45,0,0,1-.19-.84,22.3,22.3,0,0,1,0-3.27c.07-.27.14-.53.23-.79s.25-.41.38-.61.52-.51.8-.75c.67-.4,1.36-.77,2.05-1.14a3.37,3.37,0,0,0-3.24-5.9,22.69,22.69,0,0,0-3,1.83A10.07,10.07,0,0,0,209.7,102a11,11,0,0,0-1.81,2.58,9.07,9.07,0,0,0-.8,2.18c-.12.56-.18,1.12-.26,1.69s-.1.92-.13,1.39a16.05,16.05,0,0,0,0,2.5,12.33,12.33,0,0,0,.43,2.64,11,11,0,0,0,1,2.21,18,18,0,0,0,2.09,2.7,11.52,11.52,0,0,0,3.63,2.75l1.3.61c.68.3,1.39.66,2.1.9a44,44,0,0,0,5.39,1.51,32.46,32.46,0,0,0,6.14.55,27.65,27.65,0,0,0,6.29-.58,33,33,0,0,0,5.15-1.86,26.32,26.32,0,0,0,3.47-1.31c.87-.46,1.74-.91,2.58-1.41s1.47-.9,2.19-1.37c1.15-.75,2.28-1.48,3.38-2.32.53-.41,1-.94,1.49-1.4l1-1,1.93-1.87c.64-.62,1.29-1.21,1.93-1.81a21.94,21.94,0,0,0,2.53-2.75,52.31,52.31,0,0,0,5.72-9.34c.58-1.25,1.12-2.5,1.61-3.79.32-.85.6-1.72.9-2.58.58-1.72,1.11-3.46,1.65-5.2.27-.9.55-1.8.79-2.7a29.7,29.7,0,0,0,.71-3.74,36.84,36.84,0,0,0,.24-5.46,25.62,25.62,0,0,0-.91-6.45,44.62,44.62,0,0,0-2.36-5.8,29,29,0,0,0-1.81-3.39c-.3-.52-.61-1.05-.95-1.54-.49-.73-1-1.46-1.55-2.14a13.16,13.16,0,0,0-2.13-2c-.85-.7-1.69-1.42-2.53-2.14-1.3-1.12-2.57-2.28-3.93-3.31l-1.05-.79A13.74,13.74,0,0,0,252,46.64a18.8,18.8,0,0,0-4.39-1,12,12,0,0,0-1.46-.12Z"/><path
            class="cls-2"
            d="M129.62,25.15a4.36,4.36,0,0,0-2,1.08,26.28,26.28,0,0,0-3.3,4.34c-.65,1.21-1.23,2.44-1.79,3.7a20,20,0,0,0-1.41,6.4,26.19,26.19,0,0,0,.14,6.56,12.69,12.69,0,0,0,.67,2.63c.45,1.17.94,2.3,1.49,3.43.34.71.69,1.41,1.05,2.11a11.77,11.77,0,0,0,2.13,2.92,14.85,14.85,0,0,0,3.08,2.25l2.1,1.17c1,.56,2.1,1,3.17,1.47a19,19,0,0,0,4.35,1.34c1.16.18,2.31.36,3.47.43a7.93,7.93,0,0,0,1.09,0,10.71,10.71,0,0,0,3.32-.66l1.07-.42a4.48,4.48,0,0,0,.2-7.75,4.38,4.38,0,0,0-3.44-.54,7.55,7.55,0,0,1-1,.27,15.89,15.89,0,0,1-2.18-.08c-.77-.15-1.53-.34-2.3-.57a18.61,18.61,0,0,1-2.05-.75A31.79,31.79,0,0,1,133.15,52c-.12-.11-.23-.23-.34-.35-.45-.73-.82-1.51-1.2-2.27s-.65-1.34-1-2a17.37,17.37,0,0,1-.55-2.12,31.7,31.7,0,0,1,.15-5.68,18.34,18.34,0,0,1,.93-2.95,17.81,17.81,0,0,1,1.68-3l.85-1,.72-.89a4.43,4.43,0,0,0-.55-5.34A4.42,4.42,0,0,0,130.75,25l-1.13.13Z"/><path
            class="cls-2"
            d="M135.47,92a4.53,4.53,0,0,0,2.19,8.8c.87-.21,1.72-.4,2.6-.55a16.2,16.2,0,0,1,2.09,0c.34.07.68.16,1,.26a7.62,7.62,0,0,1,.91.33,8.28,8.28,0,0,1,.89.46c.14.14.27.28.4.43a10.48,10.48,0,0,1,.6,1.15c.09.3.17.59.23.89a28.43,28.43,0,0,1-.18,5.38,44.71,44.71,0,0,1-2.23,8.52,25.87,25.87,0,0,1-2.64,4.41,32.58,32.58,0,0,1-3.13,3c-1.27,1.1-2.56,2.18-3.84,3.26a4.44,4.44,0,0,0,5.18,7.12,35.23,35.23,0,0,0,5.66-4.38,25,25,0,0,0,4.37-4.81,34.43,34.43,0,0,0,3.11-5.88,30,30,0,0,0,1.59-5.25c.28-1.24.51-2.49.74-3.74a29.13,29.13,0,0,0,.52-4.75,20.89,20.89,0,0,0-.44-5.64,19.67,19.67,0,0,0-.87-2.32c-.14-.33-.31-.65-.47-1A13.94,13.94,0,0,0,152.58,96a7.59,7.59,0,0,0-.88-1,17.15,17.15,0,0,0-1.46-1.22,6.79,6.79,0,0,0-1.71-.89,20.22,20.22,0,0,0-2.75-1.1,15.94,15.94,0,0,0-3.62-.61c-.27,0-.53,0-.8,0a25.52,25.52,0,0,0-5.89.84Zm9.16,9,.38.17-.38-.17Z"/><path
            class="cls-2"
            d="M37.49,57.56l-.65.8a3.93,3.93,0,0,0-.59,2c-.19,1.77-.4,3.53-.56,5.3a19.23,19.23,0,0,0,.09,5.25,28.65,28.65,0,0,0,1,4.29A21,21,0,0,0,38.39,79,24.66,24.66,0,0,0,40,81.27a24.2,24.2,0,0,0,2.47,3.14,25.1,25.1,0,0,0,2.44,2c.33.27.69.51,1,.75a48.7,48.7,0,0,0,4.7,3,23.41,23.41,0,0,0,2.36,1,12.93,12.93,0,0,0,2.67.55l1.29.17a16.53,16.53,0,0,0,2.63.1c.51,0,1-.08,1.53-.13a10.86,10.86,0,0,0,2.61-.5c.71-.25,1.42-.54,2.12-.84a10.94,10.94,0,0,0,2-1c.69-.48,1.38-1,2-1.5a15.5,15.5,0,0,0,2.38-2.41,24.08,24.08,0,0,0,1.65-2.12c.34-.52.66-1,1-1.53.29-.32.6-.62.91-.92a4.46,4.46,0,0,0-3-7.7,4.66,4.66,0,0,0-3.13,1.22,17.61,17.61,0,0,0-2.86,3.17c-.36.51-.7,1-1.06,1.53a20.06,20.06,0,0,1-2.36,2.34,8.48,8.48,0,0,1-.88.52,11,11,0,0,1-1.1.52,10.4,10.4,0,0,1-1.09.31c-.57,0-1.14.07-1.72.06s-1.39-.07-2.09-.15A11.29,11.29,0,0,1,55,82.36c-1-.55-2-1.16-3-1.8s-2-1.26-2.89-2A20.12,20.12,0,0,1,47,76.21c-.33-.41-.66-.83-1-1.25a11.63,11.63,0,0,1-.83-1.35c-.14-.27-.26-.55-.38-.84q-.39-1.09-.69-2.22c-.19-.7-.38-1.39-.51-2.09a27.32,27.32,0,0,1,.14-3.5c.13-1.48.31-3,.47-4.45a3.87,3.87,0,0,0-1.09-2.8,4,4,0,0,0-2.83-1.24h-.06a4,4,0,0,0-2.74,1.09Z"/><path
            class="cls-2"
            d="M63.55,116.86a3.74,3.74,0,0,0-1.47,5c.46.84.88,1.71,1.35,2.55s.9,1.55,1.33,2.33c.19.34.37.68.57,1A20.12,20.12,0,0,0,67,130.12c.58.72,1.25,1.38,1.89,2s1.21,1.25,1.86,1.81a31.75,31.75,0,0,0,2.93,2.26,34,34,0,0,0,6,3.07l2.55,1.06c.79.33,1.57.69,2.38,1a19.25,19.25,0,0,0,2.59.88c1,.22,1.92.42,2.89.63,2.12.45,4.26.83,6.42,1.08.93.11,1.87.15,2.8.19s1.89.14,2.83.25a42.28,42.28,0,0,0,6.25.53,24.18,24.18,0,0,0,4.24-.5c.48-.11.95-.27,1.42-.37l1.13-.19a37.83,37.83,0,0,0,6.36-.85,48.78,48.78,0,0,0,6.37-2.37c1.47-.56,2.95-1.08,4.42-1.64,2.05-.77,4-1.7,6-2.58.78-.34,1.56-.69,2.32-1.06a27.11,27.11,0,0,0,2.46-1.26,28.23,28.23,0,0,0,4.79-3.86,16,16,0,0,0,2.52-2.93,4.47,4.47,0,0,0-6.87-5.6A61.14,61.14,0,0,1,139,126a37.44,37.44,0,0,1-4.53,2.25c-1.57.71-3.14,1.43-4.73,2.09-1.18.44-2.36.84-3.53,1.3s-2.13.82-3.18,1.26c-.48.19-1,.4-1.42.6-.7.25-1.41.49-2.13.68a22.15,22.15,0,0,1-2.4.48c-1.46.14-2.92.27-4.38.45a15.09,15.09,0,0,0-1.88.44c-.45.11-.9.2-1.35.28a36.88,36.88,0,0,1-6.88-.43c-2.35-.3-4.71-.3-7-.58-1.12-.19-2.24-.41-3.35-.64a37.09,37.09,0,0,1-4.19-1c-1.39-.45-2.72-1.05-4.08-1.58-1.1-.43-2.2-.86-3.29-1.31A28.41,28.41,0,0,1,76,127.45c-1-.86-2.07-1.7-3.12-2.54a10.49,10.49,0,0,1-1-1c-.5-.75-1-1.5-1.48-2.25-.69-1.07-1.23-2.22-1.84-3.33a3.71,3.71,0,0,0-3.27-1.91,3.63,3.63,0,0,0-1.74.44Z"/><path
            class="cls-2"
            d="M32.65,63.81a17.34,17.34,0,0,0-3.93.57,23,23,0,0,0-3.31,1.22c-.4.18-.81.35-1.21.54a38.17,38.17,0,0,0-9.69,7.1c-1.45,1.42-3,2.8-4.31,4.32A25.19,25.19,0,0,0,7.65,80.9l-.9,1.46c-.47.77-.86,1.6-1.27,2.41-1,2-1.93,3.93-2.72,6A48.52,48.52,0,0,0,.9,96.1a27.62,27.62,0,0,0-.9,6.52c0,.91,0,1.82,0,2.74a30.07,30.07,0,0,0,.46,3.77,26.35,26.35,0,0,0,1.44,5q.7,1.86,1.5,3.69c.37.88.85,1.73,1.29,2.58a19.66,19.66,0,0,0,2.49,3.7c.69.81,1.37,1.61,2,2.44.44.62.88,1.25,1.35,1.86a16,16,0,0,0,1.93,2,27.55,27.55,0,0,0,2.88,2.29,42.83,42.83,0,0,0,4.76,3.12,36.69,36.69,0,0,0,6.14,2.48,21.48,21.48,0,0,0,2.52.6,36,36,0,0,0,3.87.54,20.66,20.66,0,0,0,2.61,0c1.29-.06,2.58-.19,3.85-.36l2.68-.4a23.43,23.43,0,0,0,3.71-.74,35.38,35.38,0,0,0,6-2.41A47.69,47.69,0,0,0,57,132a33.73,33.73,0,0,0,4.61-4.08A60.31,60.31,0,0,0,66,122.24a4.44,4.44,0,0,0,.55-3.5,4.57,4.57,0,0,0-5.54-3.33l-1.08.43a4.58,4.58,0,0,0-1.7,1.6c-.79,1.07-1.57,2.16-2.37,3.22A32.91,32.91,0,0,1,51.23,125a35.37,35.37,0,0,1-5.87,3.39,23.21,23.21,0,0,1-4.49,1.26c-1.22.19-2.43.37-3.65.54a27.53,27.53,0,0,1-5.37.06,28.37,28.37,0,0,1-3.42-.82,33.54,33.54,0,0,1-3.21-1.21c-.55-.29-1.09-.57-1.62-.9s-1.1-.75-1.65-1.13c-.93-.65-1.86-1.3-2.76-2A19.82,19.82,0,0,1,17.14,122c-.63-.89-1.27-1.78-2-2.64-.48-.6-1-1.17-1.48-1.76a36.49,36.49,0,0,1-2.9-5.67c-.36-.94-.72-1.89-1-2.87a24.32,24.32,0,0,1-.63-3.19,30.4,30.4,0,0,1,.06-5.48,46.92,46.92,0,0,1,7.2-16.2c1.37-1.56,2.92-3,4.4-4.42a44.35,44.35,0,0,1,4-3.49A31,31,0,0,1,30,73.54a16.47,16.47,0,0,1,2.3-.58,47.1,47.1,0,0,1,6.28.32A4.47,4.47,0,0,0,41.74,72a4.56,4.56,0,0,0,1.43-3.24,4.61,4.61,0,0,0-1.25-3.21,4.79,4.79,0,0,0-3.25-1.43c-1.86-.14-3.73-.35-5.6-.35Z"/><path
            class="cls-2"
            d="M57.74,114.47v3.43a25,25,0,0,0,.19,3.24,7.13,7.13,0,0,0,.42,1.71,24,24,0,0,0,1.11,2.61c.25.49.5,1,.78,1.44a22.4,22.4,0,0,0,2.06,2.8c.55.68,1.11,1.35,1.69,2s1.4,1.51,2.15,2.24,1.46,1.33,2.22,2c1.69,1.45,3.48,2.78,5.3,4.06.47.33.94.68,1.44,1s1.13.74,1.72,1l1.94,1c1,.49,2,.89,3,1.33l-1.12-.5a22.35,22.35,0,0,0,4,1.47,37.61,37.61,0,0,0,4.36.67c.95.1,1.9.24,2.85.28,1.92.07,3.82.12,5.74,0s3.88-.23,5.82-.29c.91,0,1.82,0,2.73,0s1.78.12,2.66.09a36.24,36.24,0,0,0,6.48-.82c.93-.2,1.85-.41,2.79-.57s1.74-.25,2.6-.45a29.47,29.47,0,0,0,6.48-2.13,18.22,18.22,0,0,0,1.78-1.11l1.22-.79,2.24-1.49a50.25,50.25,0,0,0,4.67-3.36c1.18-1,2.37-2,3.47-3.11A4.66,4.66,0,0,0,142,129a4.57,4.57,0,0,0-7.7-3.39c-.75.75-1.55,1.43-2.35,2.13-.58.52-1.17,1-1.79,1.51-1,.75-2.11,1.47-3.19,2.18a40.63,40.63,0,0,1-4.69,2.91,28.68,28.68,0,0,1-5.37,1.33c-1.08.16-2.15.35-3.22.59s-1.85.4-2.8.55c-.63.06-1.27.1-1.91.13-.88,0-1.78-.05-2.66-.09-1.83-.07-3.65,0-5.48.11-2,.1-4,.18-6,.22a45.49,45.49,0,0,1-5.71-.37c-.32,0-.65-.07-1-.12q-1-.16-1.92-.42a15.13,15.13,0,0,1-1.94-.73l1.12.5-2-.9a30.93,30.93,0,0,1-4.61-2.71c-1.4-1-2.75-2-4.09-3-.43-.36-.87-.71-1.27-1.1-.58-.56-1.2-1.1-1.74-1.7-1.13-1.26-2.25-2.52-3.3-3.85a17.79,17.79,0,0,1-1.31-2.48c-.08-.26-.15-.53-.21-.79,0-.72,0-1.44,0-2.15v-2.73A4.62,4.62,0,0,0,62.38,110h-.07a4.61,4.61,0,0,0-4.57,4.5Z"/><path
            class="cls-2"
            d="M62.33,116.64l-.75.92a4.64,4.64,0,0,0-.68,2.32c.15,1.36.27,2.74.53,4.08a8.79,8.79,0,0,0,1.17,3.09,12.68,12.68,0,0,0,1.58,2,38.42,38.42,0,0,0,4.67,4c.51.45,1,.9,1.49,1.38s1.18,1.26,1.82,1.83c1.55,1.38,3.25,2.56,4.89,3.81l4.11,3.13a26.74,26.74,0,0,0,2.27,1.55,33.29,33.29,0,0,0,3.42,1.61,83.47,83.47,0,0,0,10.27,3.74c.9.26,1.8.53,2.71.71,1.26.24,2.52.44,3.78.63a34.67,34.67,0,0,0,5.39.42c.89,0,1.79-.08,2.69-.13a23.47,23.47,0,0,0,3.74-.38c1.76-.37,3.51-.77,5.26-1.18a23.45,23.45,0,0,0,3.45-1.1c.76-.29,1.48-.65,2.22-1,1.6-.76,3.25-1.4,4.82-2.23,1-.51,2-1,3-1.48s2-1.13,3-1.77a56.82,56.82,0,0,0,6.77-5,4.57,4.57,0,0,0-3.06-7.88,4.75,4.75,0,0,0-3.21,1.25c-.9.8-1.86,1.54-2.82,2.26-1.11.76-2.23,1.51-3.38,2.18-.67.39-1.34.78-2,1.12s-1.3.6-1.93.92-1.3.68-2,1-1.37.6-2,.91c-1,.47-2,1-3.08,1.42-1.26.4-2.54.66-3.83,1s-2.51.61-3.78.83l-1.82.1c-.84,0-1.69.09-2.54.09a30.2,30.2,0,0,1-4.24-.36c-1.26-.22-2.5-.46-3.74-.8-1.39-.37-2.77-.83-4.13-1.3-2.34-.78-4.63-1.67-6.89-2.64a17.48,17.48,0,0,1-2.86-1.69c-.93-.71-1.89-1.4-2.83-2.12-1.56-1.21-3.17-2.36-4.73-3.58-.94-.84-1.78-1.77-2.68-2.64a42.14,42.14,0,0,0-3.82-3.11,18.74,18.74,0,0,1-2.17-2.1v0a19.07,19.07,0,0,1-.45-2.92l.12,1c0-.14,0-.28,0-.42,0-.4-.09-.79-.14-1.18a4.65,4.65,0,0,0-1.11-2,4.59,4.59,0,0,0-3.25-1.43h-.06a4.58,4.58,0,0,0-3.14,1.25Z"/><path
            class="cls-2"
            d="M224.06,121a42.4,42.4,0,0,1-4.49,3.87c-.19.12-.38.25-.56.39a4.59,4.59,0,0,0-.61.48q-1.8,1.31-3.6,2.64c-.94.71-1.86,1.43-2.8,2.15a48.91,48.91,0,0,1-7.61,4.18c-2.5,1.08-5,2.15-7.51,3.17-3.18,1.1-6.54,1.4-9.83,2-1.35.25-2.69.53-4.05.75-1.18.19-2.37.36-3.56.51s-2.48.19-3.72.16-2.68-.14-4-.29c-1.06-.18-2.13-.37-3.2-.48-.83-.08-1.67-.13-2.5-.21-1.49-.33-2.91-.89-4.37-1.34-1.66-.5-3.29-1.06-4.92-1.65l-.06,0L156,137l.56.25c-1.65-.73-3.11-1.83-4.67-2.71-.75-.43-1.5-.85-2.24-1.29a19,19,0,0,1-1.73-1.2,17.33,17.33,0,0,1-1.69-1.63h0c0-.28,0-.56-.05-.84a4.75,4.75,0,0,0-1.23-3.16,4.51,4.51,0,0,0-6.37-.18,4.35,4.35,0,0,0-1.4,3.2c0,.52.06,1,.11,1.55a9,9,0,0,0,.38,2.24,14.68,14.68,0,0,0,.57,1.43,8.79,8.79,0,0,0,1,1.41,14.74,14.74,0,0,0,1.92,2,29.12,29.12,0,0,0,5.26,3.76c1.6.91,3.14,1.95,4.76,2.82a37,37,0,0,0,6,2.44l2.8.88c.89.29,1.77.65,2.68.89a51.39,51.39,0,0,0,6.54.89,42.6,42.6,0,0,0,5.95.64,46.13,46.13,0,0,0,6.54-.41c1.88-.23,3.74-.53,5.6-.88.83-.15,1.66-.34,2.5-.47l2.69-.42c.85-.14,1.69-.29,2.54-.45.51-.09,1-.2,1.52-.31a24.06,24.06,0,0,0,3.86-1.23c1.77-.7,3.52-1.43,5.27-2.18s3.31-1.33,4.89-2.14,3.42-1.85,5.07-2.87c1.49-.93,2.87-2,4.26-3.1,1.08-.83,2.16-1.64,3.25-2.44l.2-.14.27-.2.1-.08h0l.24-.17h0a5,5,0,0,0,.71-.49,4.78,4.78,0,0,0,.5-.39l.19-.14-.18.13,0,0a44.53,44.53,0,0,0,5.14-4.36,4.56,4.56,0,0,0-3.19-7.87,4.29,4.29,0,0,0-3.08,1.24Zm-5.66,4.74h0l0,0-.08,0,.11-.08Z"/><path
            class="cls-2"
            d="M236.27,119.51a4.33,4.33,0,0,0-1.91,1c-1,.8-2,1.6-3.05,2.36l.86-.62c-2.75,2-5.36,4.15-8.09,6.17a21.85,21.85,0,0,1-3.73,2.27,28.27,28.27,0,0,1-5.56,1,3.51,3.51,0,0,0-2.22,1.62,3.64,3.64,0,0,0,1.19,5l.89.4a3.71,3.71,0,0,0,1.9,0c1.12-.14,2.23-.3,3.34-.49.39-.06.78-.15,1.17-.23a16.59,16.59,0,0,0,3.64-1.29,40.67,40.67,0,0,0,4.7-2.83c.8-.51,1.58-1.09,2.36-1.64s1.5-1,2.26-1.5c1.48-1,3-1.85,4.49-2.84l.86-.59.89-.65a4.26,4.26,0,0,0,1.17-1.91,4.29,4.29,0,0,0-2.91-5.33,4.28,4.28,0,0,0-1.21-.18,4.63,4.63,0,0,0-1,.13Z"/><path
            class="cls-2"
            d="M243.81,41.64a7.72,7.72,0,0,0-2.3,2.22,3.35,3.35,0,0,0-.28.53c-.24.53-.48,1.07-.7,1.61-.35.86-.64,1.76-.92,2.65a4.41,4.41,0,0,0,6.34,5.1,4.62,4.62,0,0,0,2.12-2.63c.06-.18.13-.37.2-.55a30.33,30.33,0,0,1,4.31,2.67c.89.83,1.62,1.82,2.44,2.71a22.44,22.44,0,0,0,3.08,2.67,18.93,18.93,0,0,1,2.15,2.49c.62.84,1.28,1.65,1.93,2.47a19.74,19.74,0,0,1,1.67,3.27,59.5,59.5,0,0,1,2,7.34c.3,1.34.4,2.72.64,4.07s.73,2.4,1,3.62c0,.59.05,1.18.06,1.77a21,21,0,0,1-.05,2.38c-.4,2.13-1,4.22-1.54,6.32a48.12,48.12,0,0,1-2.2,6.42l-1,2.13a24.37,24.37,0,0,1-2,3.75c-1.1,1.51-2.15,3-3.3,4.52-1.07,1.22-2.21,2.4-3.31,3.61a30.12,30.12,0,0,1-4.09,3.81l-.12.09c-.82.58-1.65,1.16-2.5,1.69a28.7,28.7,0,0,1-3.27,1.87c-.89.31-1.79.56-2.67.85-1,.33-2.06.69-3.09,1s-2,.63-3,.91-2,.57-3,.75a47.37,47.37,0,0,1-7.44-.36,4.41,4.41,0,0,0-3.21,1.25,4.56,4.56,0,0,0-1.43,3.24,4.61,4.61,0,0,0,1.25,3.21l.92.75a4.64,4.64,0,0,0,2.32.68c2.12.19,4.23.39,6.35.4a17.77,17.77,0,0,0,3.57-.33c1-.19,1.93-.47,2.89-.74,1.73-.48,3.44-1,5.13-1.6a38.1,38.1,0,0,0,6.76-2.52A62.41,62.41,0,0,0,256,123.5l-.78.57c1-.73,1.95-1.47,2.88-2.28A24.46,24.46,0,0,0,260,119.9c1.2-1.29,2.42-2.57,3.59-3.9a63.45,63.45,0,0,0,3.9-5,24.75,24.75,0,0,0,2-3c.4-.79.77-1.59,1.15-2.39.93-1.94,1.87-3.86,2.62-5.89.31-.86.64-1.72.93-2.59s.54-1.86.77-2.8c.44-1.76.91-3.5,1.3-5.27a21,21,0,0,0,.51-3.78c0-.84,0-1.68,0-2.51a11.7,11.7,0,0,0-.07-1.19,13.32,13.32,0,0,0-.34-2.35c-.25-.88-.56-1.76-.78-2.65a22.72,22.72,0,0,1-.42-2.58c-.12-.93-.31-1.85-.51-2.77-.39-1.73-.83-3.43-1.37-5.12a33.87,33.87,0,0,0-2.38-5.82,22.46,22.46,0,0,0-2.21-3.17c-.62-.77-1.22-1.54-1.81-2.33a16.13,16.13,0,0,0-1.73-2.06,30.32,30.32,0,0,0-2.61-2.17c-.54-.5-1-1.06-1.52-1.61-.19-.21-.37-.43-.54-.65l-.6-.7a13.06,13.06,0,0,0-1.9-1.67,26.44,26.44,0,0,0-3.24-2.21c-.65-.36-1.3-.71-2-1a17,17,0,0,0-3.85-1.53,8.08,8.08,0,0,0-1.89-.23,6.27,6.27,0,0,0-3.14.8Z"/><path
            class="cls-3"
            d="M178.11.07a55.63,55.63,0,0,0-5.9.61l-3.47.55c-.29.05-.59.13-.88.2l-2.08.46c-.86.19-1.69.44-2.53.68s-1.61.47-2.41.76c-1.12.41-2.26.8-3.38,1.25l-3,1.21c-.83.34-1.64.74-2.47,1.11-.35.15-.68.36-1,.54s-.87.43-1.28.68c-.82.49-1.65,1-2.46,1.49s-1.85,1.18-2.71,1.86l-2.2,1.69q-2.43,1.86-4.88,3.7a20.63,20.63,0,0,0-3.12,2.62,23.88,23.88,0,0,0-3.77,6.05c-.87,1.92-1.77,3.83-2.47,5.81-.16.46-.31.92-.44,1.39a11,11,0,0,0-.43,3.78c0,.88.16,1.75.27,2.63.06.45.11.9.18,1.35.15,1,.34,2,.57,2.94a13.61,13.61,0,0,0,1.7,4,44.4,44.4,0,0,0,3.6,4.82c.67.8,1.35,1.58,2.05,2.34A14.82,14.82,0,0,0,138.47,57a9,9,0,0,0,3.26,1.27,21,21,0,0,0,2.38.2h0A18,18,0,0,1,141,56.67a14,14,0,0,1-2-2.13,31.42,31.42,0,0,1-2-3.47c-.34-.64-.68-1.28-1-1.92-.72-1.44-1.44-2.86-2.11-4.32a13.29,13.29,0,0,1-.7-2.43c-.12-.68-.22-1.36-.32-2,0-.29-.07-.58-.1-.88L132.7,38a16.71,16.71,0,0,1-.14-3.24A40.41,40.41,0,0,1,135,27.51a24.39,24.39,0,0,1,2.72-4.73A24.5,24.5,0,0,1,141,20c1-.76,1.93-1.51,2.91-2.27,1.54-1.2,3.06-2.44,4.62-3.62.81-.54,1.62-1.08,2.44-1.6s1.95-1.15,2.94-1.7c.33-.19.7-.35,1-.51s.93-.46,1.41-.66l3-1.27,3.22-1.24c.19-.07.39-.11.58-.17l1.41-.43c.52-.16,1-.35,1.57-.47l2.38-.56c.45-.1.9-.23,1.36-.3,1.51-.25,3-.54,4.54-.73A63,63,0,0,1,182.09,4a48.38,48.38,0,0,1,6.24.56c2,.3,4,.58,6,.86l-.54-.08q2.67.41,5.33.84c1.41.23,2.8.48,4.2.78a39.57,39.57,0,0,1,7.26,2.39c2.06.94,4,2,6,3.17.74.42,1.45.91,2.17,1.37,1.58,1,3.13,2.05,4.6,3.21,1.14.95,2.19,2,3.23,3l1.32,1.38c.81.85,1.65,1.66,2.49,2.49s1.71,1.52,2.57,2.26,2,1.57,3,2.35a8.29,8.29,0,0,1,1.39,1.45l.38.51a21.58,21.58,0,0,1,1.35,2.15c.4.77.77,1.56,1.11,2.36a17.34,17.34,0,0,1,1,3.3,49.9,49.9,0,0,1-.16,5.47,23.84,23.84,0,0,0-.06,2.39,24.53,24.53,0,0,1,.07,3.09c-.07.24-.14.47-.23.7a9.5,9.5,0,0,1-1,1.62,19.38,19.38,0,0,1-2.3,2.23l-2.92,2.49h0c1.61-.83,3.22-1.66,4.77-2.61.32-.18.6-.42.9-.63a9.72,9.72,0,0,0,1.88-1.8,6.15,6.15,0,0,0,.81-1.26,5.87,5.87,0,0,0,.38-1.14,15.29,15.29,0,0,0,.27-1.67c.08-.48.15-1,.22-1.45,0,.12,0,.25-.05.37.34-1.72.68-3.45,1-5.18.09-.54.15-1.07.21-1.61a10.23,10.23,0,0,0-.16-3.31,19.69,19.69,0,0,0-.77-2.8c-.34-.94-.73-1.86-1.16-2.77a17.18,17.18,0,0,0-1.3-2.14c-.21-.31-.43-.6-.65-.89a11.15,11.15,0,0,0-1.19-1.46c-.49-.47-1-.87-1.57-1.3s-1.32-1-2-1.54l-2.16-1.85c-.22-.19-.42-.41-.63-.61l-1.44-1.41c-.66-.65-1.3-1.34-2-2a41.28,41.28,0,0,0-5.4-4.74c-1.29-1-2.67-1.81-4-2.67-.69-.44-1.38-.86-2.09-1.26q-1.37-.76-2.73-1.5a46.89,46.89,0,0,0-5.79-2.59,39.38,39.38,0,0,0-7.87-2l.17,0c-2.11-.32-4.23-.65-6.35-1-1.78-.26-3.56-.48-5.34-.75-1.32-.19-2.64-.39-4-.55A45.43,45.43,0,0,0,181,0c-1,0-1.95,0-2.93.07Z"/><path
            class="cls-3"
            d="M152.87,39.84a9.69,9.69,0,0,0-3.28.62,5.79,5.79,0,0,0-1.33.69,3.12,3.12,0,0,0-.88,1h0l.44-.36.4-.2a5.48,5.48,0,0,1,1.27-.31,12.16,12.16,0,0,1,2.89.07,10.13,10.13,0,0,1,2,.61,9,9,0,0,1,1.51.93A8.08,8.08,0,0,1,157,44a4.82,4.82,0,0,1,.35.63,5.32,5.32,0,0,1,.16.69,11.69,11.69,0,0,1,0,2.29,11.65,11.65,0,0,1-.64,2.16,18.75,18.75,0,0,1-2,3.38,9.22,9.22,0,0,1-1.23,1.19,8.68,8.68,0,0,1-.95.51,17,17,0,0,1-2.73.66,5.07,5.07,0,0,1-1.1,0l-.33,0c-1.13-.24-2.23-.54-3.34-.87s-2.48-.81-3.72-1.2h0a40.65,40.65,0,0,0,4.78,3.5,10.87,10.87,0,0,0,1.13.57,8,8,0,0,0,2.07.72,11.52,11.52,0,0,0,3.84-.12,7.52,7.52,0,0,0,3.65-1.9,9.42,9.42,0,0,0,1.25-1.42,9.7,9.7,0,0,0,1-1.49,12.72,12.72,0,0,0,1.33-3.54,11.53,11.53,0,0,0,.23-1.86,12.68,12.68,0,0,0-.14-2,9.28,9.28,0,0,0-.32-1.55,5.18,5.18,0,0,0-1-1.75,6.62,6.62,0,0,0-1.25-1.11,7,7,0,0,0-1.47-.81,8.7,8.7,0,0,0-3.56-.73Zm-.38,1.56h0Zm-4.64.41h0Z"/><path
            class="cls-3"
            d="M90.25,25.4c-.92,0-1.84.15-2.75.22s-1.94.22-2.9.34c-.45.06-.92.1-1.37.19l-1.78.35a42.13,42.13,0,0,0-5.18,1.4l-2.9,1a40.1,40.1,0,0,0-5.82,2.55c-1.1.6-2.19,1.24-3.27,1.88-.67.38-1.33.78-2,1.18-3.43,2.12-6.86,4.24-10.14,6.58a14.86,14.86,0,0,0-2.77,2.35,22.78,22.78,0,0,0-2.21,3.23c-.7,1.18-1.3,2.4-1.91,3.62-.84,1.66-1.6,3.35-2.36,5.06-.26.58-.53,1.16-.77,1.76a13.93,13.93,0,0,0-.59,1.9A24.5,24.5,0,0,0,41,63a12,12,0,0,0,.28,3.92c.18.74.44,1.47.67,2.19a35.56,35.56,0,0,0,1.46,4,14.19,14.19,0,0,0,2.14,3.18,25.33,25.33,0,0,0,3,2.92,24.29,24.29,0,0,0,3.08,2.25c.62.37,1.26.7,1.9,1,.85.44,1.72.86,2.59,1.25l1,.43a7.09,7.09,0,0,0,1.75.42A7.28,7.28,0,0,0,62.63,84c1.79-.73,3.77-1.76,4.33-3.77h0c-.06.1-.13.2-.2.3h0a5.93,5.93,0,0,1-.84.82,6.66,6.66,0,0,1-.91.49,13.65,13.65,0,0,1-3.08.72,8.47,8.47,0,0,1-1.67,0,8.79,8.79,0,0,1-1.44-.41,18.36,18.36,0,0,1-1.63-1l-1.14-.79c-1-.67-1.91-1.35-2.82-2.07s-1.72-1.58-2.54-2.41a30,30,0,0,1-2.56-3,14.47,14.47,0,0,1-1.47-2.67c-.25-.66-.48-1.32-.71-2a20.84,20.84,0,0,1-1-3.49,15.44,15.44,0,0,1,0-2c0-.63.08-1.25.15-1.87a18.52,18.52,0,0,1,.5-2.08,24,24,0,0,1,.95-2.35c.41-.93.83-1.85,1.24-2.78s.89-1.79,1.33-2.69a30.89,30.89,0,0,1,3-5,13.74,13.74,0,0,1,2.15-1.88q3.63-2.55,7.41-4.87c1.37-.85,2.74-1.71,4.13-2.52a59.76,59.76,0,0,1,7.41-3.84c1.21-.46,2.47-.84,3.7-1.24s2.19-.71,3.31-1c.64-.15,1.29-.32,1.94-.44l2.06-.4c.54-.1,1.11-.15,1.66-.21l2-.24-.49.06L90,29.2c.46,0,.94,0,1.4,0l1.4,0c.5,0,1,0,1.51.07s.74,0,1.11.07c.84.08,1.66.17,2.49.29l1.49.23c1.29.23,2.56.47,3.83.76s2.78.69,4.16,1.05,2.68.69,4,1.07a57.46,57.46,0,0,1,6.41,2c1,.45,1.89,1,2.83,1.53L123,37.54h0c-.81-.77-1.62-1.53-2.45-2.27l-.94-.84a17.31,17.31,0,0,0-3.15-2.14c-1.2-.66-2.46-1.22-3.71-1.79-.92-.42-1.87-.81-2.81-1.21l-2.62-1.06c-.77-.3-1.55-.61-2.34-.87-1-.32-1.94-.61-2.92-.88A23.57,23.57,0,0,0,99.31,26c-1-.15-1.93-.31-2.91-.4s-2.13-.16-3.2-.21h-.64c-.77,0-1.54.05-2.31.07ZM73.48,32.74l-.13,0,.13,0ZM54.57,43.85l-.11.08.11-.08ZM48,53.26c-.06.12-.11.24-.16.36.05-.12.1-.24.16-.36ZM65.08,81.81l0,0,0,0Z"/><path
            class="cls-3"
            d="M40,69.1a36.52,36.52,0,0,0-3.78.23,22,22,0,0,0-3.4.78c-.41.12-.81.28-1.21.42s-.83.3-1.23.48c-.91.41-1.82.81-2.7,1.27s-1.79,1-2.67,1.46c-.57.33-1.12.67-1.67,1a23.07,23.07,0,0,0-3.24,2.6,32.19,32.19,0,0,0-2.68,2.91,41.87,41.87,0,0,0-2.65,3.58,43.52,43.52,0,0,0-3.28,6.32l-.77,1.74c-.14.32-.29.64-.42,1a45.49,45.49,0,0,0-2.24,7.23,19.92,19.92,0,0,0,.17,8.42A16.9,16.9,0,0,0,9,110.61c.24.6.5,1.19.8,1.77.39.77.83,1.53,1.26,2.29l1.46,2.55.88,1.56c.18.3.34.6.51.9a19.67,19.67,0,0,0,1.36,2,14.77,14.77,0,0,0,2.64,2.66A35.52,35.52,0,0,0,21.53,127a38.77,38.77,0,0,0,7.68,3.76,38.92,38.92,0,0,0,8.55,1.84c.88.12,1.77.22,2.66.3,1,.1,2.1.19,3.15.26a20.45,20.45,0,0,0,2.71,0,15.93,15.93,0,0,0,4.26-.89,23.33,23.33,0,0,0,7.59-4.52,22.91,22.91,0,0,0,2.77-3,23.21,23.21,0,0,0,2.17-3.39,25.3,25.3,0,0,0,1.55-3.44,12.93,12.93,0,0,0,.74-3.49c.18-2.15-1.37-3.83-3.1-4.86,0,0,0,0,0,0s.28.32.41.49l0,0a8.11,8.11,0,0,1,.9,1.6,6.11,6.11,0,0,1,.27,1,3.66,3.66,0,0,1,0,.74,6.33,6.33,0,0,1-.37,1.14,17,17,0,0,1-.93,1.73A19.67,19.67,0,0,1,61.18,118a32.26,32.26,0,0,1-5.4,5.24,31.65,31.65,0,0,1-6.12,3.29,17.07,17.07,0,0,1-3.45.93,35.52,35.52,0,0,1-5.36-.15c-1.72-.12-3.45-.3-5.16-.54a36.88,36.88,0,0,1-4-.91,33.85,33.85,0,0,1-4-1.45,34.88,34.88,0,0,1-7-4.19c-.39-.32-.77-.66-1.13-1a13.45,13.45,0,0,1-1.2-1.42c-.49-.7-.94-1.44-1.4-2.16-.3-.47-.61-.94-.9-1.42a45,45,0,0,1-3.51-6.1,14.72,14.72,0,0,1-.74-3.08,18.92,18.92,0,0,1,.12-4.32A42.43,42.43,0,0,1,13.6,94.8c.58-1.76,1.31-3.48,2.05-5.18A38.59,38.59,0,0,1,17.55,86a32.29,32.29,0,0,1,2.62-3.75c.83-1,1.71-2,2.64-2.9a28.63,28.63,0,0,1,3-2.6c.59-.41,1.18-.85,1.78-1.25.77-.5,1.52-1,2.31-1.51s1.55-1,2.36-1.39c.41-.2.81-.44,1.23-.62l1.26-.56-.21.08L35.71,71a45.12,45.12,0,0,1,4.4-1.14c1.19-.28,2.4-.53,3.59-.81,0,0,0,0,0,0q-1.83,0-3.66.06Z"/><path
            class="cls-3"
            d="M141.43,95.66c-.59.09-1.17.22-1.75.36-.93.23-1.82.6-2.72.92a33.49,33.49,0,0,0-4.19,1.77h0c.56-.11,1.12-.19,1.69-.28l1.39-.16h-.09l1.8-.16A21.48,21.48,0,0,1,141.8,98c.19,0,.37.09.56.15a7.57,7.57,0,0,1,.76.49,12.1,12.1,0,0,1,1.57,1.63c.22.31.43.63.64,1s.44.77.65,1.16a10.23,10.23,0,0,1,.55,1.16c.17.43.35.85.53,1.28a19.93,19.93,0,0,1,1.07,3.71,11.66,11.66,0,0,1,0,2.13c-.19.92-.44,1.83-.67,2.74a27.47,27.47,0,0,1-1.07,3.33,27,27,0,0,1-3,4.79,15.82,15.82,0,0,1-2.49,2.28c-1.25.87-2.55,1.66-3.84,2.47a38.59,38.59,0,0,1-6.19,3.12,36.71,36.71,0,0,1-4.2,1.36l-1.85.44c-.46.11-.93.25-1.4.33l-2.14.4c-2.76.5-5.53,1-8.32,1.31a55.25,55.25,0,0,1-7.16.3l-3.89-.1c-1.18,0-2.37-.13-3.56-.2-2-.12-3.92-.29-5.86-.57a47.6,47.6,0,0,1-5.91-1.32,46.1,46.1,0,0,1-5.47-2q-2.91-1.32-5.72-2.85a36.69,36.69,0,0,1-5.24-3.4,11.34,11.34,0,0,1-1.84-1.89c-.6-.86-1.15-1.75-1.71-2.64h0A21.07,21.07,0,0,0,68,122.3a13.49,13.49,0,0,0,2,2.7,29.93,29.93,0,0,0,3,2.82,45.49,45.49,0,0,0,7,4.71,31.8,31.8,0,0,0,7.81,3.12A58.73,58.73,0,0,0,96.1,137c1.12.11,2.24.16,3.36.24.83.05,1.67.12,2.5.15l3.64.13a54.9,54.9,0,0,0,5.88-.09c1.93-.13,3.85-.36,5.76-.66,2.12-.33,4.23-.66,6.34-1,.87-.15,1.71-.34,2.56-.54a48.86,48.86,0,0,0,5-1.4c1.28-.44,2.54-.94,3.78-1.49s2.45-1.21,3.64-1.87c.36-.2.7-.43,1-.64l1.69-1a20.81,20.81,0,0,0,5.26-4.25,25.18,25.18,0,0,0,4.29-7.11,38.48,38.48,0,0,0,1.19-4.1,15.17,15.17,0,0,0,.51-3.06,11.9,11.9,0,0,0-.16-2.23,9.81,9.81,0,0,0-.56-2.06,23.61,23.61,0,0,0-4-7.08,10.32,10.32,0,0,0-1.28-1.28,8.82,8.82,0,0,0-3.28-1.85,3.44,3.44,0,0,0-.91-.11,7,7,0,0,0-.92.07ZM80.88,129.2l.05,0-.05,0Z"/><path
            class="cls-3"
            d="M246.41,45.81c1.09.41,2.17.84,3.23,1.3a22.79,22.79,0,0,1,4.73,3,35.93,35.93,0,0,1,4.1,4c1.28,1.45,2.42,3,3.56,4.56a22,22,0,0,1,2.52,4.55c.73,2,1.25,4,1.79,6,.37,1.33.66,2.69,1,4s.52,2.6.77,3.91c.1.54.17,1.08.25,1.62.12.81.24,1.62.34,2.44a22.36,22.36,0,0,1-.05,5,34.89,34.89,0,0,1-2.51,8.1c-.77,1.7-1.58,3.39-2.43,5-.37.73-.74,1.48-1.13,2.2-.25.46-.5.92-.74,1.38a15.43,15.43,0,0,1-1.32,2.07,33.85,33.85,0,0,1-3.49,3.39c-1.26,1.08-2.58,2.11-3.92,3.1a42.69,42.69,0,0,1-4.29,2.74,41.62,41.62,0,0,1-4.53,2.14,66.32,66.32,0,0,1-6.59,2.09,56.22,56.22,0,0,1-7,1.41,34.65,34.65,0,0,1-8.39-.16,27.18,27.18,0,0,1-6.1-1.85c-.61-.28-1.21-.58-1.82-.88a11.2,11.2,0,0,1-1.42-.83,7.74,7.74,0,0,1-.83-.89,8.14,8.14,0,0,1-.72-1.37,19.12,19.12,0,0,1-1-3.8,11.51,11.51,0,0,1-.06-1.76,6.22,6.22,0,0,1,.33-1.06,8.79,8.79,0,0,1,.88-1.36,12,12,0,0,1,1.09-1.16,16.67,16.67,0,0,1,1.53-1.25,13.93,13.93,0,0,1,2.89-1.69,9.47,9.47,0,0,1,1.05-.26,3.55,3.55,0,0,1,.8,0,0,0,0,0,0,0,0,2.88,2.88,0,0,0-1.13-.36,6.73,6.73,0,0,0-1.42.08,13.86,13.86,0,0,0-3.39,1c-2.34,1-4.65,2.58-5.61,5a7.19,7.19,0,0,0-.39,2,13,13,0,0,0,0,2,17.15,17.15,0,0,0,.74,4.13,9.21,9.21,0,0,0,2,3.47,10.45,10.45,0,0,0,3.2,2.22,27.78,27.78,0,0,0,3.89,1.67,26.22,26.22,0,0,0,4.17,1.13,35,35,0,0,0,8.61.46A49.64,49.64,0,0,0,238.1,123a60.74,60.74,0,0,0,8-2.56,40,40,0,0,0,7.34-3.82,68.76,68.76,0,0,0,6.55-5,21.52,21.52,0,0,0,5.28-6.05c.43-.83.86-1.66,1.27-2.5,1-2.11,2-4.23,3-6.37a38.37,38.37,0,0,0,2.64-8,23.58,23.58,0,0,0,.47-4.18,25.67,25.67,0,0,0-.39-4.46c-.31-2.06-.73-4.1-1.16-6.14-.17-.79-.36-1.57-.55-2.36s-.41-1.74-.65-2.61c-.92-3.28-1.7-6.68-3.42-9.65a22.46,22.46,0,0,0-2.28-3.12c-.89-1.06-1.79-2.11-2.78-3.08a29,29,0,0,0-6.4-4.84,19.63,19.63,0,0,0-4.18-1.74c-.69-.19-1.4-.3-2.1-.42s-1.53-.23-2.29-.32c0,0,0,0,0,0Zm-32.29,57.82-.13.1.13-.1Z"/><path
            class="cls-3"
            d="M224.38,126.27l-.36.27h0a24,24,0,0,1-3.41,2c-1.26.63-2.52,1.27-3.8,1.86-3.37,1.58-6.71,3.23-10.17,4.62-.79.3-1.59.59-2.39.87s-1.48.52-2.24.73-1.81.53-2.71.81c-1.51.46-3,.83-4.56,1.23l-1.71.41c-.75.17-1.5.38-2.25.52l-2.45.46c-.6.11-1.21.17-1.82.24a61.24,61.24,0,0,1-13.93.22c-4.4-.74-8.57-2.41-12.78-3.87l-2-.74c-.65-.24-1.3-.45-1.93-.71-.89-.36-1.77-.72-2.66-1.06-.67-.27-1.33-.58-2-.87l-1.14-.51c-.75-.34-1.5-.67-2.24-1a26.27,26.27,0,0,1-5.07-2.72c-.61-.52-1.2-1.06-1.76-1.63,0,0,0,0,0,0a15,15,0,0,0,1.76,3,17.21,17.21,0,0,0,2.71,2.55c.75.6,1.5,1.19,2.27,1.76,1.45,1.07,2.95,2.1,4.48,3,.81.49,1.61,1,2.44,1.44q1.5.78,3,1.53c1.88.93,3.83,1.74,5.79,2.49.91.35,1.85.66,2.78,1,1.23.39,2.46.73,3.72,1a37.28,37.28,0,0,0,4.59.65,43.55,43.55,0,0,0,6.66-.05c1-.07,2-.13,2.93-.23,2.12-.22,4.25-.42,6.35-.82,1.8-.35,3.59-.75,5.37-1.22l3.42-.91c.91-.24,1.8-.56,2.7-.85a39.56,39.56,0,0,0,10.1-4.92c1.82-1.26,3.61-2.54,5.35-3.9,1.47-1.14,2.88-2.33,4.26-3.57.46-.4.89-.85,1.32-1.28a10.84,10.84,0,0,0,1.41-1.81h0Z"/><path
            class="cls-3"
            d="M68.29,63h0l.37.11h0a5.14,5.14,0,0,1,.64.38,9.27,9.27,0,0,1,1.26,1.32,7.06,7.06,0,0,1,.54,1,9.76,9.76,0,0,1,.34,1.93,27,27,0,0,1,0,6.29A10.91,10.91,0,0,1,71,75.68a12.79,12.79,0,0,1-1.4,2.1,14.45,14.45,0,0,1-2,1.91,26.59,26.59,0,0,1-5.16,2.81,7.16,7.16,0,0,1-1.51.4,1.7,1.7,0,0,1-.45,0,11,11,0,0,1-1.84-.61h0a8.55,8.55,0,0,0,1.52,1.6,4.26,4.26,0,0,0,1.91.58,10.18,10.18,0,0,0,2.81-.07,16.84,16.84,0,0,0,5.2-1.48,11.18,11.18,0,0,0,2.16-1.45,12.87,12.87,0,0,0,2-2.26,8.38,8.38,0,0,0,1.45-5.65,17.91,17.91,0,0,0-1.36-5.49,8.67,8.67,0,0,0-2.52-3.94,8.94,8.94,0,0,0-1.78-.95,3.13,3.13,0,0,0-1.2-.24,3.64,3.64,0,0,0-.56.05Zm-6,19.55-.1,0,.1,0Z"/></g>
    </g>
</svg>
