<svg xmlns="http://www.w3.org/2000/svg" viewBox="0 0 266.26 133.42">
    <defs>
        <style>
            .cls-1 {
                fill: #fefefe;
            }
            .cls-2 {
                fill: #ededed;
            }
            .cls-3 {
                fill: #7bc0be;
            }
        </style>
    </defs>
    <title>Slide 7 - Cloud 3Asset 3</title>
    <g id="Layer_2" data-name="Layer 2">
        <g id="Draw_Layer" data-name="Draw Layer"><path
            class="cls-1"
            d="M197.76,0c-2.29,0-4.62.16-6.87.31l-1.7.11-3.13.17L183.93.7a101.47,101.47,0,0,0-10.17.94,55.31,55.31,0,0,0-7.85,1.9,74.56,74.56,0,0,0-9.35,3.57l-.13-.06-.12,0a79.11,79.11,0,0,0-7.46-3.08A49.54,49.54,0,0,0,138.4,1.76a95.5,95.5,0,0,0-10-.57c-2.37,0-4.69.11-6.89.33a73.53,73.53,0,0,0-10,1.61c-.92.22-1.84.48-2.73.74l-.54.15c-2.12.6-4,1.18-5.76,1.77-1.94.66-3.81,1.38-5.72,2.12a57.13,57.13,0,0,0-8.77,4c-1.53.91-3,2-4.41,3l-.22.17a33.46,33.46,0,0,0-3.29,2.79,37.56,37.56,0,0,0-2.69,2.86c-1.38,1.59-2.65,3.18-3.76,4.71a64.85,64.85,0,0,0-4.41,7.34l-.25.46a37,37,0,0,0-2.37,5.18c-.06.17-.11.34-.16.51-.58,0-1.19-.05-1.81-.05a75.48,75.48,0,0,0-8.42.6l-1.07.12L53,39.87c-1.42.15-2.82.38-4.18.6-1.93.31-3.79.7-5.85,1.14-5.38,1.15-10.16,4-14.78,6.71l-.76.44c-1,.57-1.92,1.17-2.85,1.75l-1.68,1c-1.66,1-3.39,2.08-5,3.27l-.19.13c-1,.73-2,1.48-3,2.27a25.91,25.91,0,0,0-3,3.06,58.53,58.53,0,0,0-5.94,7.85c-.6,1-1.2,2.08-1.83,3.38a41.94,41.94,0,0,0-2.34,5.58A35.78,35.78,0,0,0,.28,82.75,27.61,27.61,0,0,0,0,87.11a35.14,35.14,0,0,0,.59,5.63A26.8,26.8,0,0,0,2.4,98.28l0,.11a15.49,15.49,0,0,0,1.84,3.19,36.16,36.16,0,0,0,3.6,4.48c.77.78,1.64,1.57,2.82,2.56,1.81,1.52,3.34,2.7,4.82,3.74A47.39,47.39,0,0,0,24.19,117a23.69,23.69,0,0,0,4.74,1.38,35.23,35.23,0,0,0,6.74.72h0a45,45,0,0,0,6.61-.69c1.05-.17,2.1-.41,3.12-.65l.2,0,.68-.16a25.11,25.11,0,0,0,2.8-.74c1.53-.53,2.79-1,4-1.5.19-.08.39-.18.58-.28a30.79,30.79,0,0,0,4.68,4.53c1,.83,2.12,1.57,3.06,2.19l.38.25c1,.69,2.12,1.41,3.22,2a39.9,39.9,0,0,0,4.33,2.07l.28.12a38.94,38.94,0,0,0,4.15,1.48,68.15,68.15,0,0,0,8.31,1.9c2.78.47,5.61.88,8.35,1.26l1.26.18,4.3.62c2.26.33,4.59.67,6.89,1l.16,0c1,.14,2.06.28,3.1.39,1.27.13,2.63.26,4,.3h.79c1,0,2.08,0,3.39-.17a36.81,36.81,0,0,0,5.29-.8,40.56,40.56,0,0,0,5.44-1.88,38.58,38.58,0,0,0,7.19-3.92,56.76,56.76,0,0,0,6.8-5.26,39,39,0,0,0,3.65-3.86l.67.5a40.55,40.55,0,0,0,3.5,2.3,60.37,60.37,0,0,0,6.28,3.09l1.5.65c1.78.76,3.62,1.56,5.46,2.27a69.2,69.2,0,0,0,16.38,4.2l3.6.44,1.85.2a16.7,16.7,0,0,0,1.94.11h.06a21.7,21.7,0,0,0,2.91-.26l.81-.1a18.11,18.11,0,0,0,3.75-.91c1.75-.59,3.47-1.32,5.14-2l.23-.1c1.82-.77,3.62-1.69,5.36-2.59l.58-.3,1-.49,4.27-2.21.51-.26c.92-.48,1.87-1,2.8-1.47a37.36,37.36,0,0,0,7.78-5.83l1-.91.77.32.15,0a18.29,18.29,0,0,0,1.76.6c.63.18,1.28.32,1.84.43a21.39,21.39,0,0,0,3.9.49h.2c3.81,0,7.35-1.33,10.93-2.81a96.59,96.59,0,0,0,10.81-5.56l.57-.33c.76-.43,1.56-.93,2.46-1.53s1.49-1,2.21-1.57l.45-.34a16,16,0,0,0,3.34-3.57,36.45,36.45,0,0,0,4.41-8.66,37.7,37.7,0,0,0,2-9.69,65.86,65.86,0,0,0,.09-8.54l0-.79c-.05-1.64-.21-3.21-.44-5.06a21.29,21.29,0,0,0-1.69-5.63,18.38,18.38,0,0,0-1.7-3.17,29.42,29.42,0,0,0-3.69-4.56c-1.66-1.66-3.47-3.29-5.54-5,.1-.34.2-.7.28-1.06l0-.07c.09-.36.18-.73.26-1.1.19-.94.35-2,.49-3.27a2.72,2.72,0,0,0,0-.57,20.74,20.74,0,0,0-.25-2.24l-.06-.48a18.38,18.38,0,0,0-.86-3.24c-.48-1.4-1-2.79-1.61-4.13-.15-.36-.3-.71-.44-1.07-.07-.16-.13-.32-.19-.48h0a2.6,2.6,0,0,1-.1-.25l0-.05a40.5,40.5,0,0,0-2.1-4.8,33.33,33.33,0,0,0-3.46-4.87c-1-1.18-2.05-2.29-3.1-3.37l-.39-.39c-1.28-1.32-2.55-2.6-3.89-3.76l-.12-.11a40.29,40.29,0,0,0-4.92-3.87c-.68-.44-1.39-.86-2.08-1.27L229.45,8c-.58-.34-1.2-.64-1.8-.93l-.89-.43a51.32,51.32,0,0,0-8.29-3.28,58.63,58.63,0,0,0-5.84-1.47A87.71,87.71,0,0,0,200,.05c-.71,0-1.47,0-2.25,0Z"/><path
            class="cls-2"
            d="M74,39.38a3.46,3.46,0,0,0-1.74,2.15c-.36,2-.75,4.06-1.14,6.09a31.85,31.85,0,0,0-.75,6.22,26.4,26.4,0,0,0,.18,2.67,19,19,0,0,0,.6,3.67,34.28,34.28,0,0,0,2.58,5.73c.42.81.82,1.64,1.29,2.42a11.92,11.92,0,0,0,2.17,2.82,21.64,21.64,0,0,0,2.88,2.16,39.1,39.1,0,0,0,5.85,3,24.84,24.84,0,0,0,2.66,1,24.22,24.22,0,0,0,3.78.71,22.61,22.61,0,0,0,2.61.25A24.82,24.82,0,0,0,98.73,78a18,18,0,0,0,5.11-1.54,12.47,12.47,0,0,0,2.36-1.55,13.06,13.06,0,0,0,2-2.18,10.85,10.85,0,0,0,1.26-2.09c.48-1,.92-2,1.33-3a15.27,15.27,0,0,0,.64-2.09,25.12,25.12,0,0,0,.59-3.09c.06-.4.1-.8.14-1.21a11.23,11.23,0,0,0-.22-2.77,4.44,4.44,0,0,0-2-2.77,4.57,4.57,0,0,0-3.5-.54,4.62,4.62,0,0,0-2.77,2c-.16.38-.33.75-.49,1.12a4.44,4.44,0,0,0-.11,2.08,10.7,10.7,0,0,1-.06,1.27c-.15.74-.32,1.47-.54,2.19a17.32,17.32,0,0,1-.65,1.83,15.7,15.7,0,0,1-1.11,2c-.18.18-.36.34-.55.5a7.75,7.75,0,0,1-.81.42c-.53.18-1.06.33-1.6.47-.33.08-.65.13-1,.18a18.11,18.11,0,0,1-2.21,0c-.68,0-1.35-.1-2-.19-.52-.09-1-.2-1.56-.34a23.47,23.47,0,0,1-2.36-.82c-.73-.33-1.45-.68-2.17-1.06A26.08,26.08,0,0,1,83.32,65c-.19-.19-.38-.37-.55-.57-.68-1.07-1.29-2.19-1.92-3.29s-1.22-2.17-1.75-3.29a25.19,25.19,0,0,1-.91-4.29,20.53,20.53,0,0,1-.07-2.6,26.83,26.83,0,0,1,.27-2.7c.25-1.56.54-3.1.82-4.65l.15-1a3.63,3.63,0,0,0-.45-1.79,3.6,3.6,0,0,0-2.15-1.73,3.48,3.48,0,0,0-1-.15,3.53,3.53,0,0,0-1.74.45Z"/><path
            class="cls-2"
            d="M128.05,85.66a20.91,20.91,0,0,0-2.92.77,4.08,4.08,0,0,0-2.42,1.76,4,4,0,0,0,4.34,5.94c.92-.27,1.84-.56,2.78-.74.18,0,.35,0,.53,0s.56.16.84.26a20.11,20.11,0,0,1,2.76,1.8,7.13,7.13,0,0,1,.61.62,18.69,18.69,0,0,1,1.26,2.33,6.72,6.72,0,0,1,.22,1,24,24,0,0,1,0,4,19.3,19.3,0,0,1-.87,3.08,14,14,0,0,1-1.2,1.92,15.71,15.71,0,0,1-1.58,1.47,25.92,25.92,0,0,1-4.29,2.2l-1.31.5-1.06.41a4.44,4.44,0,0,0-1.65,1.57,4.46,4.46,0,0,0,4.88,6.68,22.6,22.6,0,0,0,3.89-1.33c.87-.38,1.73-.78,2.57-1.24a18.23,18.23,0,0,0,5.05-4,19,19,0,0,0,2.26-3.16,18.15,18.15,0,0,0,1.47-3.53,21.06,21.06,0,0,0,.87-6.41,31.74,31.74,0,0,0-.28-3.23q-.08-.59-.18-1.17a11.63,11.63,0,0,0-1.07-2.92,19,19,0,0,0-1.14-2c-.41-.62-.86-1.21-1.32-1.79A9.43,9.43,0,0,0,139.46,89c-.16-.12-.32-.25-.49-.36A24,24,0,0,0,134,86a7.2,7.2,0,0,0-1.13-.29,14.06,14.06,0,0,0-2.23-.3h-.33a14.92,14.92,0,0,0-2.22.24Z"/><path class="cls-2" d="M247.31,51.66a.84.84,0,1,0,.85-.83.85.85,0,0,0-.85.83Z"/><path
            class="cls-2"
            d="M244,44.85l-.63.45a3,3,0,0,0-.82,1.36c-.26.61-.51,1.21-.77,1.81a25.59,25.59,0,0,1-1.68,3.25c-.71,1.1-1.41,2.19-2.19,3.24a12.2,12.2,0,0,1-1.35,1.34A19.12,19.12,0,0,1,234,57.69a11.82,11.82,0,0,1-1.86.39l-2.69.23c-.64,0-1.27.11-1.91.15a11.68,11.68,0,0,1-2.29-.1c-1.52-.27-3-.59-4.55-1a35.82,35.82,0,0,0-6.15-1.23,4.07,4.07,0,0,0-4,5.06c.12.33.25.65.38,1a4,4,0,0,0,1.43,1.51,16.14,16.14,0,0,0,3.51,1.3q1.33.3,2.7.51c1.2.2,2.39.39,3.6.55a26.53,26.53,0,0,0,2.81.31l.83,0a15.28,15.28,0,0,0,2.24-.2c.55-.06,1.1-.18,1.65-.28l2.54-.49a18.89,18.89,0,0,0,3.31-.84,11.41,11.41,0,0,0,2.33-1.13c.57-.38,1.13-.77,1.69-1.17l-.07,0A15.73,15.73,0,0,0,241.2,61a14.07,14.07,0,0,0,1.23-1.45c.34-.43.67-.87,1-1.32.6-.88,1.12-1.82,1.65-2.74a62.21,62.21,0,0,0,3.3-7.13,2.94,2.94,0,0,0-.25-2.32,3,3,0,0,0-1.81-1.45,2.79,2.79,0,0,0-.85-.13,3,3,0,0,0-1.47.38Zm-5,17.92.2-.15-.2.15Zm.63-.46-.43.31.49-.35-.06,0Zm0,0h0l.07-.05-.07.05Zm.06-.05-.48.35.5-.36Zm0,0h0l.22-.15-.22.16Zm0,0,.54-.39-.54.39Z"/><path
            class="cls-2"
            d="M222.58,93.65A3.25,3.25,0,0,0,221.53,96c.1,1.29.21,2.58.28,3.86,0,.56.07,1.11.1,1.66a12,12,0,0,1-.07,2,14.81,14.81,0,0,1-.65,2.25,10.11,10.11,0,0,1-.56,1,8.83,8.83,0,0,1-.56.8c-.44.51-.89,1-1.35,1.51-.82.87-1.57,1.8-2.32,2.73a3.53,3.53,0,0,0,3,5.39l.91-.1a3.57,3.57,0,0,0,1.57-.86l.43-.33-.18.13a12.78,12.78,0,0,0,1.79-1.51,27.63,27.63,0,0,0,2-2.45,12.18,12.18,0,0,0,1.19-1.91,11.77,11.77,0,0,0,1.08-2.88c.21-1,.37-2,.49-3.08a17.21,17.21,0,0,0,0-3c-.13-1.72-.24-3.44-.38-5.15a3.64,3.64,0,0,0-.92-2.37,3.38,3.38,0,0,0-2.39-1h-.06a3.37,3.37,0,0,0-2.31.92Z"/><path
            class="cls-2"
            d="M240.37,49.43a29.93,29.93,0,0,0-1.73,3.83,16,16,0,0,1-1.46,2.5c-.5.55-1.06,1.07-1.6,1.58a22.27,22.27,0,0,1-1.73,1.49,32.51,32.51,0,0,1-4.57,2.29,4.63,4.63,0,0,1-.61.17,20,20,0,0,1-3.45.09c-.85-.2-1.66-.51-2.49-.78s-1.53-.47-2.29-.75S219,59,218.3,58.55s-1.28-.79-1.9-1.22a7.25,7.25,0,0,1-.62-.62l-.35-.43-.21-.3-.59-.81a3.89,3.89,0,0,0-1.76-1.08A3.95,3.95,0,0,0,208,56.77a3.72,3.72,0,0,0,.33,3,18.45,18.45,0,0,0,2.89,3.56c.57.47,1.13,1,1.74,1.38l1.19.83,1,.74.61.42a12.79,12.79,0,0,0,2.3,1.18c.81.33,1.62.65,2.43,1l1.19.49a13.35,13.35,0,0,0,3.59.8,21,21,0,0,0,3.07,0,16.59,16.59,0,0,0,2.72-.26,16.93,16.93,0,0,0,2.44-.9l.73-.31q1.13-.47,2.22-1a19.83,19.83,0,0,0,4-2.62,30.43,30.43,0,0,0,3-2.86,16.35,16.35,0,0,0,2.84-4.15c.44-.94.88-1.89,1.26-2.86.12-.33.27-.66.36-1a13.08,13.08,0,0,0,.27-1.36l0,.11a4.3,4.3,0,0,0,.05-2.28A4.38,4.38,0,0,0,246.37,48a4.39,4.39,0,0,0-6,1.42Zm-25.49,6.08.55.76c-.19-.25-.37-.51-.55-.76Zm33.38-2.57a1.1,1.1,0,0,1,0,.18l0-.18Z"/><path
            class="cls-2"
            d="M220.51,94.6l-1.07.42a4.42,4.42,0,0,0-1.68,1.59c-.47.63-.86,1.31-1.31,2-.29.42-.59.83-.89,1.23a26.61,26.61,0,0,1-2.29,2.34c-.69.62-1.44,1.19-2.19,1.74-1.3.89-2.65,1.7-4,2.48a35.89,35.89,0,0,1-4.12,2.16l-2.89,1.1a36.57,36.57,0,0,1-4.31,1.49c-1.35.32-2.75.48-4.12.73s-2.69.49-4,.71l-2,.12c-1,.07-2,.2-3,.33a46.69,46.69,0,0,1-5.55.3q-.65,0-1.29,0c-.56,0-1.13,0-1.69,0-.91,0-1.8-.14-2.7-.26-1.19-.2-2.36-.44-3.53-.73-1.4-.35-2.81-.65-4.16-1.13s-2.87-1-4.3-1.56c-1.11-.41-2.24-.8-3.34-1.24-.52-.27-1-.57-1.55-.84s-1.34-.68-2-1a17.9,17.9,0,0,1-1.95-1.12c-.53-.37-1-.77-1.53-1.18l-.12-.1-.85-.69a4.21,4.21,0,0,0-5.12.53,4.26,4.26,0,0,0-1.33,3c.05.36.09.72.13,1.09a4.3,4.3,0,0,0,1,1.88c.74.61,1.47,1.23,2.18,1.87a19,19,0,0,0,3,2.14c.75.45,1.52.85,2.26,1.3a21.87,21.87,0,0,0,2.39,1.27c2,.93,4.17,1.68,6.27,2.48a45.82,45.82,0,0,0,5,1.64,48.1,48.1,0,0,0,10.78,1.79q.57,0,1.14,0H177c.82,0,1.63,0,2.45,0,1.69-.08,3.39-.28,5.07-.48.74-.07,1.48-.13,2.22-.17a37.41,37.41,0,0,0,3.94-.45c1.78-.28,3.55-.64,5.33-.94a18.73,18.73,0,0,0,2.58-.53c.9-.28,1.78-.6,2.67-.93,2.09-.78,4.18-1.56,6.25-2.4a36.78,36.78,0,0,0,4.71-2.53c.78-.45,1.54-.93,2.3-1.4,1.06-.66,2-1.43,3.05-2.17a22.53,22.53,0,0,0,3.93-3.5c.8-.95,1.6-1.9,2.32-2.91a18,18,0,0,0,1.38-2.09,4.08,4.08,0,0,1,.28-.49,4.51,4.51,0,0,0-3.86-6.89,4.51,4.51,0,0,0-1.09.13Zm-71,10,.2.17-.2-.17Z"/><path
            class="cls-2"
            d="M54.06,101.27a4.64,4.64,0,0,0-.55,3.51,4.75,4.75,0,0,0,2,2.78c.73.49,1.45,1,2.15,1.52A10.53,10.53,0,0,1,59,110.49a23.09,23.09,0,0,0,1.63,1.93c.58.6,1.19,1.16,1.79,1.74a23,23,0,0,1,1.74,2,31.38,31.38,0,0,0,3.62,3.58,30.55,30.55,0,0,0,3,2.3,20.65,20.65,0,0,0,2.55,1.34,25.48,25.48,0,0,0,3.38,1.38c.93.27,1.87.5,2.81.72,2.17.5,4.36.84,6.55,1.15,1.73.24,3.46.36,5.2.45s3.68.17,5.52.19c.88,0,1.77-.1,2.65-.18s1.8-.15,2.7-.24a28.09,28.09,0,0,0,6.2-1c3.83-1.27,7.62-2.74,11.34-4.29l2.66-1.09c.9-.38,1.77-.82,2.66-1.21a4.53,4.53,0,0,0,.21-7.82l-1.11-.49a4.44,4.44,0,0,0-2.37,0c-1.81.7-3.59,1.48-5.39,2.23-1.23.51-2.46,1-3.7,1.5-1.49.55-3,1.12-4.48,1.66a22.23,22.23,0,0,1-4.21,1.21c-1.43.14-2.85.29-4.27.41l-2.6.18c-.85,0-1.7,0-2.55,0-1.57-.06-3.14-.14-4.71-.23-1.39-.08-2.76-.24-4.13-.43s-2.76-.51-4.14-.83c-.77-.18-1.52-.38-2.28-.6a14.62,14.62,0,0,1-1.56-.58c-.62-.29-1.23-.6-1.82-.95a14.09,14.09,0,0,1-1.57-1.08,31.79,31.79,0,0,1-3.12-3c-.49-.56-1-1.13-1.44-1.68s-1.07-1.12-1.63-1.65-1.07-1-1.56-1.59-.93-1.25-1.46-1.82a20.37,20.37,0,0,0-2.54-2.19c-.73-.57-1.49-1.09-2.26-1.61A4.13,4.13,0,0,0,58,99.1a4.72,4.72,0,0,0-4,2.17ZM112,114.92l-.29.11.29-.11Z"/><path
            class="cls-2"
            d="M128.28,87.72a25.34,25.34,0,0,0-3.18,1A3.71,3.71,0,0,0,123,90.26a3.53,3.53,0,0,0,1.15,4.88,3.43,3.43,0,0,0,2.72.42c.66-.21,1.31-.45,2-.65.18.31.35.63.54.94.34.57.7,1.14,1,1.73,0,.15.07.29.1.44a9.2,9.2,0,0,1-.44,3.22,22.56,22.56,0,0,1-2.27,3.31c-.34.41-.68.81-1,1.21a12.77,12.77,0,0,1-1.95,1.8c-1.23.81-2.49,1.58-3.76,2.33-.69.41-1.37.83-2.09,1.2a22.64,22.64,0,0,0-2.29,1.32,4.51,4.51,0,0,0-1.61,1.52,4.35,4.35,0,0,0,4.75,6.5,22.75,22.75,0,0,0,5.87-2.84c.79-.48,1.61-1,2.39-1.47,1.14-.77,2.26-1.57,3.35-2.41a18.59,18.59,0,0,0,2.95-3.31c.56-.7,1.11-1.41,1.62-2.15.29-.41.56-.83.83-1.26s.42-.71.61-1.07a11.34,11.34,0,0,0,1-2.56,23.69,23.69,0,0,0,.41-2.91,12.28,12.28,0,0,0-.55-4.88,7.49,7.49,0,0,0-.91-1.94c-.32-.44-.63-.89-1-1.31-.53-.68-1.11-1.32-1.67-2-.34-.41-.68-.82-1-1.2a5.42,5.42,0,0,0-2.53-1.5,4.67,4.67,0,0,0-1.11-.13,8.81,8.81,0,0,0-1.76.21Z"/><path
            class="cls-2"
            d="M257.39,64.73a4.36,4.36,0,0,0-3.16,3,8.74,8.74,0,0,0-.21,1.88q0,.38,0,.75c0,.37-.05.74-.08,1.11s-.06.76-.08,1.14a12.54,12.54,0,0,0,.08,2c0,.32,0,.64,0,1-.18.93-.36,1.86-.6,2.78a29.2,29.2,0,0,1-.88,3.17A26.27,26.27,0,0,1,251,84.2c-.65,1.07-1.29,2.17-2,3.2-.45.51-.92,1-1.36,1.53-.69.82-1.37,1.65-2.05,2.48a31.39,31.39,0,0,1-3.84,3.72c-1.56,1.05-3.22,1.93-4.84,2.88-.88.52-1.78,1-2.69,1.44s-1.56.78-2.36,1.13a6.25,6.25,0,0,1-.62.16c-.86-.23-1.7-.56-2.54-.87a4.39,4.39,0,0,0-3.47.38,4.55,4.55,0,0,0-1.81,6.19l.69.94a4.52,4.52,0,0,0,2,1.25,24.31,24.31,0,0,0,2.88,1,14,14,0,0,0,1.8.28,3.86,3.86,0,0,0,.68,0,17.27,17.27,0,0,0,1.74-.23,12.37,12.37,0,0,0,2.89-1c1.54-.72,3.11-1.43,4.58-2.28s3.1-1.76,4.62-2.69a28,28,0,0,0,5.06-4.07,39.17,39.17,0,0,0,2.63-3c.59-.69,1.18-1.38,1.78-2.06a22.8,22.8,0,0,0,2.24-2.77c.95-1.49,1.93-3,2.73-4.57.19-.39.39-.78.57-1.18a20.71,20.71,0,0,0,1-2.27c.27-.85.47-1.74.68-2.61s.41-1.65.56-2.49.28-1.57.4-2.36a8.68,8.68,0,0,0,0-2.1l0,.22a18.66,18.66,0,0,1,.08-3.17c0-.35.05-.7.07-1,.12-1.82-.63-4.11-2.37-5l-1.08-.48a4.74,4.74,0,0,0-1.23-.17,4.35,4.35,0,0,0-1.07.13Z"/><path
            class="cls-3"
            d="M187.78,1.9a43.59,43.59,0,0,0-8.68,1.64c-1.24.35-2.46.76-3.68,1.15-1,.34-2.06.81-3.08,1.22-.78.32-1.53.67-2.29,1s-1.63.74-2.41,1.16l-3.19,1.76a35.12,35.12,0,0,0-5.59,3.85c-2,1.68-3.88,3.55-5.72,5.41-.71.73-1.38,1.5-2.06,2.25s-1.1,1.24-1.63,1.88l-1.32,1.61.08-.09c-.54.66-1.05,1.35-1.57,2a21.22,21.22,0,0,0-1.51,2.34,9,9,0,0,0-.93,2.7,0,0,0,0,0,0,0,9.58,9.58,0,0,1,.92-1.42l0,.05a19.35,19.35,0,0,1,3-2.84c.56-.44,1.11-.91,1.68-1.34,1.15-.89,2.28-1.79,3.44-2.66,2.92-2.19,5.81-4.42,8.75-6.57a52.76,52.76,0,0,1,5.41-3.46c1-.53,1.92-1.11,2.91-1.59l3.44-1.65c.48-.23,1-.4,1.48-.6l1.19-.49,2.82-.93c1.31-.44,2.66-.8,4-1.12a38.42,38.42,0,0,1,4.1-.77A42.88,42.88,0,0,1,192,6.26c.77,0,1.54.07,2.3.12.49,0,1,0,1.46.1l1.78.24,5.32.87c1.91.33,3.82.78,5.7,1.28s3.46.91,5.16,1.46c1,.31,2,.58,2.9.93l3.16,1.16c1.12.4,2.21.89,3.31,1.35l1.86.91c.58.28,1.12.59,1.68.91,1.2.7,2.39,1.42,3.56,2.17a89.61,89.61,0,0,1,7.61,5.2,13.12,13.12,0,0,1,1.79,1.86,22.32,22.32,0,0,1,2,3.87c.45,1.18.91,2.37,1.28,3.58.2.68.41,1.36.59,2a18.68,18.68,0,0,1,.39,1.95c.07.85.12,1.7.14,2.56a33.81,33.81,0,0,1,0,3.9,20.57,20.57,0,0,1-1.11,3.41q-.75,1.63-1.59,3.24a13.74,13.74,0,0,1-1,1.58c-.38.56-.77,1.1-1.17,1.64l.29-.36-.15.19-.29.35-.26.33,0,0a12.85,12.85,0,0,1-2,2c-1.34.86-2.74,1.64-4.11,2.46l-2.2,1.33a36.05,36.05,0,0,1-4.88,2.67,9,9,0,0,1-1.78.38,6.28,6.28,0,0,1-1.37,0,22.36,22.36,0,0,1-3.09-.92c-.74-.26-1.48-.52-2.21-.81-1.85-.74-3.69-1.49-5.54-2.22h0c1,.81,2.06,1.61,3.1,2.4.64.49,1.3,1,2,1.41.84.56,1.69,1.09,2.55,1.61.48.28,1,.53,1.49.76a7.94,7.94,0,0,0,1.65.6,9.65,9.65,0,0,0,2.08.19,9.13,9.13,0,0,0,1.73-.16,10.71,10.71,0,0,0,1.85-.57,29.71,29.71,0,0,0,3.79-1.78q1.26-.67,2.49-1.41t2.58-1.59a20.53,20.53,0,0,0,3.05-2.28A16.66,16.66,0,0,0,241.6,55q.47-.61.9-1.26c.5-.73,1-1.48,1.4-2.24A27.08,27.08,0,0,0,245.16,49c.43-.93.82-1.87,1.19-2.83.19-.5.34-1,.48-1.54a11.7,11.7,0,0,0,.38-3.38c0-1,0-2-.05-3s-.12-2-.24-3a27.13,27.13,0,0,0-.51-2.69c-.22-.91-.46-1.8-.72-2.7-.12-.4-.28-.79-.42-1.18-.23-.64-.45-1.27-.7-1.9a23.88,23.88,0,0,0-1.59-3.4,11.51,11.51,0,0,0-1.17-1.6,10.49,10.49,0,0,0-1.49-1.49c-1-.84-2-1.64-3.08-2.4q-2.38-1.73-4.86-3.34c-.82-.54-1.66-1.07-2.49-1.59l-.89-.53c-.42-.25-.82-.54-1.26-.75L225,10.31c-.41-.2-.85-.37-1.28-.55L221.78,9c-.78-.33-1.57-.61-2.36-.91s-1.59-.59-2.39-.86A114.37,114.37,0,0,0,205.84,4c-1.88-.43-3.78-.78-5.67-1.15l-1.64-.33c-.6-.12-1.22-.19-1.83-.28-.37-.06-.74-.13-1.11-.16l-1.88-.15c-1-.07-1.89-.11-2.84-.11s-2.06,0-3.09.12ZM148,25l.1-.13L148,25Z"/><path
            class="cls-3"
            d="M128.63,5.64,125.46,6c-1.83.22-3.65.58-5.47.91-.84.15-1.68.35-2.53.53s-1.79.36-2.68.58-1.84.44-2.74.72-1.93.56-2.87.89q-5.52,1.93-11,4c-.71.27-1.42.56-2.1.88s-1.09.6-1.62.92-1,.63-1.48,1c-.79.5-1.57,1-2.35,1.54a22.64,22.64,0,0,0-6.15,5.59q-1.78,2.5-3.5,5.06a50.67,50.67,0,0,0-4.75,8.23,29,29,0,0,0-1.88,6.4l-.27,1.53A17.17,17.17,0,0,0,73.83,47a14.24,14.24,0,0,0,.2,2.6,17.31,17.31,0,0,0,.52,2.24,11,11,0,0,0,1.2,3,26,26,0,0,0,3.76,4.49c1,1,2,2.07,3.17,3S85,64.19,86.15,65c.52.36,1,.71,1.59,1a21.71,21.71,0,0,0,2.43,1.17,19.19,19.19,0,0,0,3.67,1,28,28,0,0,0,3.16.46l1.63.13a14.24,14.24,0,0,0,1.6,0,9.31,9.31,0,0,0,2.57-.45,9.81,9.81,0,0,0,1.94-.91A7.83,7.83,0,0,0,106.39,66a21,21,0,0,0,1.83-2.47c1.1-1.73,2.2-3.7,2.08-5.81a4.66,4.66,0,0,0-1.69-3.05,4.19,4.19,0,0,0-1.39-.87,10.44,10.44,0,0,0-1.84-.42q-.93-.13-1.86-.18a7.8,7.8,0,0,0-1.45.09,4.49,4.49,0,0,0-1.62.61h0l.3,0h0a4.82,4.82,0,0,1,1.14,0,8.48,8.48,0,0,1,1.95.61,13.42,13.42,0,0,1,2.32,1.28,2.35,2.35,0,0,1,.3.33,5,5,0,0,1,.44.82c.05.16.09.32.13.49v0c-.05.15-.09.3-.15.45a8.39,8.39,0,0,1-.87,1.35c-.42.48-.87.94-1.32,1.39a22.62,22.62,0,0,1-1.92,1.75l-.6.33a8.85,8.85,0,0,1-1,.27,17.63,17.63,0,0,1-3.08-.17c-.86-.1-1.72-.2-2.58-.32a19.91,19.91,0,0,1-4.22-1.12A22.68,22.68,0,0,1,88.87,60c-.91-.58-1.79-1.2-2.63-1.86-.49-.41-1-.82-1.42-1.26l-1.31-1.3a32.19,32.19,0,0,1-2.94-3.24,9.32,9.32,0,0,1-.57-1c-.15-.43-.28-.87-.42-1.31a16.91,16.91,0,0,1-.51-2.1,13.21,13.21,0,0,1,.1-2.74c0-.4.11-.79.17-1.19a28.67,28.67,0,0,1,1.74-6.18,49.7,49.7,0,0,1,4.15-7c1.21-1.79,2.4-3.61,3.73-5.31A21.36,21.36,0,0,1,92,22.74c1.11-.78,2.24-1.54,3.37-2.28a28.77,28.77,0,0,1,3.56-2.08c.85-.39,1.74-.72,2.62-1.06l-.3.12c3.6-1.37,7.19-2.72,10.87-3.86a105.43,105.43,0,0,1,11.34-2.67c1.92-.37,3.86-.6,5.8-.84a34.26,34.26,0,0,1,7.3,0c1.16.2,2.32.47,3.48.72l3.44.76c1.06.23,2.09.52,3.14.8a20.57,20.57,0,0,1,2.58,1c.65.31,1.28.64,1.91,1l2.21,1.32q2.46,1.47,4.95,2.91h0c-1.5-1.48-3-3-4.56-4.4-.71-.67-1.45-1.31-2.19-2-.38-.32-.79-.6-1.19-.9a11.11,11.11,0,0,0-1.07-.72c-.44-.26-.89-.51-1.34-.76s-.91-.43-1.37-.64c-1-.46-2-.86-3-1.25s-1.78-.66-2.67-1a32,32,0,0,0-3.68-1.16,18.61,18.61,0,0,0-3.94-.39h-.42a34.66,34.66,0,0,0-4.2.23ZM107,57.19v0Z"/><path
            class="cls-3"
            d="M56.59,42.65a46.17,46.17,0,0,0-5,.74c-.94.17-1.87.35-2.81.54A44.68,44.68,0,0,0,43,45.52a60.07,60.07,0,0,0-8.86,4.34c-1.67.92-3.31,1.88-5,2.81a53.9,53.9,0,0,0-7.78,5c-1.25,1-2.43,2.09-3.6,3.19-.67.62-1.33,1.24-2,1.87-1.37,1.35-2.76,2.69-4,4.14A29.84,29.84,0,0,0,9,70.47a27.75,27.75,0,0,0-1.9,3.87C6.47,75.66,6,77,5.47,78.36s-.83,2.45-1.19,3.69a32.49,32.49,0,0,0-.91,4.47,24.1,24.1,0,0,0,.4,8.59,26.82,26.82,0,0,0,1.14,3.63,38.68,38.68,0,0,0,1.81,4.12,33.33,33.33,0,0,0,2,3.4,25.53,25.53,0,0,0,2.68,3.52,25,25,0,0,0,6.79,4.69c1.29.68,2.62,1.27,4,1.85a44,44,0,0,0,4.15,1.55,34.41,34.41,0,0,0,8.23,1.45,27.55,27.55,0,0,0,4-.14,40.1,40.1,0,0,0,4.74-.69,30.46,30.46,0,0,0,6.92-2.44l1.36-.67c.45-.23.87-.51,1.3-.76a9,9,0,0,0,1.59-1.17A7,7,0,0,0,55.58,112a9.77,9.77,0,0,0,.78-1.71,12.93,12.93,0,0,0,.56-2.18,12.45,12.45,0,0,0,.22-3.65,3.9,3.9,0,0,0-1.58-2.59,7.82,7.82,0,0,0-2.13-1.19h0A8.47,8.47,0,0,1,54.71,102a7,7,0,0,1,.66,1.07,4.44,4.44,0,0,1,.22.87,2.08,2.08,0,0,1,0,.35,12.47,12.47,0,0,1-.85,2.59,15.86,15.86,0,0,1-1.6,2.73,7,7,0,0,1-.83.8,5.29,5.29,0,0,1-.74.4l-1.61.57c-.58.21-1.19.35-1.78.53a53,53,0,0,1-8.92,1.8c-1.21.13-2.43.23-3.66.25a27.31,27.31,0,0,1-3.83-.28,36.33,36.33,0,0,1-4.61-1.09,46.32,46.32,0,0,1-4.6-1.75c-1.14-.52-2.25-1.08-3.35-1.67a22.84,22.84,0,0,1-3.21-2,16.49,16.49,0,0,1-2.39-2.55c-.74-1-1.44-2.11-2.08-3.22A32.06,32.06,0,0,1,9.7,97.56c-.34-.89-.65-1.8-.92-2.72a21.42,21.42,0,0,1-.6-3,23.34,23.34,0,0,1,.12-5.35A38.18,38.18,0,0,1,9.77,81c.64-1.89,1.35-3.77,2.14-5.61a24.52,24.52,0,0,1,1.66-3.12A14.19,14.19,0,0,1,14.52,71c1.35-1.61,2.8-3.13,4.29-4.62.75-.76,1.53-1.49,2.31-2.22a52,52,0,0,1,4.56-4c2.62-1.84,5.46-3.31,8.24-4.88l3.58-2a61.21,61.21,0,0,1,6.21-3.14c2.62-1,5.36-1.59,8.06-2.33l2.17-.6A36.24,36.24,0,0,1,58,46.16a11.19,11.19,0,0,1,1.92,0A41.75,41.75,0,0,1,65.73,48c2,.72,4.12,1.32,6.22,1.9h0c-1.65-1.06-3.32-2.07-5-3.14a54.5,54.5,0,0,0-4.71-2.94A14.33,14.33,0,0,0,60.39,43a10.62,10.62,0,0,0-1.77-.33,9.67,9.67,0,0,0-1.2-.08c-.28,0-.55,0-.83,0Z"/><path
            class="cls-3"
            d="M130.09,85a5,5,0,0,0-1.18,1.08,16.26,16.26,0,0,0-1.17,1.56,30.44,30.44,0,0,0-2.16,3.65,0,0,0,0,0,0,0,31.49,31.49,0,0,1,4-3.48,9.66,9.66,0,0,1,1.24-.74,3,3,0,0,1,.43-.11,5.88,5.88,0,0,1,.94,0,11,11,0,0,1,2.25.67,19.79,19.79,0,0,1,3.68,2.48,24.93,24.93,0,0,1,3.92,3.9,10.92,10.92,0,0,1,1,1.7,7.79,7.79,0,0,1,.22.83c.06.92,0,1.84,0,2.77a29.47,29.47,0,0,1-.24,3,14.13,14.13,0,0,1-.76,2.78,16.82,16.82,0,0,1-2,3,37.81,37.81,0,0,1-3.08,3.25l-1.52,1.43c-.95.89-1.9,1.81-2.93,2.61a23.56,23.56,0,0,1-2.58,1.48c-.87.43-1.74.85-2.63,1.24-1.59.7-3.2,1.35-4.82,2l-4.42,1.51c-1.42.48-2.89.86-4.35,1.22a54.29,54.29,0,0,1-6.07,1.07c-2.62.28-5.26.34-7.89.4-.91,0-1.81,0-2.72,0a51.24,51.24,0,0,1-6.31-.48A36.36,36.36,0,0,1,85,122.4c-1.87-.62-3.7-1.39-5.5-2.19-1.26-.56-2.52-1.13-3.79-1.68l.55.25q-2.42-1.08-4.86-2.1c-1.17-.53-2.34-1.05-3.47-1.67a23.46,23.46,0,0,1-3.42-2.25,24.61,24.61,0,0,1-2-1.86,20.41,20.41,0,0,1-1.64-2.07l-1.57-2.19a0,0,0,0,0,0,0c.36,1.09.68,2.2,1.1,3.27.22.56.44,1.11.7,1.66a13.62,13.62,0,0,0,1.08,1.84,21,21,0,0,0,5.62,5.51,65,65,0,0,0,6.38,3.8c1.18.64,2.36,1.27,3.58,1.84,1.4.67,2.85,1.25,4.3,1.81a36.26,36.26,0,0,0,3.82,1.25,42.32,42.32,0,0,0,4.59.91c1.32.2,2.65.36,4,.45s2.47.13,3.69.12l3.37-.06c1.63,0,3.25-.07,4.88-.17a54.05,54.05,0,0,0,8.68-1.26c1.69-.39,3.37-.85,5-1.4l3.59-1.2c.81-.27,1.61-.6,2.41-.91,1-.37,1.94-.74,2.9-1.14s1.86-.78,2.77-1.2,1.7-.81,2.54-1.25a20.85,20.85,0,0,0,4.31-3.29c.66-.59,1.3-1.21,2-1.82.92-.87,1.81-1.77,2.65-2.72a37.25,37.25,0,0,0,2.7-3.45,13.47,13.47,0,0,0,1.74-3.75,14.56,14.56,0,0,0,.41-1.94c.14-.9.25-1.81.31-2.72a31.39,31.39,0,0,0,0-3.88,9,9,0,0,0-.35-2.19,10,10,0,0,0-1-2.15,17.77,17.77,0,0,0-6-5.52,23.61,23.61,0,0,0-3.55-1.88,11.7,11.7,0,0,0-3.95-.89l-.44,0a6,6,0,0,0-3,.74Z"/><path
            class="cls-3"
            d="M227.15,94.1q0,.41-.09.81v0a15.65,15.65,0,0,1-.45,2c-.12.39-.27.76-.41,1.14-.2.55-.44,1.07-.68,1.6a39.19,39.19,0,0,1-3.83,6.77,19.27,19.27,0,0,1-3,2.81c-2.08,1.47-4.27,2.73-6.43,4-.82.5-1.62,1-2.45,1.46a48.3,48.3,0,0,1-5.3,2.49c-1.37.52-2.77,1-4.16,1.45a40.08,40.08,0,0,1-7.63,1.86,43.94,43.94,0,0,1-7.16-.2c-1.24-.09-2.47-.2-3.71-.31-2.73-.24-5.45-.47-8.16-.86a61.92,61.92,0,0,1-7.11-1.61c-1.15-.34-2.31-.61-3.46-.94s-2.51-.71-3.77-1c-1-.26-2-.55-3-.84a39.72,39.72,0,0,1-4.26-1.48A13.09,13.09,0,0,1,150,112a40.75,40.75,0,0,1-3-3.06c-.78-.84-1.58-1.69-2.38-2.52a0,0,0,0,0,0,0c.42,1.1.85,2.2,1.3,3.29a26.75,26.75,0,0,0,1.8,3.83,10.85,10.85,0,0,0,2.67,2.82,27.63,27.63,0,0,0,3.48,2.31,47.55,47.55,0,0,0,4.34,2.18c1.09.48,2.17,1,3.28,1.43s2.19.83,3.29,1.22a43.37,43.37,0,0,0,6,1.55c1.81.35,3.64.61,5.47.81,2.1.23,4.19.45,6.29.65.84.08,1.68.16,2.52.22,1.6.12,3.2.29,4.8.33a36.69,36.69,0,0,0,13-2.56c1.27-.45,2.53-.89,3.77-1.39a51.6,51.6,0,0,0,7.27-3.58c.59-.36,1.16-.76,1.73-1.15.79-.54,1.58-1.07,2.34-1.64a36.54,36.54,0,0,0,4.29-3.76,17.45,17.45,0,0,0,3.57-5.53,24,24,0,0,0,1.29-5c.12-.77.28-1.55.36-2.34s.15-1.45.17-2.19a13.26,13.26,0,0,0,0-1.41,12.09,12.09,0,0,0-.11-1.21,6.76,6.76,0,0,0-.36-1.24h0Z"/><path
            class="cls-3"
            d="M244.07,44h0l.43.16a5.58,5.58,0,0,1,1.1.71,23,23,0,0,1,2.26,2.37c.35.41.72.82,1.06,1.24,1.22,1.55,2.46,3.07,3.63,4.65,1.38,1.93,2.66,3.92,3.87,5.95a51.08,51.08,0,0,1,3.39,6.68,15.54,15.54,0,0,1,.82,3.06,29.19,29.19,0,0,1-.2,6.54,49.24,49.24,0,0,1-1.17,5.36,41.53,41.53,0,0,1-1.95,5.37,35.41,35.41,0,0,1-1.91,3.6,28.07,28.07,0,0,1-2,2.75c-.77,1-1.55,2-2.31,3a38.18,38.18,0,0,1-6.22,6.42,18.66,18.66,0,0,1-3.55,2,25.68,25.68,0,0,1-3,.89c-1,.24-2.1.38-3.16.53h0c-1.69.19-3.38.41-5.07.62h0q2,.43,4,.78a28.73,28.73,0,0,0,5.48.51,18.17,18.17,0,0,0,4-.54,16.65,16.65,0,0,0,4.06-1.65,22,22,0,0,0,3.34-2.33,30.46,30.46,0,0,0,3.07-2.94c1-1.1,1.91-2.27,2.82-3.44s2-2.49,2.82-3.83A41,41,0,0,0,263.32,85a46.38,46.38,0,0,0,2.18-7.85,39.42,39.42,0,0,0,.76-6.94,20.49,20.49,0,0,0-.31-3.75,16.56,16.56,0,0,0-.89-2.91,32.75,32.75,0,0,0-7.78-11.34c-.75-.74-1.54-1.45-2.36-2.13s-1.53-1.29-2.35-1.86-1.45-1-2.18-1.51-1.24-.77-1.87-1.15a16.56,16.56,0,0,0-1.78-.91,10.47,10.47,0,0,0-1.36-.49,3.91,3.91,0,0,0-1.07-.12Z"/></g>
    </g>
</svg>
