<svg xmlns="http://www.w3.org/2000/svg" viewBox="0 0 139.79 96.68">
    <defs>
        <style>
            .cls-1 {
                fill: #fefefe;
            }
            .cls-2 {
                fill: #ededed;
            }
            .cls-3 {
                fill: #7bc0be;
            }
        </style>
    </defs>
    <title>Slide 7 - Cloud 4Asset 4</title>
    <g id="Layer_2" data-name="Layer 2">
        <g id="Draw_Layer" data-name="Draw Layer"><path
            class="cls-1"
            d="M115.86,42.5a3.72,3.72,0,0,0-.37,2.86,3.88,3.88,0,0,0,1.7,2.23,22.74,22.74,0,0,0,2.1,1.29,9.2,9.2,0,0,1,1,.54c.45.42.86.89,1.33,1.3A16.09,16.09,0,0,1,122.93,52c.32.43.62.86.91,1.3a5,5,0,0,0-1.76,1.3,4,4,0,0,0-2.3.54,3.79,3.79,0,0,0-1.84,2.39c0,.35-.09.71-.13,1.06h0v.06c-.14,1.27-.2,2.52-.23,3.79,0,.52,0,1,0,1.55a17.84,17.84,0,0,0,.23,2.91,4,4,0,0,0,1,1.77,3.63,3.63,0,0,0,.69.55c-.17.28-.35.55-.53.82a20.83,20.83,0,0,1-2.65,2.49c-.35.24-.67.5-1,.77a3.77,3.77,0,0,0-1.16,2.88,4,4,0,0,0,.54,2A3.88,3.88,0,0,0,117.09,80a5.74,5.74,0,0,0,2.44,0l.58-.11c.51-.09,1-.23,1.53-.36a7.74,7.74,0,0,0,2.3-1,20.32,20.32,0,0,0,1.77-1.32,19.74,19.74,0,0,0,3.32-3.8,24.3,24.3,0,0,0,2-2.71,17.37,17.37,0,0,0,1.84-4.13,32.4,32.4,0,0,0,.92-4.79c.1-.74.14-1.47.17-2.22a14,14,0,0,0-.27-2.73,19.93,19.93,0,0,0-.75-2.72,16.44,16.44,0,0,0-1.68-3.7A31.55,31.55,0,0,0,129,47.3a13.13,13.13,0,0,0-2.31-2.1,30.22,30.22,0,0,0-2.7-2.21c-.37-.24-.76-.45-1.14-.66-.64-.35-1.25-.76-1.86-1.17a3.13,3.13,0,0,0-1.77-.52,3.92,3.92,0,0,0-3.31,1.86Z"/><path
            class="cls-1"
            d="M119.25,41a3.81,3.81,0,0,0-1,3.62,3.74,3.74,0,0,0,1,1.64,3.29,3.29,0,0,0,1.12.75c.24.15.48.32.71.48a45.36,45.36,0,0,1,5.55,6c.27.4.52.8.75,1.22s.48,1.09.76,1.61.65,1.11,1,1.67c.05.16.1.33.14.5.08,1,.08,2,.09,3s0,2.12,0,3.17A25.39,25.39,0,0,1,128.11,69a9.76,9.76,0,0,1-.77,1.27,15.54,15.54,0,0,1-1.48,1.56,15.66,15.66,0,0,1-2.22,1.26,19.11,19.11,0,0,1-2.29.65,2.77,2.77,0,0,0-.22-.46,2.87,2.87,0,0,0-5.24.68l-.12.61a5.79,5.79,0,0,0-.2,1.32,4.12,4.12,0,0,0,.45,1.83,4.68,4.68,0,0,0,1,1.18c.2.15.4.3.59.46.37.16.73.31,1.1.44a6.46,6.46,0,0,0,1.69.25c.41,0,.83,0,1.24,0a17.3,17.3,0,0,0,8.19-2.2,11.59,11.59,0,0,0,2.81-2.32,16,16,0,0,0,1.93-2.49,17.46,17.46,0,0,0,1.23-2.76,20.79,20.79,0,0,0,.75-2.27,17.66,17.66,0,0,0,.58-3.12c.06-.89.07-1.79.08-2.68a34.49,34.49,0,0,0-.32-5.83,9.79,9.79,0,0,0-.82-2.13,8.67,8.67,0,0,0-.43-.79c-.39-.66-.74-1.33-1.06-2a14.17,14.17,0,0,0-2-3.17l-1.77-2.12q-1.56-1.86-3.29-3.58a17.47,17.47,0,0,0-2.31-1.89,5.17,5.17,0,0,0-2.94-.92,3.92,3.92,0,0,0-3,1.26Z"/><path
            class="cls-2"
            d="M125.16,47.59a3.91,3.91,0,0,0,.39,3,3.86,3.86,0,0,0,1.89,1.6l-.35-.14q.41.22.78.48a16.44,16.44,0,0,1,1.44,1.57c.56.66,1.18,1.25,1.75,1.89a8.49,8.49,0,0,1,.58,1.07,2.29,2.29,0,0,1,.12.37c.05.91,0,1.83,0,2.75-.05,1.2-.14,2.39-.25,3.59a18,18,0,0,1-.49,2.27c-.5.9-1.14,1.74-1.69,2.62s-.95,1.47-1.48,2.18A15.83,15.83,0,0,1,125.73,73a11.48,11.48,0,0,1-1,.67c-.31.1-.62.18-.93.26-.08-.12-.15-.24-.22-.36a4,4,0,0,0-6.91,4c.22.35.43.7.66,1A8,8,0,0,0,119.7,81a7.12,7.12,0,0,0,4.56.89,11.89,11.89,0,0,0,5.64-2.09,17.36,17.36,0,0,0,3.43-3.14,49.77,49.77,0,0,0,3.23-4.54c.43-.68.93-1.32,1.31-2a12.56,12.56,0,0,0,1.33-4.35c.31-2.16.46-4.3.56-6.47a14.92,14.92,0,0,0-.06-2.59,9.42,9.42,0,0,0-.36-1.86,15.15,15.15,0,0,0-.73-1.71,10.33,10.33,0,0,0-.68-1.27,38.59,38.59,0,0,0-3.12-3.62,12.12,12.12,0,0,0-1.53-1.59,18.65,18.65,0,0,0-1.51-1.14,5.72,5.72,0,0,0-2.85-.8h-.19a3.94,3.94,0,0,0-3.57,2.87Z"/><path
            class="cls-2"
            d="M126.25,70.5l-.07.06A18.13,18.13,0,0,1,124,71.63c-.74.3-1.47.57-2.22.81a11.8,11.8,0,0,1-1.88,0l-.6-.11a4.07,4.07,0,0,0-3,.38,3.88,3.88,0,0,0-1.39,5.3,4.08,4.08,0,0,0,1.3,1.35,4.15,4.15,0,0,0,1,2,4.36,4.36,0,0,0,4.21,1.14,14.93,14.93,0,0,0,1.49-.42c.52-.17,1-.37,1.54-.57a8.55,8.55,0,0,0,3.39-2,4.92,4.92,0,0,0,.59-.79A8.61,8.61,0,0,0,131,76.89l.31-.34a4.1,4.1,0,0,0,1.65-3.28A4,4,0,0,0,131,69.89a3.83,3.83,0,0,0-2-.54,4.19,4.19,0,0,0-2.77,1.15Z"/></g>
        <g id="Draw_Layer-2" data-name="Draw Layer"><path
            class="cls-1"
            d="M99.71,0l-.62,0c-1.16,0-2.35.07-3.52.2a37.57,37.57,0,0,0-5.1.78l-.83.21-.88.22c-3.85,1-7.29,1.9-10.31,3.85A53.15,53.15,0,0,0,66.74,16c-1.6,1.91-2.84,3.39-4,4.79l-.29.35c-.92,1.12-1.87,2.27-2.73,3.46l-.31.41-.08.12-1.6-1.36a39.54,39.54,0,0,0-4.38-3.35A24.12,24.12,0,0,0,48,17.86a24.36,24.36,0,0,0-3.57-.75l-.17,0a41.71,41.71,0,0,0-6.15-.64H37.9a36.55,36.55,0,0,0-5.68.59,36.63,36.63,0,0,0-4.19.91,28.07,28.07,0,0,0-8.7,3.87,41.92,41.92,0,0,0-4.39,3.41,37.78,37.78,0,0,0-2.86,3A78.25,78.25,0,0,0,6,36a36.66,36.66,0,0,0-4.48,9,22.65,22.65,0,0,0-1,5.7,27.81,27.81,0,0,0,.46,6,22,22,0,0,0,1,3.73l0,.1c.58,1.72,1.31,3.57,2.21,5.66.44,1,.91,2.06,1.37,3.06l.19.44a25.8,25.8,0,0,0,4.5,6.9,18.11,18.11,0,0,0,2.2,1.89l.64.5a15.44,15.44,0,0,0,1.53,1,18.57,18.57,0,0,0,1.72.87l.12.05C17.81,81.5,19,82,20.3,82.51a53.85,53.85,0,0,0,7.71,2c.77.15,1.59.26,2.39.37l1.11.16c.25.27.53.53.8.77a35.68,35.68,0,0,0,4.31,3.24,50.77,50.77,0,0,0,16.83,6.44,49.94,49.94,0,0,0,9.17,1h.72a52.2,52.2,0,0,0,9.86-1.33A54.31,54.31,0,0,0,86.78,90c.3-.15.59-.31.88-.48.75.15,1.53.25,2.29.34l.67.09a26,26,0,0,0,3.27.18l1.14,0a51.74,51.74,0,0,0,9.22-.88c7.63-1.57,13.81-6.65,19.28-11.51,0-3.75,0-7.52.08-11.27q.21-7,.43-14c-.07-3.44-.13-6.88-.2-10.32-.15-8.09-.4-16.19-.44-24.28l-.06-11.7-2.53-1.32c-.25-.13-.5-.24-.75-.35l-.37-.16L119,4c-1-.44-2-.9-3-1.3A38.69,38.69,0,0,0,106.24.46c-1.1-.13-2.23-.22-3.32-.31l-.68,0c-.55,0-1.28-.1-2-.1Z"/><path class="cls-3" d="M122.75,39.29c-.68.3-1.35.61-2,.94s-1.11.56-1.65.85-1.14.69-1.74,1h0a21.33,21.33,0,0,0,2.65.19c.86,0,1.73.06,2.6,0l1.26,0v-.14l-.06-3.3c-.34.16-.69.3-1,.45Z"/><path
            class="cls-2"
            d="M55,24.36a3.92,3.92,0,0,0-2,2.44c-.22,1.35-.45,2.69-.64,4a9.88,9.88,0,0,0,.26,4.52,11.67,11.67,0,0,0,1.58,3.18,22.53,22.53,0,0,0,2.3,2.77c.62.62,1.26,1.21,1.92,1.79a25.51,25.51,0,0,0,2.9,2.28,35.71,35.71,0,0,0,5.95,2.93,16,16,0,0,0,2.32.73,17.38,17.38,0,0,0,2.14.36,4.38,4.38,0,0,0,.81,0,13.77,13.77,0,0,0,1.82-.27,12.48,12.48,0,0,0,2-.67c.64-.25,1.27-.48,1.88-.79a12.43,12.43,0,0,0,2.11-1.5c.39-.33.76-.67,1.12-1a13,13,0,0,0,1.88-2.3,19.8,19.8,0,0,0,1.22-2.49,4.52,4.52,0,0,0-2-5.12,4.54,4.54,0,0,0-3.47-.53,4.38,4.38,0,0,0-2.75,2,16.77,16.77,0,0,1-1,1.7,12.41,12.41,0,0,1-1.24,1.16,9.19,9.19,0,0,1-1.13.57c-.31.1-.61.19-.93.27a21.57,21.57,0,0,1-3.45-1.17c-.77-.36-1.53-.75-2.27-1.17a16.17,16.17,0,0,1-2.09-1.49,24.73,24.73,0,0,1-3.35-3.28c-.15-.24-.28-.48-.4-.72l0-.06a14,14,0,0,1,.13-1.83c.08-.53.17-1.05.25-1.57.06-.36.11-.72.17-1.09a4.11,4.11,0,0,0-3-4,4,4,0,0,0-1.14-.17,4.15,4.15,0,0,0-2,.5Z"/><path
            class="cls-2"
            d="M27.46,69.19a3.63,3.63,0,0,0-2.19,1.6,3.48,3.48,0,0,0-.43,2.77c.64,1.85,1.21,3.71,1.72,5.6a11.55,11.55,0,0,0,1.68,3.63c.7,1,1.47,1.92,2.26,2.85a9.71,9.71,0,0,0,.92.89c.53.47,1.11.94,1.67,1.36.77.57,1.55,1.1,2.36,1.6a43.41,43.41,0,0,0,5.84,2.89,35.62,35.62,0,0,0,12,3c.88,0,1.77.11,2.65.09,1.28,0,2.56-.2,3.83-.36,1.89-.24,3.77-.49,5.65-.77a36.22,36.22,0,0,0,7.29-2A32.87,32.87,0,0,0,77,90.33c.57-.31,1.13-.63,1.68-1,.38-.22.75-.42,1.1-.67a14.47,14.47,0,0,0,1.51-1.17,13.36,13.36,0,0,0,1.4-1.69,4.51,4.51,0,0,0-.56-5.49,4.57,4.57,0,0,0-3.22-1.42l-1.17.14a4.52,4.52,0,0,0-2,1.1,9.08,9.08,0,0,1-.92.94c-.77.49-1.59.92-2.39,1.36s-1.57.79-2.38,1.14a39.48,39.48,0,0,1-5.9,1.74c-2.28.46-4.6.72-6.89,1-.24,0-.49,0-.73.06-.58,0-1.17,0-1.75,0-1.11,0-2.2-.07-3.31-.17a46,46,0,0,1-5.15-1.25,41.86,41.86,0,0,1-4.68-1.75c-.95-.46-1.89-.93-2.83-1.43a23.54,23.54,0,0,1-2.57-1.61A20.32,20.32,0,0,1,34,78a8.13,8.13,0,0,1-.4-.71c-.25-.72-.47-1.44-.69-2.17-.35-1.1-.72-2.19-1.09-3.28a3.79,3.79,0,0,0-1.61-2.19,3.65,3.65,0,0,0-2.76-.44Z"/><path
            class="cls-2"
            d="M103.87,61.56a4.6,4.6,0,0,0-1.39,3.16,21.16,21.16,0,0,0,0,3.47c.07.66.14,1.32.23,2a11.64,11.64,0,0,0,.86,2.82q.28.67.63,1.32a7.53,7.53,0,0,0,.51.82,12,12,0,0,0,1.15,1.51,10.71,10.71,0,0,0,1.53,1.25A11.74,11.74,0,0,0,110,79.18c.23.09.47.16.7.23.51.16,1,.29,1.55.4.85.18,1.72.28,2.58.39a7.32,7.32,0,0,0,2.87-.23,4.39,4.39,0,0,0-1-8.65,14.45,14.45,0,0,1-1.74-.18,14.65,14.65,0,0,1-2.28-.58l-.42-.26,0-.06a8.49,8.49,0,0,1-.58-1.07,10.46,10.46,0,0,1-.31-1.37,18.06,18.06,0,0,1,0-2.94A4.49,4.49,0,0,0,107,60.34h-.07a4.53,4.53,0,0,0-3.06,1.22Zm7.55,6.93,0,.25h0l0-.25Zm0,.25h0l0,.15,0-.15Z"/><path
            class="cls-2"
            d="M2.51,45.77A16.6,16.6,0,0,0,.65,49.61a19.17,19.17,0,0,0-.42,2.48c-.06.44-.1.88-.14,1.32A22.58,22.58,0,0,0,0,56c0,.79.09,1.58.17,2.36,0,.38.06.75.1,1.13,0,.55.12,1.1.18,1.65l0,.17c0,.22.06.44.1.67A10.47,10.47,0,0,0,1,63.2c.27.76.58,1.51.9,2.25s.68,1.64,1,2.46a16.57,16.57,0,0,0,1.32,2.31c.46.72.93,1.43,1.4,2.14a21.38,21.38,0,0,0,3.61,4.48,33.38,33.38,0,0,0,5,3.63c.76.45,1.58.8,2.38,1.18,1.1.51,2.21,1,3.33,1.46,1.45.58,2.92,1.14,4.41,1.59a19,19,0,0,0,3.25.63,11.63,11.63,0,0,0,2.43,0l1.16-.14a4.52,4.52,0,0,0,2.19-7.48,4.65,4.65,0,0,0-3.21-1.41c-.37,0-.73,0-1.09,0s-.73,0-1.09,0A37.68,37.68,0,0,1,21.58,74a29.73,29.73,0,0,1-3-1.51,27.14,27.14,0,0,1-2.66-1.82,16.93,16.93,0,0,1-2-2.17c-.82-1.17-1.59-2.38-2.34-3.59a22.91,22.91,0,0,1-1.74-3.72,11.34,11.34,0,0,1-.44-1.51,4,4,0,0,0-.08-.48c-.1-1-.19-2.06-.22-3.09a21.74,21.74,0,0,1,.18-3.52q.06-.3.15-.6c.25-.48.53-.94.8-1.4a4.61,4.61,0,0,0-1.48-6.28,4.54,4.54,0,0,0-2.38-.67,4.51,4.51,0,0,0-3.9,2.15Zm6.79,13c0,.1,0,.2,0,.3h0c0-.1,0-.2,0-.3Zm.17,1.43v0Z"/><path
            class="cls-2"
            d="M79.54,80.63a21.85,21.85,0,0,0-3,2.29,33.08,33.08,0,0,1-4.24,2.26c-1.16.43-2.34.82-3.5,1.26a24.94,24.94,0,0,1-4,1.25,8,8,0,0,1-.85,0c-1.19-.27-2.35-.64-3.52-1A4.47,4.47,0,0,0,58,95.26a24.32,24.32,0,0,0,6.62,1.42,17.3,17.3,0,0,0,6.16-1.38c.74-.28,1.49-.55,2.24-.81,1.16-.42,2.36-.77,3.49-1.27a29.92,29.92,0,0,0,4.89-2.64c.72-.5,1.41-1,2.08-1.58.45-.38.85-.82,1.29-1.21a4.46,4.46,0,0,0-3.1-7.7,4.31,4.31,0,0,0-2.11.54Z"/><path
            class="cls-2"
            d="M114.17,75.42c-.61.53-1.27,1-1.92,1.53a35,35,0,0,1-3.92,2.22c-1.5.75-3,1.57-4.54,2.24a30.43,30.43,0,0,1-5.73,1.44c-1.12.07-2.24,0-3.37,0a29.89,29.89,0,0,1-3-.12,21.14,21.14,0,0,1-3.28-1,10.26,10.26,0,0,1-1.31-.7l-.35-.36c-.07-.12-.14-.24-.2-.36l0-.1,0-1a4.68,4.68,0,0,0-1.23-3.16,4.49,4.49,0,0,0-7.75,3q0,.73.06,1.47a11.35,11.35,0,0,0,.32,2.18,13.72,13.72,0,0,0,.74,1.87A12.75,12.75,0,0,0,80,86.68a11.59,11.59,0,0,0,2,1.85,9.38,9.38,0,0,0,2.14,1.15c.75.36,1.52.69,2.3,1a16.51,16.51,0,0,0,2.48.76,20.39,20.39,0,0,0,3.66.49c.84,0,1.69,0,2.53,0a23.08,23.08,0,0,0,2.63,0,33.76,33.76,0,0,0,3.73-.51,38,38,0,0,0,4.67-1.3,47.09,47.09,0,0,0,5.55-2.54,43.38,43.38,0,0,0,4.15-2.21c.93-.61,1.84-1.25,2.71-1.94.6-.47,1.23-.93,1.8-1.43a4.56,4.56,0,0,0-3.06-7.88h-.07a4.71,4.71,0,0,0-3.14,1.25Z"/><path
            class="cls-3"
            d="M100.78.11a39.57,39.57,0,0,0-4.62.35A45.78,45.78,0,0,0,88,2.23,46.64,46.64,0,0,0,80,5.5a31.41,31.41,0,0,0-8.67,6.7A40.23,40.23,0,0,0,65.84,20a31.67,31.67,0,0,0-2.78,5.89,11.29,11.29,0,0,0-.4,2.45,8.47,8.47,0,0,0,.16,2.13c.14.74.32,1.46.5,2.18h0c.11-.83.21-1.66.34-2.49a10.77,10.77,0,0,1,.75-2.4A14.56,14.56,0,0,1,66.23,25c1.37-1.67,2.81-3.3,4.27-4.9a60.47,60.47,0,0,1,8.72-7.89,37.67,37.67,0,0,1,7.54-4,47.27,47.27,0,0,1,11-2.76,33.39,33.39,0,0,1,7.74.08c1.48.25,2.94.64,4.4,1a32.78,32.78,0,0,1,4.72,1.6A30.84,30.84,0,0,1,118,9.87c.22.13.43.27.64.41,0-1.56,0-3.13,0-4.69-.45-.35-.93-.68-1.4-1a24.73,24.73,0,0,0-4.09-2.11,35.35,35.35,0,0,0-3.76-1.27,27.54,27.54,0,0,0-4.5-.88,35.41,35.41,0,0,0-4-.23Z"/><path
            class="cls-3"
            d="M34.71,22.75c-1.36.21-2.73.48-4.07.8a23.91,23.91,0,0,0-7.43,3.33,51,51,0,0,0-4.15,3c-.7.54-1.4,1.08-2.07,1.66-1.11,1-2.24,1.89-3.26,2.93a24.55,24.55,0,0,0-4.56,7.46c-.65,1.47-1.21,3-1.76,4.5a27.19,27.19,0,0,0-1.5,5.21,16,16,0,0,0-.22,2.29,18,18,0,0,0,.17,2.31,23.59,23.59,0,0,0,.93,4.14,26.11,26.11,0,0,0,3.58,7.42,21.34,21.34,0,0,0,4.05,4.33A30.61,30.61,0,0,0,19.1,75.2a19.38,19.38,0,0,0,5.06,1.91,11.16,11.16,0,0,0,2.51.27A8,8,0,0,0,29,77a0,0,0,0,0,0,0c-.41,0-.82,0-1.23-.1a9.58,9.58,0,0,1-2.05-.64,21.47,21.47,0,0,1-4.06-2.58,38.66,38.66,0,0,1-3-2.75,31,31,0,0,1-2.78-3.16,27.59,27.59,0,0,1-2-3.3c-.58-1.13-1.08-2.31-1.55-3.49a26.37,26.37,0,0,1-1.59-5.65,13.29,13.29,0,0,1,0-2.82,28.43,28.43,0,0,1,1.38-4.61c.54-1.46,1.08-2.9,1.69-4.33a24.79,24.79,0,0,1,2.81-4.9,38.18,38.18,0,0,1,4.21-3.83c.43-.37.9-.69,1.34-1l1.54-1.17a32,32,0,0,1,5.95-3.43A27.64,27.64,0,0,1,34.11,28c1.39-.26,2.77-.56,4.17-.75q1.5-.15,3-.15a27.79,27.79,0,0,1,3.54.17c1.43.25,2.81.66,4.21,1,.81.21,1.61.46,2.42.7,1.47.43,2.88,1,4.31,1.6l2.37,1.07-.05,0,1.05.48s0,0,0,0c-.87-.86-1.76-1.7-2.65-2.53-.29-.26-.6-.49-.89-.73s-.74-.63-1.13-.91c-.76-.53-1.52-1.06-2.31-1.53s-1.77-1-2.68-1.48-1.55-.79-2.35-1.12a17.3,17.3,0,0,0-3.93-1.12,29.34,29.34,0,0,0-4-.39H39a27.41,27.41,0,0,0-4.24.4Zm-7,54.08h0Z"/><path
            class="cls-3"
            d="M35.5,76.16a13.93,13.93,0,0,0,.44,3.28,10.36,10.36,0,0,0,1.74,3.28,14.72,14.72,0,0,0,2.7,2.59,20.85,20.85,0,0,0,3.42,2.14c1.44.73,2.94,1.35,4.43,2,1.14.46,2.29.91,3.45,1.33a27.84,27.84,0,0,0,3.69,1.08,34.86,34.86,0,0,0,4.55.54,25.22,25.22,0,0,0,8.26-.7A32.13,32.13,0,0,0,72,90.24a36.64,36.64,0,0,0,3.83-2c.87-.49,1.73-1,2.58-1.52C79,86.39,79.48,86,80,85.66a14.48,14.48,0,0,0,3.27-2.77,12.76,12.76,0,0,0,2.31-5.11s0,0,0,0a27.16,27.16,0,0,1-1.73,2.41,10.52,10.52,0,0,1-1.73,1.67,16.59,16.59,0,0,1-2.91,1.48c-1.34.5-2.68,1-4,1.47a46.21,46.21,0,0,1-9.43,2.64A36.69,36.69,0,0,1,57,87.23c-2.46-.42-4.84-1.16-7.24-1.81A58.64,58.64,0,0,1,42.17,83a17.8,17.8,0,0,1-3.41-2,11.67,11.67,0,0,1-1.71-1.8,16.2,16.2,0,0,1-1.55-3h0Z"/><path
            class="cls-3"
            d="M118.31,77.7c-.88.56-1.74,1.16-2.66,1.64-.56.29-1.11.6-1.67.9a38.86,38.86,0,0,1-3.89,1.9,44.49,44.49,0,0,1-6.49,1.57c-2.28.47-4.58.87-6.9,1.16a39.36,39.36,0,0,1-9.64,0,12.89,12.89,0,0,1-2.72-.74,7.66,7.66,0,0,1-1.06-.64,4.26,4.26,0,0,1-.42-.43,6.21,6.21,0,0,1-.31-.7,10.54,10.54,0,0,1-.4-1.49h0A5.66,5.66,0,0,0,82,83.75,3.56,3.56,0,0,0,82.73,85a9.5,9.5,0,0,0,1.37,1.32A13.31,13.31,0,0,0,87.25,88a20.52,20.52,0,0,0,3.9,1.15,30.79,30.79,0,0,0,8.46.43,34.29,34.29,0,0,0,4.27-.61c1.39-.31,2.76-.75,4.11-1.19a21.5,21.5,0,0,0,3.71-1.54,24.88,24.88,0,0,0,3.46-2.32c.89-.69,1.82-1.39,2.63-2.16a37,37,0,0,0,2.66-2.8l.24-2.72c-.81.48-1.59,1-2.38,1.48Z"/><path
            class="cls-3"
            d="M114.46,60.84a6,6,0,0,0-2.12,1.39,14.24,14.24,0,0,0-2.24,2.83,6.66,6.66,0,0,0-1,3.41,4.44,4.44,0,0,0,.37,1.81,6,6,0,0,0,1.15,1.62,13.58,13.58,0,0,0,1.5,1.33c.52.41,1.05.79,1.59,1.16a16.65,16.65,0,0,0,3.84,1.87,16.41,16.41,0,0,0,3.1.64q.24-2.88.41-5.76a18.81,18.81,0,0,1-2.37-.12,21.63,21.63,0,0,1-4.52-1.44,12.1,12.1,0,0,1-1.79-1l-.07-.08a3.24,3.24,0,0,1-.17-.32,5.13,5.13,0,0,1-.16-.65,8.13,8.13,0,0,1,0-1.21A16.17,16.17,0,0,1,113,63a8.57,8.57,0,0,1,1-1.68,4.89,4.89,0,0,1,.46-.45Z"/><path
            class="cls-3"
            d="M42.87,60c-2.49.56-5.08,1.34-6.9,3.22a11.18,11.18,0,0,0-1,1.19c-.21.28-.43.57-.63.87a11.32,11.32,0,0,0-1,2,8.37,8.37,0,0,0-.45,2.1,18.78,18.78,0,0,0-.37,4.16,7,7,0,0,0,.52,2c.19.52.41,1,.63,1.53s.44.94.66,1.4a6.57,6.57,0,0,0,.86,1.35c.18.23.39.44.58.66s.54.65.83,1a5.29,5.29,0,0,0,1.18.87s0,0,0,0c-.19-.21-.38-.43-.56-.65a8.9,8.9,0,0,1-.66-1.12c-.26-.52-.55-1-.78-1.58a21.32,21.32,0,0,1-.6-2.48c-.11-.54-.2-1.08-.28-1.63a6.28,6.28,0,0,1,0-1.3c.17-.86.42-1.7.66-2.54s.42-1.41.68-2.09a9.71,9.71,0,0,1,1.14-1.7l.56-.67A10,10,0,0,1,39.39,65,19.38,19.38,0,0,1,43,63.17L44,62.8a10.64,10.64,0,0,1,2.36-.61,13,13,0,0,1,2.86.07,9.25,9.25,0,0,1,1.71.41,6.75,6.75,0,0,1,.93.56,8.33,8.33,0,0,1,1.1,1.2,4.76,4.76,0,0,1,.46.82h0a1.58,1.58,0,0,1,.09.31h0a2.54,2.54,0,0,1,0,.29h0a2.76,2.76,0,0,0,.06-1.11A5.41,5.41,0,0,0,53,63.17a5.16,5.16,0,0,0-2.5-2.38,12.47,12.47,0,0,0-4.06-1.13,8.85,8.85,0,0,0-.89,0,11.86,11.86,0,0,0-2.72.35ZM37.24,81.54Z"/><path
            class="cls-3"
            d="M67.84,19.48a30.45,30.45,0,0,0-2.65,2.16,14.18,14.18,0,0,0-1.28,1.51,10.68,10.68,0,0,0-.72,1,42.09,42.09,0,0,0-3,5.22,8,8,0,0,0-.43,2.11,14.81,14.81,0,0,0-.08,1.76,19.47,19.47,0,0,0,.19,2.16A7.75,7.75,0,0,0,60.66,38,9.13,9.13,0,0,0,62,39.8a9.25,9.25,0,0,0,1.32,1.26,20.24,20.24,0,0,0,1.82,1.38,14.25,14.25,0,0,0,2.34,1.18,10.18,10.18,0,0,0,4.09.72A16.44,16.44,0,0,0,74,44.07a13.93,13.93,0,0,0,2-.5,14.1,14.1,0,0,0,3.7-1.75,14.51,14.51,0,0,0,3.06-3,10.13,10.13,0,0,0,1.77-3,6,6,0,0,0,.24-3.47A7.21,7.21,0,0,0,84.16,31a3.64,3.64,0,0,0-.79-1,6.52,6.52,0,0,0-1-.75,1.08,1.08,0,0,0-.94-.14h0l.25.07.23.14a2.74,2.74,0,0,1,.32.36,8.27,8.27,0,0,1,.62,1.13c.06.2.11.39.15.59a7.8,7.8,0,0,1,0,1.45,6.29,6.29,0,0,1-.2.71A8.33,8.33,0,0,1,82,34.84,9.8,9.8,0,0,1,80.65,36a17.25,17.25,0,0,1-3,1.72,14.91,14.91,0,0,1-3,.69,16.64,16.64,0,0,1-3.31,0,10.3,10.3,0,0,1-1.82-.54,20.13,20.13,0,0,1-3.43-2.11,7.65,7.65,0,0,1-.89-.91q-.18-.32-.33-.63A18.23,18.23,0,0,1,64.15,31a7.94,7.94,0,0,1,0-1.54c.19-1.09.45-2.16.72-3.24A25.84,25.84,0,0,1,66,22.63a29.78,29.78,0,0,1,1.82-3.14ZM80.45,36.14l-.11.08.11-.08Z"/><path
            class="cls-3"
            d="M99.8.07c-1.25,0-2.52.21-3.76.37-1.42.19-2.85.34-4.27.58a19.66,19.66,0,0,0-3,.73c-.66.23-1.3.47-1.95.71-1.22.44-2.43.91-3.64,1.38a32.14,32.14,0,0,0-6.76,4.09c-.86.62-1.73,1.24-2.55,1.91s-1.6,1.4-2.36,2.14a45.63,45.63,0,0,0-3.92,4.31,13.89,13.89,0,0,0-1.69,2.59c-.44.88-.82,1.78-1.29,2.65s-.89,1.58-1.31,2.38c-.53,1-1,2.05-1.4,3.1a0,0,0,0,0,0,0c.78-1.17,1.58-2.32,2.43-3.45l0,.08c.48-.62,1-1.23,1.43-1.87s1.05-1.57,1.6-2.34a37.53,37.53,0,0,1,5.88-5.38c.78-.58,1.56-1.16,2.39-1.67s1.81-1.1,2.72-1.65a47.44,47.44,0,0,1,5.2-2.93C84.65,7.36,85.83,7,87,6.53a28,28,0,0,1,4.63-1.46c2.3-.3,4.62-.56,6.94-.73a33.45,33.45,0,0,1,6.77.48h0c.39.06.79.11,1.18.18a9.92,9.92,0,0,1,1.85.5c1.39.63,2.73,1.36,4.09,2.06A28.57,28.57,0,0,1,116.31,10a26,26,0,0,1,4.15,3.91c.59.8,1.17,1.61,1.78,2.4A20.23,20.23,0,0,1,124.07,19a12.4,12.4,0,0,1,.62,2.16l.3,1.67a2.88,2.88,0,0,0,0,1.6c.09.34.17.69.25,1s.19.89.26,1.33a22.23,22.23,0,0,1-.06,3.16c-.06,1.12,0,2.24-.05,3.35a5.56,5.56,0,0,1-.19.7,15.12,15.12,0,0,1-1.45,2.33c-.65.82-1.31,1.61-1.91,2.46a16.68,16.68,0,0,1-2.25,2.35c-.26.14-.5.27-.77.39a11.89,11.89,0,0,1-2.28.65l-1.11.16h0c-.56.06-1.13.13-1.7.14l-.39-.07-.39-.18s0,0,0,0a2.51,2.51,0,0,0,1.27.78c.32.09.66.18,1,.25a12.26,12.26,0,0,0,3.67.38,6.27,6.27,0,0,0,2-.42c.34-.15.66-.31,1-.49a16.87,16.87,0,0,0,1.51-1c1.06-.75,2-1.64,3-2.49a16.16,16.16,0,0,0,2.48-2.68A8.71,8.71,0,0,0,130.3,33c.2-1.07.3-2.17.46-3.25A15.68,15.68,0,0,0,131,26.1c-.05-.7-.15-1.38-.26-2.07,0-.26-.1-.51-.15-.76l-.09-.39a2.49,2.49,0,0,0-.63-1.15c-.2-.93-.37-1.87-.62-2.79a12.6,12.6,0,0,0-1-2.63,10.38,10.38,0,0,0-1-1.51c-.76-1-1.51-2.05-2.27-3.06-.45-.59-.91-1.19-1.4-1.75s-.92-.94-1.39-1.39a32.47,32.47,0,0,0-3.18-2.54,28.3,28.3,0,0,0-3-1.84c-1-.57-2.13-1.08-3.21-1.61A17.13,17.13,0,0,0,108,.83c-1.42-.24-2.87-.4-4.3-.57a27.57,27.57,0,0,0-3.13-.21l-.74,0ZM124,35.92l-.31.41.08-.11-.07.09.3-.39Zm-2,2.59-.07.09.07-.09Zm-6.68,3.82h0Zm-2,.07h0Zm0,0h0Z"/><path
            class="cls-3"
            d="M122.09,47.49l1.62.89a12.46,12.46,0,0,1,1.54.91l0,0,.06,0v0a6.14,6.14,0,0,1,.76.77v0a27.12,27.12,0,0,1,1.55,2.44,30.19,30.19,0,0,1,1.54,3.06,15.72,15.72,0,0,1,.76,2.68,42.27,42.27,0,0,1,.25,4.5,42.9,42.9,0,0,1-.11,4.39,8,8,0,0,1-.32,1.19,5.32,5.32,0,0,1-.37.66,7.4,7.4,0,0,1-.84.84A13.85,13.85,0,0,1,126.29,71a17.68,17.68,0,0,1-3.42,1c-1,.11-2.08.16-3.12.22a21.35,21.35,0,0,1-3.2,0,5.79,5.79,0,0,1-.93-.25,16.89,16.89,0,0,1-2.81-1.52,9.24,9.24,0,0,1-.73-.66,15,15,0,0,1-1.37-2.56l.05.11a2.41,2.41,0,0,1-.19-.61,6.91,6.91,0,0,1,0-.91c0-.18,0-.36.08-.54,0,0,0,0,0,0a7.12,7.12,0,0,0-.67,1.39,3.36,3.36,0,0,0-.12,1.14,14.32,14.32,0,0,0,.11,1.47c0,.29.06.58.11.87a4.13,4.13,0,0,0,.47,1.37,7.8,7.8,0,0,0,1,1.46,12.73,12.73,0,0,0,2.69,2.22,8.92,8.92,0,0,0,3.85,1.1,19.92,19.92,0,0,0,3.54,0,16.35,16.35,0,0,0,3.67-.6,18.48,18.48,0,0,0,3.49-1.41,8.76,8.76,0,0,0,3.42-2.85c1.45-2.15,1.36-4.9,1.15-7.37a31.39,31.39,0,0,0-.57-3.87,22,22,0,0,0-1-3.59,23.94,23.94,0,0,0-4.23-6.19,6.29,6.29,0,0,0-2.24-1.83c-1-.45-2.13-.73-3.19-1.08h0s0,0,0,0Zm7.06,8.16s0,.09,0,.13a.69.69,0,0,1,0-.13Zm-3.89-6.36Z"/><path
            class="cls-2"
            d="M122.52,76.25a3.32,3.32,0,0,0-.59.18,1.59,1.59,0,0,0-.65.23,2,2,0,0,0-.87,1.11,1.88,1.88,0,0,0,.48,1.84,2,2,0,0,0,1.48.61h.18a2.11,2.11,0,0,0,.75,0l.12,0a1.17,1.17,0,0,0,1.35-.56,1.73,1.73,0,0,0,.55-.82,1.55,1.55,0,0,0,0-.74,1.33,1.33,0,0,0,.2-1.13,1.36,1.36,0,0,0-1.27-1h-.2a8.11,8.11,0,0,0-1.55.27Z"/></g>
    </g>
</svg>
