<svg xmlns="http://www.w3.org/2000/svg" viewBox="0 0 156.08 95.76">
    <defs>
        <style>
            .cls-1 {
                fill: #fefefe;
            }
            .cls-2 {
                fill: #ededed;
            }
            .cls-3 {
                fill: #7bc0be;
            }
        </style>
    </defs>
    <title>Slide 7 - Cloud 2Asset 2</title>
    <g id="Layer_2" data-name="Layer 2">
        <g id="Draw_Layer" data-name="Draw Layer"><path
            class="cls-1"
            d="M123.22,13.17c-.52,0-1,0-1.55.09a36.47,36.47,0,0,0-4,.53,28.69,28.69,0,0,0-4.33,1.57,49.43,49.43,0,0,0-5.39,2.32c-.57.31-1.13.61-1.66,1-.88.61-1.75,1.22-2.59,1.89a12.67,12.67,0,0,0-1.9,2.19,10.81,10.81,0,0,0-1.27,2.68,7.7,7.7,0,0,0-.08,4.07,7.79,7.79,0,0,0,13.83,2.73c.28-.26.57-.51.87-.76a40.91,40.91,0,0,1,5.57-2.81,19.3,19.3,0,0,1,2.8-.66c.54,0,1.09,0,1.63,0A42.27,42.27,0,0,1,130.71,30c1.25.5,2.51,1,3.76,1.47a17.3,17.3,0,0,1,2.81,1.74l.56.44a27.07,27.07,0,0,1,2.72,2.53c.78.86,1.52,1.77,2.22,2.7l.11.15c-.94,1-1.93,2-2.93,2.9a6.07,6.07,0,1,0,8.34,8.82,47.71,47.71,0,0,0,5.64-6A9.86,9.86,0,0,0,155.32,42a9.23,9.23,0,0,0,.44-3.13,11.85,11.85,0,0,0-1.45-5.26A25,25,0,0,0,152,30.33a46.6,46.6,0,0,0-3.39-4.16,31.91,31.91,0,0,0-6.69-5.81c-1.76-1-3.65-1.86-5.47-2.79-.93-.47-1.85-.95-2.77-1.43a29.78,29.78,0,0,0-5.24-2.38,19,19,0,0,0-3.35-.55,9.11,9.11,0,0,0-1-.06l-.84,0Z"/><path
            class="cls-1"
            d="M73.8.09a40.38,40.38,0,0,0-5.49.57,30.25,30.25,0,0,0-3.45,1c-1,.31-2,.73-2.91,1.09a52.11,52.11,0,0,0-8,3.74,76.77,76.77,0,0,0-8.53,5.92A42.7,42.7,0,0,0,41,16.19c-1.39,1.43-2.72,2.9-4,4.41-1,1.11-1.9,2.28-2.77,3.48a11.06,11.06,0,0,0-.63,1,13.77,13.77,0,0,0-1.73,6.51,7.4,7.4,0,0,0,14.41,2.48c.38-.58.8-1.13,1.19-1.7l1.37-2c.46-.65,1-1.29,1.46-1.92A39.77,39.77,0,0,1,54,24.62c1.44-1.25,2.89-2.49,4.4-3.64a48.66,48.66,0,0,1,8.65-4.8L66,16.61c.94-.37,1.87-.75,2.82-1.07.8-.27,1.6-.55,2.41-.78A13.45,13.45,0,0,1,73,14.4a74.45,74.45,0,0,1,14.85.31c.61.1,1.23.21,1.82.36l3.24.85c1,.26,2,.68,3,1,.75.26,1.49.56,2.23.87a23.7,23.7,0,0,1,3.34,1.86c.15.15.29.31.43.47a14.87,14.87,0,0,1,.95,1.64,19.44,19.44,0,0,1,.75,3,14.59,14.59,0,0,1,0,2.29c-.09.46-.19.93-.29,1.39a5.89,5.89,0,0,0,.46,4.28A5.63,5.63,0,0,0,111.4,35a5.49,5.49,0,0,0,2.69-3.35,44.53,44.53,0,0,0,.82-4.73,20.36,20.36,0,0,0,0-3.22,41.25,41.25,0,0,0-.42-4.29,15.61,15.61,0,0,0-.46-2.26,35.9,35.9,0,0,0-1.5-3.76A11.21,11.21,0,0,0,110.23,10a22.75,22.75,0,0,0-2.53-2.06,17.45,17.45,0,0,0-1.93-1.22,59.6,59.6,0,0,0-5.44-2.52c-.85-.37-1.73-.68-2.59-1a41.36,41.36,0,0,0-5.2-1.55A65,65,0,0,0,85.07.38C83.16.17,81.24.08,79.31,0c-.71,0-1.43,0-2.15,0Q75.48,0,73.8.09Z"/><path
            class="cls-1"
            d="M32.82,19.64a30.93,30.93,0,0,0-3.33.43,23.91,23.91,0,0,0-4,1,22.71,22.71,0,0,0-2.88,1.2A22.28,22.28,0,0,0,20,24.13c-.55.41-1.06.87-1.57,1.32A17.2,17.2,0,0,0,16.15,28a12.93,12.93,0,0,0-1,1.52,35.8,35.8,0,0,0-2.39,5.14A16.78,16.78,0,0,0,12,37.4a23.63,23.63,0,0,0-.55,5,44,44,0,0,0,.43,4.87,17.06,17.06,0,0,0,.69,3.09,27.46,27.46,0,0,0,1.68,4.09A17,17,0,0,0,16,56.93,11.69,11.69,0,0,0,18.41,59a10.42,10.42,0,0,0,1.67.92c1,.49,2,.91,3,1.35a7.34,7.34,0,0,0,3.89.07,7.44,7.44,0,0,0,5.42-9l-.69-1.78a7.46,7.46,0,0,0-2.62-2.76L29,47.73c-.26-.24-.51-.49-.75-.76a19,19,0,0,1-1-1.77,17.62,17.62,0,0,1-.55-2.39,17.64,17.64,0,0,1,0-2.3,22,22,0,0,1,1-3,16.74,16.74,0,0,1,1.27-2.12,16.71,16.71,0,0,1,1.38-1.41,12.72,12.72,0,0,1,1.16-.6,21,21,0,0,1,2.6-.77h.39l.63.17a22.74,22.74,0,0,1,2.36,1.54A31.39,31.39,0,0,1,40,37c1.07,1.26,2,2.63,3,3.94l1.16,1A5.78,5.78,0,0,0,53,37.06c-.06-.5-.11-1-.17-1.49A5.77,5.77,0,0,0,51.41,33c-1.29-1.72-2.55-3.47-3.88-5.16A30.19,30.19,0,0,0,42.31,23c-.39-.31-.79-.6-1.19-.89a14.58,14.58,0,0,0-2.85-1.42,12,12,0,0,0-2.1-.69,12.34,12.34,0,0,0-2.75-.35l-.6,0Z"/><path
            class="cls-1"
            d="M12.16,47.48a17.27,17.27,0,0,0-3.4,2.92c-1.13,1.27-2.19,2.63-3.22,4a9.52,9.52,0,0,0-2,4.29,16.74,16.74,0,0,0-.32,3.22c0,1.15.19,2.29.32,3.44A7.2,7.2,0,0,0,4,67a14.27,14.27,0,0,0,1.3,2.9,16.78,16.78,0,0,0,3.38,4,24,24,0,0,0,4.14,3A52.46,52.46,0,0,0,18,79.19a29.47,29.47,0,0,0,9,1.72c1,.06,1.93.12,2.9.15a22.48,22.48,0,0,0,3.48-.28,8.47,8.47,0,0,0,3.39-1.21A12.2,12.2,0,0,0,39,77.81a7.76,7.76,0,0,1,.84-.78l.37-.27a7.59,7.59,0,0,0,2.08-3.41,7.65,7.65,0,0,0-11-8.86,16.2,16.2,0,0,0-2.17,1.37l-1.21.06a34.89,34.89,0,0,1-4.22-.08,27.6,27.6,0,0,1-4.35-1.32,18.75,18.75,0,0,1-2.06-1.24c-.31-.3-.61-.61-.9-.94-.12-.2-.23-.41-.34-.63a14.7,14.7,0,0,1-.39-1.62,1.77,1.77,0,0,1,0-.23,17.28,17.28,0,0,1,.62-1.7,17.7,17.7,0,0,1,1.41-2.47,8.86,8.86,0,0,1,.77-.73c.16-.1.32-.18.48-.27l.26-.07h.26l.29.1c.93.49,1.82,1.08,2.71,1.65a4.29,4.29,0,1,0,4.51-7.31,26.2,26.2,0,0,0-5.14-3,9.79,9.79,0,0,0-3.26-.55,11.68,11.68,0,0,0-6.37,1.95Z"/><path
            class="cls-1"
            d="M30.5,62.56l-1.45,1a6.93,6.93,0,0,0-1.91,3.12,12.63,12.63,0,0,0-.64,3.19,7.88,7.88,0,0,0,.4,3.23,13.53,13.53,0,0,0,3.48,5.66A35,35,0,0,0,38,84.22c1.63.89,3.33,1.62,5,2.37,1.33.59,2.69,1.13,4.06,1.62a52,52,0,0,0,9.87,2.23c1.33.2,2.67.34,4,.49a23.93,23.93,0,0,0,8.34-.62,41.91,41.91,0,0,0,5.19-1.8c1-.38,1.94-.78,2.87-1.25l3.13-1.55c2-1,4-2.11,5.91-3.22a39.39,39.39,0,0,0,4.39-3,10.63,10.63,0,0,0,2.1-2.43,3.67,3.67,0,0,0,.4-.73c.15-.31.3-.62.47-.92a7.43,7.43,0,0,0,1.43-2.71A7.63,7.63,0,0,0,90,63.24l-2-.31a7.59,7.59,0,0,0-3.79.94c-.5.36-1,.72-1.49,1.09a21.81,21.81,0,0,0-2.22,1.71c-.42.39-.82.79-1.24,1.17-1.43,1-2.9,1.84-4.39,2.7a75.34,75.34,0,0,1-7.77,4,24.65,24.65,0,0,1-3.76,1c-1.17,0-2.33,0-3.5-.09s-2.58-.18-3.86-.33a49.47,49.47,0,0,1-10.19-3.07,30.9,30.9,0,0,1-4.87-2.8,7.34,7.34,0,0,0-.87-4A7.07,7.07,0,0,0,35.82,62a7,7,0,0,0-5.32.58Z"/><path
            class="cls-1"
            d="M127.29,61.12c-1,.74-2.05,1.48-3.05,2.25-.47.36-.95.69-1.39,1.09-.61.54-1.18,1.11-1.8,1.64l-1.31,1.1c-1.57,1.35-3.07,2.77-4.69,4a15,15,0,0,1-1.88,1,33.8,33.8,0,0,1-5.59,1.46,17,17,0,0,1-2.67-.07c-1.84-.37-3.67-.88-5.48-1.36-1.15-.3-2.31-.62-3.45-1a5.88,5.88,0,0,0-1.45-5.08A5.82,5.82,0,0,0,86.38,66c-.35.31-.7.62-1,.94l-.53.5a5.93,5.93,0,0,0-.43.44,7.47,7.47,0,0,0-1.81,3,7.61,7.61,0,0,0,0,4,9.05,9.05,0,0,0,1.06,2.5,10.74,10.74,0,0,0,3,3.1,15,15,0,0,0,1.86,1.08C91.19,83,94.12,84.16,97,85.34l2.7,1.08a23,23,0,0,0,2.57.91,29,29,0,0,0,3.41.59,14.11,14.11,0,0,0,2.25.16,20.19,20.19,0,0,0,2-.15c1.18-.14,2.37-.26,3.55-.45,1.42-.23,2.84-.57,4.23-.94a29.24,29.24,0,0,0,3.39-1.24,16.07,16.07,0,0,0,1.72-.84c.64-.36,1.24-.76,1.86-1.15,2.14-1.37,4.11-3,6.13-4.51l1.17-.87a11.21,11.21,0,0,0,1.58-1.24,30.3,30.3,0,0,0,2.56-3.35l0,0a7.61,7.61,0,0,0-3.09-12.83l-2-.3H131a7.65,7.65,0,0,0-3.68.93Z"/><path
            class="cls-1"
            d="M142.84,44.14a7.82,7.82,0,0,0-5.68,9.47,7.64,7.64,0,0,0,1.22,2.63c0,.15.05.31.07.46.05.51.08,1,.1,1.52a41.53,41.53,0,0,1,0,4.6l0,.09c-.4.25-.79.48-1.21.69l-.63-.2c-.65-.35-1.29-.72-1.92-1.12a6.81,6.81,0,1,0-7.16,11.58,24.23,24.23,0,0,0,6.56,3.06c.39.1.8.17,1.2.24a11.92,11.92,0,0,0,3.14.31,14.44,14.44,0,0,0,3.29-.57c3.77-1.24,7.47-3.21,9.58-6.71,1.89-3.12,2.22-6.8,2.42-10.36,0-.92.09-1.84.11-2.76s0-1.7,0-2.55a31.5,31.5,0,0,0-.4-3.5,9.2,9.2,0,0,0-2.39-4.36,9.09,9.09,0,0,0-4.18-2.43,7.91,7.91,0,0,0-2.2-.32,8.27,8.27,0,0,0-1.89.23Zm-3.27,13.42Z"/><path class="cls-1" d="M106.29,52.34a4.21,4.21,0,1,0,4.27-4.15,4.24,4.24,0,0,0-4.27,4.15Z"/><path
            class="cls-1"
            d="M96.11,11.61a10.76,10.76,0,0,0-4.75,1.18,8.75,8.75,0,0,0-1.59,1.05l-.66-.18a41,41,0,0,0-6-.95c-.8-.08-1.61-.12-2.41-.12l-.88-.1a18.22,18.22,0,0,0-4.11,0,40.35,40.35,0,0,0-5.58.93c-.51.13-1,.28-1.52.44-.67.14-1.34.29-2,.46-2,.51-4,1-5.93,1.62-.89.26-1.76.58-2.63.91A38.87,38.87,0,0,0,53,19a22.27,22.27,0,0,0-3,2.12,8.15,8.15,0,0,0-2.16,2.71,17.54,17.54,0,0,0-1.09,2.52,8,8,0,0,0-.28,1.46,31.21,31.21,0,0,0-5.93.88q-.42.11-.84.24c-.58.06-1.15.15-1.73.23a16.13,16.13,0,0,0-3.44,1.2,10.12,10.12,0,0,0-1.68.91,23.47,23.47,0,0,0-3.16,2.37,28.5,28.5,0,0,0-3.5,4,4.33,4.33,0,0,0-.41.69,21.63,21.63,0,0,0-1.09,2.56.74.74,0,0,0,0,.14c-.12.27-.22.55-.31.82a11,11,0,0,0-.45,3,10.41,10.41,0,0,0,.15,1.84,16.32,16.32,0,0,0,0,2.21c-.35.1-.71.2-1.07.32-.86.28-1.73.55-2.58.86-1.55.58-3.08,1.17-4.61,1.8l-.87.37A15,15,0,0,0,12,54.14,9,9,0,0,0,9.25,58.6,23,23,0,0,0,8.79,62a8.41,8.41,0,0,0,1,4.16,8.65,8.65,0,0,0,5,4l.59.22.29.39A8.4,8.4,0,0,0,19,73c.53.24,1.08.47,1.63.66a8.9,8.9,0,0,0,3.67.35A23.52,23.52,0,0,0,28,73.39c.6-.16,1.2-.36,1.79-.55.75-.23,1.5-.48,2.24-.76.75-.1,1.5-.21,2.25-.34,1.26-.2,2.52-.43,3.77-.67,0,.21,0,.42,0,.63a10.08,10.08,0,0,0,1.14,4.43,10.22,10.22,0,0,0,3.43,3.67,21.16,21.16,0,0,0,3.34,1.56c.68.28,1.36.54,2,.79,1.23.45,2.48.88,3.74,1.26a26.13,26.13,0,0,0,5.76,1,26.73,26.73,0,0,0,3.9-.07,64.76,64.76,0,0,0,13-2.49,101.91,101.91,0,0,0,12.38-4.44c3.51-1.49,7-3,10.4-4.75,1.71-.92,3.39-1.86,5-2.92,2.06-1.35,4.11-2.72,6.1-4.18.74-.09,1.48-.2,2.21-.35a14.77,14.77,0,0,0,1.73-.48,29.51,29.51,0,0,0,3.36-1.36,14.4,14.4,0,0,0,1.56-.91c.64-.43,1.28-.88,1.9-1.35l1.65.23a16.34,16.34,0,0,0,2,.15,28.5,28.5,0,0,0,4.12-.34,11.12,11.12,0,0,0,1.82-.39,12.66,12.66,0,0,0,3.33-1.4,15.08,15.08,0,0,0,5.18-5.17,16.6,16.6,0,0,0,.85-1.75,13.37,13.37,0,0,0,4-1.28,12,12,0,0,0,2.86-2.06,6,6,0,0,0,.65-.68,20,20,0,0,0,1.82-2.3,11.46,11.46,0,0,0,1.66-5.39,9.53,9.53,0,0,0-.38-3.36,28.09,28.09,0,0,0-1-2.63,13.14,13.14,0,0,0-2-3A12.61,12.61,0,0,0,139.7,28a9.62,9.62,0,0,0-1.76-.43c-1.11-.18-2.18-.37-3.29-.44a19.36,19.36,0,0,0-3.23.14c-.23-.28-.46-.54-.71-.79a10.66,10.66,0,0,0-2.82-2.12,27.31,27.31,0,0,0-2.59-1.12,17,17,0,0,0-2.79-.48,10.64,10.64,0,0,0-3.55.33,11.43,11.43,0,0,0-4.54,2.36,12,12,0,0,0-.83-1,19.22,19.22,0,0,0-2.14-1.79,7.74,7.74,0,0,0-1-.61l-.64-.32c-.12-.26-.24-.51-.35-.76s-.19-.43-.29-.64a15.27,15.27,0,0,0-2-3,19.64,19.64,0,0,0-3.54-3.27,9.9,9.9,0,0,0-1.1-.72A13.29,13.29,0,0,0,99.24,12a12.14,12.14,0,0,0-2.68-.4l-.45,0Z"/><path
            class="cls-1"
            d="M130.16,48.87c-4.38,1.17-8.79,2.25-13.14,3.54A56.71,56.71,0,0,0,107.7,56a15,15,0,0,0-1.64,1,12.91,12.91,0,0,0-2.79,2.15,20.08,20.08,0,0,0-1.68,2.12,11,11,0,0,0-1,2.17c-.5.54-.92,1.17-1.38,1.75a8.79,8.79,0,0,0-1.45,4.64,8.68,8.68,0,0,0,1.17,4.49,8.41,8.41,0,0,0,2.92,3.09,9.15,9.15,0,0,0,2.4,1,10.28,10.28,0,0,0,4.87.07,11.09,11.09,0,0,0,1.75-.53,9.29,9.29,0,0,0,3.73-.08A10.9,10.9,0,0,0,118,76.6a10.3,10.3,0,0,0,1.28-.79c1.2-.27,2.4-.53,3.59-.81a53.52,53.52,0,0,0,5.71-1.56A28.1,28.1,0,0,0,133,71.56c.34-.19.66-.43,1-.65a19.82,19.82,0,0,0,2.94-2.21l.14-.15a8.65,8.65,0,0,0,2.64-6,9.59,9.59,0,0,0-.1-1.42,8.45,8.45,0,0,0-7.39-12.53,8.23,8.23,0,0,0-2,.26Z"/><path
            class="cls-2"
            d="M107.45,14.39a4.47,4.47,0,0,0-2.14,2.66,4.34,4.34,0,0,0,.37,3.4,23.44,23.44,0,0,1,1.64,2.77,19.59,19.59,0,0,1,.67,3.13c0,.37.07.75.09,1.12a15.05,15.05,0,0,1-.12,2.6,24.68,24.68,0,0,1-1.08,4c-.16.29-.33.57-.52.85l-.25.24a12.4,12.4,0,0,1-1.36.69,17.92,17.92,0,0,1-2.91.86,30.78,30.78,0,0,1-4.8-.28,20.9,20.9,0,0,1-2.49-.57,20.88,20.88,0,0,1-1-2.12,21.65,21.65,0,0,1-.7-2.69,4.45,4.45,0,0,0-2-2.76,4.54,4.54,0,0,0-6.25,1.48L84,30.93a4.58,4.58,0,0,0,0,2.38,17.59,17.59,0,0,0,.86,3.18c.28.76.59,1.48.91,2.21.15.32.3.64.46,1A15.36,15.36,0,0,0,87.78,42a8.29,8.29,0,0,0,4.44,2.68c.43.11.86.23,1.29.32a37.5,37.5,0,0,0,3.94.61,21.22,21.22,0,0,0,7.37-.24,21.06,21.06,0,0,0,2.08-.68,20.74,20.74,0,0,0,3.58-1.56,11.07,11.07,0,0,0,3.74-3.65,16.49,16.49,0,0,0,1.44-3.1,18.85,18.85,0,0,0,.74-2.77,22.76,22.76,0,0,0,.64-6.31,33.84,33.84,0,0,0-.43-3.61,20.23,20.23,0,0,0-1.24-4.29,20.67,20.67,0,0,0-1.87-3.26l-.67-.92a4.49,4.49,0,0,0-5.38-.85Z"/><path
            class="cls-2"
            d="M41.71,50.09a15.77,15.77,0,0,0-3.54.58c-.37.1-.74.22-1.1.35a16.3,16.3,0,0,0-3,1.28,21.38,21.38,0,0,0-5,4.76,20.45,20.45,0,0,0-2,2.85q-.36.62-.69,1.26c-.33.63-.6,1.28-.87,1.94A12.29,12.29,0,0,0,24.83,66,15.94,15.94,0,0,0,25,70.34c.11.86.28,1.73.44,2.58.08.41.16.81.25,1.21a16.12,16.12,0,0,0,.82,2.52,16.86,16.86,0,0,0,2.24,3.45l.32.44c.48.66,1,1.33,1.46,2a14.46,14.46,0,0,0,2.64,2.42c.65.53,1.35,1,2,1.51a16.91,16.91,0,0,0,2.31,1.4,14.84,14.84,0,0,0,3.65,1.24c2.11.44,4.25.83,6.39,1.11.91.11,1.82.21,2.73.33s1.7.26,2.55.31a42.77,42.77,0,0,0,5.66,0c1.22-.1,2.44-.22,3.64-.44a18.46,18.46,0,0,0,2.57-.6c2-.71,4-1.53,6-2.36.59-.25,1.19-.47,1.76-.76a19.39,19.39,0,0,0,2.45-1.54c.78-.53,1.55-1.07,2.31-1.61,1.93-1.38,3.84-2.77,5.63-4.33.73-.63,1.39-1.35,2.09-2s1.55-1.44,2.33-2.17A4.56,4.56,0,0,0,81,68.32c-1.39,1.27-2.73,2.58-4.09,3.89a33.24,33.24,0,0,1-3.69,3c-1.53,1.1-3.06,2.24-4.69,3.18a21,21,0,0,1-3,1.3l-1.88.78a17,17,0,0,1-2.09.68c-.86.2-1.72.35-2.59.48a38.93,38.93,0,0,1-5.61.12c-1-.06-2-.2-3-.33l-2.73-.34c-.94-.16-1.87-.34-2.81-.51L43,80.21a8.71,8.71,0,0,1-1.23-.37,24.33,24.33,0,0,1-3.61-2.44,13.42,13.42,0,0,1-1.57-1.79c-.17-.22-.33-.45-.49-.67-.32-.43-.63-.86-.95-1.28s-.35-.57-.5-.86c-.23-.78-.37-1.58-.53-2.38s-.25-1.33-.35-2a11.92,11.92,0,0,1,0-1.69,9.45,9.45,0,0,1,.34-1.15,19,19,0,0,1,4.46-5.8A14.1,14.1,0,0,1,40,59.13a16.64,16.64,0,0,1,2.18-.57,15.5,15.5,0,0,1,2.55.1,16.53,16.53,0,0,1,2.37.62c.22.13.44.26.65.4a11,11,0,0,1,.81.87l.34.56c0,.12.06.23.08.34a6.26,6.26,0,0,1,0,.75,10.51,10.51,0,0,1-.41,1.35,8.85,8.85,0,0,1-.5.84,5.77,5.77,0,0,1-.44.42,30.65,30.65,0,0,1-3.15,1.55,3.8,3.8,0,0,0-1.88,2.33,3.91,3.91,0,0,0,2.66,4.86,4.11,4.11,0,0,0,3-.32l1.77-.83a15.37,15.37,0,0,0,3.11-1.93,10.57,10.57,0,0,0,1.63-1.78,10.22,10.22,0,0,0,.9-1.35,18.82,18.82,0,0,0,1.05-2.28,10.35,10.35,0,0,0,.58-2.59,8.1,8.1,0,0,0-.41-4,9.24,9.24,0,0,0-.6-1.39c-.13-.22-.29-.43-.43-.64a17.88,17.88,0,0,0-1.63-2.05A11.17,11.17,0,0,0,50.86,52,23.87,23.87,0,0,0,48.12,51a20.51,20.51,0,0,0-2.8-.6,19,19,0,0,0-3-.29l-.62,0ZM35.79,62.8l-.2.26.2-.26Z"/><path
            class="cls-2"
            d="M123.86,53.23a3.57,3.57,0,0,0-1.1,2.51,3.4,3.4,0,0,0,1,2.48c1.57,1.3,3.17,2.56,4.79,3.8.62.47,1.24.93,1.9,1.35l1.09.67a18.88,18.88,0,0,0,1.92.93,16.12,16.12,0,0,0,2.32.85,31,31,0,0,0,3.7.72,5.88,5.88,0,0,0,1.39,0,12,12,0,0,0,5.6-1.85c.34-.21.67-.45,1-.69a16.81,16.81,0,0,0,1.77-1.38,13.13,13.13,0,0,0,1.64-2,4.26,4.26,0,0,0,.51-3.34,4.34,4.34,0,0,0-5.27-3.17A4.5,4.5,0,0,0,143.45,56c-.07.1-.14.19-.2.29a10.67,10.67,0,0,1-1,.91,10.9,10.9,0,0,1-1.4.82,7.75,7.75,0,0,1-.83.21,12.89,12.89,0,0,1-2.06-.14,18.51,18.51,0,0,1-2.91-.82,31.8,31.8,0,0,1-3.07-1.7,35.92,35.92,0,0,1-3.26-2.35l-.57-.47a3.52,3.52,0,0,0-1.81-.52h0a3.58,3.58,0,0,0-2.43,1Z"/><path
            class="cls-2"
            d="M84.21,68.67a4.58,4.58,0,0,0-1.43,3.24c0,.39.09.79.14,1.18a4.65,4.65,0,0,0,1.11,2L85.44,77a14.85,14.85,0,0,0,1.34,1.61,38.06,38.06,0,0,0,4,2.94c.77.65,1.53,1.32,2.33,1.94a18.72,18.72,0,0,0,2.71,1.66,41.33,41.33,0,0,0,6.74,3.32,19.87,19.87,0,0,0,3.42.66,16.33,16.33,0,0,0,4,.17c2-.22,3.9-.55,5.85-.81a16.42,16.42,0,0,0,3.76-.55c.91-.29,1.81-.66,2.71-1a24.47,24.47,0,0,0,3.43-1.41A16.64,16.64,0,0,0,128,83.85c.3-.23.59-.47.88-.71a43.21,43.21,0,0,0,3.73-3.29,27.82,27.82,0,0,0,3.91-4.69,4.57,4.57,0,0,0-7.77-4.8,12.51,12.51,0,0,1-.71,1,29.71,29.71,0,0,1-3,3.06c-1.15,1-2.35,2-3.56,2.94a10.28,10.28,0,0,1-.93.49l-1.51.55a15.89,15.89,0,0,1-2.77.87c-1.13.11-2.26.24-3.38.4l-3.24.47a16.69,16.69,0,0,1-3.08-.14,15,15,0,0,1-2.18-.6c-.93-.47-1.81-1-2.74-1.52a27.31,27.31,0,0,1-3.55-2.06c-.94-.79-1.87-1.59-2.85-2.35-.62-.47-1.28-.85-1.91-1.3a10.79,10.79,0,0,1-1.07-1.26c-.54-.7-1.07-1.4-1.61-2.09a4.38,4.38,0,0,0-3.24-1.43h-.07a4.6,4.6,0,0,0-3.14,1.25Z"/><path
            class="cls-2"
            d="M148.2,49.43a4.53,4.53,0,0,0-2.11,2.63,12.67,12.67,0,0,0-.38,1.5,8.42,8.42,0,0,1-.35,1.11,14.12,14.12,0,0,1-1.31,2.21,24.79,24.79,0,0,1-3.37,3.27,26.11,26.11,0,0,1-4.43,2.2,24.6,24.6,0,0,0-3.34,1.2,4.4,4.4,0,0,0-2.14,2.69,6.62,6.62,0,0,0-.2,1.26v.12c0,.16,0,.31,0,.46a4.57,4.57,0,0,0-2.68,4.09c0,.39.09.78.13,1.17a4.57,4.57,0,0,0,1.12,2c.36.46.72.91,1.12,1.34a10,10,0,0,0,4.34,2.66,10.52,10.52,0,0,0,5.14-.07,13.58,13.58,0,0,0,1.65-.49,21,21,0,0,0,2.84-1.23,35.06,35.06,0,0,0,3.88-2.66c.75-.56,1.48-1.14,2.19-1.76a21.29,21.29,0,0,0,1.91-1.89,11.62,11.62,0,0,0,1.66-2.35c.37-.75.72-1.51,1-2.28a12,12,0,0,0,.76-2.54,16.88,16.88,0,0,0,.38-3.67A30.74,30.74,0,0,0,155.7,57a9.23,9.23,0,0,0-1-3.32c0-.09,0-.19,0-.29a4.43,4.43,0,0,0-3.17-4.29,4.25,4.25,0,0,0-1.23-.17,4.46,4.46,0,0,0-2.11.53Z"/><path
            class="cls-2"
            d="M120.48,54a3.5,3.5,0,0,0,1.12,4.77c.85.51,1.76.93,2.58,1.48a10.84,10.84,0,0,1,1,1.12,10.58,10.58,0,0,1,1,1.7A18.34,18.34,0,0,1,127,65.7c0,.22,0,.44,0,.65a13.7,13.7,0,0,1-.62,2.1,4.39,4.39,0,0,1-.27.47c-.77.81-1.62,1.54-2.44,2.3s-1.75,1.69-2.68,2.46c-1.54,1-3.2,1.91-4.81,2.79a4.51,4.51,0,0,0,4.32,7.91c1.67-.9,3.29-1.89,4.88-2.91a40.1,40.1,0,0,0,5.47-4.87c.29-.27.58-.54.84-.82a12.28,12.28,0,0,0,2-2.55,13.85,13.85,0,0,0,1.25-3.58,15.74,15.74,0,0,0,.4-3.8,12.27,12.27,0,0,0-.2-1.6,9.9,9.9,0,0,0-.54-1.45c-.1-.25-.19-.5-.3-.74A26.53,26.53,0,0,0,132.7,59a18.18,18.18,0,0,0-4.24-4.4,9.7,9.7,0,0,0-2-1c-.41-.2-.81-.42-1.21-.66a3.48,3.48,0,0,0-1.81-.5,3.45,3.45,0,0,0-3,1.63Z"/><path
            class="cls-2"
            d="M84.85,74.87a4.65,4.65,0,0,0-2,1.11,11.88,11.88,0,0,1-2.07,1.94,34.35,34.35,0,0,1-5.55,3l1.07-.42c-1.89.74-3.76,1.52-5.64,2.28a28.78,28.78,0,0,1-4.88,1.45A24.85,24.85,0,0,1,61.11,84c-1.24-.26-2.44-.64-3.65-1a4.28,4.28,0,1,0-2.4,8.21l2.68.88a16.25,16.25,0,0,0,2.58.56,24.08,24.08,0,0,0,5.75.42,19.56,19.56,0,0,0,3.57-.59c.86-.24,1.72-.49,2.56-.8,1.9-.68,3.76-1.44,5.63-2.18A46.33,46.33,0,0,0,83.43,87a30,30,0,0,0,3.42-2.29,12.4,12.4,0,0,0,2.23-2l.75-.92a4.65,4.65,0,0,0,.68-2.33A4.56,4.56,0,0,0,86,74.74l-1.17.13Z"/><path
            class="cls-2"
            d="M81.58,74.69a4.33,4.33,0,0,0-.17,6.06,11.49,11.49,0,0,0,2.48,2,23.34,23.34,0,0,0,2.9,1.38c.74.32,1.49.6,2.23.9,1.07.42,2.13.82,3.2,1.22s2.26.85,3.41,1.22a11.28,11.28,0,0,0,1.61.44c.62.1,1.25.2,1.89.27a6.56,6.56,0,0,0,3.47-.76,4.41,4.41,0,0,0,2.15-4.91,4.48,4.48,0,0,0-2-2.67,4.55,4.55,0,0,0-3.2-.56,5,5,0,0,1-.55,0,45.26,45.26,0,0,1-4.55-1.43c-1.76-.61-3.53-1.24-5.26-2a11.75,11.75,0,0,1-1.25-.7l-.35-.35a4.32,4.32,0,0,0-6.06-.17Zm17.63,4.68-.23,0,.23,0Z"/><path
            class="cls-2"
            d="M42.07,51.53a11.47,11.47,0,0,0-2.12.78,13.56,13.56,0,0,0-1.31.68c-.45.25-.9.51-1.34.78-.69.41-1.33.89-2,1.29s-1.54.71-2.32,1.06a13.19,13.19,0,0,0-2.35,1.57c-.31.22-.59.47-.88.71a8.89,8.89,0,0,0-1,1,13.57,13.57,0,0,0-1.28,1.73,17.63,17.63,0,0,0-1.13,2.31,15.86,15.86,0,0,0-.95,3,14.48,14.48,0,0,0-.29,2.37,16.09,16.09,0,0,0,.23,2.59,25.31,25.31,0,0,0,1,4.78,15.83,15.83,0,0,0,1.49,3.43c.55.88,1.16,1.71,1.78,2.54l1,1.47c.43.62.85,1.25,1.31,1.85A15.77,15.77,0,0,0,35,88l2.2,1.72c.45.35.89.68,1.36,1a21.53,21.53,0,0,0,3.41,1.67,43.84,43.84,0,0,0,5.34,1.75c.73.2,1.45.42,2.18.59a31.28,31.28,0,0,0,3.47.54c.94.11,1.88.19,2.83.26s1.79.09,2.68.15a22.39,22.39,0,0,0,2.59,0,43.23,43.23,0,0,0,6.39-.87c1-.22,2-.47,3-.73s1.83-.58,2.73-.88c2-.69,4.07-1.38,6.06-2.23a28.17,28.17,0,0,0,6.49-3.69c.79-.62,1.52-1.31,2.28-2l1-.94c.43-.39.79-.83,1.22-1.22a4.51,4.51,0,0,0,.85-5.41,4.56,4.56,0,0,0-2.68-2.15A4.41,4.41,0,0,0,85,76c-2,1.31-3.58,3.09-5.42,4.57a37.48,37.48,0,0,1-5.33,2.69c-1.9.67-3.8,1.31-5.72,1.91a44.28,44.28,0,0,1-6.15,1.32c-.58.06-1.16.11-1.75.14a21.69,21.69,0,0,1-2.79-.1c-1.74-.09-3.49-.18-5.23-.4s-3.41-.88-5.09-1.37c-1-.31-2-.65-3-1.06a13.85,13.85,0,0,1-2.07-1.27c-.36-.26-.7-.52-1.05-.79-.69-.54-1.4-1.07-2.1-1.61a8.09,8.09,0,0,1-.75-.79c-.83-1.15-1.69-2.3-2.53-3.44-.31-.44-.6-.88-.86-1.34a7.92,7.92,0,0,1-.37-.78c-.23-.62-.43-1.24-.6-1.87C34,70.9,33.7,70,33.54,69a9.11,9.11,0,0,1,0-1.28,14.75,14.75,0,0,1,.76-2.53,12.07,12.07,0,0,1,1.09-1.74,13.26,13.26,0,0,1,1.21-1.16c.39-.26.8-.5,1.2-.74a18.11,18.11,0,0,0,1.77-1.24c.57-.43,1.11-.89,1.68-1.32a16,16,0,0,1,2.11-1.25l.45-.12a4.47,4.47,0,0,1,.52,0,8.83,8.83,0,0,1,1,.3,13.55,13.55,0,0,1,2.33,1.49,8.54,8.54,0,0,1,1,1c.1.17.19.34.28.51A7.77,7.77,0,0,1,49.23,62a9.85,9.85,0,0,1-.07,1.44c-.06.31-.14.63-.23.94h0l-.27.25a29,29,0,0,1-3.38,1.72,2.93,2.93,0,0,0-1.16,4,3,3,0,0,0,1.74,1.4,3,3,0,0,0,2.21-.25l1.72-.82.66-.33a14.14,14.14,0,0,0,2-1.31,6.24,6.24,0,0,0,2.19-3.51,14,14,0,0,0,.41-3,9.38,9.38,0,0,0-.23-2,8.54,8.54,0,0,0-.66-2.08,7.93,7.93,0,0,0-1.88-2.63,27.43,27.43,0,0,0-2.49-2.08,13.67,13.67,0,0,0-2.27-1.34,9.51,9.51,0,0,0-1.86-.71c-.2-.05-.41-.09-.61-.12a8.08,8.08,0,0,0-1.35-.15h-.08a8.54,8.54,0,0,0-1.59.2Zm5.29,7.63.3.24-.3-.24Z"/><path
            class="cls-2"
            d="M130,72a5,5,0,0,0-1.8.69c-.48.31-.92.67-1.38,1-1.18.84-2.39,1.66-3.64,2.39-.79.46-1.57.92-2.39,1.31s-1.49.69-2.25,1a30,30,0,0,1-4.9,1.54c-1,.18-2,.3-2.94.44l-2.54.35-.83.1a14.43,14.43,0,0,1-2.37,0c-.9-.06-1.79-.17-2.68-.28a32.76,32.76,0,0,1-5.8-1.81,26.76,26.76,0,0,1-3.93-2.39h0c-.15-.3-.28-.61-.41-.92s-.45-.63-.68-1a4.56,4.56,0,0,0-7.7,1.86l-.18,1.21a4.59,4.59,0,0,0,.56,2.26,8.09,8.09,0,0,0,.63,1.33A7.7,7.7,0,0,0,86.27,83a28.28,28.28,0,0,0,2.64,2,19.55,19.55,0,0,0,1.85,1.14,36.16,36.16,0,0,0,5.37,2.27l1.51.49a22.47,22.47,0,0,0,3.9.79c.84.11,1.68.22,2.53.3a22.49,22.49,0,0,0,5.31-.22c1.82-.21,3.64-.45,5.44-.74,1-.16,1.94-.37,2.9-.62s1.7-.59,2.52-.9a40.25,40.25,0,0,0,6.06-2.64c1.62-.93,3.21-1.92,4.73-3,.71-.5,1.43-1,2.11-1.52.18-.14.36-.27.53-.42a5.59,5.59,0,0,0,1.52-2.49,4.26,4.26,0,0,0-1-4.18A4.34,4.34,0,0,0,132.26,72,4.35,4.35,0,0,0,130,72Z"/><path
            class="cls-2"
            d="M10.14,45.43a8.05,8.05,0,0,0-2,.67,12.93,12.93,0,0,0-2.6,1.73,10.87,10.87,0,0,0-2.76,3.73c-.42.79-.83,1.59-1.2,2.4A13.46,13.46,0,0,0,.31,57.37,22.75,22.75,0,0,0,0,59.82a12.36,12.36,0,0,0,0,1.36A24.33,24.33,0,0,0,1.1,67.4a19.88,19.88,0,0,0,3.46,6.38c.61.77,1.23,1.51,1.9,2.22A25.19,25.19,0,0,0,9.2,78.43a16.41,16.41,0,0,0,3.51,2c1.11.5,2.24,1,3.39,1.41.92.33,1.84.65,2.78.92a13.66,13.66,0,0,0,2.35.43q.66.08,1.32.09a18.29,18.29,0,0,0,2.21-.18,13,13,0,0,0,2-.27c.35-.09.69-.23,1.05-.33A4.6,4.6,0,0,0,31.07,77a4.54,4.54,0,0,0-2-2.76,4.7,4.7,0,0,0-3.49-.54c-.5.09-1,.26-1.47.37a14.73,14.73,0,0,1-2.2.05,22.26,22.26,0,0,1-2.37-.72c-.93-.31-1.84-.67-2.75-1-.41-.19-.81-.39-1.2-.61A10.88,10.88,0,0,1,14.43,71c-.55-.5-1.09-1-1.6-1.54a20.91,20.91,0,0,1-1.44-1.68,19.53,19.53,0,0,1-1.5-2.68A19.42,19.42,0,0,1,9.15,62a18.15,18.15,0,0,1-.06-2.66,12.26,12.26,0,0,1,.52-1.55c.23-.47.45-.94.69-1.41a18.38,18.38,0,0,1,1-1.91c.16-.15.33-.3.51-.44l.19-.11c.93,0,1.86,0,2.79.07a4.35,4.35,0,1,0,.13-8.69c-.9,0-1.81-.07-2.72-.07h0a17.71,17.71,0,0,0-2.06.18Z"/><path
            class="cls-3"
            d="M34.08,23.44a18.65,18.65,0,0,0-3.42.38,14.49,14.49,0,0,0-3.84,1.29,9.07,9.07,0,0,0-1.33.89,8.12,8.12,0,0,0-1,.87,17,17,0,0,0-1.93,2.62c-.5.82-.93,1.69-1.36,2.55a33.91,33.91,0,0,0-1.43,3.48c-.19.54-.36,1.08-.52,1.62a13.55,13.55,0,0,0-.45,3.17,26.63,26.63,0,0,0,0,3.46,27.13,27.13,0,0,0,.29,3,10.47,10.47,0,0,0,1.7,3.83h0A19.75,19.75,0,0,1,20.25,48a18.28,18.28,0,0,1,.36-4.54,28.08,28.08,0,0,1,1.28-5.36c.34-.72.69-1.45,1.05-2.17s.68-1.36,1.07-2a39.53,39.53,0,0,1,2.68-4.22,10.85,10.85,0,0,1,1.39-1.32l.37-.25A9.41,9.41,0,0,1,30,27.34c.65-.24,1.31-.45,2-.64a23.87,23.87,0,0,1,2.38-.48c.48-.08,1-.13,1.46-.19a12.59,12.59,0,0,1,2.53,0,32.94,32.94,0,0,1,3.76,1.09l2.2.67c.58.17,1.16.32,1.72.52s1.41.4,2.11.63c0,0,0,0,0,0-.4-.31-.82-.6-1.25-.88s-.69-.38-1-.58c-.8-.46-1.61-.9-2.41-1.35a30.59,30.59,0,0,0-4.59-2.27,7.05,7.05,0,0,0-1.72-.31,13.55,13.55,0,0,0-1.43-.09Z"/><path
            class="cls-3"
            d="M79.4,7.1c-2,.1-3.92.25-5.89.39-1,.08-2,.21-3,.34-.44,0-.87.16-1.31.24s-1,.21-1.44.31a23.55,23.55,0,0,0-2.6.78c-.9.3-1.79.63-2.69,1a27.63,27.63,0,0,0-3,1.37c-.36.19-.69.43-1,.64l-1.29.78c-.76.46-1.5,1-2.22,1.48a15.22,15.22,0,0,0-2.19,1.82c-.68.71-1.36,1.43-2,2.16s-1.18,1.4-1.74,2.13a18.08,18.08,0,0,0-2.15,3.38,9.79,9.79,0,0,0-.68,2.45c-.14.71-.25,1.43-.36,2.14h0c.38-1,.77-2.07,1.19-3.1a9.24,9.24,0,0,1,1-1.6c.12-.17.25-.33.38-.49.88-1,1.8-1.89,2.77-2.77S53.13,18.78,54.2,18a17.17,17.17,0,0,1,1.56-1c.71-.38,1.41-.77,2.14-1.12,1.29-.62,2.59-1.22,3.91-1.77,1.5-.54,3-1.08,4.52-1.51A24.18,24.18,0,0,1,68.7,12c.83-.16,1.65-.29,2.48-.41s1.62-.15,2.43-.2l3.12-.17c1-.06,2-.1,3-.13.77,0,1.53,0,2.29,0a34.87,34.87,0,0,1,4,.35c2.37.43,4.74.86,7.08,1.48.62.16,1.24.33,1.85.51s1,.36,1.57.56c1.1.42,2.17.9,3.25,1.36.67.32,1.36.61,2,1a33.55,33.55,0,0,1,4,2.41,17.94,17.94,0,0,1,2.17,2.44,14.79,14.79,0,0,1,1.52,2.69,9.94,9.94,0,0,1,.5,1.69,7.07,7.07,0,0,1,0,.92,28.24,28.24,0,0,1-1.07,3.69c-.22.66-.47,1.31-.72,1.95l0-.07a12.22,12.22,0,0,1-.78,1.53h0A13.72,13.72,0,0,0,109.64,31c.26-.34.51-.71.76-1.07A16.5,16.5,0,0,0,112,27.11a5.85,5.85,0,0,0,.3-.83,7.38,7.38,0,0,0,.16-.94,7.58,7.58,0,0,0-.13-2,12.62,12.62,0,0,0-1.17-3.74,17.85,17.85,0,0,0-2.07-3.29,8.2,8.2,0,0,0-1.19-1.24,24.42,24.42,0,0,0-2-1.54c-.45-.32-.92-.6-1.39-.9s-.65-.41-1-.59L102,11.29c-.54-.27-1.11-.49-1.67-.72-.88-.36-1.76-.68-2.66-1-.42-.15-.85-.28-1.27-.41s-.85-.22-1.27-.32c-.94-.23-1.89-.4-2.84-.58s-1.7-.33-2.55-.46c-1.45-.22-2.9-.47-4.35-.63A32.58,32.58,0,0,0,82,7c-.87,0-1.74,0-2.61.08Z"/><path
            class="cls-3"
            d="M120.34,20.57a18.92,18.92,0,0,0-3.46,1.05,37.34,37.34,0,0,0-3.58,1.79s0,0,0,0a46.76,46.76,0,0,1,4.82-1,25.33,25.33,0,0,1,6.45.16c1.59.26,3.16.62,4.72,1,.47.11.94.21,1.4.33a22.7,22.7,0,0,1,2.91,1,33.39,33.39,0,0,1,6.73,4.19A30.27,30.27,0,0,1,145.07,34a40,40,0,0,1,2.3,4c.47.9.9,1.84,1.29,2.78A9.48,9.48,0,0,1,149,42a16.36,16.36,0,0,1-.23,3.2A28.73,28.73,0,0,1,147,51.81a15.43,15.43,0,0,1-1.71,2.87,35.39,35.39,0,0,1-3,3,31.55,31.55,0,0,1-2.47,2.16,8.08,8.08,0,0,1-1.59.91h0l-.23.1h0a11.35,11.35,0,0,0,5-1.52,20.87,20.87,0,0,0,5.41-3.51,15.4,15.4,0,0,0,2.33-3,15.92,15.92,0,0,0,.82-1.59,24.27,24.27,0,0,0,1-2.3,22,22,0,0,0,1-3.65,20.8,20.8,0,0,0,.29-2.08,9,9,0,0,0-.13-2.49,8.43,8.43,0,0,0-.67-1.88c-.13-.31-.29-.61-.45-.91s-.47-.88-.72-1.31c-.52-.91-1-1.8-1.59-2.7a27.12,27.12,0,0,0-4.87-5.86,34.82,34.82,0,0,0-6.63-4.89,21.49,21.49,0,0,0-7.06-2.49c-1.2-.2-2.42-.33-3.63-.44-1-.08-1.94-.13-2.9-.13a24.69,24.69,0,0,0-4.77.44Zm4.31,2,.15,0-.15,0Z"/><path
            class="cls-3"
            d="M13.11,48.73a7,7,0,0,0-1.68.47,8.43,8.43,0,0,0-1.6,1A12.25,12.25,0,0,0,7.2,53.1a18.71,18.71,0,0,0-1.7,3.41,25.27,25.27,0,0,0-1.19,4.07,24.8,24.8,0,0,0-.56,4.1,12.15,12.15,0,0,0,.13,2.26c.05.32.1.63.17.94a8,8,0,0,0,.51,1.45,8.16,8.16,0,0,0,1.11,1.8,9,9,0,0,0,1.21,1.34,14.71,14.71,0,0,0,3.52,2.32,26.78,26.78,0,0,0,8,2.12,41.26,41.26,0,0,0,6.38.4c.62,0,1.24,0,1.86,0l.84,0A8.26,8.26,0,0,0,28.67,77h0c-.52-.09-1-.24-1.54-.35s-.89-.2-1.33-.32c-.82-.23-1.62-.49-2.43-.73a78.86,78.86,0,0,1-8.56-3.12A19.29,19.29,0,0,1,11,70.15a11.41,11.41,0,0,1-1.5-1.53,9.83,9.83,0,0,1-.76-1.34,10.84,10.84,0,0,1-.37-1.69,29.44,29.44,0,0,1,.38-6.36,22.7,22.7,0,0,1,1.36-5A13.17,13.17,0,0,1,11.43,52,9.1,9.1,0,0,1,12.53,51a10.91,10.91,0,0,1,1.88-.92,11.83,11.83,0,0,1,2.39-.68,12.33,12.33,0,0,1,2.91.2s0,0,0,0a9.6,9.6,0,0,0-3-1.06,8.77,8.77,0,0,0-1,0,14.16,14.16,0,0,0-2.6.27Z"/><path
            class="cls-3"
            d="M89.71,70.09c-1.31.53-2.6,1.08-3.89,1.65a13,13,0,0,0-1.54.88l-.66.42a7.61,7.61,0,0,1-.7.35c-3,1.51-6,3.06-9.15,4.32a44.29,44.29,0,0,1-5.36,1.67,53.58,53.58,0,0,1-5.78,1c-1,.11-2.08.2-3.13.25s-2.26,0-3.39,0A57.65,57.65,0,0,1,49.82,80a43.91,43.91,0,0,1-10.56-2.86,16.46,16.46,0,0,1-3.3-2,8,8,0,0,1-1.28-1.33q-.52-.75-1-1.53h0a9.39,9.39,0,0,0,3.11,5.85,20.83,20.83,0,0,0,2.87,2.26,24.47,24.47,0,0,0,3.71,2.06A35.68,35.68,0,0,0,60.1,85.66c1.46-.07,2.93-.26,4.39-.43a34.51,34.51,0,0,0,4.16-.74,29.82,29.82,0,0,0,7.71-3.27,40.68,40.68,0,0,0,4.09-2.82c.71-.55,1.44-1.08,2.12-1.67l2.15-1.88c.55-.49,1.16-.91,1.72-1.39A17.65,17.65,0,0,0,87.86,72c.61-.64,1.23-1.29,1.85-1.92h0Z"/><path
            class="cls-3"
            d="M90.81,70c-.37.52-.73,1-1.1,1.58a4.33,4.33,0,0,0-.55.86A3,3,0,0,0,89,74a2.59,2.59,0,0,0,.64,1.24,9.32,9.32,0,0,0,1.19,1.16,16.68,16.68,0,0,0,3.39,2,57.75,57.75,0,0,0,7.8,3.24,43.47,43.47,0,0,0,8.51,1.83,33.32,33.32,0,0,0,8.64-.07,25.59,25.59,0,0,0,7.9-2.27A23.16,23.16,0,0,0,130.41,79c.79-.58,1.56-1.19,2.3-1.83s1.51-1.32,2.25-2,1.5-1.43,2.2-2.19c.3-.32.58-.66.87-1a9.13,9.13,0,0,0,.86-1.27h0c-.52.33-1,.64-1.53,1l.07,0c-1.32.76-2.7,1.4-4.08,2.06-2.16,1.06-4.33,2.11-6.56,3a26.5,26.5,0,0,1-3,.93,31.19,31.19,0,0,1-3.46.57c-1.23.13-2.47.26-3.71.3s-2.61,0-3.91,0-2.75-.19-4.12-.33-2.58-.29-3.87-.48c-2.13-.34-4.23-.81-6.34-1.27q-1.62-.36-3.24-.78a24.73,24.73,0,0,1-2.94-.85,9,9,0,0,1-1.63-.93,3.45,3.45,0,0,1-.26-.28,1.71,1.71,0,0,1-.13-.23,2.57,2.57,0,0,1-.11-.48s0,.09,0,.14a1.42,1.42,0,0,1,0-.41c.22-.89.52-1.78.78-2.66h0Zm-.7,3.3s0,.07,0,.11a.36.36,0,0,1,0-.11Z"/><path
            class="cls-3"
            d="M147.94,51.13c.82.9,1.63,1.82,2.36,2.8.36.51.69,1,1,1.56a11,11,0,0,1,.74,1.34,7.5,7.5,0,0,1,.26,1,3.24,3.24,0,0,1,0,.44,6.73,6.73,0,0,1-.32,1,8.53,8.53,0,0,1-.85,1.38,30.21,30.21,0,0,1-4.75,4.14c-1.58,1.12-3.23,2.13-4.88,3.15a39.27,39.27,0,0,1-3.9,2.32h0a14.82,14.82,0,0,0,4.39-.65,29.22,29.22,0,0,0,5.72-2.15,18.58,18.58,0,0,0,4.61-3.3,8.43,8.43,0,0,0,2.62-5,4.38,4.38,0,0,0-.42-2.49,6.89,6.89,0,0,0-1.71-2.23,16.75,16.75,0,0,0-2.11-1.75A20.57,20.57,0,0,0,148,51.12h0Z"/><path
            class="cls-3"
            d="M107.79,18.2a14.25,14.25,0,0,0,.7,1.82c.27.58.7,1.08,1,1.63a5.06,5.06,0,0,1,.23.93,19.57,19.57,0,0,1,0,2.76c0,.6,0,1.2-.12,1.79a15.25,15.25,0,0,1-1,3.26,16.48,16.48,0,0,1-1.81,2.82,9.27,9.27,0,0,1-1,1,19.87,19.87,0,0,1-2.06,1.17c-.81.42-1.63.83-2.47,1.18a17.6,17.6,0,0,1-3.5.88c-.52,0-1.05.08-1.57.09a16.83,16.83,0,0,1-2,0,4.63,4.63,0,0,1-.81-.22,9.07,9.07,0,0,1-1.38-.81,5.33,5.33,0,0,1-.4-.42,5,5,0,0,1-.3-.56,12.06,12.06,0,0,1-.61-2.21,8.47,8.47,0,0,1,0-1.67,6.09,6.09,0,0,1,.25-.93,6.28,6.28,0,0,1,.48-.78h0c-1.68.94-2.23,2.88-2.37,4.68a9.18,9.18,0,0,0,0,1.74,5.1,5.1,0,0,0,.53,1.7,5.6,5.6,0,0,0,1.09,1.42,8,8,0,0,0,1.66,1.36,10.86,10.86,0,0,0,3.79,1.08c.7.1,1.4.19,2.1.22a13.83,13.83,0,0,0,2.49-.15,16.3,16.3,0,0,0,7.51-3.23,7,7,0,0,0,2-2.4c.46-.9.9-1.81,1.28-2.75a13,13,0,0,0,.88-3.94,12.39,12.39,0,0,0-.23-3.44,19.79,19.79,0,0,0-1.27-4.4,4.36,4.36,0,0,0-1.32-1.54,12,12,0,0,1-1-.91,13.43,13.43,0,0,1-1-1.16h0Z"/><path
            class="cls-3"
            d="M42.68,55.27a11.11,11.11,0,0,0-3.46.75,17.08,17.08,0,0,0-2.77,1.3,10.06,10.06,0,0,0-2.94,3.31,13.51,13.51,0,0,0-1.32,2.7,23.2,23.2,0,0,0-.77,2.45,12.85,12.85,0,0,0-.3,1.6,7,7,0,0,0,.15,2.14,9.12,9.12,0,0,0,.6,1.83,7.62,7.62,0,0,0,.93,1.58,12.29,12.29,0,0,0,2.44,2.6,10,10,0,0,0,2.38,1.39,12.28,12.28,0,0,0,2.5.78s0,0,0,0a18.12,18.12,0,0,1-2.94-3.06,14.88,14.88,0,0,1-1.47-2.72,11.38,11.38,0,0,1-.54-2,8.14,8.14,0,0,1,0-1.48,16.09,16.09,0,0,1,1.06-2.88,20.49,20.49,0,0,1,2.1-3.7c.17-.18.34-.35.52-.51a16.73,16.73,0,0,1,2.48-1.3,10.91,10.91,0,0,1,1.79-.45,7.3,7.3,0,0,1,.81,0c.68.17,1.36.4,2,.63s1.08.38,1.62.61a9.08,9.08,0,0,1,1.41.82l.3.31a11.15,11.15,0,0,1,.86,1.73,8,8,0,0,1,.39,1.35,12.84,12.84,0,0,1,0,1.64,3.28,3.28,0,0,1-.18.61,4.59,4.59,0,0,1-.33.52l-.23.22c-.18.1-.34.19-.52.27a15.26,15.26,0,0,1-2,.42L46,68.9h0L45.4,69h0a10.41,10.41,0,0,0,4.9.91,3.5,3.5,0,0,0,2-1.19,4.56,4.56,0,0,0,1-2.12,8.07,8.07,0,0,0,0-3.46,12.18,12.18,0,0,0-.59-1.86c-.12-.31-.25-.62-.4-.92a6.42,6.42,0,0,0-1.89-2.06,11.76,11.76,0,0,0-2.48-1.43L46,56a8.28,8.28,0,0,0-1.28-.5,7,7,0,0,0-1.64-.2Zm7.1,12.85-.06,0,.06,0Z"/><path
            class="cls-3"
            d="M129.39,50.68a11.19,11.19,0,0,0-1.11,2.47,7.34,7.34,0,0,0-.15,3,5.31,5.31,0,0,0,.43,1.19l.27.63a12.81,12.81,0,0,0,.59,1.17,12.18,12.18,0,0,0,.9,1.35l.34.42A8.68,8.68,0,0,0,131.93,62a7,7,0,0,0,1,.64,10.09,10.09,0,0,0,1.3.58,5.07,5.07,0,0,0,2.29.15,9.38,9.38,0,0,0,2.6-1,11.11,11.11,0,0,0,1.12-.63,13.08,13.08,0,0,0,2.21-1.62A10.78,10.78,0,0,0,144.11,58a.41.41,0,0,0,.07-.11,1.9,1.9,0,0,0,.4-.53,4.76,4.76,0,0,0,.29-.65c.18-.47.31-.95.49-1.42,0,0,0,0,0,0-.38.24-.76.5-1.16.72l-.6.31a2.46,2.46,0,0,0-.54.37c-.55.28-1.1.56-1.67.81a20.39,20.39,0,0,1-2.16.61c-1,.24-2,.45-3,.6a1.41,1.41,0,0,1-.29,0,8.27,8.27,0,0,1-1.06-.36h0a9.86,9.86,0,0,1-1.39-.77l-.63-.47-.93-.81A16.44,16.44,0,0,1,130.61,55a7.52,7.52,0,0,1-.52-1,19.21,19.21,0,0,1-.69-3.27h0Z"/><path
            class="cls-3"
            d="M41.7,26.41h0c.65.49,1.31,1,1.94,1.46a18.12,18.12,0,0,1,2.88,2.86c.35.51.65,1.05,1,1.57a11.35,11.35,0,0,1,.87,1.51,5.78,5.78,0,0,1,.17.69,8.71,8.71,0,0,1-.09,1.69,17.85,17.85,0,0,1-.7,3.06h0a8.94,8.94,0,0,0,2-1.62,6.6,6.6,0,0,0,1.55-2.59A4.57,4.57,0,0,0,51,31.82,9.45,9.45,0,0,0,47.84,28a7.49,7.49,0,0,0-1.32-.68,12.09,12.09,0,0,0-1.65-.61,11.33,11.33,0,0,0-3-.31ZM48.49,36l0,.12s0-.08,0-.12Z"/></g>
    </g>
</svg>
