<svg xmlns="http://www.w3.org/2000/svg" viewBox="0 0 647.5 631.24"><defs><style>.cls-1{fill:#bd9147}.cls-2{fill:#ddc18f}.cls-3{fill:#171717}</style></defs><g id="Layer_2" data-name="Layer 2"><g id="Layer_1-2" data-name="Layer 1"><path class="cls-1" d="M407.18 1c-4.6.48-9.18 1.22-13.75 1.94l-7.16 1.13-5.54.88c-1 .17-2.08.38-3.13.5l-8.7.92c-2.37.26-4.76.38-7.14.55-5.39.37-10.78.79-16.17 1.2-2.45.18-4.9.51-7.34.77l-4.74.5c-1.44.15-2.88.37-4.31.62l-2.22.68c-1.82.55-3.65 1.07-5.49 1.59-.87.25-1.74.48-2.61.7l-1.28.33a6.62 6.62 0 0 1-3 .18 4.5 4.5 0 0 1-3.08-2.25c-.46 3.2-.83 6.39-1.16 9.59a4.54 4.54 0 0 1-2 3 4.75 4.75 0 0 1-7.36-3.72c0-.43.07-.85.1-1.27.17-1.66.35-3.31.55-5a35.75 35.75 0 0 0-4 2.79c-.88.79-1.74 1.61-2.58 2.44a12.88 12.88 0 0 1-.66 2.6c-.81 2.26-1.67 4.54-2.67 6.73-.29.63-.6 1.26-.92 1.89l.31.43c.56.78 1.13 1.56 1.68 2.36l.55.8.81-.38.63-.17a10.31 10.31 0 0 1 2.6-.33 24.24 24.24 0 0 1 7.69 1.75c1.33.45 2.67.93 4 1.48a67.39 67.39 0 0 1 6.31 3 44.57 44.57 0 0 1 5.78 4.07c.65.5 1.32 1 2 1.48 1.41.63 2.81 1.26 4.24 1.86l.82.35a4.31 4.31 0 0 1 3.49.33c1.12.68 2.27 1.3 3.38 2l.89.59.58.28a7.6 7.6 0 0 1 1.4 1 5.45 5.45 0 0 1 .47.37h.07a6.33 6.33 0 0 1 .85.94 4.62 4.62 0 0 1 .68 3.63 5.13 5.13 0 0 1-.34 1 10.13 10.13 0 0 1 1 .72 16.43 16.43 0 0 1 1.56 1.45 12.63 12.63 0 0 1 2 2.37 5.64 5.64 0 0 1 .76 2.65 17.26 17.26 0 0 1 2.15 2.68 28.69 28.69 0 0 1 3.69 8.54c.48 2 .81 4 1.12 6.09a26.67 26.67 0 0 1-.06 7.25 34.89 34.89 0 0 1-1.12 5.9c-.56 1.86-1.13 3.72-1.75 5.56v4.13c.19 1.14.37 2.28.47 3.43a21.58 21.58 0 0 1 0 3.77 3.88 3.88 0 0 1-.49 2l-.21.55a4.49 4.49 0 0 1-1.87 1.94 4.92 4.92 0 0 1-4.47.41c-.45.94-.91 1.87-1.37 2.81s-.91 1.79-1.34 2.7c-.26.57-.49 1.16-.71 1.74a139.25 139.25 0 0 1-5.1 13.3c-.55 1.23-1.1 2.46-1.64 3.69-.24 1-.53 2.09-.87 3.15-.54 1.69-1.19 3.48-2 5.46-1.12 2.1-2.38 4.25-3.82 6.52l-.09.2c-1 2.19-2.09 4.32-3.18 6.47s-2.22 4.22-3.43 6.28c-.68 1.16-1.35 2.32-2 3.47s-1.49 2.38-2.17 3.6c-1.22 2.23-2.45 4.45-3.59 6.73s-2.21 4.43-3.28 6.67-2.14 4.77-3.42 7-2.73 4.32-4.2 6.42c-1.06 1.53-2.14 3.05-3.12 4.63-1.23 2-2.44 4-3.61 6-2.13 3.63-4.13 7.32-6.36 10.89-1.28 2.06-2.58 4.09-4 6-1.23 1.66-2.5 3.28-3.77 4.91-2.28 2.94-4.49 5.92-6.63 9s-4.26 6.35-6.41 9.51a88.2 88.2 0 0 1-7.39 9.61c-3 3.25-6.23 6.2-9.15 9.49-.36.74-.73 1.49-1.09 2.24-1.1 2.24-2.12 4.52-3.23 6.75s-2.26 4.29-3.5 6.38c-.94 1.59-1.84 3.21-2.89 4.73l-.13.2a5.46 5.46 0 0 1-.1 1.07 17.12 17.12 0 0 1-.46 4.16 35.75 35.75 0 0 1-1.23 3.47 65.53 65.53 0 0 1-3 5.91 133.43 133.43 0 0 1-8 12.61l-6.56 9.23c-2 2.81-4 5.57-6.16 8.28a25.81 25.81 0 0 1-3.35 3.74 9.69 9.69 0 0 1-1.59 1.19 50.39 50.39 0 0 1-5.25 7.63 4.76 4.76 0 0 1-4.55 1.46 5.09 5.09 0 0 1-3-2 3.91 3.91 0 0 1-.6-1l-1.43 2.51c-.55 1-1.07 1.93-1.67 2.84a19 19 0 0 1-1.6 2.28 10.78 10.78 0 0 1-2 1.75 4.73 4.73 0 0 1-1.18.56c-1.49 1.9-2.91 3.85-4.32 5.81-2.71 4-5.36 8-8 12-1.42 2.14-2.85 4.28-4.34 6.36s-3.15 4-4.8 6c-3.13 3.72-6.38 7.31-9.22 11.26-2.71 3.77-5.29 7.67-8.35 11.17s-6.19 7.3-9 11.16c-3 4.48-6 9-9.33 13.24-1.73 2.18-3.64 4.21-5.38 6.38s-3.34 4.24-4.91 6.43c-1.92 2.79-3.85 5.58-5.69 8.41-2 3.05-3.93 6.11-5.94 9.14s-4.36 6.18-6.72 9.15c-2.11 2.65-4.24 5.27-6.22 8s-3.93 5.8-5.76 8.79c-1.22 2-2.49 4-3.57 6s-2.28 4.36-3.39 6.56l-4.11 8.16c-1.27 2.5-2.64 5-4 7.44s-2.71 5-4.08 7.51l-.12.68-.7 4.18a32.74 32.74 0 0 0 23.11 32.49 32.4 32.4 0 0 0 7.75 1.37 26.39 26.39 0 0 0 3.72 5c4.86 5.1 11.88 8.4 17.91 8.4h.67c3.35-.13 7-.22 11.34-.27h4.43c.88 0 1.71 0 2.44.07h.9c5.36.3 10.91.62 16.35 1.16q8.79.88 17.59 1.73c5.77.55 11.57.85 17.19 1.14 3.68.19 7.42.33 11 .47 6.61.25 13.45.5 20.16 1.08q5.49.46 11 1c7.44.68 15.14 1.38 22.73 1.91 8.46.59 17.1.72 25.45.84l8 .14c5.54.11 11.17.41 16.61.71 4.78.25 9.72.52 14.58.65 8.31.23 16.58.35 24.58.35 3.24 0 6.48 0 9.73-.05h4.7c9.46 0 18.94.33 27 .66 3 .12 6 .22 9.07.32 7.71.25 15.67.52 23.47 1.16l2 .16c4.84.38 9.85.79 14.72 1.54l3.32.52c4.38.68 8.77 1.36 13.16 2l1.14.16 2.81.4c1.49.37 3 .6 4.88.88 4.31.83 8.64 1.78 11.93 2.52s6.37 1.44 9.55 2.19l1.94.47c5.41 1.3 11 2.65 16.5 2.9h2.89a31.23 31.23 0 0 0 5 2 32.38 32.38 0 0 0 9.27 1.39 33.09 33.09 0 0 0 7.35-.85 31.62 31.62 0 0 0 14-7.47 4.57 4.57 0 0 1 .1-1.33c.23-2.21 1.39-4.3 2.26-6.34.5-1.17 1-2.34 1.53-3.51.92-2.11 1.87-4.2 2.81-6.31q3-6.75 5.81-13.6c1.9-4.67 3.85-9.31 5.89-13.91 2-4.43 4-8.85 5.82-13.33q6.21-14.91 12-30c3.61-9.37 7.78-18.51 11.4-27.88 1.28-3.77 2.45-7.57 3.85-11.3q1.74-4.7 3.55-9.4l.27-.85a4.87 4.87 0 0 1 0-1.94c.42-2.13 1.08-4.18 1.69-6.25a2.29 2.29 0 0 0 .08-.28c1.42-8.44 2.79-16.89 4.32-25.33.64-3.57 1.28-7.13 2-10.67l3-13.66c.42-1.92 1-3.83 1.43-5.74q1.33-5.37 2.68-10.74c1.11-4.48 2.33-8.92 3.53-13.38q1.88-6.93 3.73-13.88l.53-2c-.07-.1-.15-.2-.21-.3a4.75 4.75 0 0 1-.68-3.63c2.52-11.13 4.88-22.29 7.21-33.45.17-1.5.34-3 .52-4.5.19-1.73.47-3.46.7-5.19l1.52-11.23c.51-3.78 1-7.54 1.67-11.29q1.89-10.56 3.73-21.19c.38-2.16.77-4.32 1.15-6.48.45-2.52 1.12-5 1.74-7.49.91-3.62 1.86-7.22 2.76-10.84a4.93 4.93 0 0 1 2.27-3.08c.22-1.56.43-3.12.65-4.68l1.17-17.11c.12-1.75.17-3.51.25-5.26l.51-11.18c0-1.15.11-2.28.16-3.42V198c-.14-1.14-.28-2.27-.4-3.41-.52-4.77-1-9.54-1.4-14.31a5 5 0 0 1-.43-1.69q-.18-3.15-.3-6.3l-.33-3.54c-.14-1.62-.29-3.25-.44-4.88-.06-.7-.16-1.4-.19-2.1l-.36-8.25c0-1.09-.11-2.19-.17-3.29-.41-2.86-.85-5.73-1.26-8.58-.63-4.43-1.2-8.86-1.92-13.28l-3-18.38a4.92 4.92 0 0 1-3.25-2.08l-1-1.45c-1-1.49-1.94-3-2.83-4.63-.15-.18-.31-.36-.46-.55-.71-.9-1.31-1.88-2-2.8-.83-1.1-1.61-2.23-2.39-3.37L620.44 92a21 21 0 0 1-1.26-1.82 11.79 11.79 0 0 1-1.13-2.54c-.12-.67-.25-1.33-.37-2a5.15 5.15 0 0 1 .09-1.24c-1.61-2.9-3.22-5.79-4.76-8.73l-4.71-9c-.24-.46-.48-.92-.71-1.39h-.06a4.77 4.77 0 0 1-5.79-.44c-3.78-3.51-7.35-7.26-11-10.94-3.06-3.12-5.87-6.48-8.68-9.81a33.14 33.14 0 0 1-2.83-3.21 4.13 4.13 0 0 1-.45-.79c-.36-.29-.71-.57-1.06-.87l-1.72-.58a12.59 12.59 0 0 1-1.5-.89l-1-.61-2.16-1.31-2.82-1.69c-2.28-1.37-4.53-2.79-6.77-4.23s-4.62-3.16-6.9-4.8c-1.6-1.16-3.2-2.3-4.75-3.53l-.33-.26-.41.2a5.74 5.74 0 0 1-4-.08l-.24-.07a4.45 4.45 0 0 1-.89.13 4.67 4.67 0 0 1-2.43-.52 47.92 47.92 0 0 1-4.57-1.91c-1.27-.66-2.53-1.34-3.76-2.06-1.89-1.11-3.76-2.25-5.59-3.46-1.52-.17-3-.28-4.56-.46a32.65 32.65 0 0 1-7.78-1.9A28.83 28.83 0 0 1 508.83 7c-1.5-1.13-3-2.25-4.53-3.33l-.86-.56h-.29c-2-.2-4.07-.56-6.1-.88l-5.84-.92c-2.71-.42-5.43-.76-8.15-1.1a4.78 4.78 0 0 1-2.82 1.12h-.72c-2.73.17-5.45.06-8.18 0l-7.52-.13c-5.16-.11-10.32-.2-15.48-.29S437.91.7 432.7.54L422.07.21c-1.44 0-2.87-.1-4.31-.13-1.17 0-2.36 0-3.55-.08-2.3.17-4.58.47-6.87.71z"/><path class="cls-1" d="M318 81.56a4.87 4.87 0 0 1 1.36-.25c-.35-.38-.71-.75-1.07-1.13-.08.46-.18.92-.29 1.38zM114.31 439.74c.91-1.21 1.85-2.39 2.8-3.56l-.37-.25q-1.23 1.89-2.43 3.81z"/><path class="cls-2" d="M297.64 16.63q-1.33 1.19-2.58 2.43a14.68 14.68 0 0 1-.66 2.61c-.82 2.26-1.68 4.54-2.68 6.73-.29.62-.59 1.26-.91 1.89l.3.43c.56.78 1.13 1.56 1.68 2.35l.55.81c.27-.14.55-.26.82-.39l.62-.16a9.88 9.88 0 0 1 2.59-.32 24.25 24.25 0 0 1 7.69 1.76c1.34.45 2.68.93 4 1.47a67.22 67.22 0 0 1 6.3 3 46.7 46.7 0 0 1 5.79 4.07c.64.5 1.3 1 2 1.47 1.41.63 2.83 1.27 4.26 1.88l.82.34a4.39 4.39 0 0 1 3.49.33c1.12.68 2.27 1.3 3.38 2l.89.59.58.28a7.6 7.6 0 0 1 1.4 1 5.45 5.45 0 0 1 .47.37h.07a6.33 6.33 0 0 1 .85.94 4.68 4.68 0 0 1 .34 4.62c.34.23.66.47 1 .72a17.85 17.85 0 0 1 1.56 1.45 13 13 0 0 1 2 2.38 5.36 5.36 0 0 1 .77 2.64 17.68 17.68 0 0 1 2.14 2.68 28.32 28.32 0 0 1 3.69 8.54c.48 2 .82 4 1.12 6.09a26.74 26.74 0 0 1 0 7.26 35.79 35.79 0 0 1-1.12 5.89c-.56 1.86-1.14 3.72-1.76 5.56v4.13c.19 1.14.37 2.29.46 3.43a23.85 23.85 0 0 1 0 3.78 4 4 0 0 1-.49 2l-.21.54a4.44 4.44 0 0 1-1.88 2 4.93 4.93 0 0 1-4.46.4c-.45.94-.91 1.88-1.38 2.81s-.91 1.8-1.33 2.71c-.26.57-.49 1.15-.71 1.73a142 142 0 0 1-5.1 13.3c-1.82 4.06-3.6 8.14-5.41 12.2l-3 6.82c-1 2.27-2.1 4.33-3.19 6.47s-2.22 4.23-3.43 6.28c-.68 1.16-1.35 2.33-2 3.48s-1.5 2.38-2.17 3.6c-1.23 2.23-2.46 4.44-3.59 6.72s-2.22 4.44-3.28 6.68-2.14 4.77-3.42 7-2.73 4.32-4.21 6.42c-1 1.53-2.13 3.06-3.11 4.63-1.24 2-2.43 4-3.61 6-2.13 3.62-4.14 7.32-6.36 10.89-1.28 2-2.59 4.09-4 6-1.23 1.66-2.5 3.28-3.77 4.92q-3.42 4.4-6.63 9c-2.14 3.17-4.26 6.36-6.42 9.52a88.09 88.09 0 0 1-7.39 9.6c-3 3.26-6.22 6.2-9.14 9.49-.36.75-.73 1.49-1.09 2.24-1.1 2.24-2.12 4.52-3.23 6.75s-2.26 4.29-3.5 6.38c-.94 1.59-1.84 3.21-2.89 4.73l-.14.2a4.79 4.79 0 0 1-.09 1.07 17.12 17.12 0 0 1-.46 4.16 34.83 34.83 0 0 1-1.23 3.47 65.53 65.53 0 0 1-3 5.91 133.43 133.43 0 0 1-8 12.61l-6.56 9.23c-2 2.81-4 5.57-6.16 8.28a25.81 25.81 0 0 1-3.35 3.74 9.77 9.77 0 0 1-1.6 1.19 49.14 49.14 0 0 1-5.24 7.63 4.76 4.76 0 0 1-4.55 1.46 5.09 5.09 0 0 1-3-2 3.91 3.91 0 0 1-.6-1l-1.43 2.51c-.55 1-1.07 1.94-1.67 2.85a19.76 19.76 0 0 1-1.6 2.27 10.78 10.78 0 0 1-2 1.75 4.54 4.54 0 0 1-1.18.55c-1.48 1.91-2.9 3.86-4.32 5.82-2.71 4-5.36 8-8 12-1.41 2.14-2.84 4.27-4.34 6.35s-3.15 4-4.79 6c-3.13 3.71-6.38 7.31-9.22 11.25-2.72 3.77-5.29 7.67-8.35 11.17s-6.19 7.3-9 11.17c-3 4.47-6 9-9.34 13.24-1.73 2.17-3.64 4.2-5.38 6.37s-3.33 4.24-4.91 6.44c-1.92 2.78-3.84 5.57-5.69 8.41-2 3-3.92 6.11-5.93 9.14s-4.36 6.18-6.72 9.14c-2.11 2.66-4.25 5.27-6.23 8s-3.92 5.8-5.75 8.8c-1.22 2-2.49 4-3.57 6s-2.28 4.36-3.39 6.56l-4.12 8.15c-1.26 2.51-2.64 5-4 7.44-2.3 4.34-4.71 8.62-7 13q-2 3.65-3.87 7.3c-1 2-2 4-2.82 6.07-.26.76-.5 1.53-.7 2.32a5.1 5.1 0 0 1-1.44 2.45A35.81 35.81 0 0 0 99 570.79l9-3.44a35.84 35.84 0 0 0 13.27-12.61c3.29-4.44 5.43-9.65 8-14.54 2.67-5.11 5.44-10.16 8.27-15.19s6.39-9.93 9.68-14.76c3.13-4.57 6-9.37 8.82-14.1 5.87-9.69 12.14-19.1 18.7-28.33 2.91-4.12 5.8-8.27 8.46-12.55 3.36-5.38 6.51-10.8 9.61-16.33 5.25-9.35 10.53-18.62 16.63-27.44 6.35-9.21 12.75-18.36 18.33-28.08s10.91-19.52 16.88-29c2.92-4.61 5.93-9.16 8.8-13.8 3.25-5.28 6.26-10.63 9.25-16.06 2.32-4.22 4.41-8.57 6.61-12.85 2.65-5.16 5.31-10.32 7.91-15.5 5-10 10.36-19.9 15.82-29.7s11.07-19.73 17.31-29.18 12.28-18.85 18.19-28.43q4.5-7.28 9-14.51a132 132 0 0 0 7.86-14.34c3.38-7.22 6.89-14.37 10.14-21.65a142.13 142.13 0 0 0 6.39-15.92 70.48 70.48 0 0 0 1.56-7.62c.51-2.67 1-5.33 1.59-8 1.62-8 3-16 4.35-24.1 1.61-9.72-.3-19.6-2.76-29a115.29 115.29 0 0 0-8.14-22.58 74.42 74.42 0 0 0-5.92-9.08c-2.75-3.89-5.4-8-9.12-11.09-3.1-2.53-5.93-5.06-9.43-6.93a70.84 70.84 0 0 0-7.38-3.33 45.32 45.32 0 0 0-9.76-2.17c-1.9-.3-3.79-.49-5.71-.6h-.25c-.1.92-.2 1.83-.29 2.75a4.57 4.57 0 0 1-2 3 4.74 4.74 0 0 1-7.4-3.73c0-.43.07-.85.1-1.27.15-1.4.3-2.79.46-4.18a6.25 6.25 0 0 0-.45-.44 31.63 31.63 0 0 0-3.38 2.47z"/><path class="cls-2" d="M318 81.56a4.87 4.87 0 0 1 1.36-.25c-.35-.38-.71-.75-1.07-1.13-.08.46-.18.92-.29 1.38zM321.48 123.47l.26-.22zM212.92 288.79l.85-1.25-.08-.2zM114.29 439.77q1.38-1.81 2.83-3.59a3.11 3.11 0 0 1-.38-.25c-.82 1.27-1.64 2.56-2.45 3.84zM58.14 529.8l-.65 1.2.39-.72c.45-.83.89-1.66 1.34-2.48l-1.08 2zM496.21 15.31c1 4.46 4.12 9.42 8.34 11.57 2.34 1.19 4.75 2.34 7.09 3.6a36.09 36.09 0 0 0 8 14c2.63 3.05 5.42 5.87 8.32 8.65a114.48 114.48 0 0 1 8.25 8.53c3.75 4.42 8.34 8.09 12.92 11.67a74.77 74.77 0 0 1 7.87 8.38 151 151 0 0 1 11.45 22.18c1.16 3.06 2.32 6.11 3.52 9.15 2 5.84 3.82 11.74 5.69 17.62 1.75 5.54 3.63 11 5.1 16.67a290.66 290.66 0 0 1 7 37q.38 3 .72 6.1c.72 11.61 1.09 23.26 1 34.9-.13 12.94-.85 25.79-1.8 38.68-.79 10.61-2.09 21.12-3.62 31.65-1.74 9.66-3.66 19.28-6 28.82-1.47 5.95-3 11.86-4.7 17.75-1.74 6.12-3.39 12.28-5.34 18.34-7.82 24.17-15.6 48.35-23.66 72.44-2.61 7.8-5.5 15.43-8.71 23q-7.87 15.94-16.39 31.56c-5.9 10.8-12 21.47-17.52 32.45-5 9.87-9.78 19.79-14.31 29.88-3.58 8-6.84 16-8.77 24.58q-.75 4.5-1.51 9a35.17 35.17 0 0 0 52 32.14l7.36-5.38a36 36 0 0 0 4.29-4.94l-.21-.18a4.78 4.78 0 0 1-1.47-4.55c.23-2.22 1.39-4.31 2.26-6.34.5-1.18 1-2.35 1.53-3.52.92-2.11 1.87-4.2 2.81-6.31q3-6.75 5.81-13.6c1.91-4.67 3.85-9.3 5.89-13.91 2-4.43 4-8.85 5.82-13.32q6.21-14.93 12-30c3.61-9.37 7.78-18.51 11.4-27.88 1.28-3.77 2.46-7.57 3.85-11.3 1.16-3.13 2.36-6.26 3.55-9.4l.27-.85a4.87 4.87 0 0 1 0-1.94c.42-2.13 1.08-4.18 1.7-6.25a.42.42 0 0 1 .07-.28c1.42-8.44 2.8-16.9 4.32-25.33.64-3.57 1.28-7.13 2-10.67l3-13.66c.42-1.92 1-3.83 1.43-5.74l2.68-10.74c1.12-4.48 2.33-8.92 3.53-13.38q1.88-6.93 3.73-13.88l.53-2-.21-.3a4.75 4.75 0 0 1-.68-3.63c2.52-11.13 4.88-22.29 7.22-33.45l.51-4.5c.19-1.73.47-3.46.7-5.19l1.52-11.23c.52-3.77 1-7.53 1.67-11.28q1.89-10.57 3.77-21.14c.38-2.17.77-4.33 1.15-6.49.45-2.52 1.12-5 1.74-7.48.91-3.62 1.86-7.23 2.76-10.84a4.9 4.9 0 0 1 2.28-3.09c.21-1.55.43-3.11.64-4.68l1.17-17.11c.12-1.75.17-3.51.25-5.26l.51-11.18c0-1.14.11-2.28.17-3.41v-1.83c-.14-1.13-.27-2.26-.4-3.39-.52-4.76-1-9.53-1.4-14.31a4.52 4.52 0 0 1-.42-1.69q-.18-3.15-.31-6.3c-.11-1.18-.22-2.36-.32-3.53-.15-1.63-.3-3.26-.44-4.88-.07-.7-.17-1.41-.19-2.11-.12-2.75-.25-5.5-.37-8.24 0-1.1-.11-2.2-.16-3.29-.42-2.87-.86-5.73-1.27-8.59-.63-4.42-1.2-8.86-1.91-13.27l-3-18.39a5 5 0 0 1-3.26-2.08l-1-1.44c-1-1.5-1.93-3.06-2.82-4.64l-.47-.54c-.71-.91-1.31-1.89-2-2.8-.83-1.1-1.6-2.24-2.39-3.37l-2.13-3.11c-.45-.59-.87-1.19-1.26-1.82a11.86 11.86 0 0 1-1.13-2.55c-.12-.66-.25-1.33-.37-2a4.77 4.77 0 0 1 .1-1.25c-1.62-2.89-3.23-5.79-4.77-8.72s-3.13-6-4.71-9c-.24-.47-.48-.93-.71-1.4h-.06a4.8 4.8 0 0 1-5.79-.43c-3.77-3.52-7.35-7.27-11-11-3.06-3.11-5.86-6.47-8.68-9.8A34.67 34.67 0 0 1 579 41a6.06 6.06 0 0 1-.45-.78l-1.06-.87-1.71-.62a12.59 12.59 0 0 1-1.5-.89l-1-.61-2.16-1.31-2.82-1.69c-2.28-1.37-4.53-2.79-6.77-4.23s-4.62-3.16-6.9-4.8c-1.6-1.16-3.2-2.3-4.75-3.53l-.32-.26-.41.2a5.79 5.79 0 0 1-4-.07l-.24-.07a4.43 4.43 0 0 1-.89.12 4.67 4.67 0 0 1-2.43-.52 49.48 49.48 0 0 1-4.59-1.89c-1.27-.66-2.53-1.34-3.76-2.06-1.89-1.11-3.76-2.25-5.59-3.46-1.51-.17-3-.28-4.55-.46a32.71 32.71 0 0 1-7.79-1.89 28.81 28.81 0 0 1-6.71-4.24c-1.5-1.12-3-2.24-4.53-3.32l-.86-.56h-.3c-1.76-.18-3.49-.46-5.23-.75a18.67 18.67 0 0 0-1.54 12.76z"/><path class="cls-2" d="M110.46 532.46c-1.56.56-3.12 1.13-4.68 1.67-1.71.6-3.37 1.27-5 2a22.13 22.13 0 0 0-4.26 3c-2.9 2.13-4.49 6.42-5.75 9.57a11.46 11.46 0 0 0-.5 2.08c-.34 1.91-.72 3.81-.91 5.74a28 28 0 0 0 .91 8.25c1.57 7.27 6.91 12.56 12.86 16.54a65 65 0 0 0 13 6.17 83.62 83.62 0 0 0 11.3 3.32 223 223 0 0 0 27.81 4.2c13.11 1.24 26.28 2 39.44 2.61 10.29.51 20.62.7 30.89 1.4q18.42 1.25 36.82 2.65c9.81.74 19.66 1.21 29.49 1.58q17.56.66 35.09 1.7c5.84.34 11.68 1 17.51 1.56 5.56.49 11.09 1.26 16.63 1.91q15 1.76 30 3.73l33 4.38c11.14 1.52 22.27 3.14 33.46 4.2l10.08 1c10.57 0 21.13.24 31.7.5a50.51 50.51 0 0 0 11.27-3.91c5-2.36 9-6.44 13-10.26a33.35 33.35 0 0 0-13.24-56l-8.53-1.44a33.47 33.47 0 0 0-14.11 2.58h-2.25c-2.71 0-5.42-.1-8.12-.15-5.41-.11-10.83-.41-16.23-.67-11.38-.55-22.72-1.59-34.07-2.55-20.88-1.82-41.79-3.82-62.73-4.82-5.65-.29-11.33-.77-17-.82L329.4 544c-6.09-.06-12.21.34-18.29.51-5.36.14-10.72.49-16.07.75-10 .48-20 .83-30 1.14q-18.45.58-36.86 1.56c-10.25.56-20.47 1.76-30.7 2.6-12.87 1.06-25.76 2-38.66 2.46a167.27 167.27 0 0 1-29-1l-1-.21a15.31 15.31 0 0 0-6.64-17.33 16.58 16.58 0 0 0-8.25-2.4 9.51 9.51 0 0 0-3.3.53zM407.17 1c-4.6.47-9.18 1.22-13.75 1.94l-7.15 1.13-5.55.93c-1 .16-2.08.38-3.13.49l-8.7.93c-2.37.25-4.76.38-7.14.54-5.39.38-10.78.79-16.17 1.2-2.45.19-4.9.52-7.34.77l-4.74.51c-1.44.15-2.88.37-4.31.61l-2.22.68c-1.82.56-3.65 1.08-5.49 1.59-.87.25-1.74.48-2.61.71l-1.28.32a6.62 6.62 0 0 1-3 .19 4.54 4.54 0 0 1-3.07-2.25c-.46 3.19-.83 6.38-1.17 9.59a4.54 4.54 0 0 1-2 3 4.74 4.74 0 0 1-7.35-3.77c0-.42.07-.84.1-1.27.17-1.65.35-3.3.55-5a32.52 32.52 0 0 0-4 2.79c-.89.78-1.75 1.6-2.59 2.43a12.88 12.88 0 0 1-.66 2.6c-.81 2.27-1.67 4.54-2.67 6.73-.29.63-.59 1.26-.92 1.89l.31.43c.56.79 1.13 1.56 1.68 2.36l.55.81c.27-.14.55-.27.82-.39l.62-.16a9.88 9.88 0 0 1 2.59-.32 24.29 24.29 0 0 1 7.7 1.75c1.33.46 2.67.93 4 1.48a67.39 67.39 0 0 1 6.31 3 44.57 44.57 0 0 1 5.78 4.07c.65.5 1.32 1 2 1.48 1.41.63 2.81 1.26 4.24 1.87l.82.34a4.35 4.35 0 0 1 3.49.34c1.1.66 2.23 1.27 3.31 2l1.9-.34c3-.54 6.13-.94 9.2-1.34 10-.72 19.93-1.23 29.9-1.7a168.41 168.41 0 0 1 17.55.11c4.94.27 9.85 1.15 14.74 1.83 2.73.38 5.46.66 8.2 1 8.64.93 17.38.8 26.06 1a225.52 225.52 0 0 1 24.91 1.8c3.27.57 6.54 1.13 9.82 1.58 1.93.26 3.85.53 5.78.82l1 .19c.92.18 1.83.39 2.74.58 5.38 1.1 6.22 1.54 9.76 1.42A52 52 0 0 0 507.27 55a32.55 32.55 0 0 0 24.26-38.87c-1.25-.75-2.48-1.53-3.69-2.32-1.52-.18-3.05-.29-4.56-.47a32.63 32.63 0 0 1-7.78-1.89 29.2 29.2 0 0 1-6.72-4.24c-1.5-1.12-3-2.24-4.52-3.32l-.87-.56h-.29c-2.05-.21-4.07-.56-6.1-.89l-5.84-.91c-2.71-.42-5.43-.76-8.15-1.11a4.79 4.79 0 0 1-2.82 1.13h-.72c-2.73.16-5.45 0-8.18 0l-7.51-.12c-5.17-.07-10.33-.14-15.49-.25S437.86 1 432.65.83L422 .49c-1.44 0-2.87-.09-4.31-.12-1.18 0-2.36 0-3.55-.08-2.29.16-4.58.47-6.87.71zM434 206.46a31.14 31.14 0 0 0-24 29.15 30.75 30.75 0 0 0 .22 4.89 36 36 0 0 0 25.43 36.87c12 3.67 26.53.77 35.44-8.37 2.45-2.52 5-5.07 6.69-8.18 1.83-3.47 3-5.48 3.82-8.5 1.51-5.93 2.43-12.78.59-18.8a35.17 35.17 0 0 0-8.8-16.26 35.86 35.86 0 0 0-7-5.7 35.87 35.87 0 0 0-8.15-3.7l-.15-.06a36.73 36.73 0 0 0-6.66-1.34 47.47 47.47 0 0 0-4.07-.57 11.53 11.53 0 0 0-1.44 0h-.9a20.39 20.39 0 0 1-2.7-.26l-8.31.82z"/><path class="cls-2" d="M446.4 26.37c-5.24.28-10.47.58-15.72.84-6 .3-12 .77-18 .9l-23.31.49c-2.1 0-4.2 0-6.3-.07a84.43 84.43 0 0 0-9 0c-4.81.35-9.88 0-14.43 1.63-6.9 2.41-12.26 4.15-17.43 9.68a36.06 36.06 0 0 0-7.13 9.55l.77.51.58.28a8.11 8.11 0 0 1 1.4 1 5.45 5.45 0 0 1 .47.37h.07a7.37 7.37 0 0 1 .85 1 4.68 4.68 0 0 1 .34 4.62 10.13 10.13 0 0 1 1 .72 16.43 16.43 0 0 1 1.56 1.45 13 13 0 0 1 2 2.37 5.39 5.39 0 0 1 .76 2.65A18.2 18.2 0 0 1 347 67a28.32 28.32 0 0 1 3.69 8.54c.48 2 .82 4 1.12 6.09a26.67 26.67 0 0 1 0 7.25 35.91 35.91 0 0 1-1.12 5.9c-.51 1.67-1 3.35-1.57 5 .44.33.88.65 1.31 1a11.47 11.47 0 0 0 2.06 1.21l1.88.9c-1 2.22-1.87 4.47-2.83 6.69a35.93 35.93 0 0 0-2.71 11.87 35.4 35.4 0 0 0-4.83 2.16c-2.1 1.28-4.22 2.54-6.29 3.88-1.17 3.27-2.44 6.5-3.85 9.67-1.82 4.06-3.6 8.13-5.41 12.2l-3 6.82c-1 2.27-2.1 4.33-3.19 6.47s-2.22 4.22-3.43 6.28c-.68 1.16-1.35 2.33-2 3.47s-1.5 2.38-2.17 3.61c-1.23 2.23-2.46 4.44-3.59 6.72s-2.22 4.44-3.28 6.67-2.14 4.77-3.42 7-2.73 4.32-4.21 6.42c-1 1.53-2.13 3-3.11 4.63-1.24 2-2.43 4-3.61 6s-2.16 3.74-3.23 5.61a50.79 50.79 0 0 0-1.07 6.83c-.54 1.17-1.07 2.34-1.6 3.51-3.35 7.37-6.93 14.71-10.06 22.17-4.18 10-8.39 19.9-12.49 29.89-3.1 7.56-6.35 15.11-9.38 22.72l-21.87 28.41c-6.18 8-12.44 16-18.68 23.91l-10 12.83c-3.07 3.92-5.79 8.19-8.65 12.25-3.65 5.18-7.47 10.26-10.79 15.66l-7.19 11.68q-1.41 2.31-2.79 4.65a155.76 155.76 0 0 0-9.6 20.22l-1.53 9.21a36.06 36.06 0 0 0 2.8 15.24c-2.29 1.92-4.65 3.76-6.93 5.6-4 3.26-8 6.66-11.89 10.07s-8.17 6.78-12.34 10.06-8.21 6.82-12.09 10.5c-2 1.91-4 3.8-6 5.78a88.54 88.54 0 0 0-7.64 9.2c-3.77 5.12-6.17 13.29-6.22 19.61-.07 9.51 3 19.68 10 26.45 2.49 2.39 5 5 8.11 6.45 8.34 3.94 9.22 4.74 18.53 5.65a40.36 40.36 0 0 0 12.24-1.16h.22a24 24 0 0 0 1.6 1.8 34.55 34.55 0 0 0 14.88 9.19c1.61.6 3.13 1.4 4.77 1.92 7.59 2.43 13.58 1.7 21.27.67a31.09 31.09 0 0 0 4.85-1.06 117.93 117.93 0 0 0 13.51-5.18c3.25-1.41 6.36-3.16 9.47-4.86 2.53-1.38 5.07-2.73 7.56-4.16.2.4.4.78.61 1.17a35.72 35.72 0 0 0 30 18.51c1.85.19 3.69.47 5.54.68 5 .57 10.19-.5 15.08-1a79 79 0 0 0 13-2.72q12.8-3.45 25.37-7.48c8.37-2.69 17.11-5.24 25.74-7.54a181.53 181.53 0 0 1 21.39-4.53 146.65 146.65 0 0 1 19.21.39c3.09.25 6.18.69 9.25 1 5.48.61 11 1 16.46 1.13 6.65.12 13.19-.7 19.79-1.4a49.12 49.12 0 0 0 11.17-2.39l1.84-.64a36.62 36.62 0 0 0 14.18 8.2l9.3 1.57h3.31a37.26 37.26 0 0 0 7.72 1.12 40.65 40.65 0 0 0 35.32-22.18c2.64-5.06 5.49-10.14 6.88-15.69a36.6 36.6 0 0 0 1.6-10.7c.24-.3.49-.6.73-.91 5.09-6.3 9.78-12.91 14.25-19.64 5.75-8.65 11.65-17.23 16.85-26.22a36.17 36.17 0 0 0 4.65-26.5c3.27-6.38 6.46-12.8 9.69-19.19 1.49-3 2.88-5.94 4.28-8.93q1.92-4.22 3.83-8.44A35.91 35.91 0 0 0 579 394c1.15-2.2 2.35-4.38 3.51-6.57a162.27 162.27 0 0 0 7.69-16.68c2.6-6.61 3.92-13.71 5.23-20.66 1.88-10 3.79-19.92 4.81-30 .74-7.4.81-14.86.81-22.3 0-2.94 0-5.88-.09-8.83l.72-2.87c2.33-5 4.6-10 6.5-15.21 1.11-3 2.1-6 3.06-9.1.66-2.11 1.49-4.23 2-6.38 1.09-4.52 2.16-9 3.09-13.57 1.54-7.54 3.23-15.28 4-22.91a36.79 36.79 0 0 0-3.68-17.35 88.17 88.17 0 0 0 6.11-15.76 110.47 110.47 0 0 0 2.35-10.81c.63-3.67 1.79-7.74 1.92-11.2q-.48-4.87-1-9.75a36.32 36.32 0 0 0-9.03-16.79 31.23 31.23 0 0 0-11-8.15 189.55 189.55 0 0 0-1.49-19.19 35.62 35.62 0 0 0-.91-4.82c-2.25-8.24-5.2-13.17-10.59-19.62A39.35 39.35 0 0 0 582.74 77a47.22 47.22 0 0 0-21.28-6.67c-2-5.19-5.07-9.3-8.92-13.87l-1.22-1a36.84 36.84 0 0 0-3.55-9.46c-6-11-18-18.65-30.61-18.91-4.08-.08-7.56-.24-12 .92a40.89 40.89 0 0 0-9.16 3.4 31.21 31.21 0 0 0-4.25-1.32c-5.5-1.13-11-2.12-16.59-2.82-4.87-.62-9.71-1.17-14.64-1.31h-2.85c-3.73 0-7.47.2-11.18.41zM317.26 21.08a7.65 7.65 0 0 0-1.35.08h-6.46c-.78 0-1.55.07-2.32.14a41 41 0 0 0-4.13.57c-.69.13-1.37.29-2.05.46l-1.1.29-.75.2c-.94.27-1.87.53-2.8.82l-1.56.46-.72.23-.41.13-.75.27a.31.31 0 0 0-.22.32.33.33 0 0 0 .25.3l.45.09h.42a10 10 0 0 0 1.1-.06l.5-.06c-.62.21-1.22.44-1.82.68a29.63 29.63 0 0 0-3.47 1.63c-.54.31-1.07.64-1.58 1s-1.06.77-1.58 1.16a.26.26 0 0 0-.07.35.24.24 0 0 0 .33.08c.68-.5 1.35-1 2.05-1.49a22.63 22.63 0 0 1 2.45-1.38h-.06a38.27 38.27 0 0 1 4.76-1.88l.58-.16 1.27-.35.21-.06 2-.25.85-.11a1 1 0 0 0 0 .24v.3a1 1 0 0 0 .26.34l.18.13.13.07.28.12a.36.36 0 0 0 .47-.15.34.34 0 0 0-.15-.46l-.14-.07a1 1 0 0 1-.23-.12l-.11-.09v-.09c0-.07.07-.13.1-.19l.19-.21 2.46-.36 2-.31c.43-.06.86-.15 1.29-.23h.08l.74-.07h.64l1.92-.22 1.32-.13 1.12-.1h.48l2-.13h4.9c2.11 0 4.22-.06 6.32-.12h1.78a.41.41 0 0 0 .22 0 .4.4 0 0 0 .18-.07.45.45 0 0 0 .19-.33.36.36 0 0 0-.18-.4l-.5-.22-.43-.13a6.78 6.78 0 0 0-1-.19 23.6 23.6 0 0 0-2.38-.18h-8a.31.31 0 0 0-.2-.07zm4.49.76c1.7 0 3.4 0 5.1.07l1 .1-1.75.07-3.14.08h-6.31l-2.09.15h-.11l1.94-.41a4.86 4.86 0 0 0 .55-.1h4.84zm-14 .16c.77-.06 1.54-.08 2.31-.1h.08l-2.12.34-1.19.22-2 .4c-.54.11-1.07.22-1.59.38a1.43 1.43 0 0 0-.47.18l-.38.16-.11.06-.53.09-.41.07-.58.14-1.45.32-2.8.35-1 .12-.85.1.38-.12 1.73-.5 2.24-.65 1.36-.37c.86-.23 1.73-.45 2.6-.61a44.54 44.54 0 0 1 4.74-.62zm2.09.67c-.55.1-1.1.21-1.66.3l-.82.16h-.24l.28-.06h-.09l2.57-.44zm-7.69 2.06z"/><path class="cls-2" d="M308.39 14.47c-1.67.62-3.33 1.27-5 1.82-1.24.4-2.47.83-3.69 1.28a20.15 20.15 0 0 0-2 .5c-1 .32-2.07.68-3.12 1-1.36.18-2.74.24-4.08.49s-2.37.34-3.55.58a12.57 12.57 0 0 0-3.23 1.3 5.67 5.67 0 0 0-2.56 3.72 6 6 0 0 0 4.57 7.15l1.61.13a5.87 5.87 0 0 0 2.36-.62l.48-.16c1-.14 2-.25 3.06-.37a6.13 6.13 0 0 0 1.86.23 17.22 17.22 0 0 0 3.4-.68l2.11-.5c1.08-.26 2.16-.51 3.24-.74 1.4-.23 2.79-.41 4.19-.59.89-.11 1.77-.18 2.66-.25l1-.05a19.48 19.48 0 0 0 2.51-.37 5.82 5.82 0 0 0 2.46-1.62 5.68 5.68 0 0 0 1.33-2.61 6.57 6.57 0 0 0 .12-.89 5.48 5.48 0 0 0 .51-6.7 5.35 5.35 0 0 0-3.4-2.35 26.05 26.05 0 0 0-3.18-.26 10.44 10.44 0 0 0-3.67.61zM195.1 433.85c-3.13.7-6 2.64-8.47 4.61a77.59 77.59 0 0 0-8 7.7c-2.43 2.61-4.94 5.15-7.31 7.83-2.81 3.18-5.42 6.54-8 9.93-4.88 6.45-9.37 13.19-14 19.82-2.79 4-5.48 8.06-8.12 12.15l2.49-5.76a13.42 13.42 0 0 0 1.85-6.85A13.55 13.55 0 0 0 132 469.73l-3.6.48a13.64 13.64 0 0 0-6 3.49 132.26 132.26 0 0 0-8.62 11.24c-2.44 3.7-4.72 7.52-7 11.36-2.72 4.68-5.44 9.39-8 14.15l-1.86 3.43a18 18 0 0 0-16.57-3.73c-4.28 1.18-8.75 4.25-10.79 8.3-8 15.9-16.27 31.69-24.54 47.47a16.91 16.91 0 0 0-2.39 2.32 18.94 18.94 0 0 0-2.09.44l-4.35 1.84a18.24 18.24 0 0 0-6.53 6.53Q19.83 599.56 9.76 622a18 18 0 0 0-8.39 6.67h3.51q32.57.33 65.12 1.19c12 .3 24 .87 36.07 1.38 10.76-.06 21.53-.21 32.28-.55 10.57-.34 21.15-.52 31.71-1.06 11.75-.61 23.49-1.15 35.23-1.82q17.21-1 34.39-1.91c10.4-.58 20.82-.84 31.23-1.25 19.7-.78 39.47-.91 59.19-1 22.45-.14 44.92-.18 67.38-.38 19.92-.18 39.82-1.44 59.74-1.64H465c18.66 0 37.33.62 56 1l4.41.11 1-2c1.39-2.93 2.74-5.87 3.93-8.89A25.54 25.54 0 0 0 532 603a18.5 18.5 0 0 0-18.5-18.5h-.82a18.5 18.5 0 0 0-26.09-1.9c-.34.29-.66.59-1 .9a27.25 27.25 0 0 0-5.34 7.18c-.32.6-.61 1.22-.91 1.83a18.74 18.74 0 0 0-11.63-.6 17.73 17.73 0 0 0-6.56 3.4 19.52 19.52 0 0 0-1.8-1.21 16.22 16.22 0 0 0-2-1c.51-1.1 1-2.19 1.51-3.29 1.58-3.52 3.1-7.1 4.46-10.71a31.25 31.25 0 0 0 1.87-6.71 18.52 18.52 0 0 0-8.5-20.9c-8.59-5-20.38-2.14-25.31 6.64q-8.44 15-16.61 30.19c-.1-.52-.21-1-.35-1.55a18.49 18.49 0 0 0-22.73-12.93l-3.3 1.39A18.72 18.72 0 0 0 383 569a18.46 18.46 0 0 0-22.75-22.48l-4.41 1.86a18.71 18.71 0 0 0-5.68 5.17 18 18 0 0 0-5.8-5.42 18.45 18.45 0 0 0-11.36-2.37l3.57-8.61c.22-1.63.44-3.26.65-4.89a18.39 18.39 0 0 0-20.4-18.26 18.71 18.71 0 0 0-.65-5.21A18.33 18.33 0 0 0 293.62 496c-3.51 1.18-6.8 2.57-9.43 5.29l-.54.58A18.36 18.36 0 0 0 260.87 480l-3.11 1.31a18.28 18.28 0 0 0-5.54-5c-8.53-5-20.18-2.12-25.09 6.58-2.14 3.78-4.38 7.51-6.28 11.43q-2.37 4.83-4.73 9.68c-1 2-1.91 3.93-2.87 5.88a18.46 18.46 0 0 0-20-7.27 18.17 18.17 0 0 0-11 8.46c-4.08 7.66-8.31 15.23-12.36 22.9-1.64 3.09-3.29 6.19-4.74 9.37l-3.72 8.13c-.36-.25-.73-.48-1.11-.7a17.52 17.52 0 0 0-3.59-1.61q1.88-4.61 3.77-9.22c.87-2.12 1.43-4.39 2.13-6.58a18.28 18.28 0 0 0-17.56-23.14c2.52-4.32 5-8.63 7.65-12.91 3.61-5.94 7.44-11.73 11.22-17.56s7.54-11.45 11.71-16.9c2.74-3.47 5.71-6.73 8.62-10.07a75.92 75.92 0 0 1 8.65-8.92 22.36 22.36 0 0 1 3.47-2.12 12.46 12.46 0 0 1 1.58-.47 9.26 9.26 0 0 1 1.29 0c.36.08.71.16 1.06.27v.2c-1.31 7.3-3.08 14.52-4.65 21.77a3.63 3.63 0 1 0 7 1.93c.88-4 1.77-8 2.71-12 .45-1.91.85-3.83 1.17-5.78.29-1.71.86-3.36 1.12-5.08a7.85 7.85 0 0 0-.49-4.71 7.2 7.2 0 0 0-2.75-2.86 11.45 11.45 0 0 0-4-1.45 11.74 11.74 0 0 0-2.36-.24 13.26 13.26 0 0 0-2.88.34z"/><path class="cls-3" d="M564 545.36a84 84 0 0 0-7.38 11.54 45.69 45.69 0 0 0-2.81 7.94 48.66 48.66 0 0 0-1.15 5.36c1.09-3.15 2.33-6.23 3.61-9.31l-.06.15c2.27-5.38 5.22-10.43 7.79-15.66zM284.17 30c4.41 2 8.87 4 13.32 5.94 3.93 1.76 7.87 3.51 11.86 5.14s7.85 3 11.75 4.58a64.57 64.57 0 0 1 10.78 5.78 42.78 42.78 0 0 1 6.54 5.16 30.48 30.48 0 0 1 2.89 4.15c.43.73.79 1.49 1.17 2.24-.2-.39-.4-.78-.59-1.17a53.4 53.4 0 0 1 3.26 8.74c1 5.48.86 11 .65 16.5a129.34 129.34 0 0 1-1.52 14.3l-.78 4.1c-.24 1.31-.63 2.61-1 3.9-.58 2.39-1.34 4.74-2.08 7.09s-1.58 4.53-2.48 6.76c-1 2.41-2 4.78-3.12 7.15q-3.31 7.31-6.47 14.69c-2 4.72-4 9.48-6.21 14.11s-4.86 9.29-7.41 13.88c-1.27 2.3-2.58 4.58-3.88 6.87s-2.39 4.43-3.62 6.62c-2.77 4.91-5.67 9.74-8.63 14.53-2.64 4.28-5.37 8.52-8 12.83-2.77 4.55-5.54 9.11-8.34 13.64q-4.85 7.82-9.85 15.5c-2.79 4.14-5.63 8.24-8.68 12.19-3.32 4.3-6.69 8.55-10 12.85s-6.55 8.82-9.79 13.26c-3.05 4.19-6.34 8.2-9.46 12.33s-6.21 8.53-9.23 12.86c-3.24 4.66-6.51 9.3-9.75 14-2.93 4.22-6 8.37-9 12.53a634.66 634.66 0 0 1-9.93 13.25c-3.68 4.77-7.23 9.63-11 14.36-3.89 4.92-7.94 9.72-12 14.48l-.79.61a13.65 13.65 0 0 0-2 1.72c-.9 1.09-1.81 2.18-2.72 3.26-1.7 2-3.43 4-5.1 6.11-3.45 4.26-6.78 8.61-10.1 13s-6.41 8.52-9.51 12.86-6 8.53-9.16 12.66c-6.57 8.57-13.27 17-19.45 25.89-3.36 4.83-6.62 9.73-9.57 14.82-1.24 2.14-2.35 4.36-3.42 6.59a67.06 67.06 0 0 0-3 6.91c-1.69 4.85-3.22 9.74-4.49 14.73 3.16-4.63 6.39-9.26 10-13.61 3.21-3.94 6.67-7.7 10-11.49 3.57-4 7.25-7.91 10.8-11.92s7-8.06 10.31-12.24c3.49-4.38 6.81-8.89 10.18-13.37 3.13-4.16 6-8.55 8.91-12.84s6.21-8.69 9.38-13 6.47-8.7 9.85-13c1.36-1.72 2.74-3.42 4.13-5.13l2-2.46a18.16 18.16 0 0 0 2-3.4c3.4-4.1 6.86-8.15 10.19-12.3s6.23-8.16 9.3-12.28c3.24-4.36 6.53-8.69 9.76-13.06s6.23-8.62 9.32-12.95 6.14-9 9.23-13.45 6.12-8.87 9.19-13.29 6.14-8.4 9.17-12.63 6-8.59 9-12.83c6.47-8.94 13.35-17.57 19.59-26.67s12.1-18.8 18-28.31c2.68-4.35 5.36-8.7 8.08-13 2.93-4.69 5.88-9.36 8.71-14.11 1.44-2.41 2.84-4.85 4.22-7.3 1.24-2.18 2.39-4.41 3.64-6.58 2.62-4.56 5.3-9.09 7.85-13.69a151.89 151.89 0 0 0 6.81-14c2.13-4.93 4.2-9.88 6.38-14.79 2.1-4.72 4.27-9.42 6.25-14.19 1.11-2.67 2.1-5.4 3-8.14.84-2.52 1.68-5 2.35-7.62s1.34-5.18 1.77-7.82c.23-1.41.47-2.83.7-4.24s.36-3.15.55-4.71c.31-2.71.51-5.43.66-8.14a74.72 74.72 0 0 0-.34-15.82 47.69 47.69 0 0 0-3.5-11.13c-.55-1.3-1.17-2.58-1.84-3.83-.52-1-1.06-1.95-1.66-2.9a24.42 24.42 0 0 0-4.41-5 28.33 28.33 0 0 0-2.79-2.13 73.31 73.31 0 0 0-4.1-2.64 51.1 51.1 0 0 0-7-3.35 64.45 64.45 0 0 0-11.23-3.18c-3.47-.75-7-1.34-10.45-2s-6.85-1.38-10.3-1.91q-6.87-1-13.79-1.87zM273 242.24c-.07.1-.14.19-.2.29.03-.1.1-.19.2-.29zM501.21 6.62c2.15.88 4.29 1.76 6.45 2.61 3.47 1.37 7 2.62 10.32 4.25 2.55 1.24 5 2.69 7.48 4.06 1.63.9 3.27 1.82 4.87 2.78 7.07 4.24 14.12 8.49 21 13l1 .66a147.11 147.11 0 0 0 13.07 8.59c4.27 2.36 8.56 4.68 12.66 7.32a51 51 0 0 1 5.6 4.44c2.2 2 4.25 4.26 6.29 6.48a66.55 66.55 0 0 0 5.67 5.34c1 .87 2 1.72 3 2.61s1.74 1.7 2.58 2.59c2.32 2.83 4.3 5.94 6.45 8.89 1.05 1.43 2.17 2.8 3.25 4.2a48.55 48.55 0 0 1 3.1 4.88c1.29 2.65 2.51 5.33 3.72 8 .71 1.58 1.46 3.14 2.21 4.7 1 2.08 2.16 4 3.24 6.08a58.45 58.45 0 0 1 3.55 9.51c.63 2.24 1.19 4.5 1.73 6.76s1.15 4.74 1.77 7.1 1.32 4.69 2 7c.62 3.14 1.15 6.29 1.48 9.48.4 3.75.67 7.52 1 11.29.3 3.61.87 7.2 1.26 10.8.08.76.07 1.53.1 2.29s.14 1.83.12 2.74c-.06 2.12-.11 4.23-.17 6.34l-.63 11.39c-.32 5.48-.64 11-.88 16.46-.32 5.1-.79 10.17-1.42 15.24-.67 5.46-1.32 10.91-1.88 16.38-1.1 10.78-2.8 21.49-4.72 32.14l-3 16.71c-1 5.58-2.51 11.06-3.92 16.55-2.7 10.48-5.09 21-7.34 31.62-2.31 10.81-4.29 21.67-6.44 32.51-1.08 5.47-2.53 10.86-3.85 16.28s-2.46 10.58-3.79 15.85-2.85 10.65-4.34 16-2.69 10.66-4.14 16-3.26 10.42-5 15.61a142.86 142.86 0 0 0-4 15.51c-1.78 8.72-3.4 17.51-4.75 26.31-.63 4.17-1.29 8.35-2.06 12.5a122.78 122.78 0 0 1-3.31 13.15 91.66 91.66 0 0 0 8.84-14.16c2.24-4.64 4.2-9.39 6-14.19 2.13-5.49 4.11-11 5.86-16.67 1.7-5.46 3.26-11 4.86-16.44.84-2.88 1.69-5.74 2.58-8.6.73-2.34 1.55-4.66 2.21-7 .73-2.65 1.5-5.31 2.13-8s1.26-5.46 2-8.18c1.36-5.43 2.83-10.83 4.23-16.25s2.66-11 4-16.5c1.26-5.24 2.66-10.45 3.92-15.7s2.12-10.38 3.14-15.56c2.12-10.74 4.22-21.49 6.47-32.21 1.15-5.46 2.32-10.92 3.58-16.36 1.21-5.25 2.66-10.46 3.74-15.74 2.26-11 4-22.17 5.75-33.3.74-4.83 1.45-9.67 2-14.53.64-5.16 1.12-10.34 1.66-15.52.51-4.87 1.21-9.71 1.6-14.58.43-5.42.66-10.83.92-16.26.28-4.75.55-9.49.86-14.24.21-3.31.42-6.61.53-9.93 0-1.23.15-2.48.11-3.72 0-1.55-.1-3.11-.14-4.66a27.79 27.79 0 0 0-.35-3.52c-.19-1.47-.36-2.94-.52-4.41-.29-2.71-.5-5.42-.72-8.14-.2-2.54-.42-5.07-.76-7.6-.19-1.39-.39-2.77-.61-4.16-.28-1.85-.68-3.68-1.08-5.51-.59-2.8-1.57-5.5-2.35-8.25s-1.5-5.57-2.24-8.35c-.8-3-1.55-5.94-2.6-8.82-.42-1.14-.85-2.27-1.29-3.4a60.7 60.7 0 0 0-3-6.31c-.57-1.08-1.19-2.13-1.77-3.21q-1.59-3.28-3.14-6.6c-.52-1.12-1-2.25-1.57-3.36-.71-1.5-1.4-3-2.24-4.47a67.53 67.53 0 0 0-4.38-6.61c-1.48-2-2.92-3.94-4.29-6-.75-1.12-1.5-2.25-2.26-3.37a32.08 32.08 0 0 0-3.25-4c-.84-.9-1.67-1.82-2.59-2.64s-2-1.75-3-2.61c-1.93-1.66-3.86-3.33-5.67-5.13s-3.8-3.85-5.71-5.76c-4.16-4.14-9.3-7.25-14.36-10.15-2.44-1.4-5-2.72-7.44-4.06-2.23-1.21-4.41-2.54-6.54-3.92s-4-2.7-6.07-3.89-4.24-2.29-6.41-3.33c-4.47-2.15-9-4-13.64-5.87s-9.42-3.53-14.18-5.13a65.86 65.86 0 0 0-6.73-1.88c-2.29-.52-4.64-.78-7-1.12-2.81-.41-5.62-.81-8.43-1.18z"/><path class="cls-3" d="M137.54 429.27c-4.3 4.23-8.57 8.47-13 12.5-3.92 3.53-8 6.93-11.73 10.67-3.92 4-7.75 8-11.58 12q-3 3.17-5.9 6.41a81 81 0 0 0-5.32 6.5c-1.55 2.13-3.08 4.27-4.52 6.48-1.6 2.45-3.17 4.92-4.77 7.36q-4.29 6.58-8.74 13.07c-6.25 9.13-12.59 18.2-18.9 27.29-1.59 2.29-3.15 4.59-4.72 6.88S45.44 543 44 545.24c-3 4.63-5.65 9.46-8.39 14.22s-5.34 9.28-7.86 14c-2.39 4.46-4.78 8.93-7.13 13.42-2.67 5.1-5.27 10.24-8.16 15.22-2.71 4.68-5.48 9.32-8.16 14-1.49 2.6-2.91 5.23-4.3 7.9 3.28-.1 6.55-.13 9.82-.06l5.93.16c2.46-4.31 5-8.57 7.56-12.82 5.67-9.39 10.43-19.3 15.62-29S49.73 563 55.36 553.5c2.7-4.56 5.64-9 8.6-13.34s6.1-9 9.18-13.42 6-8.86 9-13.35 5.87-9.31 8.78-14c2.71-4.36 5.37-8.75 8.1-13.1s5.74-8.66 8.79-12.89c3.19-4.42 6.24-8.93 9.29-13.45 1.64-2.44 3.32-4.83 5-7.22 1.38-1.93 2.83-3.8 4.21-5.72 2-2.78 3.91-5.57 5.75-8.44 2-3.06 3.76-6.22 5.55-9.38zM600.14 432.73a50.83 50.83 0 0 0-4 8.27c-1.07 3-2.25 5.91-3.43 8.86-2.55 5.42-5.15 10.82-7.55 16.3-2.53 5.78-4.94 11.62-7.33 17.47-1.06 2.43-2.1 4.87-3.12 7.3-1.35 3.14-2.75 6.26-3.9 9.47-1.25 3.49-2.46 7-3.58 10.53s-2.31 7.22-3.46 10.83c-1 3.06-2.19 6-3.31 9.06-2.75 6.4-5.64 12.74-8.41 19.13-3 7-5.8 14.08-8.69 21.12-1.73 4-3.49 7.89-5.33 11.8-1.93 4.08-3.67 8.23-5.4 12.39-2.78 6.29-5.46 12.62-8.09 19-1.31 3.18-2.58 6.37-3.84 9.56 6.11.07 12.21.17 18.31.34 3-6.83 6.11-13.62 9.2-20.42a71.83 71.83 0 0 0 3.31-9c.74-2.47 1.47-4.92 2.3-7.35 1.71-5 3.7-9.9 5.52-14.85 1.87-5.11 3.62-10.26 5.31-15.43s3.56-10.4 5.4-15.59c.84-2.39 1.7-4.77 2.55-7.16.92-2.59 1.65-5.26 2.48-7.88s1.38-5.26 2.06-7.87 1.44-5.5 2.15-8.26c1.39-5.32 3.13-10.54 4.73-15.8 1.53-5 2.92-10.1 4.23-15.19s2.5-10 4-14.88c1.63-5.31 3.31-10.62 4.47-16.05.56-2.6 1-5.19 1.41-7.83a53.45 53.45 0 0 1 2.08-7.88h-.07z"/></g></g></svg>