<svg id="Layer_1" data-name="Layer 1" xmlns="http://www.w3.org/2000/svg" viewBox="0 0 864 864">
    <defs>
        <style>
            .cls-1 {
                fill: #cab182;
            }
            .cls-2 {
                fill: #171717;
            }
        </style>
    </defs>
    <title>Slide 7 - Path 2Artboard 1</title><path
        class="cls-1"
        d="M101.1,133.37c-5.74.2-11.47.63-17.21,1-5.41.34-10.84.32-16.26.58-5,.24-10.08.57-15.13.71l-8.77.25c-2.32.07-4.64.22-7,.38-.56,2.15-1.1,4.31-1.7,6.45-.85,3-1.77,5.9-2.37,8.94-.4,2.58-.76,5.16-1.12,7.75-.32,2.27-.65,4.54-.87,6.82a20.6,20.6,0,0,0,8.66,3.4c6,.37,11.87,1,17.81,1.68,7.15.78,14.33.86,21.52,1a151.4,151.4,0,0,0,30.58-2.19c1.66-.31,3.32-.69,5-1.06a20.88,20.88,0,0,0,14-7.63l-.12-.57c-.63-3.3-1.25-6.59-1.86-9.89-.23-1.28-.46-2.56-.7-3.85a47,47,0,0,1-1.16-6.33c-.23-1.22-.47-2.43-.6-3.66q-.15-1.25-.27-2.52l-.91-.06c-6.38-.44-12.75-1.23-19.14-1.23h-2.46Z"/><path
        class="cls-1"
        d="M124.64,140.37c-3.13,0-6.57,2.45-8.39,4.94a23.36,23.36,0,0,0-3.88,8.64,18.88,18.88,0,0,0-.44,7.37c.1.8.18,1.59.24,2.39-.16,1.17-.43,2.31-.7,3.49a41.93,41.93,0,0,0-1.12,11.92,50.91,50.91,0,0,0,.79,5.36c.24,1.58.49,3.17.67,4.76.32,2.85.44,5.74.91,8.57a60.91,60.91,0,0,0,1.93,8c.42,1.33,1,2.59,1.57,3.88,1.08,2.7,1.73,5.52,2.81,8.22a82.79,82.79,0,0,0,3.91,7.9c1.37,2.58,2.55,5.27,3.71,8s2.46,5.27,3.77,7.88a47.12,47.12,0,0,1,2.45,5.93c.7,2.08,1.36,4.19,2.21,6.2a98.29,98.29,0,0,0,5,10.14l1.83,3.17c.7,1.46,1.37,2.94,2,4.42,1.49,3.33,3.27,6.52,5,9.71,1.63,3,3.28,5.93,4.91,8.9,2.5,4.86,4.88,9.77,7.64,14.5,2.23,3.81,5,7.27,7.41,10.93,1.24,1.84,2.25,3.81,3.34,5.75s2.4,4,3.7,5.94c2.34,3.46,4.63,6.94,6.76,10.54,1.53,2.93,3.09,5.85,4.83,8.66s3.38,5.35,5.05,8,3.37,5.65,5.22,8.39,3.7,5,5.65,7.47a236.91,236.91,0,0,0,15.64,18c4.4,4.49,9,8.77,13.45,13.17,4.66,4.6,9.11,9.4,13.84,13.93a164.94,164.94,0,0,0,14,12,379.66,379.66,0,0,0,31.83,22.2c5.94,3.65,12,7.12,18,10.69,4.75,2.84,9.53,5.55,14.52,8,2.19,1.06,4.4,2.06,6.65,3a104.77,104.77,0,0,0,12.24,4c4.48,1.21,9,2.16,13.51,3.21,4.77,1.61,9.42,3.6,14.15,5.35,5.73,2.13,11.5,4.22,17.37,5.94s12,3.79,17.82,6c2.9,1.12,5.79,2.23,8.75,3.18,4.42,1.42,8.94,2.79,13.42,4,6,1.59,12.17,2.61,18.26,3.87,6.45,1.33,13,2.24,19.44,3.26,6.26,1,12.46,2.28,18.65,3.61s12.39,2.67,18.61,3.91,12.45,2.54,18.69,3.68c5.93,1.09,11.93,1.67,17.87,2.62,6.17,1,12.38,2.08,18.62,2.51s12.58.91,18.86,1.68c6.73.81,13.44,1.57,20.21,2,3.18.19,6.36.35,9.54.53s6.58.65,9.86,1.15c6,.9,11.85,2.09,17.84,2.61,6.8.59,13.6,1.07,20.39,1.61,2.17.17,4.32.45,6.47.78,2-1.13,4-2.24,6-3.35a4.49,4.49,0,0,1,1.52-1.66q3.28-2.12,6.69-4a2.63,2.63,0,0,1,.06-.39,4.14,4.14,0,0,1,2.64-2.93c2.17-.94,4.33-1.87,6.47-2.88l5.64-2.67c2.58-1.21,5.19-2.35,7.79-3.51,1-.43,1.94-.85,2.95-1.23s1.72-.66,2.57-1a4.13,4.13,0,0,1,.66-1,15.59,15.59,0,0,1,3.65-3.07c.62-.37,1.25-.72,1.89-1.06l.42-.29a9.41,9.41,0,0,1,1.57-.75l.4-.2a4.21,4.21,0,0,1,1-3,14.77,14.77,0,0,1,4.09-3.15A49.59,49.59,0,0,0,707.84,498c-3.55-.55-7.26-.51-10.83-.72-8.37-.47-16.47-2.64-24.68-4.14-6.25-1.15-12.51-1.9-18.84-2.49s-12.94-1.15-19.31-2.37-12.48-2.69-18.79-3.35-12.7-1.14-19-2c-6.74-.88-13.47-1.77-20.21-2.57-3.14-.38-6.31-.56-9.46-.85-2.78-.25-5.56-.65-8.32-1-4.4-.62-8.79-1.29-13.19-1.87-1.46.26-2.93.5-4.39.69a77.44,77.44,0,0,1-13.1.15c-3.38-.13-6.76-.28-10.14-.5-3.12-.19-6.24-.46-9.37-.61-5.29-.26-10.62-.34-15.89-.89s-10.23-1.09-15.35-1.59c-2.6-.26-5.2-.55-7.78-1a51.18,51.18,0,0,0-10.55-1,30.25,30.25,0,0,1-8.72-1.15c-2.12-.51-4.22-1.06-6.37-1.5-1.15-.15-2.3-.25-3.46-.34a31.45,31.45,0,0,1-7.12-1.43,89.06,89.06,0,0,0-9-2.53c-1.67-.37-3.35-.69-5-1.07a38,38,0,0,1-4.42-1.43c-3-1.07-5.93-2.07-9-2.86-2.42-.62-4.75-1.6-7.1-2.44a44.34,44.34,0,0,0-7.08-1.92,70.92,70.92,0,0,1-7.36-1.6,68.91,68.91,0,0,0-7.21-1.77,71.71,71.71,0,0,1-7.52-1.57c-2.29-.68-4.61-1.34-6.86-2.15a30,30,0,0,1-5.78-2.66c-1-.6-1.88-1.23-2.85-1.8-1.82-1.06-3.7-2-5.61-2.93a51.23,51.23,0,0,1-5-2.43c-1.42-.82-2.81-1.67-4.23-2.49l-4.35-2.49c-1.45-.82-2.72-1.38-4.05-2.12-3-1.66-5.88-3.48-8.82-5.24-1.48-.89-3-1.69-4.48-2.63s-2.64-1.86-3.92-2.83c-2.15-1.64-4.26-3.32-6.44-4.89-1.11-.81-2.25-1.54-3.38-2.31s-1.9-1.41-2.82-2.15c-2-1.63-4.13-3.22-6.22-4.79s-4.11-2.68-6.12-4.07c-2.22-1.52-4.34-3.16-6.47-4.79-1.12-.86-2.25-1.73-3.45-2.48-1-.62-2-1.25-2.94-1.94-4.61-3.34-8.63-7.49-12.68-11.47-1.73-1.7-3.42-3.44-5.12-5.17-1.9-1.94-3.89-3.83-5.69-5.87-3.6-4.06-7.15-8.16-10.76-12.2s-7.27-7.91-10.84-11.92c-1.6-1.81-3.32-3.55-4.81-5.45s-3-3.71-4.52-5.54a113.55,113.55,0,0,1-9.17-13.63c-.81-1.33-1.63-2.67-2.46-4-.57-.92-1.2-1.8-1.71-2.76-1.14-2.18-2.21-4.41-3.25-6.63-1.2-2.56-2.4-5.1-3.67-7.62-.41-.81-.87-1.6-1.34-2.39h-.77a6,6,0,0,1-4.36-2c-2.47-3.35-4.87-6.75-7.06-10.29-1.93-3.11-3.55-6.39-5.2-9.65-2.24-4.41-4.53-8.78-7.06-13-.87-1.46-1.75-2.92-2.62-4.39a5.7,5.7,0,0,1-1.23-.24,6.49,6.49,0,0,1-3.65-3,47,47,0,0,1-2.56-5l-.81-1.63c-.69-1.36-1.38-2.74-2-4.11q-2.84-5.77-5.55-11.61l-6.24-13.4c-1.88-4-3.61-8.08-5.34-12.15-1.26-3-2.31-6-3.45-9-1-2.59-1.71-5.29-2.54-7.93s-1.44-5.14-2.13-7.72-1.47-5.15-2.2-7.72l-.38-1.32A6.11,6.11,0,0,1,133,173.2a6.35,6.35,0,0,1-1.53-2.81,32.48,32.48,0,0,1-1.07-4.24c-.33-1.55-.67-3.1-1-4.66q-.94-4.94-1.86-9.88c-.23-1.28-.47-2.56-.7-3.85a46.83,46.83,0,0,1-1.16-6.34c-.08-.37-.15-.76-.22-1.14h-.74Z"/><path
        class="cls-1"
        d="M44.85,136.58c-2.33.07-4.64.22-7,.38-.56,2.15-1.1,4.31-1.7,6.45-.85,3-1.77,5.9-2.37,8.94-.4,2.58-.76,5.16-1.12,7.75-.44,3.17-.92,6.34-1.08,9.54s-.34,6.46-.5,9.68-.09,6.23-.32,9.33c-.39,5.45-1.17,10.87-1.43,16.34-.25,5.21-.36,10.43-.54,15.65q-.28,8.6-.67,17.19c-.11,2.45-.3,4.91-.56,7.36-.15,1.4-.29,2.79-.51,4.18a48.91,48.91,0,0,1-1.26,7,6.12,6.12,0,0,1-.49,1.15c.06.2.13.4.2.61.47,1.43.86,2.89,1.24,4.34,1.34,6.11,2.68,12.21,4.34,18.24a61.32,61.32,0,0,0,2.36,6.88c1,2.42,2.08,4.85,2.83,7.35,1.6,5.32,2.91,10.72,4.32,16.09a62.57,62.57,0,0,0,2.53,7.15,128.7,128.7,0,0,1,4.7,13.39A194,194,0,0,0,53,351.06c1.66,5.14,3.69,10.18,5.62,15.22,2.21,5.78,4.59,11.44,7.13,17.08,3,6.79,6.85,13.34,10.45,19.84,2.82,5.11,5.68,10.18,8.67,15.2,2.86,4.83,6.24,9.4,9.36,14.07s6.17,9.81,9.44,14.57q5.16,7.5,10.67,14.8c2.69,3.59,5.18,7.31,7.63,11.06a94.36,94.36,0,0,0,9,11.69l3,3.27a5.86,5.86,0,0,1,4.83,3.2,36.48,36.48,0,0,0,2.3,4.15l1.28,2c1,1.18,1.94,2.36,2.9,3.56l1.38,1.29c1.12,1.05,2.25,2.1,3.39,3.13,2.11,1.93,4.21,3.87,6.36,5.74s4.44,4,6.74,5.88l5.51,4.53h0a74.71,74.71,0,0,0,8.13,5.66c2.35,1.36,4.77,2.55,7.23,3.7l7.61,3.31c3.07,1.33,6.07,2.84,9.09,4.26,2.4,1.14,4.72,2.45,7.07,3.69,2.18,1.15,4.33,2.34,6.49,3.51,4.39,2.39,8.83,4.68,13.19,7.12,2.66,1.48,5.37,2.91,8,4.46a107.65,107.65,0,0,1,9.32,5.91c.81.6,1.61,1.22,2.4,1.84,4.73,1.65,9.46,3.3,14.16,5,2.52.94,5,2.13,7.44,3.22,2.94,1.3,5.9,2.53,8.89,3.73,5.29,2.13,10.77,3.77,16.17,5.56s10.89,3.7,16.39,5.39,11,3.16,16.45,4.88c8.7,2.75,17.51,5.14,26.29,7.58,10,3,19.88,6.24,29.89,9.13,11.24,3.26,22.45,6.73,33.48,10.66q17.08,6.07,34.14,12.21c12.31,4.43,25.18,7.23,37.8,10.68,7.44,2.23,14.91,4.43,22.4,6.51a1.09,1.09,0,0,1,.08-.15c.23-.41.44-.83.69-1.22l.3-.48a2.57,2.57,0,0,1,.14-.61,12.37,12.37,0,0,1,1.82-3.74c.93-1.39,2-2.68,3-4,1.23-1.53,2.49-3.07,3.84-4.5,2.76-2.89,5.54-5.74,8.44-8.49,3.64-3.45,7.31-6.85,11.07-10.18s7.79-6.9,11.63-10.4c1.65-1.5,3.3-3,5-4.45-4.77-1.21-9.58-2.34-14.38-3.44q-17.35-3.95-34.74-7.8c-10.88-2.43-21.87-4.17-32.82-6.24-5.19-1-10.3-2.48-15.39-3.91s-10-2.77-15.06-4.15c-11-3.14-22.06-6.14-33.18-8.9s-22.46-5.48-33.64-8.43c-11.53-3-23.12-5.86-34.62-9-6-1.69-11.92-3.31-17.87-5-10.91-3.34-21.84-6.7-32.25-11.39-5.2-2.35-10.23-5-15.55-7.14s-10.74-3.86-16.07-5.9a292.85,292.85,0,0,1-28-12c-4.24-2.15-8.33-4.64-12.49-7-2.72-1.53-5.43-3.06-8.13-4.63-1.93-1.31-3.87-2.59-5.68-4-2.68-2.15-5.31-4.33-7.93-6.55-3.79-3.22-7.41-6.6-11-10-2.58-2.95-5.08-6-7.63-8.95-3.84-4.5-8.06-8.73-12.25-12.93a120.31,120.31,0,0,1-8.69-11.56c-1.65-2.43-3.39-4.8-5.12-7.17-3.33-4.56-7-8.89-10.32-13.43s-6.36-9.08-9.66-13.55c-3.61-4.91-7.28-9.77-10.94-14.63-4.38-5.82-8.3-12-12.32-18-3.43-5.17-6.65-10.44-9.72-15.82-2.33-4.58-4.58-9.2-6.83-13.81-2.38-4.88-5-9.64-6.79-14.78-1.07-3.08-2-6.13-2.89-9.27a108.26,108.26,0,0,0-5.38-14.81,103.53,103.53,0,0,1-5.66-16.22,140.19,140.19,0,0,0-4.45-14.59c-.84-2.26-1.68-4.45-2.38-6.76-.35-1.15-.66-2.31-1-3.47-.8-4.08-1.53-8.17-2.39-12.23C62.2,247.8,60.64,242,59,236.26a65.36,65.36,0,0,1-1.14-6.81c-.44-4.07-1.13-8.06-1.76-12.11-.59-3.74-.76-7.51-1-11.28-.17-2.87-.32-5.71-.41-8.57.09-1.25.2-2.5.34-3.76a74,74,0,0,0,.42-12.63c-.22-3.67-.45-7.31-.56-11A162.62,162.62,0,0,1,57,150.9a18.52,18.52,0,0,0-3.88-14.56c-2.75.08-5.49.15-8.23.24Z"/><path
        class="cls-1"
        d="M665.4,500.3A125.13,125.13,0,0,0,648.27,509c-3.45,2.12-6.93,4.13-10.46,6.08q-13.3,6.86-26.37,14.09c-4.15,2.1-8.31,4.17-12.58,6-4.84,2.1-9.63,4.23-14.34,6.61-9.63,4.89-19.12,10-28.8,14.8-9.5,4.68-18.78,9.86-28.49,14.09-2.77,1.21-5.54,2.38-8.36,3.48a63.39,63.39,0,0,0-6.78,2.77c-6.12,3.2-9.3,4.54-13.77,10.07a30.52,30.52,0,0,0,19.23,49.44c.49.07,1,.13,1.54.18.52-.6,1-1.19,1.59-1.76,2.75-2.9,5.54-5.75,8.43-8.5q5.46-5.18,11.07-10.18c3.9-3.45,7.8-6.9,11.64-10.4,2.15-2,4.29-3.89,6.52-5.75l3.56-3c.81-.67,1.72-1.25,2.57-1.87,2-1.45,4-2.89,6-4.21s4.28-2.84,6.5-4.09l8.43-4.75c2-1.1,4-2.12,6-3.18L606.3,571l7.44-3.9c.72-.76,1.46-1.5,2.23-2.2a93.24,93.24,0,0,1,16.66-12.21c2.59-1.49,5.27-2.83,7.93-4.21,2.22-1.15,4.43-2.3,6.64-3.47,2.37-1.23,4.67-2.62,7-3.93q3.21-1.82,6.4-3.65,3.58-2.06,7.22-4.07a4.34,4.34,0,0,1,1.52-1.66q3.28-2.12,6.69-4a2.32,2.32,0,0,1,.06-.38,4.16,4.16,0,0,1,2.64-2.94c2.17-.94,4.33-1.87,6.47-2.88l3.73-1.76a17.62,17.62,0,0,0-.88-9.29,18.09,18.09,0,0,0-16.59-11.4,15.66,15.66,0,0,0-6.08,1.2Z"/><path
        class="cls-1"
        d="M195.34,426.12a32,32,0,0,0-.56,24l3.9,7.26a32.09,32.09,0,0,0,12.81,10.47,163.27,163.27,0,0,0,14.94,8.26c4.6,2.2,9.3,4.18,14,6.21,10.68,4.63,21.46,9,32.22,13.5-.08.16-.15.33-.23.49a29.74,29.74,0,0,0,3.11,29.13c2.32,2.52,3.86,5.33,6.9,7.5l1.93,1.38a101.57,101.57,0,0,0,9.75,6.13l8.12,4.5c2.39,1.33,5,2.33,7.49,3.48,2,1,4,2,6.12,2.82,5.06,2.08,10.11,4.21,15.21,6.21l9.43,3.69c2.45,1,5,1.72,7.53,2.52,6.45,2,13,3.93,19.56,5.53,2.23.54,4.45,1,6.69,1.53l.54.79a31.39,31.39,0,0,0,12.86,10.37c3.38,1.54,6.68,3.25,10.16,4.56a149,149,0,0,0,17.93,5.24,181.28,181.28,0,0,0,19.06,3.46l18.44,2.32c5.19.65,10.41,1.16,15.62,1.48,2.83.17,5.65.27,8.47.34,3.39.09,6.77.23,10.15.27a13.34,13.34,0,0,0,2.28-.22,76.76,76.76,0,0,0,8.72-2.08,31.83,31.83,0,0,0,5.85-2.82c9.62-5,19.51-9.81,30-12.79,1.8-.37,3.62-.71,5.43-1l5.1-.92c6.88-1.21,14-2.43,20.31-5.44a99.91,99.91,0,0,0,16.43-9.52q1.92-1.41,3.81-2.83l1.9-1.4a35.81,35.81,0,0,0,3.91-1.43A32.73,32.73,0,0,0,600.17,503c-5.69-4.68-12.54-7.09-19.73-8a61.79,61.79,0,0,0-13.1-.74c-5.85.34-11.27,2.69-16.26,5.59-2.79,0-5.59.06-8.38,0l-15.81-1c-5.31-.35-10.61-1.16-15.9-1.77q-15.93-1.85-31.85-3.83c-6.11-.76-12.2-1.78-18.29-2.68-4.24-.62-8.41-1.33-12.61-2.14l-18.83-3.65c-1.82-.35-3.63-.88-5.43-1.31l-11.61-2.83-4.14-1c-8.46-2.69-17-5.31-25.21-8.58-5.61-2.21-11.37-4.23-16.89-6.67l-17.24-7.59c-8.85-3.9-17.56-8.08-26.31-12.16q-16.75-7.83-33.55-15.5c-4-1.83-8-3.71-12-5.56-3.82-1.78-7.58-3.72-11.49-5.32l-8.29-3.39c-2.13-.87-4.37-1.49-6.55-2.2a143.79,143.79,0,0,0-21.35-5.28,29.57,29.57,0,0,0-4.79-.39,32.28,32.28,0,0,0-29.14,19.16ZM211.83,468Z"/><path
        class="cls-1"
        d="M67.75,139.49a31.7,31.7,0,0,0-11.08,2.67c-6,3.06-12.47,6-16.2,12.08-4.1,6.67-7.18,10.85-8,18.94a82.59,82.59,0,0,0-.18,10.67,9.75,9.75,0,0,0,.08,1.52c-.09.78-.19,1.56-.31,2.35a63,63,0,0,0-.38,16c.26,2.52.88,5,1.37,7.51a58,58,0,0,1,1.31,11.45,111.24,111.24,0,0,0,.83,16.62,218.17,218.17,0,0,0,5.61,26.4c.9,3.24,2.48,6.2,3.7,9.31.11.8.2,1.61.27,2.42a63.51,63.51,0,0,1-1.11,6.43c-.41,1.39-.79,2.77-1.1,4.14-.79,3.55-.58,7.5-.48,11,.23,7.87,4,14.06,7.68,20.65,3.3,5.84,8.45,10.75,13,15.47s10,8.5,15.44,12.18c2.75,1.86,5.51,3.72,8.23,5.62-4.68,8.76-5.81,19.43-1.91,28.78,1.7,4.07,3.46,8.26,6.22,11.73a96.3,96.3,0,0,0,9.34,9.82,63.38,63.38,0,0,0,5.21,4.34,35.61,35.61,0,0,0,9.34,14.48,43.9,43.9,0,0,0,4.76,4.39c.46.36.93.7,1.39,1l2.86,2.48a34.13,34.13,0,0,0,6.22,22.39c3.7,5.2,8.57,9.63,13.26,14,.32.3.64.6,1,.89.38.66.79,1.3,1.24,1.93,2,2.4,3.85,4.87,5.91,7.19a139.23,139.23,0,0,0,11,11c4.88,4.43,10,8.61,15.25,12.57,6.38,4.8,13,9.29,19.61,13.74,3.9,2.62,7.81,5.2,11.79,7.71,4.48,2.82,8.9,5.75,13.38,8.57l.08.07-.17-.11a11.17,11.17,0,0,0,1,.82,27.46,27.46,0,0,0,32.89.93c.3-.22.6-.44.89-.67l.26-.1a33.71,33.71,0,0,0,11.41-7.21l.54.3c4.21,2.73,8.24,5.71,12.17,8.82a19.85,19.85,0,0,0,24.93-30.89,172.63,172.63,0,0,0-32.18-20,74.27,74.27,0,0,0-6.5-10.79c-4-5.25-8.87-10-13.39-14.68l-1.5-1.56a34.82,34.82,0,0,0,22.57-36.38c-1-9.37-5.68-17.36-12.77-23.43a106,106,0,0,0-12.84-9q-5.43-3.37-10.89-6.71c-1.17-.83-2.33-1.67-3.49-2.51a62.56,62.56,0,0,0-1.95-6.87c-1.44-4.08-3.94-7.71-6-11.51a69.81,69.81,0,0,0-4.55-6.87c-3-4.17-6.48-8-9.8-11.9-7.45-8.68-14.79-17.39-21.86-26.37-5.12-6.52-9.73-13.49-14.46-20.29-2.1-3-4.23-6-6.44-9-3.18-4.23-6.45-8.4-9.26-12.87a132.28,132.28,0,0,1-5.17-12.72c-1.78-5.11-3.38-10.35-5.35-15.4-4-10.15-8.28-20.18-11.87-30.48q-2.65-7.63-5.33-15.27c-2.12-6.12-5.39-11.8-8.47-17.46-1.09-2-2.24-4-3.49-5.89-1.81-2.78-3.68-5.53-5.41-8.37-1.65-3.27-3.3-6.53-5.2-9.68-3.65-6.09-10.43-10.45-16.56-13.47a41.51,41.51,0,0,0-11-2.93c-2.8-.21-5.73-.35-8.66-.35-2.25,0-4.5.08-6.7.29ZM223.26,530.55Z"/><path
        class="cls-2"
        d="M34.63,143.82a60,60,0,0,1-1.25,9.72c-.55,2.15-1,4.31-1.34,6.5s-.82,4.63-1.09,7-.62,4.83-1,7.24c-.78,5.37-1.25,10.8-1.72,16.2-.43,5-1.09,10-1.25,15-.16,5.3-.11,10.6-.45,15.89-.18,2.63-.37,5.24-.45,7.87-.09,3.14,0,6.26,0,9.4.13,5.28.07,10.56.15,15.84s.28,10.72.55,16.08.47,10.77.7,16.15,1,10.71,1.73,16c.37,2.55.83,5.08,1.23,7.62s.87,5.14,1.44,7.69c1.24,5.62,2.68,11.21,4.37,16.72,1.54,5,2.81,10.09,4.57,15s3.65,9.73,5.32,14.65A140,140,0,0,0,52,379.6c1.11,2.33,2.34,4.61,3.52,6.91s2.3,4.65,3.45,7c4.9,9.84,10.71,19.17,16.28,28.63,2.68,4.54,5.79,8.81,8.71,13.18s6.2,8.89,9.26,13.37c2.3,3.36,4.51,6.78,6.86,10.11q3.73,5.31,7.58,10.54,3.64,5,7.72,9.62c2.72,3.1,5.78,6.21,8.81,9.18,3.51,3.57,6.9,7.26,10.57,10.66,1.83,1.7,3.71,3.33,5.56,5s3.54,3.2,5.32,4.78A89.28,89.28,0,0,0,157.21,517c3.77,2.36,7.57,4.67,11.19,7.25a93.19,93.19,0,0,0,8.91,5.33c1.95,1.16,3.85,2.38,5.73,3.65a74.7,74.7,0,0,0,7.08,4.27,66.67,66.67,0,0,0,6.78,2.8,59.1,59.1,0,0,1,6.66,3.33c2.25,1.24,4.46,2.52,6.74,3.68,2.12,1.08,4.28,2.07,6.44,3.06,4.54,2.07,8.93,4.42,13.38,6.67s9,4.57,13.5,7A127.26,127.26,0,0,0,257,570.92c4.64,1.91,9.34,3.68,14,5.59,2.51,1,5,2.08,7.5,3.15s5.22,2.39,7.8,3.66c4.84,2.38,9.71,4.68,14.68,6.75,4.8,2,9.56,4.08,14.37,6,2.34.94,4.69,1.91,7.09,2.69,1.17.38,2.35.73,3.53,1.1,1.39.43,2.75.93,4.11,1.45,4.81,1.84,9.52,4,14.29,5.91,1.75.71,3.5,1.4,5.28,2s3.83,1.15,5.77,1.67l5.81,1.55c1.28.37,2.57.72,3.86,1.06,4,1.18,7.91,2.51,11.91,3.63,2.25.63,4.5,1.27,6.76,1.89s4.78,1.14,7.16,1.74c7.47,2.09,14.87,4.41,22.36,6.42,2.26.6,4.53,1.13,6.81,1.65,4.6,1.3,9.14,2.8,13.7,4.23s9.37,2.45,14.05,3.69c2.41.66,4.83,1.34,7.27,1.9,2.68.61,5.37,1.16,8.07,1.72,4.76,1,9.48,2.18,14.22,3.27,2.43.57,4.88,1.09,7.33,1.58s4.76.84,7.16,1.2c2.2.33,4.4.53,6.59.89,2.53.41,5,.81,7.58,1,1,.06,2,0,3,0a21.27,21.27,0,0,1,3.38.24,30.84,30.84,0,0,0,3.33.38,30.21,30.21,0,0,1,3.15.44,4.78,4.78,0,0,0,2.49,0h-.17a1.78,1.78,0,0,1-.56-.1h0a20.91,20.91,0,0,1-2.82-1.26c-.92-.46-1.89-.76-2.85-1.13-1.15-.44-2.24-1-3.41-1.45a29.17,29.17,0,0,0-3.26-.94,68.27,68.27,0,0,1-6.79-2.38c-2.19-.88-4.4-1.68-6.63-2.44-4.56-1.55-9.08-3.22-13.59-4.91s-9.1-3.33-13.76-4.65c-5.32-1.5-10.75-2.52-16.1-4-3.89-1-7.85-1.85-11.76-2.86-4.37-1.24-8.67-2.76-13-4.11a79.7,79.7,0,0,0-7.84-2c-1.91-.43-3.79-.93-5.67-1.44l.27.07c-5.28-1.46-10.52-3-15.77-4.58-3-.89-6-1.69-9.1-2.31-2.13-.43-4.22-1-6.31-1.57-5-1.37-10-3-15-4.41l.76.2c-4.17-1.14-8.32-2.38-12.49-3.51L357,600a110.38,110.38,0,0,1-13.32-4.85c-2.51-1-5-2.09-7.52-3.11l-3.83-1.52c-1.2-.46-2.44-.81-3.66-1.21-4.83-1.55-9.48-3.7-14.13-5.72-5-2.18-10.06-4.24-15-6.5s-9.74-4.72-14.63-7c-2.39-1.14-4.89-2.11-7.33-3.15s-4.9-2-7.35-3c-4.56-1.9-9.22-3.59-13.69-5.7s-8.83-4.7-13.27-7c-4.27-2.21-8.8-3.87-13.13-6-2.15-1-4.29-2.1-6.46-3.11-2.35-1.08-4.73-2.09-7.09-3.16-4.33-2-8.43-4.38-12.66-6.55a58.37,58.37,0,0,0-6.38-2.66,47,47,0,0,1-5.78-2.74c-2.33-1.48-4.54-3.12-6.84-4.64s-4.54-2.8-6.87-4.12c-1.92-1.19-3.75-2.51-5.6-3.81s-3.74-2.53-5.6-3.82c-3.79-2.6-7.66-5.06-11.32-7.85-4-3.09-7.76-6.56-11.57-9.91-3.52-3.09-6.92-6.28-10.25-9.57q-1.74-1.78-3.51-3.54-5.16-5.25-10-10.82c-3.37-3.94-6.47-8.08-9.59-12.22s-6.33-8.61-9.25-13.1c-2.76-4.26-5.86-8.29-8.67-12.51-3.35-5-6.83-10-9.86-15.27-3.11-5.54-6.39-11-9.56-16.5-2.58-4.75-5-9.6-7.28-14.48-2.21-4.63-4.65-9.14-6.48-13.94S55.94,361,54.17,356c-.88-2.45-1.73-4.9-2.58-7.37s-1.71-4.86-2.41-7.33c-.29-1-.57-2-.86-3-.64-2.61-1.28-5.22-1.94-7.82.11.46.23.92.35,1.38l-.54-2.12-1.71-7.46c-.59-2.53-1.2-5.07-1.63-7.64-.87-5.16-1.55-10.35-2.14-15.55-.63-5.45-1.12-10.88-1.24-16.36-.11-5.26-.25-10.52-.49-15.79-.15-3.2-.28-6.39-.4-9.59-.11-2.91-.09-5.84-.15-8.75,0-2.75,0-5.5-.09-8.24s-.16-5.7-.24-8.55c0-2.2.09-4.4.23-6.6.19-3,.22-6,.23-9,0-5.11-.14-10.23-.12-15.35,0-5.39-.3-10.76-.7-16.14-.38-5.19-.83-10.39-1.32-15.58-.2-2-.52-4.1-.61-6.16s-.25-4.29-.25-6.43v-3.53a24.87,24.87,0,0,0-.21-3.45c-.24-1.94-.54-3.86-.82-5.79h.1Zm98.57,339h0l.21.22-.17-.17ZM413.49,627.29h-.28l.28.08Zm-.28-.08-1.1-.29Z"/><path
        class="cls-2"
        d="M121.29,132.85c.63,2,1.3,4,1.89,6a18.94,18.94,0,0,1,.56,3.82c-.1,2.38-.59,4.71-.69,7.1a62.13,62.13,0,0,0,.36,8.18,116.56,116.56,0,0,0,2.32,15.67c.66,2.89,1.54,5.69,2.38,8.53q1.33,4.5,2.88,9c1.79,5.22,4,10.31,6.19,15.38s4.47,9.79,6.73,14.68,4.55,9.76,7.06,14.54c1.32,2.51,2.66,5,4,7.53s2.61,5.13,3.95,7.69c2.63,5,5.26,10.1,8,15.06,1.89,3.39,3.76,6.79,5.73,10.12,1.58,2.7,3.2,5.37,4.76,8.07,2.73,4.83,5.52,9.63,8.66,14.2,1.54,2.25,3.13,4.46,4.72,6.67s3.2,4.26,4.7,6.46c3.14,4.61,6.36,9.17,9.7,13.64,3.54,4.75,7.22,9.41,10.86,14.09,1.54,2,3,4,4.61,6s3.5,4.19,5.36,6.2c3.64,4,7.4,7.79,11.21,11.58,3,3.11,6.07,6.23,9.14,9.32l-1-1c2.26,2.3,4.48,4.69,6.87,6.86,2.23,2,4.47,4,6.76,5.93,4.15,3.52,8.31,7,12.51,10.52s8.37,7.34,12.66,10.87c4.45,3.66,8.92,7.26,13.54,10.7,2.41,1.79,5,3.37,7.48,5,2.27,1.51,4.54,3,6.83,4.49s4.75,3.07,7.17,4.53c2.21,1.34,4.45,2.64,6.59,4.08,2.35,1.57,4.65,3.18,7.08,4.63,2.83,1.69,5.7,3.32,8.58,4.94a107.14,107.14,0,0,0,15.19,6.92c2.05.77,4.1,1.54,6.15,2.34s4,1.63,6,2.39c4.31,1.61,8.69,3,13,4.44,4.14,1.39,8.3,2.69,12.48,4,4.54,1.37,9.19,2.32,13.79,3.46,11.21,3.13,22.48,6.07,33.83,8.7,5.69,1.33,11.4,2.4,17.15,3.36s11.29,1.71,16.93,2.53,11.18,1.18,16.79,1.52,11.34,1,17,1.33c5.84.37,11.67.69,17.5,1.25,2.68.25,5.36.5,8,.66s5.59.25,8.39.43c4.55.29,9.08,1,13.62,1.38,2.21.2,4.43.31,6.64.53,2.53.24,5,.48,7.59.66,4.8.34,9.62.66,14.37,1.45,2.54.42,5.06.83,7.61,1.14a60.12,60.12,0,0,0,6.43.38c3.62.17,7.17.6,10.76,1,1.61.19,3.23.37,4.86.4,1.87,0,3.72,0,5.59-.08,1.66.06,3.32.18,5,.32,2.13.19,4.25.32,6.39.43L636,495c-.47-.52-.93-1.06-1.39-1.6-1.27-1.53-2.49-3.12-3.75-4.67l.11.12-2-2.43c-.63-.68-1.3-1.34-2-2-2-.51-4-1-6.08-1.38s-4.43-.33-6.63-.71c-2.5-.44-5-1-7.48-1.4a51.72,51.72,0,0,0-8.34-.55,60.64,60.64,0,0,1-7.12-.57c-2.91-.42-5.82-.86-8.75-1.2-2.78-.34-5.59-.5-8.38-.68s-5.7-.45-8.55-.72c-2.5-.23-5-.34-7.51-.46s-5.07-.39-7.59-.69c-2.81-.34-5.6-.64-8.43-.73s-5.64-.22-8.45-.41c-5.68-.4-11.32-1-17-1.18s-11.32-.53-17-.86-11.57-.6-17.35-1c-3-.23-5.91-.68-8.85-1.08-2.58-.36-5.16-.69-7.74-1.07-7.35-1.09-14.66-2.24-21.9-4-7-1.67-14-3.48-21-5.32q-5.7-1.67-11.39-3.41c-3.61-1.1-7.32-1.87-11-2.78-5.39-1.61-10.71-3.39-16-5.2-2.66-.91-5.37-1.71-8.05-2.58s-5.2-2-7.79-3c-5.08-2-10.23-3.73-15.28-5.78a136.06,136.06,0,0,1-14.9-7.43c-1.21-.72-2.42-1.45-3.61-2.21s-2.42-1.63-3.65-2.4c-2.58-1.59-5.23-3-7.86-4.54-4.92-2.92-9.63-6.16-14.37-9.36-2.3-1.54-4.58-3.09-6.77-4.78s-4.36-3.4-6.5-5.13c-8.86-7.18-17.24-14.9-25.85-22.37-4.29-3.72-8.59-7.43-12.65-11.41-7.75-8.07-15.24-16.39-22.68-24.74-3.92-4.39-7.34-9.16-10.82-13.89-3.32-4.5-6.65-9-9.93-13.53-1.63-2.25-3.18-4.54-4.73-6.84s-2.93-4.66-4.56-6.87c-3.25-4.45-6.55-8.85-9.48-13.53-1.52-2.42-2.89-4.92-4.42-7.33-1.44-2.25-2.79-4.57-4.23-6.83-2.93-4.6-5.68-9.31-8.39-14-.19-.32-.37-.64-.55-1l-2.58-4.59c-2.71-4.88-5.35-9.79-7.88-14.77s-5.33-9.89-7.87-14.9c-2.45-4.84-4.75-9.75-7.25-14.56s-5.17-9.71-7.28-14.79c-1.61-3.86-3.16-7.75-4.76-11.61-.8-1.94-1.61-3.89-2.43-5.83s-1.74-3.76-2.59-5.64a86.27,86.27,0,0,1-4-10.41c-1.15-3.75-2.21-7.55-3.23-11.35a33.23,33.23,0,0,1-.78-3.95A43.87,43.87,0,0,0,126,142c-.82-3.34-2.93-6.26-4.73-9.15h0Z"/><path
        class="cls-1"
        d="M275.6,458.09a24,24,0,0,0-13.42,12.8l-1.71,5.94a23.72,23.72,0,0,0,1.29,12c1.18,2.21,2.28,4.46,3.58,6.6s3.48,4,5.38,5.79a10.05,10.05,0,0,0,1.49,1.1q3.33,2.12,6.78,4.1a23.69,23.69,0,0,0,33-24.24c-.63-5.87-3.69-12.35-8.61-15.87a23.89,23.89,0,0,0-27.79-8.26Zm30.84,14,.06.1Z"/></svg>
