<svg id="Layer_1" data-name="Layer 1" xmlns="http://www.w3.org/2000/svg" viewBox="0 0 864 864">
    <defs>
        <style>
            .cls-1 {
                fill: #a9946d;
            }
            .cls-2 {
                fill: #171717;
            }
        </style>
    </defs>
    <title>Slide 7 - Path 1Artboard 1</title>
        <path
        class="cls-1"

        d="M368.76,59.62a11.74,11.74,0,0,0-2.26.59c-1.46.55-2.93,1.09-4.37,1.71-2.3,1-4.54,2.14-6.79,3.24-4.5,2.21-9.06,4.33-13.54,6.61s-9.09,4.27-13.56,6.55c-2.35,1.2-4.72,2.38-7,3.66s-4.67,2.67-7,4c-4.57,2.7-9.24,5.25-13.89,7.8-2.3,1.26-4.5,2.62-6.69,4.06s-4.34,3-6.51,4.56c-4,2.82-8.26,5.42-12.28,8.29-4.58,3.28-9.18,6.52-13.75,9.8-2.4,1.72-4.78,3.45-7.11,5.26-2.1,1.63-4.17,3.31-6.24,5s-4,3.19-5.91,4.89c-2.08,1.84-4.16,3.68-6.26,5.49s-4.1,3.43-6.18,5.11-4,3.32-6,5c-4,3.33-7.88,6.73-11.77,10.16-4.17,3.67-8.27,7.43-12.52,11-1.94,1.64-4,3.2-5.94,4.8s-3.73,3.09-5.54,4.71c-4.07,3.64-8.13,7.29-12.1,11-3.73,3.51-7.28,7.24-10.8,11-3.82,4-7.67,8-11.39,12.17-1.69,1.89-3.27,3.89-4.86,5.86l-4.08,5-5.1,6.18c-1.88,2.26-3.66,4.61-5.48,6.94L129,245.9c-1.7,2.07-3.45,4.11-5.06,6.25-3.21,4.26-6.38,8.55-9.7,12.73q-5.85,6.84-11.53,13.82l-4.83,5.88.78-.94c-1.81,2.19-3.59,4.38-5.23,6.7-1.49,2.1-2.86,4.3-4.23,6.48-2.8,4.45-5.51,9-8.23,13.46-1.28,2.11-2.63,4.18-3.91,6.29-1.46,2.41-2.84,4.84-4.14,7.33s-2.45,4.69-3.77,7c-.54,1-1.18,1.86-1.73,2.81-.71,1.21-1.33,2.45-1.93,3.72a109.5,109.5,0,0,0-4.3,10.11,4.34,4.34,0,1,0,8.3,2.56h0c.63-1.8,1.43-3.53,2.23-5.25a70,70,0,0,1,3.41-6.54c.6-1,1.25-1.95,1.83-2.95.7-1.23,1.38-2.47,2.06-3.71,1.12-2.06,2.1-4.21,3.27-6.25,1.39-2.41,2.85-4.77,4.31-7.14,2.69-4.34,5.37-8.69,8.15-13s5.35-8.37,8.38-12.32c2.21-2.61,4.45-5.2,6.68-7.79,2.47-2.88,4.91-5.79,7.45-8.61,2.79-3.11,5.58-6.21,8.18-9.48,2.43-3.06,4.84-6.14,7.28-9.19q3.6-4.2,7.25-8.36c2.4-2.73,4.7-5.53,7-8.35q5.31-6.16,10.55-12.4c3.38-4,7-7.83,10.66-11.62s7.29-7.65,11-11.36,7.7-7.38,11.68-10.93l6.12-5.44c1.95-1.74,4-3.35,6-5s4.16-3.33,6.19-5c1.86-1.57,3.68-3.19,5.49-4.81,4.05-3.66,8.18-7.22,12.32-10.78s8.19-7,12.4-10.43c2.15-1.72,4.24-3.5,6.31-5.32,2.31-2,4.57-4.13,7-6.06l7.66-6.15c2.1-1.68,4.26-3.28,6.43-4.87l6-4.27a5.88,5.88,0,0,0,2.94,2.1,5.55,5.55,0,0,0,4.45-.45q7-5.05,14.05-10.08c2.21-1.59,4.47-3.11,6.7-4.65.88-.6,1.8-1.13,2.71-1.68s2.09-1.31,3.18-1.9c4.8-2.6,9.69-5,14.56-7.5,4.53-2.29,9.28-4.15,13.93-6.17,3.17-1.39,6.34-2.8,9.53-4.14s6.25-2.59,9.36-3.93,6.14-2.52,9.16-3.89c2.67-1.21,5.33-2.44,8-3.54,2.09-.76,4.21-1.4,6.3-2.17.78-.29,1.57-.6,2.35-.91a10.41,10.41,0,0,0,1.28-.57,19,19,0,0,0,2.57-2A15.73,15.73,0,0,0,386,72.85a7.35,7.35,0,0,0,1.24-2.6,21.89,21.89,0,0,1-2.35-4.13c-.44-1-.94-2.07-1.32-3.13l-1-.72a18.6,18.6,0,0,0-3.33-1.83,15,15,0,0,0-4-1,19.29,19.29,0,0,0-2.84-.21,23.62,23.62,0,0,0-3.85.32Z"
        />
        <path
        class="cls-1"

        d="M343.82,83.05a6.85,6.85,0,0,0-3.53,1l-.8.5c-2.14,1.13-4.37,2.13-6.55,3.19l-4.29,2.09a15.27,15.27,0,0,0-1.74,1,6.16,6.16,0,0,0-1.59-.27l-1.59.17A5.93,5.93,0,0,0,321.26,92l-4,2.67a5.91,5.91,0,0,0-4.17.47c-3.23,1.66-6.43,3.36-9.57,5.18a114.67,114.67,0,0,0-10.09,6.85c-2.91,2.14-5.7,4.38-8.49,6.66l-8.19,6.67-.58.48c-2.22,1.41-4.44,2.83-6.63,4.28-3.36,2.22-6.72,4.41-10,6.75l-1.08.79a5.81,5.81,0,0,0-4.52,1.5c-1.75,1.63-3.37,3.43-5,5.21-1.1,1.21-2.2,2.43-3.28,3.65-1.72,1.64-3.47,3.24-5.2,4.86-3.8,3.57-7.5,7.23-11.27,10.83-4.11,3.93-8.17,7.88-12.12,12s-7.82,8-11.72,12.08c-1.63,1.69-3.12,3.55-4.68,5.32l-6.8,7.75c-3.41,3.89-6.64,8-10,11.94s-6.7,7.93-9.92,12c-3.59,4.52-7.28,9-10.75,13.59-2.69,3.57-5.37,7.12-8,10.76a5.87,5.87,0,0,0,4.79,9,6.3,6.3,0,0,0,4.19-1.59,34.08,34.08,0,0,0,3.47-3c1.23-1.25,2.36-2.59,3.49-3.93,1.39-1.65,2.75-3.34,4.16-5a6,6,0,0,0,6.58-2.55c.29-.46.59-.93.87-1.39.65-1,1.3-2,2-3.06-.8,1.45-1.6,2.9-2.43,4.32-2.12,3.61-4.34,7.14-6.52,10.72a81.71,81.71,0,0,0-4.83,9.8,23.85,23.85,0,0,0-1.24,2.9,5.93,5.93,0,0,0,2.51,6.73c2.61,1.64,6.56.94,8.11-1.87,1.23-2.22,2.23-4.55,3.26-6.86,1.76-3.51,3.89-6.77,5.93-10.11,2.28-3.73,4.38-7.55,6.53-11.35,2.06-3.64,4.19-7.23,6.49-10.73,1.07-1.63,2.13-3.25,3.29-4.83l4.22-5.72c3-3.57,5.91-7.14,9-10.62l6.83-7.8c1.34-1.53,2.77-3,4.16-4.48,7.4-7.92,14.84-15.81,22.53-23.47,4.14-4.12,8.26-8.27,12.44-12.35l3.52-3.45c.26-.17.51-.35.76-.55,8.17-6.53,16-13.45,23.79-20.48l6.06-4.7c3-2.34,6.11-4.54,9.18-6.79q6.68-4.78,13.38-9.53c2.39-1.69,4.78-3.38,7.14-5.12,2-1.46,3.91-3,5.86-4.48s4-2.6,6-3.86l2.89-1.8c.68-.42,1.34-.88,2-1.3l.9-.5A6,6,0,0,0,344,83.25Z"
        />
        <path
        class="cls-1"

        d="M246.36,164.41a11.22,11.22,0,0,0-1.78.67c-.47.23-.92.46-1.36.73-1.12.69-2.21,1.42-3.28,2.18a36.79,36.79,0,0,0-3.54,2.79c-1,.87-1.86,1.77-2.77,2.68q-1.77,1.8-3.41,3.72a4.93,4.93,0,0,0-2.55,1.26,25.56,25.56,0,0,0-5.59,6.41c-1.17,2.15-1.89,4.51-2.84,6.75-.07.16-.15.32-.23.47l-.49.68-.4.54c-3.86,3.58-7.79,7.08-11.68,10.63-1.3,1.19-2.66,2.35-3.92,3.58l-3.14,3.07c.55-.8,1.09-1.61,1.63-2.42.75-1.11,1.47-2.23,2.17-3.37l1.55-2.46c.45-.73.89-1.45,1.31-2.2a13.28,13.28,0,0,0,1.4-3.82,5.45,5.45,0,0,0-.59-4.52c.42-.65.83-1.31,1.25-1.95.21-.32.41-.64.61-1l.13-.18a52,52,0,0,0,3.64-6.36c.39-.79.78-1.57,1.18-2.36.21-.43.42-.87.64-1.31a25.74,25.74,0,0,0,1.43-3,5.73,5.73,0,0,0-1.3-5.59l-.19-.22c-2-2.2-6-2.49-8.08-.24-2.6,2.79-5.23,5.55-7.86,8.3-1.53,1.6-3,3.23-4.61,4.77l-11.83,11.5q-6.51,6.3-13,12.63c-1.72,1.68-3.33,3.51-5,5.26l-7.13,7.51c-1.35,1.42-2.59,3-3.87,4.44l-6.34,7.4c-2,2.33-3.85,4.8-5.76,7.2-1.5,1.9-3,3.81-4.38,5.77-6.44,8.85-12.68,17.87-18.82,26.93l-.51.75a6.09,6.09,0,0,0-1.53,1.67c-1.54,1.88-2.84,4-4.24,6-.74,1.06-1.57,2.07-2.38,3.09l-1.37.14a6.16,6.16,0,0,0-2.08,1,8,8,0,0,0-2,1.72c-.93,1-1.85,2.1-2.72,3.2-1.09,1.38-2.18,2.77-3.22,4.19-2.13,2.91-4.23,5.85-6.45,8.7a46.33,46.33,0,0,0-4.41,4.78,6,6,0,0,0,.72,7.29,5.27,5.27,0,0,0,.74.67c-.46.62-.9,1.25-1.31,1.91-1.35,2.15-2.54,4.39-3.75,6.62-1,1.78-2,3.51-3,5.26s-1.85,3.33-2.85,4.94c-.87,1.41-1.84,2.76-2.74,4.15-.8,1.23-1.51,2.49-2.39,3.66-.77.88-1.57,1.72-2.28,2.65-.18.23-.35.48-.53.71a5.72,5.72,0,0,0-.7,1.19l-.12.2a6,6,0,0,0-.84,1.1,5.92,5.92,0,0,0-.91,3,6.25,6.25,0,0,0,1.63,4.29,7,7,0,0,0,5,2.2,26.17,26.17,0,0,0,5.3-.37c1.81-.26,3.63-.78,5.42-1.19a68.4,68.4,0,0,1,7.28-1.12c4.32-.53,8.59-1.42,12.92-1.95a59.4,59.4,0,0,1,6.26-.06,46.1,46.1,0,0,0,6.43-.43c1-.09,2.08-.2,3.12-.23a31.51,31.51,0,0,1,3.46.1,21.69,21.69,0,0,0,3.42,0c1.5-.11,3-.29,4.49-.55.7-.06,1.41-.1,2.12-.13a39,39,0,0,0,7.44-1c2.09-.5,4.15-1,6.26-1.32a13.48,13.48,0,0,0,1.54-.06,34.85,34.85,0,0,0,3.68-.28,8.7,8.7,0,0,0,2.83-1,9.18,9.18,0,0,0,3-2.85,12.23,12.23,0,0,0,2.18-5.2c.51-3.13.89-6.42,2.12-9.36-.15.32-.3.64-.44,1,.63-1.4,1.18-2.79,1.67-4.25s.82-2.69,1.22-4c.76-2.61,1.5-5.22,2.29-7.82q2.22-7.29,4.79-14.46c1.9-5.3,3.72-10.62,5.39-16,.09-.27.17-.55.26-.82q2.76-5.79,5.71-11.51,2.24-4.38,4.54-8.75c2.34-3.73,4.72-7.43,7.09-11.14,2.75-4.3,5.45-8.64,7.78-13.19,1.35-2.62,2.67-5.27,4-7.89,2-3,3.93-5.94,6-8.88,1.57-2.3,3.18-4.58,4.71-6.91,1.76-2.68,3.5-5.36,5.2-8.07l1.79-2.29c.61-.77,1.2-1.55,1.79-2.33l9.73-9c1.53-1.43,2.91-3,4.35-4.56s3-3.27,4.38-4.94,3-3.45,4.46-5.15c2.21-2.49,5.44-5.8,4.43-9.48a6,6,0,0,0-1.46-2.69,5.86,5.86,0,0,0-2.59-1.61,8.59,8.59,0,0,0-1.94-.29,5.23,5.23,0,0,0-1.31.17Zm-57,72.83c-.46.73-.92,1.46-1.37,2.19-.2,0-.4-.08-.6-.1.65-.7,1.31-1.39,2-2.09Z"
        />
        <path
        class="cls-1"

        d="M399.36,52.77a15.71,15.71,0,0,0-3.13.5l-.87.22h-.09c-1.94.41-3.89.92-5.78,1.51-1.62.51-3.22,1-4.8,1.59-3.5,1.17-6.95,2.55-10.5,3.55a7.36,7.36,0,0,0-4.4,3.38,7.62,7.62,0,0,0-.74,5.67v.13A7.15,7.15,0,0,0,371,72.59l1.5,1.17a7.37,7.37,0,0,0,3.75,1,9.85,9.85,0,0,0,2.3-.09c1.28-.14,2.56-.35,3.82-.55.79-.12,1.58-.28,2.36-.41s1.75-.3,2.63-.43c3.23-.3,6.48-.36,9.73-.52,1.65-.07,3.3-.24,5-.37,1.1-.08,2.26-.23,3.38-.22a6.41,6.41,0,0,0,2,.17,2.8,2.8,0,0,0,.86-.09,8.5,8.5,0,0,0,6.4-3.07,9.23,9.23,0,0,1-2.52-1.65A15.67,15.67,0,0,1,407.6,65l-.78-.66a9.23,9.23,0,0,1-3-3.18,10.51,10.51,0,0,0-.72-1.32A8.33,8.33,0,0,1,401.82,57a11,11,0,0,1-.22-4,6.21,6.21,0,0,0-1.86-.28Z"
        />
        <path
        class="cls-2"
        id="path-outline"
        clip-path="url(#cut-off-bottom)"
        d="M425.19,36.94a80,80,0,0,0-15.67,1.46,33,33,0,0,0-8.3,2.83,19.73,19.73,0,0,0-3.51,2.35A11.8,11.8,0,0,0,395.56,46h-.38c-.82.08-1.64.16-2.45.27-1.24.15-2.47.35-3.7.55l-1.46.23a6.1,6.1,0,0,0-3.06.85,3.73,3.73,0,0,0-.39.25l-.88.13a6.51,6.51,0,0,0-2,.78c-.35.11-.68.19-1,.28l-.37.1a18.41,18.41,0,0,0-2.19.79l-1.36.46c-.64.21-1.3.42-1.93.68s-1.5.68-2.21,1l-1.47.71c-1,.41-1.91.79-2.79,1.24-.31.16-.62.33-.92.51l-.82.45-1.11.59c-1,.41-1.83.78-2.74,1.1-1.28.46-2.55.89-3.83,1.32-2.8.95-5.55,2.15-8.2,3.32-1.93.84-3.93,1.71-5.92,2.48-1.71.66-3.47,1.27-5.16,1.86l-2.08.72c-2.14.75-4.39,1.61-7.3,2.77-4.61,1.83-9,4.06-13.87,6.57-5.28,2.73-10.49,5.51-14.88,7.88-1.23.66-2.44,1.35-3.65,2l-.92.61c-1.59.89-3.21,1.74-4.82,2.6-2.93,1.54-5.95,3.14-8.8,4.94-4.39,2.76-8.42,5.44-12.33,8.2-1.48,1-3,2.08-4.48,3.1-2.74,1.89-5.59,3.84-8.29,5.88-2.15,1.63-4.28,3.28-6.41,4.93q-2.94,2.28-5.88,4.52c-4.7,3.58-8.76,6.81-12.42,9.9-1.28,1.07-2.54,2.21-3.76,3.31l-1.81,1.62c-1.07.95-2.17,1.88-3.27,2.81-.81.68-1.63,1.37-2.44,2.07-1.13,1-2.28,1.94-3.44,2.89l-2.19,1.82c-1.72,1.45-3.54,3.09-5.74,5.18-4,3.79-7.74,7.22-11.4,10.49-1.93,1.74-4,3.44-5.76,4.94l-3.51,3c-.82.71-1.63,1.42-2.46,2.12-4.41,3.78-8.41,8-12.27,12l-.76.79c-3.3,3.45-6.72,7-9.91,10.67-2.85,3.22-6.65,7.63-10.32,12.22-1.77,2.21-3.51,4.44-5.25,6.68-1.56,2-3.14,4-4.72,6-1,1.21-2,2.37-3.09,3.5-.64.69-1.28,1.38-1.9,2.08-1.8,2.06-3.57,4.21-5.23,6.23s-3,3.84-4.46,5.75c-1.68,2.22-3.42,4.53-5.25,6.7-.68.81-1.38,1.61-2.07,2.4-.94,1.08-1.91,2.19-2.83,3.32-1.38,1.69-2.73,3.41-4.08,5.14l-.93,1.18c-.57.72-1.13,1.44-1.68,2.17-1,1.28-2,2.56-3,3.81l-2.32,2.84-3,3.66c-3.14,3.88-6,8.09-8.71,12.16l-.17.26c-.64.94-1.25,1.88-1.87,2.83-.84,1.28-1.67,2.57-2.54,3.83-1.55,2.24-3,4.32-4.29,6.37-.65,1-1.27,2-1.9,3s-1.41,2.28-2.15,3.39l-1.84,2.76c-.88,1.32-1.77,2.64-2.65,4a133.59,133.59,0,0,0-7.07,11.93c-1.06,2-2,3.83-2.89,5.68a21.47,21.47,0,0,0-1.18,3c-.13.42-.26.85-.38,1.28l-.18.67-.18.68a2.48,2.48,0,0,0-.06.77,4.51,4.51,0,0,1,0,.52c-.88,3.17-1.61,5.56-2.36,7.76A62.47,62.47,0,0,0,61.73,347l.65-1L63,345l.65-1.09c.35-.59.7-1.19,1.06-1.78s.61-1,.93-1.43.63-.94.93-1.43c1.32-2.18,2.56-4.38,3.67-6.54l.55-.61a4.74,4.74,0,0,0,.56-.91l.14-.27.84-1.52a50.82,50.82,0,0,1,3.43-4.79l.92-1.21c1.52-2,3.09-4,4.62-6l3-3.75c2.15-2.65,4.38-5.38,6.34-8.24,3.13-4.54,5.93-8.83,8.58-13.12s5.41-8.7,8.44-13c1.62-2.29,3.16-4.36,4.69-6.3.8-1,1.62-2,2.44-3s1.65-2,2.45-3q2.64-3.37,5.36-6.74l1.06-1.31c1.13-1.42,2.3-2.88,3.52-4.27l2.26-2.55c1.08-1.21,2.15-2.43,3.23-3.66,1.43-1.65,2.79-3.43,4.11-5.15l.73-.95c3.36-4.37,6.79-8.49,10.21-12.25l1.59-1.71c1.1-1.16,2.23-2.36,3.25-3.63,1.32-1.62,2.62-3.27,3.91-4.91l.79-1c3.84-4.89,6.86-8.59,9.77-12,3.55-4.16,7.18-8.11,10.26-11.41,3.45-3.7,7.11-7.64,10.75-11.46,2.75-2.67,5.65-5.28,8.45-7.81l2.18-2c3.47-3.16,6.91-6.47,10.24-9.68l1-.95c1.1-1.05,2.19-2.12,3.28-3.18,2.54-2.47,5.17-5,7.82-7.44l2.72-2.49c2.86-2.61,5.81-5.32,8.79-7.89.91-.78,1.8-1.58,2.7-2.38s1.86-1.65,2.8-2.46c1.87-1.61,3.82-3.21,5.71-4.75l.16-.13c4-3.3,8.19-6.56,12.32-9.68l1.15-.87c1.64-1.24,3.33-2.53,5-3.73,1.4-1,2.83-2,4.25-2.91l2.45-1.67c1.83-1.25,3.67-2.58,5.44-3.87,2.33-1.69,4.75-3.45,7.2-5,2.71-1.78,5.58-3.54,8.53-5.25,5.31-2.86,9.63-5.22,13.61-7.45,1.66-.93,3.4-1.81,5.07-2.67l1.54-.78c2.4-1.23,4.8-2.44,7.22-3.64l6.49-3.2.77-.38c2.27-1.12,4.7-2.22,7.44-3.37s5.29-2,7.9-2.89c2.06-.7,4.19-1.42,6.26-2.23,1.58-.61,3.15-1.24,4.73-1.87,3.09-1.24,6.28-2.53,9.48-3.65l1-.34a53,53,0,0,0,6.19-2.44c1.26-.63,2.51-1.28,3.76-1.92.47-.09,1-.19,1.54-.33l.84-.25c.61-.18,1.23-.37,1.86-.51,1.68-.23,3.35-.59,5-.95l1.14-.24a48.08,48.08,0,0,0,4.71-1.26,6,6,0,0,0,3-.38h.11c1.06-.39,2-.76,3-1.15a7.24,7.24,0,0,0,.41,1l.15.32a17.61,17.61,0,0,0,2.22,3.38,34.16,34.16,0,0,0,5.76,5.64l1,.8c-1.58.3-3.18.64-4.76,1s-2.86.75-4.24,1.17l-1.52.44-1.59.46c-1.44.41-2.89.82-4.32,1.27-1.18.37-2.35.85-3.49,1.32l-.28.11c-1.59.5-3.18,1-4.78,1.46l-3.81,1.16a50.69,50.69,0,0,0-5.49,2c-2,.87-3.94,1.81-5.69,2.64-3.72,1.77-7.44,3.66-11.08,5.63s-6.91,4.11-10.2,6.24l-1.15.75c-1.18.76-2.37,1.5-3.55,2.24l-1.41.88c-.62.4-1.25.78-1.88,1.16-1,.65-2.11,1.3-3.14,2-6,4-11.87,8.48-17.51,12.82l-3,2.31c-2.56,2-5.91,4.55-9.24,7.2l-.86.68c-1.37,1.1-2.79,2.23-4.15,3.38l-2,1.75-2.55,2.17c-1.23,1-2.48,2-3.74,3.06-1.76,1.42-3.59,2.89-5.31,4.42-3.35,3-6.54,6.08-9.47,9.16-1,1.12-2.13,2.21-3.21,3.3l-.24.25-2.24,2.06c-2.1,2-4.27,4.13-6.31,6.3-3,3.25-5.73,6.3-8.19,9.32-.52.64-1,1.29-1.55,1.94s-1.25,1.6-1.9,2.39c-1.16,1.41-2.38,2.83-3.62,4.23-2.48,2.8-4.91,5.72-7.44,8.9-1.68,2.11-3.31,4.3-4.9,6.42l-2.1,2.81c-.84,1.11-1.69,2.21-2.54,3.31-1.4,1.79-2.84,3.65-4.18,5.54-2.25,3.15-4.65,6.57-6.93,10.11-1.26,1.95-2.47,3.93-3.69,5.91-.83,1.34-1.65,2.68-2.49,4l-3.63,5.76-2.78,4.41-1.44,2.28c-1.52,2.4-3.09,4.88-4.56,7.36l-.84,1.41c-1.74,2.92-3.55,5.94-5.18,9-.92,1.71-1.82,3.42-2.73,5.13s-1.88,3.55-2.83,5.32c-3.28,6.09-6.75,12.85-10.61,20.66l-.61,1.24c-.72,1.44-1.43,2.89-2.16,4.33s-1.68,3.31-2.4,5.12c-1.24,3.09-2.26,6.32-3.24,9.45l-.64,2c-.34,1.08-.71,2.14-1.09,3.21l-.15.43c-.12.34-.27.67-.41,1l-.21.48c-.2.46-.36.93-.52,1.4l-.13.37a70.28,70.28,0,0,0-2,7.4c-.56,2.46-1.15,5.09-1.49,7.73s-.77,5.07-1.2,7.54l-.08.48.26-.57c.67-1.78,1.36-3.62,1.94-5.47l.34-1.07c.47-1.52,1-3.09,1.55-4.6l.24-.62a94.35,94.35,0,0,1,4.84-11,54.31,54.31,0,0,0,2.66-5.28q1.2-2.7,2.34-5.43L174,304c.71-1.69,1.45-3.44,2.23-5.14s1.71-3.34,2.6-4.93l.18-.31c2-3.5,3.88-7.21,5.69-11l.93-2c1.29-2.72,2.61-5.53,4-8.24.83-1.56,1.65-3.13,2.48-4.7l2.49-4.72c.62-1.17,1.21-2.35,1.8-3.53l.81-1.6c.79-1.54,1.64-3.08,2.47-4.56l.07-.12c2.49-4.27,5.22-8.48,7.87-12.56,1.39-2.14,2.78-4.28,4.14-6.44s2.6-4.16,3.9-6.25c2.82-4.55,5.74-9.26,8.8-13.77,3.24-4.75,6.8-9.37,10.24-13.85l3.71-4.84c2.53-3.34,4.89-6.36,7.21-9.24,1.31-1.62,2.69-3.22,4-4.77,1.12-1.3,2.23-2.59,3.32-3.91.65-.78,1.3-1.57,1.94-2.36,1.46-1.79,3-3.65,4.52-5.43,1.93-2.22,4-4.35,6.07-6.41l.72-.73c1.33-1.28,2.69-2.54,4-3.79l2.58-2.41c1.88-1.76,3.73-3.62,5.52-5.43l1-1c3.24-3.07,6.24-5.71,9.17-8.07l2.1-1.65c.74-.58,1.49-1.16,2.22-1.75,1.66-1.35,3.28-2.72,4.78-4,5.47-4.68,11.3-9.13,16.93-13.42l3-2.31,2.83-2.18a188.9,188.9,0,0,1,16.79-12c2.54-1.54,5.06-3.12,7.57-4.7,4.36-2.73,8.87-5.55,13.41-8.14.43-.24.86-.48,1.28-.73q2.24-1.23,4.45-2.51l1.49-.53,2.21-.81c.77-.28,1.54-.59,2.3-.89,1.06-.43,2.15-.87,3.25-1.23,1.5-.5,3-1,4.53-1.45,2.54-.8,5.16-1.63,7.71-2.56,1.28-.47,2.6-.9,3.87-1.31l1.8-.59c1.79-.59,3.72-1.31,6.07-2.26,1.35-.55,2.75-1,4.11-1.47l1.49-.5,1.82-.63c1.22-.41,2.43-.83,3.65-1.23,2.16,1.39,4.55,2.81,7.52,4.46a126.49,126.49,0,0,0,15.54,7.2c2.81,1.11,5.19,2,7.47,2.81l1.67.6c2.08.74,4.24,1.52,6.41,2.12,1.22.33,2.43.68,3.65,1,1.39.4,2.78.79,4.18,1.17l.25.07c.57.16,1.11.3,1.65.51a17.08,17.08,0,0,0,1.75.58c1.53.42,3.07.81,4.62,1.19l1.93.48c2.07.51,4.2,1,6.32,1.52,2.73.62,5.57,1,8.31,1.38l.82.11c5.69.78,11.39,1.29,17,1.51,2.24.09,4.3.13,6.28.13h5.53c1.44,0,2.78-.07,4.09-.18A43.64,43.64,0,0,0,524,97.49a38.92,38.92,0,0,0,5.18-2.24,21.15,21.15,0,0,0,4.57-3.53l.41-.33a7.24,7.24,0,0,0,1.18-.88,5.87,5.87,0,0,0,1.35-2.39,3.06,3.06,0,0,1,.1-.51c.11-.72.19-1.35.26-2a8.63,8.63,0,0,0-.07-1.83,13.6,13.6,0,0,0-1.13-4.3,26.93,26.93,0,0,0-1.81-3.12c-3-4.53-7.47-7.68-11.07-9.91a90.8,90.8,0,0,0-11.19-5.74c-1.51-1-3.1-1.89-4.85-2.89a120.79,120.79,0,0,0-15-7.2c-5.27-2.1-10.62-3.74-16.1-5.37-4.73-1.41-9.82-2.74-16.5-4.32A146,146,0,0,0,442.76,38,154.9,154.9,0,0,0,426,37Z"
        />
    </svg>
