<svg xmlns="http://www.w3.org/2000/svg" viewBox="0 0 667.5 666.13">
    <defs>
        <style>
            .cls-1 {
                fill: #ffd947;
            }
            .cls-2 {
                fill: #ffd846;
            }
            .cls-3 {
                fill: #ffcc4f;
            }
            .cls-4 {
                fill: #161616;
            }
        </style>
    </defs>
    <title>Slide 7 - SunAsset 1</title>
    <g id="Layer_2" data-name="Layer 2">
        <g id="Draw_Layer" data-name="Draw Layer"><path
            class="cls-1"
            d="M69.58,226.32a23.27,23.27,0,0,0-5.22,1.88A14,14,0,0,0,60,232a32.07,32.07,0,0,0-5.4,11.26l-.06,0a12.29,12.29,0,0,0-12.37,0c-1.1.79-2.19,1.6-3.21,2.49a21.85,21.85,0,0,0-2.85,3.62,39.74,39.74,0,0,0-2.54,4.25,121.53,121.53,0,0,0-5.84,12.65c-1.43,3.4-2.85,6.81-3.95,10.33a95.35,95.35,0,0,0-2.65,11.32c-.91,4.89-1.48,9.84-2.08,14.77-.28,2.29-.61,4.57-.77,6.86-.4,5.8-.8,11.6-1,17.41-.12,2.66-.22,5.31-.32,8A182.44,182.44,0,0,1,19.38,357c.11,3.87,0,7.76.31,11.62.28,3.51.66,7,1,10.49l-.63-4.69c1,7.63,1.83,15.24,2.63,22.89.6,5.66,1,11.34,1.58,17a99.8,99.8,0,0,0,5.66,19c1.49,3.55,2.91,7.11,4.1,10.79.75,2.34,1.52,4.68,2.36,7,1.51,3.3,3,6.6,4.34,10,.57,1.42,1.12,2.86,1.67,4.3,1,2.09,2.2,4.13,3.37,6.17,1.65,2.88,3.28,5.8,5.16,8.53,1.41,2.05,3,4,4.41,6.05,1.26,1.88,2.34,3.9,3.45,5.87.17.32.35.63.53.94a15.3,15.3,0,0,0,3.77-.53l3.52-1.49a14.71,14.71,0,0,0,5.3-5.3A19.71,19.71,0,0,0,73.8,481l.07-.41c.64-3.73.85-4.94,0-8.69a19.93,19.93,0,0,0-1-2.81c0-.07,0-.14-.08-.22a16.77,16.77,0,0,0,10.4,3.59c9.71.23,17.59-10,14.69-19.29-1.76-5.69-4.09-11.22-6.18-16.8-2-5.23-3.72-10.53-5.43-15.85-3.17-9.86-5.51-20-8.55-29.85-1.09-3.57-2.22-7.13-3.29-10.7q-2.52-13.74-4.58-27.56c-1.6-10.7-3.23-21.4-5.2-32q-1.26-6.82-2.42-13.64c.06-1.4.14-2.81.23-4.22.32-4.73.57-9.47,1-14.19,1.08-11.38,2-22.78,3.49-34.11A55.35,55.35,0,0,1,69.46,243a20.59,20.59,0,0,1,1.31-2.34q.21-.22.42-.42a1.18,1.18,0,0,1,.19-.11c.61-.19,1.24-.33,1.87-.49a6.89,6.89,0,0,0-1.92-13.53,7.41,7.41,0,0,0-1.75.21Z"/><path
            class="cls-1"
            d="M66.79,146a67,67,0,0,0-8.11,7.78,95.15,95.15,0,0,0-8.29,12.06,4,4,0,0,1-.14.55A15.11,15.11,0,0,1,49,169.14c-.74,1.22-1.47,2.44-2.25,3.64-.34.85-.67,1.71-1,2.56a3.52,3.52,0,0,1-1.49,1.94,3.06,3.06,0,0,1-.67.3q-1.47,2.46-3,4.9L39,185.17c-1.07,2.26-2.14,4.51-3.23,6.75-.68,1.41-1.37,2.81-2.05,4.22-1.19,3.89-2.42,7.77-3.66,11.64-3.27,10.3-6.12,20.75-9,31.17-2.71,9.83-4.12,19.92-5.68,30l-.12,1.19A315.23,315.23,0,0,0,16.46,332c1.24,8.29,2.67,16.56,2.92,25,.11,3.87,0,7.75.3,11.61.29,3.52.67,7,1,10.5l-.63-4.69c1,7.62,1.83,15.24,2.63,22.89.6,5.66,1,11.34,1.58,17a100.71,100.71,0,0,0,5.65,19c1.5,3.55,2.92,7.11,4.11,10.79.75,2.34,1.52,4.68,2.36,7,1.51,3.3,3,6.6,4.34,10,.57,1.42,1.12,2.86,1.67,4.29,1,2.1,2.2,4.14,3.37,6.18,1.65,2.88,3.28,5.8,5.16,8.53,1.41,2.05,3,4,4.4,6,1.27,1.89,2.34,3.91,3.46,5.88,2.5,4.44,5.41,8.59,8.19,12.85,1.35,2.09,2.6,4.26,4,6.32s2.74,3.81,4,5.79c2.76,4.36,5.49,8.77,8.62,12.87l-2-2.58c2.61,3.39,5.2,6.79,7.66,10.29,1.22,1.72,2.42,3.46,3.65,5.17,1.87,2.26,3.78,4.48,5.57,6.8a15.79,15.79,0,0,0,3.77-4.36,16,16,0,0,0,1.6-12.22c-.53-1.26-1.07-2.52-1.6-3.79a15.84,15.84,0,0,0-5.22-5.39,54.44,54.44,0,0,1-6.15-6c-2-2.29-3.82-4.64-5.7-7-3-3.71-6.12-7.26-9.15-10.92A236.15,236.15,0,0,1,50.24,455.4a174.5,174.5,0,0,1-7.73-24.12c-1-4.74-1.93-9.5-2.87-14.26-.85-4.32-1.94-8.58-2.59-12.93v.09c-.11-.86-.23-1.72-.35-2.58-.53-4.21-1-8.42-1.48-12.63-.64-5.17-1-10.38-1.42-15.58-.44-5-.83-9.94-1.36-14.9-.58-5.38-1.32-10.74-2.08-16.1-.52-4.61-.9-9.2-1-13.85-.15-5.18.19-10.39.53-15.56.32-4.93,1.08-9.83,1.59-14.74s1-9.59,1.52-14.39c.2-1.41.42-2.82.73-4.2.64-2.87,1.28-5.73,2-8.58,1.43-5.3,3-10.54,4.79-15.76s3.84-10.39,5.44-15.69,2.8-10.67,4.19-16c.7-2.68,1.55-5.31,2.34-8,.74-2.48,1.79-4.91,2.71-7.34.94-2.18,1.89-4.37,2.93-6.5q2.63-5.43,5.29-10.82c3.86-7.81,7.19-16,12.25-23.16a64.79,64.79,0,0,1,6.58-6.36,10.65,10.65,0,0,0,3.21-7.74,10.94,10.94,0,0,0-11-10.94,11.49,11.49,0,0,0-7.74,3.2Z"/><path
            class="cls-1"
            d="M46.74,172.77c-.34.86-.67,1.72-1,2.57a3.58,3.58,0,0,1-1.49,1.95,3.42,3.42,0,0,1-1,.37l-.53.72-1.41,1.91c-.13.3-.26.6-.4.89l-1.71,3.61c-1.12,2.39-2.26,4.76-3.41,7.14l-2.06,4.22c-1.19,3.89-2.42,7.76-3.65,11.64-3.27,10.29-6.12,20.74-9,31.16-2.71,9.83-4.12,19.92-5.68,30,0,.39-.08.78-.11,1.18A314.45,314.45,0,0,0,16.46,332c1.24,8.29,2.67,16.56,2.92,25,.11,3.87,0,7.76.31,11.62.28,3.51.66,7,1,10.49l-.63-4.68c1,7.62,1.83,15.23,2.63,22.88.6,5.66,1,11.34,1.58,17a100.5,100.5,0,0,0,5.65,19c1.5,3.55,2.92,7.11,4.11,10.79.75,2.34,1.51,4.68,2.36,7,1.51,3.3,3,6.6,4.34,10,.57,1.43,1.12,2.86,1.66,4.3,1,2.09,2.21,4.13,3.38,6.17,1.65,2.88,3.28,5.8,5.16,8.53,1.41,2.05,3,4,4.41,6.05C56.63,488,57.7,490,58.82,492c.66,1.17,1.35,2.32,2.06,3.46-2-4-3.92-8.08-5.89-12.12-1.89-3.88-3.63-7.83-5.33-11.81Q43.74,457.05,39,442.2c-1.61-5-3.13-10-4.49-15.09-.75-2.77-1.45-5.53-2.11-8.32-.62-2.6-1-5.27-1.44-7.9-.61-3.55-1.32-7.07-1.9-10.62-.45-3.93-.81-7.86-1.21-11.79-.52-5.13-1.09-10.26-1.57-15.4-.5-5.43-1.08-10.85-1.8-16.25-.69-5.18-1.29-10.37-1.63-15.58-.72-11-1.22-22.05-1.23-33.1,0-5.34.18-10.68.34-16,.16-5.19.32-10.42.61-15.6.22-3.76.5-7.48.87-11.23.66-4.34,1.35-8.69,2-13a76.6,76.6,0,0,1,1.38-7.82c.72-2.76,1.59-5.48,2.47-8.2.79-2.42,1.7-4.81,2.52-7.23s1.44-4.81,2.19-7.2q2.23-7.09,5-14c2.12-4.55,4.11-9.14,6-13.78a41.75,41.75,0,0,0,1.71-5.92c.57-2.35,1.17-4.7,1.78-7a13.07,13.07,0,0,0-1.1-9.37c-.22.36-.44.71-.67,1.05Z"/><path class="cls-1" d="M103.59,557c.47.84.9,1.7,1.35,2.55a27.68,27.68,0,0,1,3.81,3.6,21.61,21.61,0,0,1,2.12.64c-1.37-1.28-2.73-2.58-4.06-3.91l-3.72-3.77c.17.3.34.59.5.89Z"/><path
            class="cls-1"
            d="M127.69,585c.81.66,1.62,1.34,2.39,2.06a30.74,30.74,0,0,1,7.36,10.65c1.57,1.13,3.1,2.3,4.62,3.51,1,.74,2.07,1.47,3.14,2.14,2,1.29,4.24,2.23,6.34,3.4a105.9,105.9,0,0,1,14.11,10,74,74,0,0,0,9.35,5.85c4.33,2.24,8.74,4.32,13,6.6,2.19,1.17,4.54,2,6.82,3,2.63,1.14,5.19,2.36,7.76,3.6,3.9,1.88,7.69,3.94,11.58,5.83,2.1.82,4.21,1.6,6.34,2.37,3.6,1.28,7.19,2.65,10.81,4a17.07,17.07,0,0,0,3.89-6.92A16.14,16.14,0,0,0,224,621.2l-4.29-.57a16,16,0,0,0-7.5,1.85l-1.37.44c-2.05-.52-4.07-1.18-6.08-1.84-2.59-.86-5.14-1.84-7.67-2.86-9.06-4-17.81-8.6-26.69-13-4.49-2.2-9.07-4.23-13.56-6.43a117.67,117.67,0,0,1-14.12-8.13c-.67-.45-1.32-.92-2-1.4-5.24-4.16-10.39-8.45-15.48-12.81a24.06,24.06,0,0,1,2.45,8.53Z"/><path
            class="cls-1"
            d="M512,101.45l-3.88,1.63a16.64,16.64,0,0,0-2.05,1.43,14.64,14.64,0,0,0-2.07.54c-3.71,1.29-6.76,3.58-9.85,5.94a123.79,123.79,0,0,0-10.22,8.78c-4.93,4.69-9.6,9.64-14.33,14.53-3.15,3.25-6.39,6.45-9.43,9.81l-14.07,15.6q-21.48,23.81-42.42,48.13a183,183,0,0,0-12.17,15.3c-2.67,3.87-5.21,7.91-7.58,12a14.39,14.39,0,0,0-1.45,11l1.45,3.4a14.28,14.28,0,0,0,5.11,5.13c1.32.57,2.65,1.14,4,1.68,2.57.54,5.64,1.11,8.22.11.65-.25,1.3-.5,1.95-.77a14.39,14.39,0,0,0,.7,1.35,16.32,16.32,0,0,0,5.84,5.83,16.09,16.09,0,0,0,8.2,2.23,52.93,52.93,0,0,0,6-.88,17.61,17.61,0,0,0,5.29-2.47,49.67,49.67,0,0,0,6.41-5.28A90.49,90.49,0,0,0,443,248c2.34-2.91,4.63-5.85,6.93-8.8,4.36-5.59,8.62-11.25,12.84-16.94,1.65-2.24,3.21-4.54,4.76-6.85a14.37,14.37,0,0,0,7.56,0,14,14,0,0,0,8.54-6.57c5.19-10.34,10.63-20.57,16.17-30.73,2.57-4.7,5.46-9.23,8.22-13.82,2.55-4.22,5.5-8.19,8.07-12.39,2.12-3.45,4.18-6.91,6.21-10.41a112,112,0,0,0,9.59-20,16.21,16.21,0,0,0,0-8.63,16.2,16.2,0,0,0-15.69-11.93,16,16,0,0,0-4.29.58Z"/><path
            class="cls-1"
            d="M526.59,72.83a20.06,20.06,0,0,0-5.1,2c-3.08,1.52-5,3.86-7,6.59a15,15,0,0,0-2.13,4.9c-.9,3.51-.67,5.77,0,9.28.17.92.39,1.83.6,2.74.29,1.25.57,2.48,1,3.7a61.35,61.35,0,0,1,1.85,6.62c.2,1.86.39,3.72.63,5.57.35,2.77.64,5.55,1.11,8.3.17.93.32,1.86.51,2.79a18.9,18.9,0,0,0,.71,2.44A13,13,0,0,0,508.23,134c-2.18,3.62-4.27,7.29-6.3,11-.58.43-1.12.89-1.63,1.35a38.25,38.25,0,0,0-5.57,6.91c-2,2.81-4,5.55-6,8.31-6.08,8.29-11.36,17.19-16.64,26l-10.77,18c-2.8,4.67-5.44,9.44-8.16,14.16-2.27,4-4.39,8-6.57,12.05-1.1,2.05-2.15,4.13-3.23,6.19-1.31,2.53-2.72,5-4,7.53a9.67,9.67,0,0,0,0,9.52,9.44,9.44,0,0,0,3.38,3.38,9.27,9.27,0,0,0,4.76,1.29c3.07-.36,6.4-.27,9.12-2,.42-.26.83-.54,1.23-.82a15,15,0,0,0,4.14,6.32,16.14,16.14,0,0,0,20.33,17.43c2.36-.9,4.89-1.56,7-3a25.35,25.35,0,0,0,5.81-5.25,59,59,0,0,0,4.69-6.46c1-1.58,1.78-3.24,2.61-4.89,1.32-2.63,2.69-5.24,4-7.86,7.93,1.08,16.12-3.92,18.17-11.89q1.65-6.47,3.33-12.91c.61-2.24,1.26-4.46,1.94-6.68s1.37-4.7,2.18-7l3.51-10.07c1.83-5.23,3.7-10.44,5.55-15.67,1-2.73,1.94-5.46,2.88-8.21,2.52-7.26,5.13-14.47,6.46-22.06q.22-1.32.48-2.64a16.6,16.6,0,0,0,0-8.68q-.21-.75-.48-1.47c.19-.69.38-1.37.58-2.06,1.36,2.17,2.68,4.36,4,6.56a105.34,105.34,0,0,0,7,10.05l-.19-.24c2,2.65,3.56,5.59,5.43,8.34,1,1.39,1.91,2.76,2.76,4.21,1,1.77,2,3.55,2.94,5.38,3.08,6,6,12.11,8.76,18.28,1.06,2.74,2.12,5.47,3,8.26,1.22,3.64,2.38,7.28,3.51,10.95s2,7.42,2.93,11.16c.72,3,1.25,6,1.77,9,.19,1.71.37,3.42.55,5.13.27,2.48.29,5,.43,7.51.29,4.9.39,9.82.6,14.72a172.09,172.09,0,0,1-.56,25.18,15.78,15.78,0,0,0-2.59,5.3,16.57,16.57,0,0,0,1.66,12.71C597.54,314,608,317,615.64,312.28a19.71,19.71,0,0,0,7.54-7.59,30.27,30.27,0,0,0,2.26-5.65,65.09,65.09,0,0,0,1.25-7.85c.34-2.63.6-5.27.74-7.91.16-2.91.29-5.79.34-8.7s0-5.67-.09-8.51c-.14-5.48-.44-11-.64-16.43s-.72-10.83-1.29-16.24c-.44-4.09-1.24-8.12-2-12.16-.46-2.64-1.24-5.26-1.87-7.86-1.2-5-2.78-9.89-4.4-14.73-2.16-6.44-4.57-12.74-7.32-18.94-2.32-5.23-4.82-10.37-7.36-15.5a95.84,95.84,0,0,0-6.53-11.5c-1.28-1.88-2.42-3.82-3.61-5.76a65.43,65.43,0,0,0-4.58-6.28q-1.53-2.05-2.93-4.21c-1.42-2.16-2.66-4.45-4-6.66-2.62-4.36-5.59-8.5-8.23-12.85s-4.71-8.85-7.59-13c-3.06-4.4-6.42-8.58-9.75-12.79-1.48-2.14-2.85-4.36-4.43-6.43-1.27-1.69-2.46-3.23-3.83-4.78l-1.17-1.27a26.41,26.41,0,0,0-4.86-3.91,16.66,16.66,0,0,0-4.93-2,30.08,30.08,0,0,0-4.92-.54,26.08,26.08,0,0,0-4.9.59Z"/><path
            class="cls-1"
            d="M568.76,124.38a6,6,0,0,0,2.34,6.49c.9.89,1.77,1.8,2.58,2.77a38.81,38.81,0,0,1,3.24,5.81c.77,2,1.48,4,2.38,5.83a43.17,43.17,0,0,0,4.29,6.95c1.59,2.16,3.14,4.34,4.7,6.52a52.5,52.5,0,0,1,4.42,8c.74,1.54,1.5,3.06,2.24,4.6a60.92,60.92,0,0,1,2.26,10.29c.23,1.87.48,3.75.75,5.61.17,1.1.32,2.2.59,3.28.57,2.23,1.2,4.45,1.87,6.66a78.53,78.53,0,0,0,4.77,11.69c.79,1.6,1.58,3.18,2.34,4.79.84,2.21,1.63,4.44,2.5,6.63,1.28,3.19,2.7,6.33,4.1,9.47,2,5.09,3.42,10.38,5,15.6A147,147,0,0,1,623,264.06c1.23,9.81,2.44,19.63,3,29.51.25,5.07.33,10.15.42,15.22,0,2.77.09,5.54.1,8.31,0,2.6-.23,5.22-.38,7.81-.23,3.67-.63,7.33-1,11-.29,3-.6,6.07-1,9.1-.15,1-.33,1.92-.56,2.86a22,22,0,0,1-.76,2.25c-.13.35-.28.7-.42,1.06a22.18,22.18,0,0,0-1.09,6.44c.19,1.47.39,2.93.59,4.39a16.49,16.49,0,0,0,27.55,7.27l2.57-3.34a16.27,16.27,0,0,0,2-5.48c.39-1.16.87-2.29,1.25-3.44a23.84,23.84,0,0,0,.77-3.83c.62-3.9,1.07-7.84,1.49-11.77.54-5,1-10.09,1.43-15.14A143.86,143.86,0,0,0,659.4,311c-.09-5.25-.12-10.52-.39-15.77-.3-5.81-.74-11.57-1.41-17.35-.63-5.33-1.25-10.66-1.92-16-.82-6.45-1.86-12.89-3.3-19.24-1.15-5.07-2.75-10-4.28-15-.82-2.63-1.66-5.26-2.73-7.8-1.42-3.38-2.92-6.72-4.42-10.06-1.54-3.9-3-7.83-4.72-11.67-1.24-2.72-2.72-5.33-4-8-.61-1.72-1.13-3.48-1.71-5.21a57.82,57.82,0,0,1-1.8-6.59,83.37,83.37,0,0,0-3.78-13.91,39.58,39.58,0,0,0-3.06-6.56c-.61-1-1.3-1.89-2-2.83-2-2.8-4.15-5.56-6.38-8.18l-1.22-1.42a24.67,24.67,0,0,0-4.41-3.88c-1.09-.81-2.25-1.53-3.38-2.28-1.87-1.24-3.72-2.49-5.52-3.81-2.66-2.19-5.1-4.59-7.62-7a42.27,42.27,0,0,0-7.68-5.77,29.34,29.34,0,0,0-4.66-2.06,13.19,13.19,0,0,0-4.44-.75,6.1,6.1,0,0,0-5.83,4.44Z"/><path
            class="cls-1"
            d="M539.6,146.81l-3.34,2.58a16.48,16.48,0,0,0-4.25,7.28c-3.94,9.82-8,19.59-12,29.37q-2.54,5.69-5.08,11.36c-.49.09-1,.2-1.45.33l-3.94,1.66a16.47,16.47,0,0,0-5.92,5.92q-4.56,9.49-9,19-2.5,5.37-5,10.76c-2.28,5-4.49,10-6.53,15-1.62,4.06-2.76,8.28-4.06,12.45a16.94,16.94,0,0,0-.59,4c-.21.46-.42.93-.62,1.4q-.94,2.1-1.88,4.21l-1.1,2.51c-.82,1.87-1.7,3.74-2.41,5.64-.18.49-.37,1-.56,1.48a49.11,49.11,0,0,0-.64,5,16.45,16.45,0,0,0,2.25,8.33,16.65,16.65,0,0,0,5.93,5.92l.34.19a16.89,16.89,0,0,0,12.71,1.66l3.95-1.66a16.63,16.63,0,0,0,5.92-5.92,58.64,58.64,0,0,0,4.35-7.53c.65-1.38,1.29-2.77,1.9-4.16.17.32.34.64.52.95a16.5,16.5,0,0,0,18.63,7.58l3.18-1.34A16.79,16.79,0,0,0,539,304a16.44,16.44,0,0,0,8.32,2.25l4.38-.59a16.46,16.46,0,0,0,7.11-4.07,11.85,11.85,0,0,0,2.14,4.87c.16,1.13.41,2.39.63,3.29a16.28,16.28,0,0,0,15.62,11.89,16.09,16.09,0,0,0,8.18-2.21l1.39-1.07a15.28,15.28,0,0,0,12.13-11c1.42-5.55,2.3-11.22,3.6-16.8q1.76-7.46,3.49-14.91c1.29-5.5,2.76-11,3.85-16.53l3.9-19.86c.58-3,.94-6,1.34-8.94.37-2.72.75-5.44,1.12-8.17.1-.76.2-1.52.31-2.28.39-2.84.63-5.56.76-8.4.29-6.17-4.47-11.88-10.25-13.47a14,14,0,0,0-6.2-.27,15.69,15.69,0,0,0-1.14-2.38,16.58,16.58,0,0,0-8-6.93,16.41,16.41,0,0,0-19.26-8.85l-2.08.88-.25-.22a29.55,29.55,0,0,0,1-4.06A16.49,16.49,0,0,0,564.16,158a17.12,17.12,0,0,0-2-5.27,16.6,16.6,0,0,0-9.86-7.58,16.19,16.19,0,0,0-4.36-.59,16.47,16.47,0,0,0-8.35,2.25Z"/></g>
        <g id="Draw_Layer-2" data-name="Draw Layer"><path class="cls-2" d="M505.65,645.76l-1.6.88Q502,647.81,499.9,649a24,24,0,0,0,5.44-2.69c.53-.35,1-.72,1.53-1.09l-1.22.54Z"/><path
            class="cls-1"
            d="M361,7.33h-.58c-2.09.06-4.7.12-7.18.12-.78,0-1.57,0-2.35,0l-1.54,0h-.18c-3.88-.07-7.88-.15-11.82-.15-2,0-4,0-5.88.06a181,181,0,0,0-19.09,1.46c-1.48.2-3,.38-4.47.56-5,.63-10.19,1.25-15.1,2.31a75.13,75.13,0,0,0-7.83,2.3l-1.06.36c-11.69,3.88-23.78,6.63-35.47,9.29a130.51,130.51,0,0,0-17.26,5.34c-9.43,3.58-18.06,7-26.4,10.63-4.11,1.76-8.28,3.92-12,5.82l-.3.16c-1.71.88-3.42,1.76-5.13,2.61-2.15,1.07-4.37,2.12-6.51,3.13l-.19.09-.13.06c-3.32,1.56-6.75,3.18-10,4.94a44.22,44.22,0,0,0-4.85,3.14l-.18.13c-.84.59-1.7,1.2-2.56,1.76-2.79,1.81-5.42,3.53-8,5.28-6.29,4.19-12.37,8.94-18.24,13.53l-.11.09-4.68,3.64c-5.59,4.33-10.62,8.25-15.52,12.39-3.55,3-7,6.45-10,9.5-1.25,1.26-2.5,2.52-3.76,3.75-4.11,4-8.16,8.13-12.65,12.67l-.13.13c-4.85,4.91-9.86,10-14.92,14.87a153.94,153.94,0,0,0-13.44,14.52C56.2,158.38,51.11,165.28,46.19,172L43.91,175c-4.07,5.53-7.56,10.5-10.65,15.18-.16.24-.32.48-.47.72a2.92,2.92,0,0,1,0,1.78A45,45,0,0,1,29.5,200a46.73,46.73,0,0,0-2.58,5.39c.06-.13.11-.27.17-.41-.55,1.3-1.17,2.56-1.73,3.85a.87.87,0,0,0-.07.17c-1,2.56-1.66,5.23-2.58,7.82-.42,1.2-.93,2.37-1.32,3.57-.45,1.38-.92,2.75-1.37,4.12s-.79,2.56-1.2,3.84c-.34,1.1-.78,2.17-1.16,3.26-.46,1.29-1,2.56-1.44,3.86s-1,2.41-1.5,3.6c-.24.62-.49,1.25-.69,1.88-.41,1.2-.76,2.41-1.08,3.64-.39,1.45-.83,2.89-1.22,4.34s-.76,3-1.1,4.53-.58,2.85-.92,4.27c-.75,3.2-1.21,6.45-1.85,9.68-.7,3.49-1.57,6.94-2.32,10.42a3,3,0,0,1-1.63,2c-.1.88-.19,1.77-.31,2.66-.17,1.28-.41,2.53-.61,3.79s-.28,2.69-.45,4l0,.2c-.16,1.43-.37,2.84-.44,4.28s-.19,2.83-.34,4.24c-.31,2.93-.37,5.89-.52,8.83s-.46,6-.51,8.95c0,1.61,0,3.23-.14,4.83s-.31,3.45-.49,5.16a4.89,4.89,0,0,1-.08.57A40.46,40.46,0,0,0,32,343.1l5-.68,4.35-.58c.11,1.8.27,3.63.46,5.44a118.26,118.26,0,0,0,2.7,17.17,51.17,51.17,0,0,0,3.56,9.41,26,26,0,0,0,6,8.09c.68.59,1.37,1.15,2.05,1.67a40.21,40.21,0,0,0,11.6,40.07,29.54,29.54,0,0,0-3.88,3.73l-.65.75c-2,2.32-5,5.82-6.52,8.93a68.76,68.76,0,0,0-4.88,12.27,64.09,64.09,0,0,0-1.39,8.05,22,22,0,0,0-3.47,4.29,25.19,25.19,0,0,0-2.2,4.78c-.2.52-.39,1-.6,1.53A26.59,26.59,0,0,0,43,474.48l-.07.69a13.08,13.08,0,0,0-.08,2.2,44.82,44.82,0,0,0,1.43,9.24c1,3.47,1.79,6.33,2.47,9l.2.78c.34,1.35.69,2.69,1,4,.23.87.46,1.73.68,2.6a71.63,71.63,0,0,0,3.72,10.11c2.52,6,7,10.7,11.4,15.29l.89.93,1.37,1.46c1.58,1.69,3.21,3.43,4.94,5l3.81,3.37,3.82,3.4c.83.73,1.73,1.4,2.6,2.05l1.28,1c.72.56,1.44,1.14,2.16,1.72,1.61,1.3,3.28,2.64,5,3.78,3.25,2.19,6,3.92,8.73,5.46a54.11,54.11,0,0,0,5.78,2.75c.24,1.69.54,3.42.83,5.08l0,.11c.18,1,.36,2,.52,3a14,14,0,0,0,.65,2.39c.71,2.12,1.56,4.19,2.46,6.23,1.59.63,2.87,2.14,4,3.33s2.48,2.59,3.78,3.84c2,2,4,4,6,6l1.78,1.61-.13-.13,2.11,1.9.85.69c.82.71,1.63,1.43,2.44,2.16a3.21,3.21,0,0,1,3.41,1.77c0,.1.07.2.11.29.58.47,1.17.93,1.76,1.38s1.43,1.16,2.16,1.73,1.59,1.15,2.39,1.73,1.64,1.26,2.46,1.88,1.7,1.31,2.58,1.9,1.79,1.11,2.64,1.73,1.52,1.14,2.29,1.7a26.51,26.51,0,0,1,2.63,2.21,25.22,25.22,0,0,0,2.06,1.65c.84.6,1.7,1.17,2.54,1.77a50.25,50.25,0,0,0,5.11,3.45c1,.51,2.1,1,3.14,1.47s2.06,1.06,3.1,1.54,2.24.93,3.34,1.41a38.87,38.87,0,0,1,3.57,1.85c.66.29,1.34.54,2,.87s1.37.71,2,1.08c2.1,1,4.38,1.59,6.28,3,.89.64,1.8,1.25,2.71,1.86l1.75,1.17c1.85.64,3.71,1.29,5.54,2,2.92,1.12,5.91,2.18,8.7,3.58a3.34,3.34,0,0,1,1.37.94c.14.22.29.43.43.64a8,8,0,0,1,1.66.45c.42.17.82.39,1.24.58,1,.46,2,.91,3.08,1.31,1.9.71,3.83,1.41,5.77,2s3.92,1.27,5.87,1.93c1.06.36,2.12.78,3.15,1.24a20.43,20.43,0,0,0,2.84,1.12c1.47.42,2.94.76,4.37,1.28s2.79.8,4.12,1.33,2.86,1,4.29,1.55,2.93,1.13,4.38,1.74a19.74,19.74,0,0,0,2.25.87c.61.19,1.23.37,1.85.54,1.15.32,2.27.69,3.4,1s2.54.64,3.81,1,2.4.43,3.61.57c1.41.16,2.83.27,4.24.44s2.78.31,4.15.58c1.53.31,3,.78,4.54,1.11l1,.22h0c1.2.25,2.4.51,3.59.78.77.16,1.56.3,2.34.43,1.55.25,3.09.52,4.63.79s3.11.46,4.66.71,3.1.48,4.66.65,3,.4,4.53.57c1,.11,2,.2,3.06.29h.82c1.73,0,3.46,0,5.19,0,3.34.09,6.69.09,10,0,1.8,0,3.6-.09,5.4-.16.82,0,1.64-.07,2.46,0,.54,0,1.09,0,1.62.07a9,9,0,0,1,1.86.33,3.18,3.18,0,0,1,1.21.79c9.83-1,19.9-2.12,29.7-3.78l2.66-.46c4.46-.75,9.07-1.53,13.63-2.47l7.6-.64.15,0,1.21-.36c.53-.16,1-.31,1.54-.48,3.14-1,6.27-2.24,9.31-3.4,1.68-.64,3.36-1.29,5.05-1.91,5.46-2,10.45-3.77,15.27-5.39l6.34-2.18a4.18,4.18,0,0,1,.66-.37,4.33,4.33,0,0,1,2-.7l.71-.1,5-1.77,3.23-1.11c3.18-1.1,6.46-2.23,9.66-3.4a99.26,99.26,0,0,0,11.48-2.78A123.38,123.38,0,0,0,481.32,624c9.61-3.66,18-7,25.77-10.18a17.89,17.89,0,0,0-1.69-1.14c1.34-.71,2.68-1.45,4-2.2l1.3-.73,4-2.21a170.49,170.49,0,0,0,16.48-9.83A137.38,137.38,0,0,0,549,582.41c2.35-2.35,4.7-4.76,7-7.09,4-4.08,7.73-8.53,11.36-12.83l.28-.32,1.57-1.85c3.31-3.91,6.73-8,10-12,4.76-5.93,9.67-12,13.94-18.56l4.06-6.17,1.58-2.41c1.14-1.73,2.38-3.42,3.59-5l.91-1.25.43-.54c2.66-3.36,5.41-6.84,7.9-10.43a86.42,86.42,0,0,0,5.34-9.18l.23-.44A184.1,184.1,0,0,1,628,477l0-.09c1.84-2.72,3.8-5.42,5.69-8,2.79-3.85,5.67-7.83,8.21-11.94A102.36,102.36,0,0,0,649,442.06q.66-1.6,1.32-3.18l.78-1.85c1-2.43,2.11-4.94,2.92-7.48l.42-1.3,1.09-3.43a46,46,0,0,0,1.31-5.2c1-5.58.79-10-.76-13.63l1.9-4.53.9-2.14c.81-1.95,1.57-4,2.29-5.92l.12-.3.16-.44.81-2.17c.32-.84.66-1.68,1-2.53a56.14,56.14,0,0,0,2.78-8.13,44.93,44.93,0,0,0,1.41-12.44,40.47,40.47,0,0,0-5.54-20.45,41.23,41.23,0,0,0-3.18-4.66,78.52,78.52,0,0,0-1.27-12.56c-.12-.8-.25-1.6-.36-2.39s-.26-1.65-.41-2.46a27.62,27.62,0,0,0-.82-3.22c-.42-3-1-6-1.7-9-.64-2.62-1.13-5-1.51-7.27q-.49-4.21-.94-8.41c-1.17-10.57-2.37-21.5-4.57-32.12-1.2-5.79-2.65-12.51-4.68-19-2.23-7.19-5.67-14-9-20.57l-.41-.81c-3-5.89-6-12.17-9-18.65-1.54-3.33-3.29-6.85-5.35-10.74-.56-1.05-1.2-2.08-1.81-3.08-.29-.45-.57-.91-.84-1.37a85.79,85.79,0,0,1-4.39-8.16l-.88-2.2c-1.17-3-2.39-6-3.73-8.94l-.69-1.53a63.19,63.19,0,0,0-3.6-7.17c-1.49-2.44-3.5-5.65-5.79-8.85a68.33,68.33,0,0,1-4.93-7.73c-.33-.64-.64-1.29-1-1.94s-.76-1.6-1.19-2.38l-.54-1a70,70,0,0,0-4.35-7.28c-1.8-2.51-3.69-5.06-5.64-7.59-1.23-1.6-2.46-3.27-3.64-4.88-2-2.77-4.15-5.63-6.38-8.28-3.19-3.8-7-6.7-10.93-9.76l-.41-.32c-2.47-1.9-5-3.81-7.8-5.85-1.47-1.08-3-2.15-4.47-3.17-1.09-.76-2.18-1.52-3.25-2.29a99.9,99.9,0,0,1-10.25-10.85l-1.54-1.81-1.25-1.44c-.16-9.15-4.09-18.4-10.24-24.11a71.51,71.51,0,0,0-10.43-8.19,24.15,24.15,0,0,0-3.34-1.66c-.52-.22-1-.44-1.5-.67-1.39-.65-2.78-1.28-4.18-1.92-1.79-.82-3.41-1.56-5-2.45A69.45,69.45,0,0,0,485.16,31a72.7,72.7,0,0,0-10.23-4.62l-.58-.23-1.91-.75-.47-.2c-1.11-.44-2.36-.95-3.61-1.36-4.09-1.36-8.35-2.44-12.47-3.48l-4.68-1.2c-2.21-.59-4.5-1.12-6.7-1.62l-.24,0c-3.33-.77-6.77-1.56-10.11-2.56l-2.06-.65-.58-.18c-2.09-.67-4.2-1.33-6.32-1.86-3.06-.73-6.16-1.29-8.51-1.7a206.94,206.94,0,0,0-28.3-3c-6.84-.2-13.8-.27-19.78-.31h-.95c-2.23,0-4.48.06-6.65.12Zm48.5,206.47c5.7-6.69,11.47-14.12,18.16-23.4,4.37-6,10-14.08,15-22.62.9-1.54,1.84-3.2,2.88-5.09a51.15,51.15,0,0,0,6.69-4.2l1.1-.82c6.82-5.1,13.87-10.37,17.38-18.51a39.83,39.83,0,0,0,3.66-8.35c1.44-.55,2.87-1.13,4.29-1.71l1-.41c4.9-2,10-4.09,14.73-6.6a46.16,46.16,0,0,0,5.31-3.3,45.47,45.47,0,0,0,8.26-7c1.08,1.27,2.55,2.92,4.11,4.49a80.55,80.55,0,0,0,8.23,6.83l1,.75c1.94,1.48,4,2.89,6,4.26l1.57,1.09c1.84,1.28,3.79,2.71,6.14,4.48a55.57,55.57,0,0,1,6.24,5.89l.28.37c1,1.35,2,2.7,3,4l1.36,1.74c1.06,1.35,2.15,2.75,3.17,4.17a102.16,102.16,0,0,1,8.26,13.61l.25.5c.76,1.52,1.55,3.09,2.43,4.59s1.76,2.68,2.69,4l.94,1.3c1.52,2.13,3,4.44,4.78,7.26a86.33,86.33,0,0,1,5.06,10,123,123,0,0,0,6.67,15.25c.72,1.32,1.52,2.63,2.3,3.89s1.75,2.84,2.53,4.32c.35.67.71,1.33,1.08,2,.79,1.45,1.61,3,2.32,4.48l.54,1.19,2.85,6.19c2,4.28,4.11,8.55,6.2,12.67,1.92,3.81,3.91,7.75,5.74,11.69,3.29,9.71,5.8,20.59,7.91,34.25q.38,3.18.72,6.34a40.06,40.06,0,0,0-27.56,14.48,37.07,37.07,0,0,0-3.75-2.51l-1-.58a40.31,40.31,0,0,0-39.74-33.47l-6.76.91c-.62-.74-1.27-1.48-1.91-2.21l-.75-.85c-3.75-4.29-9.71-7.8-18.22-10.72a29.45,29.45,0,0,0-9.86-1.65A69.52,69.52,0,0,0,491.61,258l-1.47.24a5.17,5.17,0,0,0-.82.18,29.14,29.14,0,0,0-2.56-2.92,37.91,37.91,0,0,0-11.59-8l-.05-.24-.07-.25a40.83,40.83,0,0,0-18.62-24.2l-9.67-4.08a40.76,40.76,0,0,0-21.55,0,160.65,160.65,0,0,0-17.79,4.75l-.93.28c-2.87.88-5.77,1.79-8.79,2.76,4.16-4.15,8.13-8.45,11.81-12.77Zm-35.45,6,1.51-.94-1.5.94h0Z"/><path class="cls-1" d="M273.79,660.58l-.47-.09.47.09Z"/><path
            class="cls-3"
            d="M600.15,193.59c-1.39,5-2.81,10-3.75,15.11a146.41,146.41,0,0,0-1.62,16.86c-.7,10.6-1.19,21.2-1.68,31.81-.39,8.51-1.31,16.94-2.18,25.42-.41,3.95-.95,7.89-1.38,11.84-.69,6.38-1.22,12.77-1.95,19.14-1.7,10.92-4,21.72-6.42,32.51-2.33,10.52-4.44,21.1-7.45,31.46-3.06,10.55-6.29,21.14-10.13,31.45-3.36,7.49-7,14.89-10.68,22.21-4.77,9.43-10.12,18.51-15.69,27.49-3.62,5.82-7.26,11.59-11,17.3-2.07,3.14-4.28,6.17-6.53,9.16q-10.1,11.81-20.55,23.26-5.81,6.36-11.57,12.75c-1.71,1.91-3.35,4-5.18,5.75l-6.87,6.72c-3.53,3.46-7.26,6.79-11.13,9.89-6.91,5.29-13.88,10.51-21,15.47-4.91,3.39-9.82,6.66-14.88,9.82-1.91,1.18-3.78,2.37-5.76,3.43-2.52,1.36-4.94,2.95-7.49,4.23-9.89,5-19.83,9.88-29.64,15-9.15,4.81-18.13,10-27.42,14.56s-19,8.55-28.49,12.84l-.35.15c-6.18,2.51-12.36,5.11-18.84,6.76-7.41,1.9-14.91,3.81-22.47,5a38,38,0,0,1-8.46.19,63.74,63.74,0,0,1-7.06-1.73h0a45,45,0,0,0,5.09,7.43,34.91,34.91,0,0,0,9,6.77,91.39,91.39,0,0,0,9.19,4.3,144,144,0,0,0,16.57,6.18c11.52,3.36,23.79,4.11,35.73,4.47,5.07.15,10.16.34,15.23.2,8-.21,15.95-1.57,23.83-2.92,10.31-1.77,20.49-4.66,30.57-7.41,13.44-3.67,26.47-8.25,38.8-14.85,4.85-2.59,9.37-5.7,14-8.67,2.21-1.42,4.29-3.08,6.42-4.61,1.94-1.39,3.91-2.74,5.8-4.19,11.22-8.62,22.53-17.14,33.36-26.24,1.82-1.54,3.76-3,5.47-4.65L529,578c4-3.91,7.66-8.23,11.41-12.41,6.77-7.58,13.66-15.07,20.29-22.77l6.71-7.8c3.24-3.76,6.18-7.77,9.21-11.71q3-3.9,6-7.81c1.69-2.19,3.1-4.68,4.62-7,6-9.15,11.62-18.59,17.28-28,5.43-9,11.53-17.63,16.11-27.12,3.57-7.4,6.52-15.09,9.6-22.7,2-4.9,3.62-9.94,5.19-15,3.31-10.55,6.15-21.2,8.62-32a341.81,341.81,0,0,0,6.32-39.35,155.43,155.43,0,0,0,.88-17.12c0-2.69-.29-5.4-.56-8.07a161.4,161.4,0,0,0-3.14-19.57c-.82-3.6-1.79-7.15-2.79-10.7a263.72,263.72,0,0,0-10.39-30.65,274.45,274.45,0,0,0-16.13-31.82c-3.17-5.44-6.53-10.76-9.69-16.2s-5.69-11.09-8.35-16.68h0Z"/><path
            class="cls-4"
            d="M319.37.43A363.81,363.81,0,0,0,257.05,9c-10.07,2.27-20,5.07-29.85,8.27a313,313,0,0,0-29.83,11.62,324.13,324.13,0,0,0-54.11,30.79,334.59,334.59,0,0,0-47.89,40.62,328.42,328.42,0,0,0-38.71,48.45Q50.78,157.7,45.51,167a7.71,7.71,0,0,1-.46,1c-.13.21-.27.4-.41.6l-.09.13-1.32,2.37c-.3.63-.58,1.26-.87,1.89a27.67,27.67,0,0,1-1.82,3.45l-.2.32c-.27.52-.55,1-.83,1.54a10.1,10.1,0,0,1-1,1.76q-2.88,5.66-5.56,11.4a2.58,2.58,0,0,1-.1,1.3A45.49,45.49,0,0,1,29.5,200a46.8,46.8,0,0,0-2.58,5.39l.18-.41c-.55,1.29-1.17,2.56-1.74,3.84a1.22,1.22,0,0,1-.07.17c-1,2.56-1.65,5.24-2.57,7.82-.42,1.2-.94,2.37-1.33,3.57-.45,1.38-.92,2.75-1.36,4.12s-.8,2.56-1.21,3.84c-.34,1.1-.77,2.17-1.16,3.26-.46,1.29-1,2.56-1.44,3.86a39,39,0,0,1-1.49,3.6c-.25.62-.49,1.24-.7,1.88-.41,1.2-.76,2.42-1.08,3.64-.38,1.46-.83,2.89-1.21,4.35s-.77,3-1.1,4.52-.59,2.85-.92,4.27c-.75,3.2-1.22,6.46-1.86,9.68-.7,3.49-1.57,6.94-2.32,10.42a2.69,2.69,0,0,1-.49,1.07q-.16.66-.36,1.32a31.21,31.21,0,0,0-.59,3.61q-.78,4.8-1.37,9.63c-1.2,9.94-1.86,20-2.17,30-.14,4.32-.32,8.62-.32,12.94,0,4.86.16,9.72.42,14.57a281,281,0,0,0,3.52,31.69,333.39,333.39,0,0,0,15.54,58.76c3.61,9.9,7.74,19.61,12.16,29.17,4.27,9.26,9.05,18.28,14.18,27.09a351.39,351.39,0,0,0,63.72,79.05,13.54,13.54,0,0,1,2.16,2q6.84,6.21,14,12a334.07,334.07,0,0,0,52.58,34.9A339.14,339.14,0,0,0,237,650.28a331.18,331.18,0,0,0,62.08,12.9c8.12.93,16.28,1.52,24.46,1.83h.53c.82,0,1.64-.08,2.46-.06.54,0,1.08,0,1.62.07s.9.09,1.35.19c1.75,0,3.51.07,5.26.09a3.31,3.31,0,0,0,1,0c.88.09,1.85,0,2.74,0l3.8-.05c2.53,0,5.06-.14,7.59-.24,5.43-.21,10.86-.59,16.27-1.06,10.42-.91,20.79-2.37,31.07-4.26a336.71,336.71,0,0,0,59.34-16.8c38.29-14.63,73.29-37,103.55-64.59,30.72-28,55.66-62.15,74-99.38a323.57,323.57,0,0,0,22-58.26,331.43,331.43,0,0,0,10.36-61.45,336.46,336.46,0,0,0-1.08-62.91,325.81,325.81,0,0,0-36.28-117.66,349.47,349.47,0,0,0-33.43-51.39,329.55,329.55,0,0,0-83.46-75.73A314.34,314.34,0,0,0,462.63,26c-4.28-1.75-8.64-3.26-13.05-4.58-2.49-.94-5-1.85-7.49-2.74A321.85,321.85,0,0,0,382.24,3.74Q366.72,1.42,351,.56c-5-.28-10-.45-15.07-.54l-2.51,0c-4.68,0-9.37.21-14.05.43ZM21.73,281.09A300.76,300.76,0,0,1,30,243.81a351.67,351.67,0,0,1,12.76-37.16,325.38,325.38,0,0,1,39.84-67.56,366,366,0,0,1,28.15-31.92A331.47,331.47,0,0,1,143,78.73,335.05,335.05,0,0,1,214.9,37a347.86,347.86,0,0,1,38.55-13.51A297.66,297.66,0,0,1,294.16,15c7.12-.92,14.26-1.63,21.42-2.09,7.62-.49,15.24-.59,22.88-.67A318.14,318.14,0,0,1,382.29,15a342.78,342.78,0,0,1,40.77,8.16C431.46,25.4,439.74,28,447.9,31l4,1.76c4.79,2.1,9.6,4.12,14.37,6.25s9.54,4.41,14.24,6.77a329.77,329.77,0,0,1,84.24,60.79,326.58,326.58,0,0,1,27.17,30.77,321.06,321.06,0,0,1,40.38,69.08l.13.3.06.13s0,0,0,0l0,.07.15.37s0,0,0-.06a331.33,331.33,0,0,1,22.38,82,341,341,0,0,1,2.88,42.49,318.26,318.26,0,0,1-2.81,43,336.29,336.29,0,0,1-23,83.5,318.52,318.52,0,0,1-40.7,69.55,337,337,0,0,1-58.54,58.69,339.68,339.68,0,0,1-73.4,42.74,312.37,312.37,0,0,1-80.25,22q-10.9,1.42-21.86,2.21c-3.76.27-7.54.42-11.32.54-1.69.06-3.37.09-5.07.12l-2.53,0c-.3,0-.59,0-.9,0-.61,0-1.25,0-1.84,0a3.31,3.31,0,0,0-.94,0,320.89,320.89,0,0,1-42.13-2.79,331.59,331.59,0,0,1-81.73-22.34,321.3,321.3,0,0,1-36.68-18.51,340.1,340.1,0,0,1-33.72-22.86,346.87,346.87,0,0,1-30.6-26.86,305.76,305.76,0,0,1-26-29.48A331.11,331.11,0,0,1,42.47,460a318.12,318.12,0,0,1-12.74-37.49c-1.77-6.41-3.21-12.89-4.59-19.4s-2.5-13-3.42-19.63a430.68,430.68,0,0,1-3.63-49.47c-.05-3.53-.13-7.08,0-10.62q.15-6.58.63-13.14c.6-8.27,1.52-16.52,2.6-24.74,0-.42.11-.84.16-1.26,0,.3-.07.59-.11.89,0-.33.08-.66.13-1l0,.09c0-.19,0-.38.08-.57l-.06.48c.12-1,.23-2.06.27-3.11Zm61.82-143.2c-.2.28-.41.55-.63.82l.63-.82Zm548.9,68.8h0v0Z"/><path class="cls-4" d="M632.66,207.17l0,0,0,0Z"/><path class="cls-4" d="M632.64,207.12l0-.06,0,.06Z"/><path class="cls-4" d="M632.61,207.06l-.08-.2,0,0,.1.24Z"/></g>
    </g>
</svg>
