<svg xmlns="http://www.w3.org/2000/svg" viewBox="0 0 1331.65 833.07"><defs><style>.cls-1{fill:#ff7ba0}.cls-2{fill:#161616}</style></defs><g id="Layer_2" data-name="Layer 2"><g id="Draw_Layer" data-name="Draw Layer"><path class="cls-1" d="M348.31.32a199.79 199.79 0 0 0-28.62 3.84c-7.44 1.47-14.92 2.5-22.29 4.29a208.66 208.66 0 0 0-20.55 6.39c-6.76 2.42-13.61 4.61-20.43 6.86C247 24.81 238 29.13 229 33.42c-6.52 3.13-12.95 6.5-19.16 10.21-6.95 4.16-13.54 8.76-20.09 13.52-5.94 4.32-11.88 8.65-17.87 12.9-3.15 2.23-6.39 4.37-9.48 6.68-5 3.75-10 7.59-14.95 11.45a201.89 201.89 0 0 0-16.83 15.21c-5.67 5.54-11.16 11.15-16.45 17-4.84 5.4-9.17 11.24-14 16.62-5.48 6-10.91 12.11-16.22 18.3-3.93 4.57-7.46 9.57-11.12 14.38a100.65 100.65 0 0 0-5.54 8.45c-4.07 6.65-8.3 13.24-11.61 20.31s-6.49 14.31-10 21.35c-3.21 6.52-6.47 13-9.65 19.55a134.52 134.52 0 0 0-6.81 16.71c-1.16 3.5-2.12 7.07-3.09 10.62-2 7.15-3.81 14.32-5.81 21.45s-4.16 13.92-5.78 21-3.1 14.56-4.53 21.86-2.45 14.5-3.44 21.81c-1.38 10.24-2.8 20.48-3.91 30.75-.86 7.94-1 16-1.46 24-.45 7.63-.72 15.26-.89 22.9S.1 445.81.05 453.46c0 7.41-.24 14.94.59 22.31Q2.36 491 4.53 506.15c1.11 7.77 3.5 15.28 5.92 22.72 2.35 7.2 5.09 14.28 7.83 21.34 2.16 5.58 4.38 11.13 6.76 16.62 1.56 3.6 3.3 7 5.11 10.53 7 13.51 14.2 26.88 21.09 40.44a214 214 0 0 0 11 19.68c4.18 6.44 8.38 12.88 12.88 19.1 6 8.28 12.21 16.47 18.89 24.21 2.25 2.61 4.73 5 6.94 7.66 2.44 2.93 4.89 5.84 7.33 8.77 4.63 5.54 9.62 10.78 14.31 16.27s9.51 11 14.27 16.45c4 4.62 8.11 9.19 12.3 13.67l6.07 6.48c1.13 1.22 2.21 2.46 3.4 3.61a43.27 43.27 0 0 0 12 8l6.61 2.78a27.66 27.66 0 0 0 34-34l-2.79-6.61a27.71 27.71 0 0 0-7.92-8.62c-2.5-2.44-4.71-5.17-7.08-7.74-2.25-2.42-4.53-4.82-6.77-7.26-5-5.47-9.83-11.11-14.78-16.63s-9.63-11.28-14.57-16.81-9.75-11.13-14.5-16.81c-3.13-3.74-6.52-7.23-9.71-10.93-1.9-2.2-3.72-4.48-5.52-6.78q-6.54-9.09-12.76-18.4a188.62 188.62 0 0 1-11.44-19.12c-3.56-7-7.07-14-10.7-21-3.32-6.35-6.8-12.62-10.1-19l-6-11.52c-.41-.78-.79-1.57-1.15-2.38-3.41-8.95-6.85-17.87-10-26.92-1.71-4.94-3.09-9.92-4.43-15a90.17 90.17 0 0 1-1.92-10.37c-.82-6.42-1.55-12.85-1.95-19.31-.47-7.67-.16-15.42-.11-23.09.11-15.53.65-31 1.56-46.49.32-5.46.44-11 1-16.42.62-5.76 1.38-11.5 2.1-17.24q-.43 3.19-.86 6.41c.94-7.11 1.78-14.25 3.09-21.3 1.33-7.23 2.87-14.43 4.36-21.64 1.54-7.43 3.45-14.72 5.64-22 2.13-7.08 4-14.24 5.89-21.38 1.61-6 3.25-12.08 5.3-18 2.39-5.06 5-10 7.42-15.05 3.5-7.11 6.91-14.25 10.16-21.48a168.55 168.55 0 0 1 10.13-19c2.1-3.43 4.2-6.84 6.41-10.2 1.52-2.33 3.12-4.56 4.76-6.77q7.26-8.42 14.71-16.66c5.16-5.7 10-11.73 14.93-17.61 4.67-5.55 9.82-10.7 15-15.78 5.59-5.48 11.26-10.87 17.26-15.92.81-.69 1.64-1.36 2.47-2 5.38-4 10.86-7.8 16.28-11.73 6.65-4.8 13.25-9.68 19.86-14.53 12.06-8.85 25.37-15.68 38.76-22.24 1-.48 2-.93 3-1.38 5.12-2 10.3-3.8 15.51-5.59 6.25-2.16 12.38-4.65 18.62-6.85a149.08 149.08 0 0 1 19.88-5.86c5.51-1.11 11-2.26 16.57-3.22 5.49-.52 11-.83 16.48-1 2.92-.09 5.88.07 8.8.12 3.54 0 7.07.1 10.61.17 12.4.26 24.74.77 37.08 2 3.78.63 7.53 1.31 11.3 2.08a122.83 122.83 0 0 1 13.53 3.77c8 2.61 15.87 5.7 23.68 8.89 11.29 5.13 22.14 11.2 32.91 17.35a246.3 246.3 0 0 1 26.22 17.94c6.13 5.3 11.87 11 17.46 16.86s11 11.61 16.27 17.67c7.91 10.6 15.33 21.58 22.67 32.57 8.48 12.68 15.8 26.11 23.7 39.15 2.85 4.71 5.66 9.41 8.27 14.26s4.6 9.65 6.94 14.44c2.46 5 5.64 9.73 8.44 14.57a112.72 112.72 0 0 1 5.47 10.94c1.91 4.75 3.81 9.51 5.78 14.24a103.34 103.34 0 0 1 4.05 14c.61 2.7 1.28 5.38 2 8.07a50.05 50.05 0 0 0 3.62 9.15q.47 1.49.81 3c.08 1.06.13 2.13.16 3.2a24.37 24.37 0 0 0 7 16.9 24 24 0 0 0 16.9 7c12.79 0 24.2-10.87 23.9-23.9a141.74 141.74 0 0 0-3.34-27.6c-1.55-6.91-2.39-14-4.47-20.81-1.08-3.5-2.4-6.92-3.51-10.41s-2.29-6.68-3.55-9.95c-2.21-5.69-4.41-11.4-7.12-16.86-1.65-3.33-3.43-6.59-5.2-9.86-3.61-6.65-6.41-13.63-9.53-20.51-3.2-7-7-13.76-10.85-20.49q-5.5-9.71-10.71-19.58c-3.4-6.46-7.33-12.69-11.31-18.82-4.2-6.45-8.51-12.82-12.87-19.16-5.51-8-11-16.16-17.31-23.59-5-5.93-10.34-11.59-15.67-17.26a230 230 0 0 0-17-16.68c-4.56-3.93-9.48-7.49-14.3-11.12-3-2.26-6-4.53-9-6.76a200.81 200.81 0 0 0-19.3-12.12C509.36 34.49 502.7 31 496 27.56c-8.69-4.38-17.75-8-26.8-11.57-7.57-3-15.19-5.62-22.94-8.06a141.6 141.6 0 0 0-22-4.49A265.79 265.79 0 0 0 395.68.52Q383.35.08 371 0h-7.61c-5 0-10.06.06-15.09.32z"/><path class="cls-1" d="M1004.39 30.47a175.36 175.36 0 0 0-23.53 2.41c-4.93.78-9.82 1.82-14.75 2.62-4.23.54-8.46 1.08-12.67 1.73-3.71.57-7.46 1.09-11.11 2-7.73 1.92-15.35 4.17-23 6.44-7.89 2.34-15.68 4.84-23.42 7.62-3.67 1.32-7.33 3.08-10.94 4.64-1.68.72-3.38 1.4-5 2.19-3.72 1.77-7.45 3.52-11.12 5.36-7.7 3.88-15.45 7.64-23.14 11.52a171.77 171.77 0 0 0-18.91 11.39c-15.31 10.4-30.47 21.15-44.45 33.31q-10.22 8.9-20.53 17.67A148.23 148.23 0 0 0 745.56 155c-10.63 12.28-20.65 25-30.88 37.65-11.93 14.71-23.22 29.88-34.4 45.17A448.43 448.43 0 0 0 654 277.55c-3.56 6.14-6.86 12.36-10 18.74-.9 2.12-1.79 4.25-2.69 6.37a26.66 26.66 0 0 0 32.79 32.78l6.36-2.68a26.81 26.81 0 0 0 9.54-9.56c2-4.11 4.14-8.16 6.25-12.22 1.68-3.25 3.73-6.35 5.59-9.5 3.39-5.75 7.15-11.3 11-16.78 7.46-10.74 15.38-21.12 23.34-31.48 9.49-12.08 19.43-23.78 29.19-35.65 5.22-6.34 10.39-12.72 15.86-18.84 2.66-3 5.26-6.22 8.18-8.94 3.23-3 6.48-5.94 9.83-8.81 9.76-8.41 19.6-16.76 29.57-24.92 11.65-8.74 23.64-16.93 35.94-24.75 6.56-4.17 13.75-7.45 20.74-10.83 7.62-3.69 15.17-7.48 22.81-11.1.91-.44 1.83-.85 2.76-1.26 10.29-3.66 20.72-6.78 31.2-9.88q7.25-2.13 14.6-3.95c3.82-.94 7.73-1.57 11.64-2.14 5.59-.69 11.19-1.37 16.74-2.38 3.11-.57 6.22-1.17 9.34-1.7a209.45 209.45 0 0 1 26-.71c8.61.23 17.14 1.25 25.68 2.3 5.41.77 10.84 1.61 16.14 2.87 3.58.85 7.16 1.72 10.65 2.9 2 .68 4 1.4 6 2.15 10.7 5.34 21 11.52 31.47 17.22 5.58 3 11.06 6.24 16.54 9.46 4.49 2.64 8.83 5.35 13 8.35a222.5 222.5 0 0 1 17.43 15.39c6 6.06 11.8 12.43 17.27 19 3.38 4.82 6.35 9.9 9.68 14.78 4.18 6.13 8.58 12.12 12.87 18.17 4.4 6.22 8.48 12.62 12.53 19.07a199.32 199.32 0 0 1 10.16 17.72c2.48 6 5.14 12 8.22 17.78 2.31 4.34 4.88 8.54 7 13 .75 1.93 1.49 3.87 2.22 5.8 1.43 3.77 3 7.48 4.58 11.18 2.56 6.71 4.12 13.72 6.2 20.58 1.1 3.59 2.63 7 3.93 10.56 1.38 3.75 2.79 7.49 4 11.29 2.43 7.34 4.28 14.83 6.18 22.32a217.26 217.26 0 0 1 4.07 23.22c.4 2.86.83 5.71 1.27 8.57.72 5.77 1.35 11.55 2 17.34.81 7.74 1.82 15.41 2 23.2.25 8.25.3 16.51.75 24.76.42 7.65.63 15.31.73 23 .09 7.14.8 14.24 1.37 21.35s-.2 14.16-.6 21.17-.67 14.07-1 21.1c-.31 6-.53 12.07-1.11 18.09-2.12 13.65-4.35 27.28-7.09 40.82-1.56 7.75-3 15.49-4.94 23.18-1.72 7-3.19 14-4.81 21s-3 13.76-4.74 20.59c-1.67 6.63-3.81 13.12-5.67 19.7-2 7.15-4.11 14.27-5.89 21.49s-3.55 14.16-5.89 21.11c-.94 2.78-1.9 5.56-2.94 8.31-.29.61-.58 1.22-.88 1.83-1.22 2.51-2.3 5.09-3.37 7.67a283.74 283.74 0 0 1-13.3 26.13c-5.29 9.2-10.89 18.23-16.18 27.45a28.5 28.5 0 0 0 10.23 39c13.32 7.8 31.27 3.24 39-10.22 5.49-9.56 11.29-18.94 16.78-28.5 2.9-5.06 5.67-10.16 8.26-15.38s4.85-10.49 7.08-15.81c2.12-4.79 4.28-9.51 6.32-14.36 1.42-3.39 2.61-6.89 3.78-10.38 2.34-6.94 4.17-13.94 5.92-21 1.82-7.36 4-14.62 6-21.91 1.8-6.43 3.94-12.77 5.56-19.25 3.5-14 6.18-28.12 9.67-42.07 1.89-7.54 3.33-15.15 4.87-22.76s2.94-15 4.15-22.49 2.5-15.28 3.68-22.93c.93-6.09 1.67-12.21 2-18.36.21-3.75.28-7.51.53-11.27.52-7.76.61-15.56 1.19-23.32a143.05 143.05 0 0 0 0-23.6c-.72-7.78-.9-15.54-1.06-23.34s-.67-15.73-1-23.6-.16-15.81-.72-23.7-1.62-15.74-2.47-23.6c-1.09-10.21-2.51-20.37-4-30.53-1.11-7.63-2-15.33-3.69-22.87s-3.58-15-5.83-22.33c-2.34-7.61-5.3-15-8.07-22.44-1.9-5.11-3.12-10.43-4.63-15.67a138.91 138.91 0 0 0-6-16c-3.46-8.62-6.36-17.51-10.78-25.7-3.38-6.27-6.92-12.4-9.91-18.85a133.18 133.18 0 0 0-6.53-14q-2.85-5.14-5.92-10.17c-4.1-6.73-8.27-13.45-12.84-19.87-4.32-6.06-8.74-12.06-12.94-18.2-4.42-6.48-8.28-13.31-13.07-19.55-3.7-4.81-7.41-9.52-11.47-14-2.64-3-5.29-5.89-8-8.8a197.49 197.49 0 0 0-17.66-16.44A202.58 202.58 0 0 0 1160.42 78c-6.42-4-13-7.75-19.66-11.34-7-3.76-13.83-7.66-20.72-11.56-3.34-1.89-6.69-3.78-10.14-5.46-3.73-1.82-7.38-3.45-11.29-5-2-.79-3.91-1.71-5.91-2.38-3.86-1.31-7.7-2.65-11.67-3.6s-7.91-1.72-11.9-2.46c-10.18-1.89-20.51-3-30.78-4.24a212.08 212.08 0 0 0-25.29-1.36q-4.38 0-8.77.11z"/></g><g id="Draw_Layer-2" data-name="Draw Layer"><path class="cls-2" d="M314.27 37.63c-3.94.87-7.86 1.79-11.74 2.83-.89.24-1.78.48-2.67.69s-1.81.41-2.72.61c-1.86.42-3.7.89-5.54 1.39a61.42 61.42 0 0 0-10.7 4.12c-1.63.81-3.27 1.59-4.92 2.38s-3.42 1.66-5.12 2.52a46.23 46.23 0 0 0-4.13 2.3c-.63.4-1.25.82-1.85 1.27a12.58 12.58 0 0 0-2.32 2l.24-.18a17.74 17.74 0 0 1 3-1.53h-.08l1.09-.45h.08c1.25-.51 2.51-1 3.79-1.41s2.69-1 4-1.41q4.23-1.43 8.32-3.17l-.36.16c1.81-.72 3.61-1.41 5.42-2.11s3.47-1.24 5.21-1.84 3.37-1.14 5.07-1.69c1.86-.6 3.67-1.28 5.47-2 1.6-.67 3.2-1.33 4.79-2 1.89-.79 3.78-1.59 5.66-2.42zm-51.46 19.94zm3-1.53zm1-.44h.05zM212.3 76.64c-4.18 2.71-8.26 5.58-12.45 8.27-2 1.31-4.09 2.6-6.09 4q-1.5 1-2.94 2.16c-.89.7-1.8 1.42-2.63 2.2a63.14 63.14 0 0 0-4.41 4.55 58.87 58.87 0 0 0-4 5.31 57.71 57.71 0 0 0-3.22 5.61c-.5.93-1 1.86-1.51 2.78l-.7 1.16c-.39.68-.72 1.39-1.05 2.09.85-1 1.75-1.94 2.63-2.89s1.61-1.79 2.37-2.72c1.48-1.78 2.93-3.58 4.46-5.3s3-3.3 4.63-4.84 3.26-3.1 5-4.55c1.57-1.32 3.13-2.65 4.74-3.93s3.25-2.56 4.84-3.9 3.38-2.94 5-4.52c1.82-1.8 3.6-3.62 5.37-5.46zM134.41 148.53l-.87 1.12-.12.15-.11.15c-1.54 2-3.06 4-4.48 6.06s-2.75 4-4.2 6c-.66.84-1.32 1.67-2 2.47-.45.51-.9 1-1.37 1.49s-.75.73-1.11 1.1c-.82.85-1.65 1.69-2.41 2.58q-1.38 1.63-2.67 3.33l.28-.36c-.67.85-1.28 1.75-1.87 2.66s-1.14 1.89-1.67 2.86c-.91 1.68-1.73 3.39-2.57 5.1-2 3.93-3.73 8-6 11.77-.12.19-.23.38-.34.57a52.2 52.2 0 0 0 3.58-4.15c1.87-2.42 3.6-5 5.3-7.49.88-1.29 1.73-2.61 2.59-3.93l1.28-1.93c.38-.58.82-1.11 1.22-1.67l1-1.35-.07.09c1.25-1.52 2.46-3.06 3.73-4.55.66-.77 1.35-1.53 2-2.32s1.44-1.84 2.11-2.8a78.79 78.79 0 0 0 5.69-10.48c1-2.13 2.07-4.27 3.1-6.41zm-17.65 28l-.12.16.12-.16zm-10.36 15l.09-.11-.09.11zm27-41.74zM75.61 241.67a128.51 128.51 0 0 0-8.81 12.46 51.6 51.6 0 0 0-3.33 6.65c-.93 2.19-1.82 4.42-2.56 6.68a64.87 64.87 0 0 0-1.94 7.8c1.28-2.36 2.54-4.73 3.85-7.08 1.13-2 2.26-4 3.35-6s2.25-4.37 3.36-6.57c1-2 2-4 2.9-6.08 1.15-2.57 2.2-5.18 3.18-7.82zM43.34 321.44c-2.07 4.54-4.14 9.11-6 13.76a62.09 62.09 0 0 0-2.2 6.41c-.62 2.3-1.19 4.6-1.69 6.94s-.89 4.68-1.3 7q-.54 3.15-1 6.33-1 7-1.64 14.06c-.25 2.45-.4 4.9-.61 7.35-.11 1.35-.18 2.68-.2 4 0 1.52.07 3 .19 4.56.21-1.37.43-2.74.73-4.09.26-1.2.52-2.39.75-3.6.43-2.27 1-4.53 1.45-6.78.45-2.07.91-4.12 1.3-6.19q.74-3.82 1.41-7.65c.79-4.51 1.57-9 2.23-13.57.31-2.13.69-4.26 1.08-6.38s.83-4.36 1.4-6.5c1.38-5.23 2.79-10.46 4-15.72zM26.9 452.07c-.62 2.9-1.2 5.81-1.72 8.74a45.11 45.11 0 0 0-.66 7.06c0 1.16-.05 2.32 0 3.47.06 1.68.13 3.35.21 5 .12 2.43.33 4.85.56 7.27.48 5.16 1.07 10.32 1.84 15.44.2 1.34.45 2.67.7 4 .21 1.09.42 2.19.69 3.27.33 1.33.65 2.65 1 4 .29 1.07.63 2.13.94 3.19q2.14 7.22 4.71 14.31 1.49 4 3.07 8c.44 1.12.87 2.24 1.31 3.37s1 2.43 1.62 3.63c.71 1.47 1.53 2.9 2.35 4.3-.41-1.36-.78-2.75-1.15-4.13-.28-1-.47-2.11-.72-3.17s-.63-2.35-.89-3.54c-.29-1.39-.6-2.78-.91-4.16-1.12-5-2.28-10-3.64-14.89-1-3.46-2.12-6.87-3-10.34a95.36 95.36 0 0 1-1.17-5c-.17-.89-.38-1.78-.52-2.67s-.27-1.86-.41-2.79c-.37-3.12-.74-6.24-1.05-9.37-.36-3.55-.84-7.09-1.35-10.63 0 .18 0 .36.07.53 0-.19-.05-.38-.08-.57-.26-2-.52-4-.85-5.94-.07-.65-.15-1.29-.22-1.94s-.2-1.36-.25-2-.13-1.66-.2-2.49-.05-1.52-.07-2.28c-.1-3.22-.08-6.45-.17-9.66zM61.66 584.41q2.45 7.37 5.24 14.61c.21.55.46 1.09.7 1.63.56 1.25 1.12 2.51 1.69 3.76.67 1.47 1.32 3 2.09 4.39 1.14 2.09 2.29 4.17 3.47 6.24.33.57.71 1.11 1.06 1.66l2.25 3.5c1 1.6 2.11 3.15 3.18 4.72s2.18 3.13 3.31 4.68c2.36 3.26 4.87 6.43 7.43 9.55 1.22 1.49 2.47 3 3.69 4.44s2.28 2.81 3.4 4.23l1.79 2.27c.78 1 1.64 2 2.47 2.95-.63-1.1-1.27-2.2-1.93-3.28-.5-.81-1-1.68-1.42-2.52-.89-1.57-1.81-3.12-2.79-4.65-2.09-3.27-4.32-6.46-6.47-9.7s-4.24-6.31-6.36-9.47c-1.07-1.58-2.16-3.14-3.17-4.75l-2.19-3.46c-.39-.63-.81-1.24-1.19-1.88-1.17-2-2.36-4-3.57-6-.84-1.35-1.58-2.74-2.35-4.13L70 599.59c-.29-.49-.59-1-.85-1.47q-1.57-3-3.19-6c-1.39-2.59-2.81-5.17-4.23-7.74zM125.41 677c1.31 2.24 2.67 4.46 4.06 6.66.66 1.06 1.34 2.11 2 3.16.24.37.47.75.72 1.1q2 2.8 4 5.58c1 1.31 2 2.6 3 3.89 2.24 2.85 4.53 5.67 6.9 8.41 2.56 3 5.15 5.9 7.82 8.77 1.12 1.21 2.32 2.37 3.5 3.53s2.19 2.09 3.31 3.11c1.29 1.16 2.55 2.37 3.92 3.46l.79.62 1-.19c-.45-.51-.91-1-1.37-1.52-.6-.66-1.23-1.31-1.85-1.95-.26-.26-.49-.57-.74-.85l-1.12-1.29c-2.43-2.79-4.76-5.66-7-8.55l-1.12-1.39c.08.09.15.19.23.29l-.51-.66q-3.52-4.54-7.27-8.93c-2.19-2.56-4.46-5-6.67-7.58-1.27-1.44-2.53-2.87-3.81-4.29-.66-.74-1.34-1.47-2-2.23-2.57-3.07-5.19-6.09-7.79-9.13z"/><path class="cls-2" d="M153 709.1l-.06-.08.06.07zM153.12 709.33l-.13-.18.13.18zM373.84 29a109 109 0 0 0 10.83 2.54l2.89.45c.88.14 1.76.21 2.64.31 1.77.19 3.53.36 5.3.49 3.54.27 7.07.53 10.61.7 3.28.15 6.56.17 9.85.25 2.09 0 4.19.11 6.28.18.48 0 1 .08 1.44.12l1.32.11c1.34.12 2.68.26 4 .43-1-.31-2.07-.64-3.11-.92s-1.8-.44-2.72-.62c-1.7-.33-3.41-.6-5.12-.87-3.48-.53-7-.91-10.5-1.28-3.29-.35-6.58-.69-9.89-.85-1.64-.07-3.29-.08-4.94-.13s-3.42 0-5.13-.11l-3.8-.14c-1 0-2-.12-3-.18-2.32-.14-4.64-.33-7-.48zM471.58 51.6c3.37 1.56 6.75 3.06 10.18 4.49l-.2-.08 2.94 1.26-.33-.14a21 21 0 0 1 4.48 2.41c1.29 1 2.54 2.12 3.82 3.17.94.79 1.92 1.54 2.89 2.29 2 1.55 4.08 3 6.19 4.41s4.24 2.76 6.31 4.2c1.91 1.33 3.75 2.75 5.62 4.14 3.51 2.85 7 5.69 10.53 8.57.84.69 1.66 1.4 2.5 2.09s1.71 1.33 2.59 2c2 1.51 4.21 2.78 6.28 4.21-.54-.6-1.09-1.18-1.65-1.75s-.92-.83-1.37-1.26c-.94-.9-1.84-1.84-2.73-2.79-1.63-1.73-3.16-3.53-4.75-5.29s-3.34-3.53-5-5.26c-.91-.93-1.85-1.83-2.81-2.73s-1.91-1.7-2.89-2.52a138.88 138.88 0 0 0-12.57-9c-2.06-1.38-4.1-2.79-6.16-4.18-1.06-.71-2.1-1.44-3.16-2.15a18.75 18.75 0 0 0-3.29-1.86 25.53 25.53 0 0 0-3.94-1.28c-4.46-1.11-9-2.06-13.48-3zM563.45 133.82c2.23 3.12 4.49 6.23 6.84 9.27-.06-.07-.11-.15-.16-.22 2.64 3.42 5.36 6.77 8 10.16s5.64 7 8.41 10.57l1.93 2.46c2.34 3.08 4.7 6.16 7.26 9.06q1.8 2 3.74 3.95c.65.64 1.32 1.25 2 1.87.95.9 1.83 1.84 2.69 2.83-.4-.74-.82-1.46-1.26-2.17-.28-.46-.61-.9-.92-1.33-.61-.86-1.24-1.7-1.86-2.56-1.23-1.71-2.39-3.48-3.57-5.23s-2.25-3.55-3.39-5.32l-1.77-2.77c-.58-.89-1.2-1.75-1.81-2.62A137.79 137.79 0 0 0 572.12 142q-4.27-4.14-8.65-8.2zM650.7 261.79c1.44 5.12 3 10.22 4.58 15.3q2.06 6.56 4.21 13.09c.78 2.39 1.62 4.76 2.45 7.14.71 2 1.35 4.07 2.06 6.09q2.32 6.7 5 13.29c1.31 3.22 2.66 6.43 4.1 9.6.51 1.24 1.07 2.44 1.67 3.64s1.37 2.6 2 3.91c-.62-2.47-1.28-4.94-2.07-7.35-.73-2.25-1.3-4.54-1.94-6.81-1.17-4.21-2.36-8.41-3.61-12.6q-2-6.85-4.39-13.62c-.71-2.07-1.47-4.14-2.26-6.18-.93-2.38-1.84-4.78-2.88-7.11-1.22-2.75-2.44-5.52-3.77-8.21-1.67-3.42-3.41-6.81-5.19-10.18zm22.37 64.47zM733.36 208.18c-.65.67-1.31 1.33-1.91 2.06-.44.55-.85 1.13-1.26 1.71s-.73 1.1-1.09 1.65-.75 1.17-1.11 1.76q-2.43 4-4.77 8c-1.32 2.25-2.63 4.51-4 6.72-.91 1.46-1.8 2.93-2.7 4.39-.22.37-.48.72-.71 1.07-.57.85-1.13 1.71-1.69 2.56-1.66 2.53-3.34 5-5 7.58-.18.28-.35.56-.51.85-.48.84-1 1.69-1.42 2.54l-1.19 2.09c-.21.39-.38.8-.57 1.2-.67 1.44-1.38 2.87-2 4.34s-1.27 3.06-1.88 4.6l-1.55 3.94a.42.42 0 0 0 0-.1q-2.21 5.07-4.51 10.1c1.1-1.73 2.16-3.46 3.22-5.21.75-1.22 1.45-2.47 2.16-3.72 1.42-2.51 2.7-5.09 4-7.67.57-1.17 1.17-2.3 1.78-3.45s1.18-2.3 1.84-3.41q1.34-2.2 2.62-4.44c.23-.39.51-.76.76-1.14l1.71-2.61c1.64-2.49 3.29-5 4.91-7.5.66-1 1.24-2.13 1.85-3.2s1.31-2.27 1.91-3.44q2.13-4.17 4.17-8.4c1.19-2.5 2.37-5 3.63-7.49.45-.89.92-1.75 1.4-2.62.11-.2.27-.39.39-.59l.33-.49c.41-.56.81-1.13 1.22-1.68zm-31.67 52.93c0 .08-.07.17-.11.25v-.11a1.47 1.47 0 0 1 .06-.14zM835.86 111.16c-1.26.81-2.53 1.61-3.72 2.52q-1.53 1.18-3.06 2.4c-3.1 2.34-6.21 4.67-9.24 7.11s-6.1 5.2-9 7.93-5.57 5.27-8.35 7.91a75.88 75.88 0 0 0-5.34 5.57 37.37 37.37 0 0 0-4.38 6.28l-1.63 3c-.61 1.11-1.14 2.27-1.69 3.41s-.93 2.1-1.36 3.16c-1.1 2.69-2.16 5.41-3.2 8.13 1.94-3.16 3.83-6.34 5.7-9.55.32-.54.69-1.06 1-1.59.49-.74 1-1.48 1.45-2.22s.91-1.33 1.37-2c.71-1.05 1.43-2.09 2.19-3.11a46 46 0 0 1 5-5.39c.86-.81 1.73-1.63 2.58-2.46 1.45-1.39 2.91-2.76 4.37-4.14s2.85-2.69 4.25-4.05 2.5-2.47 3.76-3.7q4.25-4.19 8.5-8.34l4.06-4c1.34-1.32 2.56-2.76 3.87-4.11.93-1 1.91-1.87 2.89-2.79zM949.17 57a14.24 14.24 0 0 0-2.51.39l-1.42.36c-1 .27-2 .54-3 .79-1.94.49-3.89 1-5.82 1.46-3.54.93-7.07 1.89-10.55 3l-3 1c-.41.14-.82.27-1.22.43-1.83.76-3.66 1.54-5.47 2.34-2.47 1.08-4.86 2.3-7.21 3.61a112.32 112.32 0 0 0-11 7.37c3.94-1.88 7.84-3.87 11.87-5.58h-.1l.17-.07h.08-.06l3.5-1.42c.78-.31 1.56-.63 2.34-.91l3.18-1.16 3.36-1.29c.58-.23 1.18-.41 1.77-.62 1.89-.67 3.76-1.38 5.65-2s4-1.48 6.06-2.24 4-1.52 5.91-2.3c.84-.34 1.7-.69 2.53-1.07 1.12-.52 2.23-1.07 3.36-1.56.52-.21 1-.38 1.57-.54zM909.9 72.21h-.07.09zm37.7-14.63zM1124.11 76.62l3.93 2.2a43.36 43.36 0 0 1 5.39 3.36h.13-.06c1.43 1.13 2.69 2.46 4 3.7.33.3.67.59 1 .9l4.12 3.64c2 1.75 4 3.44 6.1 5.11s4 3.26 6.06 4.84c1.53 1.25 3.09 2.46 4.61 3.71a41 41 0 0 1 6.33 5.94c.63.84 1.21 1.72 1.76 2.61.42.71.84 1.41 1.28 2.1s.89 1.33 1.37 2c.21.29.43.59.66.87.38.49.79 1 1.19 1.43.15.2.3.4.44.61-.18-.35-.38-.7-.6-1l-.37-.56c-.18-.28-.37-.54-.53-.83-.33-.55-.67-1.11-1-1.68-.63-1.21-1.23-2.43-1.83-3.64a22 22 0 0 0-4.13-5.81c-.93-.93-1.86-1.86-2.82-2.75-3.87-3.57-7.9-6.94-12-10.23-1.24-1-2.48-2-3.73-2.94-.87-.68-1.73-1.39-2.6-2.08-1.27-1-2.56-2-3.85-3-.94-.73-1.84-1.51-2.77-2.26-.68-.54-1.37-1.06-2.1-1.54a24.15 24.15 0 0 0-2.48-1.39c-.78-.4-1.59-.76-2.4-1.09h.08q-2.6-1.09-5.2-2.15zm41.53 33.38v.07-.07zm-32.19-27.77zM1226.81 190.39c4.4 8.61 9 17.15 13.93 25.47 1.86 3.12 4 6.07 6 9.14 1.33 2.12 2.66 4.23 4 6.32.31.48.64.94.92 1.43.61 1 1.22 2.07 1.84 3.1.5.85 1 1.69 1.52 2.52.18.3.37.59.53.9q1.27 2.43 2.58 4.84c.21.39.39.8.59 1.21.44.93.89 1.86 1.34 2.79.59 1.21 1.14 2.43 1.7 3.64 1.14 2.7 2.43 5.34 3.6 8-.49-2.24-1-4.48-1.68-6.67-.29-.93-.59-1.86-.89-2.79s-.56-1.85-.88-2.76c-.42-1.22-.85-2.43-1.28-3.65-.25-.69-.54-1.37-.83-2-.55-1.31-1.1-2.61-1.67-3.91-.25-.58-.55-1.13-.84-1.7-.67-1.28-1.34-2.57-2-3.86-.29-.55-.57-1.11-.89-1.64-1.31-2.16-2.65-4.3-4-6.44-2.08-3.32-4.25-6.59-6.46-9.83-1.09-1.59-2.12-3.23-3.2-4.83s-2.23-3.29-3.36-4.92c-2.5-3.57-5-7.1-7.66-10.58-.94-1.26-1.9-2.51-2.86-3.76zm34.85 61.19v.09-.09zM1291.33 340.89q1.45 5.64 3.13 11.22c.59 1.94 1.18 3.88 1.79 5.81.31 1 .54 2 .79 2.94.33 1.27.64 2.54.94 3.82.6 2.51 1.12 5 1.61 7.56.23 1.23.46 2.46.68 3.69.13.75.28 1.5.39 2.26s.2 1.53.31 2.29q.48 3.5 1 7c.48 3.06.91 6.12 1.42 9.17s1.08 6.2 1.7 9.29c.26 1.31.56 2.61.87 3.92.17.74.36 1.49.56 2.23.09.35.2.7.31 1.05.18.6.33 1.21.48 1.82-.1-1.75-.34-3.5-.61-5.23-.72-7.13-1.2-14.29-1.92-21.43-.37-3.59-.89-7.16-1.38-10.73-.24-1.73-.59-3.45-.92-5.16-.49-2.54-1.1-5-1.8-7.53s-1.47-4.84-2.34-7.21c-.25-.7-.55-1.38-.83-2.07-.77-1.86-1.55-3.71-2.34-5.57a1.11 1.11 0 0 1 .07.16c-1.06-2.57-2.18-5.13-3.26-7.7l-.69-1.64zm15.41 68.73a.38.38 0 0 1 0 .1v-.1zM1312.93 464c.2 2.45.39 4.89.6 7.33.09 1.11.19 2.21.29 3.32s.18 2.48.25 3.72q.21 3.74.2 7.49c0 2.55-.08 5.11-.15 7.67 0 .51 0 1-.08 1.53-.06 1.15-.11 2.3-.16 3.45-.07 1.89-.15 3.78-.22 5.67-.06 1.46-.19 2.93-.29 4.39l-.66 10.68c-.09 1.45-.18 2.91-.26 4.36-.09 1.79-.13 3.59-.23 5.38-.19 3.37-.36 6.74-.45 10.11 0 1.38-.08 2.76-.11 4.14 0 1.16-.12 2.31-.11 3.47 0 2.83.1 5.66.21 8.49q.35-2.82.71-5.63c.24-1.78.47-3.55.64-5.34s.4-3.43.6-5.15c.39-3.37.8-6.73 1.15-10.11.18-1.79.29-3.59.42-5.38.1-1.45.2-2.91.29-4.36l.7-10.68c.1-1.46.23-2.92.3-4.39l.24-5.67c.08-1.66.13-3.32.18-5v-3.68c0-1.22-.1-2.67-.18-4-.15-2.5-.45-5-.82-7.45-.19-1.29-.4-2.59-.67-3.87-.22-1.07-.45-2.14-.68-3.2-.53-2.46-1.08-4.9-1.66-7.34zm-.42 85.47a.28.28 0 0 0 0 .09v-.09zM1305.16 629.4c-1.39 4.49-2.66 9-3.87 13.52-.81 3-1.51 6.08-2.2 9.13-.29 1.27-.54 2.55-.85 3.81-.46 1.9-.91 3.79-1.34 5.69-.29 1.25-.54 2.5-.84 3.73-.46 2-.91 3.91-1.34 5.86-.36 1.58-.74 3.16-1.09 4.73-.15.65-.32 1.3-.48 2s-.33 1.44-.56 2.15-.52 1.59-.75 2.39-.46 1.63-.72 2.44c-.51 1.54-1 3.07-1.63 4.58a.69.69 0 0 0 0 .13c-.82 1.84-1.68 3.65-2.65 5.41a50.16 50.16 0 0 0 5.36-8.66c.37-.78.73-1.56 1.07-2.36l.48-1.16c.15-.37.25-.77.37-1.15q.79-2.45 1.61-4.87c.52-1.56 1-3.15 1.42-4.73s.94-3.34 1.39-5c.88-3.26 1.57-6.58 2.25-9.89.22-1.05.39-2.11.57-3.17.38-2.26.75-4.52 1.09-6.79.49-3.16 1-6.31 1.51-9.47.42-2.75.84-5.51 1.25-8.26zM1266.6 757.53q-3.36 5-6.62 10l-2.88 4.47c.62.23 1.25.46 1.87.71.49-.9 1-1.81 1.45-2.71 1.54-2.9 3-5.84 4.42-8.79.6-1.23 1.19-2.47 1.78-3.7z"/></g></g></svg>