<svg xmlns="http://www.w3.org/2000/svg" viewBox="0 0 60.04 7.23"><defs><style>.cls-1{fill:#fff;}</style></defs><title>Bose</title><g id="Layer_2" data-name="Layer 2"><g id="Layer_1-2" data-name="Layer 1"><path class="cls-1" d="M8.06,6l3.47-6,.28,0h8.71a.68.68,0,0,1,.59,1A1.55,1.55,0,0,1,21,1.2c-.27.48-.55,1-.81,1.43a1.85,1.85,0,0,1-1.3,1l-.06,0c0,.09.06.12.1.17a.64.64,0,0,1,.09.82c-.34.6-.67,1.21-1,1.8a1.66,1.66,0,0,1-1.46.81H.06A3.49,3.49,0,0,1,0,6.05L.31,6H8.06Zm6-3h2.21a.65.65,0,0,0,.57-.37l.54-.92a.75.75,0,0,0,.06-.13.27.27,0,0,0-.22-.37h-2l-.21,0A13.28,13.28,0,0,0,14.11,3ZM12.36,6H14.6a.59.59,0,0,0,.51-.3c.22-.35.43-.71.62-1.08.12-.21,0-.4-.25-.42H13.39A17.52,17.52,0,0,0,12.36,6Z"/><path class="cls-1" d="M23.89,7.23h-4a.69.69,0,0,1-.58-1L19.39,6l2.88-5,.17-.28A1.68,1.68,0,0,1,23.79,0h8.07a.69.69,0,0,1,.57,1l-.14.24-2.88,5a1.74,1.74,0,0,1-.11.18,1.69,1.69,0,0,1-1.48.84Zm3.28-6h-.39a.59.59,0,0,0-.51.28,1.48,1.48,0,0,0-.13.21L24,5.38a1.18,1.18,0,0,0-.11.19c-.11.24,0,.43.25.45s.5,0,.75,0a.64.64,0,0,0,.51-.29l.1-.15,2.19-3.8c0-.06.07-.12.1-.19a.26.26,0,0,0-.25-.37Z"/><path class="cls-1" d="M35.44,5.14c-.09.18-.17.32-.24.47a.25.25,0,0,0,.06.32.3.3,0,0,0,.18.08,7.66,7.66,0,0,0,.83,0,.64.64,0,0,0,.5-.35c.17-.28.33-.56.49-.84l.23-.4.07-.18-.38,0H32.89a.68.68,0,0,1-.58-1l.09-.16L33.67.88A1.67,1.67,0,0,1,34.74.06a1.64,1.64,0,0,1,.32,0h8.11a.67.67,0,0,1,.55,1c-.2.37-.42.74-.62,1.09-.27,0-3.57.07-4.07,0l-.15,0a1.09,1.09,0,0,1,0-.14,2.54,2.54,0,0,1,.16-.28.29.29,0,0,0-.27-.44h-.68a.66.66,0,0,0-.61.36c-.24.4-.47.8-.7,1.21,0,.06-.09.11,0,.22H41.4A.67.67,0,0,1,42,4a.69.69,0,0,1-.1.19c-.41.73-.83,1.45-1.24,2.17a2,2,0,0,1-.28.37,1.68,1.68,0,0,1-1.21.54h-8a.67.67,0,0,1-.59-1,11.08,11.08,0,0,1,.6-1.06.17.17,0,0,1,.17-.1h3.79Z"/><path class="cls-1" d="M60,0c0,.43,0,.8,0,1.18l-.29,0H49c-.35.58-.68,1.15-1,1.74a.34.34,0,0,0,.28.06h5.48c0,.19-.12.3-.18.44l-.22.37-.24.4H47.33a13.66,13.66,0,0,0-1,1.75c.05.08.14,0,.22,0H51.7l.35,0a5,5,0,0,1-.65,1.19H41.55l-.18,0s0-.09,0-.12c.12-.26,4-6.91,4.12-7.09Z"/></g></g></svg>