<svg xmlns="http://www.w3.org/2000/svg" viewBox="0 0 41.27 7.99"><defs><style>.cls-1{fill:#fff;}</style></defs><title>facebook</title><g id="Layer_2" data-name="Layer 2"><g id="Layer_1-2" data-name="Layer 1"><path class="cls-1" d="M3.23,1.25c-.49,0-.63.22-.63.69v.79H3.9L3.77,4H2.6V7.87H1.05V4H0V2.73H1.05V2c0-1.28.52-2,2-2a7.9,7.9,0,0,1,.91.05v1.2"/><path class="cls-1" d="M4,5.14c0-1.44.68-2.52,2.1-2.52a1.53,1.53,0,0,1,1.48.9V2.73H9.08V7.87H7.59V7.09A1.51,1.51,0,0,1,6.11,8C4.69,8,4,6.9,4,5.46m1.55,0c0,.76.28,1.27,1,1.27s1-.47,1-1.2V5c0-.73-.33-1.2-1-1.2s-1,.51-1,1.28Z"/><path class="cls-1" d="M12.32,2.62A2.8,2.8,0,0,1,13.81,3l-.35,1.1a2.37,2.37,0,0,0-1-.24c-.84,0-1.21.49-1.21,1.32v.3c0,.83.37,1.32,1.21,1.32a2.37,2.37,0,0,0,1-.24l.35,1.1A2.8,2.8,0,0,1,12.32,8,2.34,2.34,0,0,1,9.66,5.42V5.18a2.34,2.34,0,0,1,2.66-2.56"/><path class="cls-1" d="M14,5.5V5a2.24,2.24,0,0,1,2.52-2.42A2.12,2.12,0,0,1,18.84,5v.82H15.57c0,.7.35,1,1.21,1a4.29,4.29,0,0,0,1.65-.32l.28,1.07a4.94,4.94,0,0,1-2,.38C14.75,8,14,7,14,5.5m1.55-.67h1.88V4.7c0-.56-.23-1-.91-1s-1,.45-1,1.14"/><path class="cls-1" d="M24.61,5.46C24.61,6.9,23.92,8,22.49,8A1.58,1.58,0,0,1,21,7.09v.78H19.49V.15L21,0V3.44a1.57,1.57,0,0,1,1.45-.82c1.43,0,2.12,1.08,2.12,2.52m-1.56,0c0-.73-.28-1.27-1-1.27S21,4.3,21,5v.54c0,.74.35,1.19,1,1.19s1-.54,1-1.26Z"/><path class="cls-1" d="M25.13,5.43V5.17a2.35,2.35,0,0,1,2.56-2.55,2.34,2.34,0,0,1,2.55,2.55v.26A2.34,2.34,0,0,1,27.69,8a2.35,2.35,0,0,1-2.56-2.55m3.56-.37c0-.68-.28-1.22-1-1.22s-1,.54-1,1.22v.48c0,.68.28,1.22,1,1.22s1-.54,1-1.22Z"/><path class="cls-1" d="M30.76,5.43V5.17a2.35,2.35,0,0,1,2.56-2.55,2.35,2.35,0,0,1,2.56,2.55v.26A2.35,2.35,0,0,1,33.32,8a2.35,2.35,0,0,1-2.56-2.55m3.57-.37c0-.68-.29-1.22-1-1.22s-1,.54-1,1.22v.48c0,.68.28,1.22,1,1.22s1-.54,1-1.22Z"/><polyline class="cls-1" points="38.02 5.18 39.55 2.73 41.2 2.73 39.59 5.27 41.27 7.87 39.62 7.87 38.02 5.36 38.02 7.87 36.46 7.87 36.46 0.15 38.02 0.01"/></g></g></svg>