<svg xmlns="http://www.w3.org/2000/svg" viewBox="0 0 57.48 12.03"><defs><style>.cls-1{fill:#fff;}</style></defs><title>Nextex</title><g id="Layer_2" data-name="Layer 2"><g id="Layer_1-2" data-name="Layer 1"><path class="cls-1" d="M0,2H3.09a.18.18,0,0,1,.18.1c.4.64.8,1.28,1.21,1.92L6.4,7,7,8V2H9.12v8.26H6a.2.2,0,0,1-.2-.1L4.15,7.48c-.35-.57-.72-1.13-1.08-1.7s-.54-.87-.82-1.3l-.08-.12v5.91H0Z"/><path class="cls-1" d="M20.77,0l.77.9.86,1,.73.86L24,3.86l.56.64c.25.3.5.61.76.91l.34.39a.12.12,0,0,1,0,.18c-.31.36-.62.71-.93,1.08l-1.2,1.43-.89,1-.54.63a.24.24,0,0,1-.1.05H19.1l3.67-4.33L22,5,21.14,4c-.24-.29-.49-.57-.74-.85s-.59-.72-.9-1.08-.49-.56-.73-.85S18.28.59,18,.29A3.15,3.15,0,0,1,17.82,0Z"/><path class="cls-1" d="M18,3.71H13.35V5.2h4.43V6.93H13.35V8.54h4.78v1.72H10.92V2H18Z"/><path class="cls-1" d="M27.41,5.88,32.62,12h-.15c-.39,0-.78,0-1.17,0a.48.48,0,0,1-.43-.22c-.18-.22-.36-.45-.55-.67l-.75-.89-.7-.83-.76-.9-.74-.85c-.24-.29-.48-.59-.73-.88l-.73-.85c-.06-.07-.1-.11,0-.19l1-1.15,1-1.24.92-1.08.05-.07A.51.51,0,0,1,29.32,2h8.82V3H34.65v7.26H33.42V3h-.17C32.15,3,31.06,3,30,3a.32.32,0,0,0-.26.13L29,4l-.87,1-.56.65Z"/><path class="cls-1" d="M39.21,10.26V2H45.4V3h-5V5.53H45.1v1H40.45V9.3h5.1v1Z"/><path class="cls-1" d="M46.66,2h1.56a.28.28,0,0,1,.19.12l1.1,1.38c.3.38.61.75.91,1.12.17.2.33.41.5.62.31-.38.63-.74.93-1.11l1-1.21c.25-.3.51-.6.77-.89a.13.13,0,0,1,.1,0h1.42l-.07.11c-.32.37-.65.73-1,1.09S53.4,4,53.05,4.4L52,5.58l-.24.27a.15.15,0,0,0,0,.23l1,1.18L54,8.58c.36.43.73.86,1.1,1.28l.34.41H54.7c-.25,0-.5,0-.75,0a.37.37,0,0,1-.36-.17L52.44,8.68,51.22,7.17l-.37-.43-.38.45L49.84,8,49,9l-.62.76-.35.43a.26.26,0,0,1-.13.08H46.3l.19-.25c.26-.28.51-.56.76-.85l1.11-1.28c.24-.28.5-.55.74-.83s.59-.67.88-1c.06-.06.06-.12,0-.2l-.83-1L48.37,4l-.78-.93L47,2.38Z"/><path class="cls-1" d="M56.42,2c.18-.05.25,0,.29.18a6.33,6.33,0,0,0,.25.63L57.27,2h.21V3.06h-.13V2.28h0L57.06,3S57,3,57,3.07a.5.5,0,0,1-.1-.11c-.08-.21-.16-.42-.26-.62v.72h-.17Z"/><path class="cls-1" d="M55.83,2.14h-.35V2h.84v.13H56v.93h-.14Z"/></g></g></svg>