<svg xmlns="http://www.w3.org/2000/svg" viewBox="0 0 50 6.89"><defs><style>.cls-1{fill:#fff;}</style></defs><title>StateFarm</title><g id="Layer_2" data-name="Layer 2"><g id="Layer_1-2" data-name="Layer 1"><path class="cls-1" d="M46.15,6.61,46.27,6l.48-2.39a1.23,1.23,0,0,0,0-.27.44.44,0,0,0-.61-.41,1.8,1.8,0,0,0-.4.23.37.37,0,0,0-.08.18c-.14.69-.28,1.39-.41,2.08l-.21,1c0,.16,0,.16-.2.17l-1,0h-.2c0-.11,0-.2,0-.28.19-.93.37-1.85.55-2.77a1,1,0,0,0,0-.29.43.43,0,0,0-.58-.39,1.72,1.72,0,0,0-.43.25.33.33,0,0,0-.08.2L42.9,5c-.09.48-.18,1-.28,1.44,0,.17,0,.17-.21.18l-.93,0h-.21a2.69,2.69,0,0,1,0-.32l.84-4.26c0-.2.05-.21.24-.23l.91-.08h.22l-.1.6c.09,0,.13-.05.17-.09a2.19,2.19,0,0,1,.89-.44.86.86,0,0,1,1.09.55l0,0a1,1,0,0,0,.13-.09,2.51,2.51,0,0,1,1-.51,1.43,1.43,0,0,1,.65,0,1,1,0,0,1,.68.87,2.58,2.58,0,0,1-.05.83L47.51,6.4a.42.42,0,0,1,0,.12s-.07.09-.11.09l-1.17,0Z"/><path class="cls-1" d="M5.26,5.52a2.55,2.55,0,0,1-2,1.32,3.5,3.5,0,0,1-2-.23A2.3,2.3,0,0,1,.37,6,1.43,1.43,0,0,1,.4,4a2.56,2.56,0,0,1,1.3-.75,3.51,3.51,0,0,1,1.44-.09h.13c0-.06-.1-.1-.15-.15a1.61,1.61,0,0,1-.49-.83,1.37,1.37,0,0,1,.2-1.08A2.17,2.17,0,0,1,3.57.42a3.53,3.53,0,0,1,2-.41A3.36,3.36,0,0,1,6.72.3a2.4,2.4,0,0,1,.73.49A1.45,1.45,0,0,1,7.47,3l-.22.2h.16a3.61,3.61,0,0,1,1.92.29,2.19,2.19,0,0,1,.83.61,1.39,1.39,0,0,1,0,1.87,2.15,2.15,0,0,1-.87.65,3.56,3.56,0,0,1-2.86,0A2.08,2.08,0,0,1,5.3,5.56Zm-2.6.85a3.15,3.15,0,0,0,1.25-.26,1.88,1.88,0,0,0,.63-.44.93.93,0,0,0,0-1.34A1.87,1.87,0,0,0,4,3.91a3.08,3.08,0,0,0-2.54,0,1.71,1.71,0,0,0-.62.45.91.91,0,0,0,0,1.29,1.59,1.59,0,0,0,.56.43A3,3,0,0,0,2.66,6.37ZM8,3.64a3.34,3.34,0,0,0-1.36.25A2,2,0,0,0,6,4.37a.92.92,0,0,0,0,1.23,1.54,1.54,0,0,0,.58.46,2.74,2.74,0,0,0,1,.29A3,3,0,0,0,9.25,6a1.57,1.57,0,0,0,.54-.45.89.89,0,0,0,0-1.19,1.78,1.78,0,0,0-.57-.45A3.06,3.06,0,0,0,8,3.64Zm-2.72-.4a2.58,2.58,0,0,0,.87-.12,2.12,2.12,0,0,0,1-.57.93.93,0,0,0,0-1.36A2,2,0,0,0,6.49.76,2.79,2.79,0,0,0,5.39.52,2.88,2.88,0,0,0,3.86.85a1.66,1.66,0,0,0-.52.43.89.89,0,0,0,0,1.16,1.56,1.56,0,0,0,.53.46A2.84,2.84,0,0,0,5.25,3.24Zm-.59.5a1.92,1.92,0,0,1,.59.74c.11-.15.18-.29.28-.41a3.26,3.26,0,0,1,.31-.33Z"/><path class="cls-1" d="M11.7,5l.16.15A1.88,1.88,0,0,0,13,5.67a1.22,1.22,0,0,0,.75-.19.75.75,0,0,0,.13-1.18A2.68,2.68,0,0,0,13.5,4c-.22-.15-.45-.28-.67-.44a1.55,1.55,0,0,1-.67-1A2,2,0,0,1,13.85.19,2.9,2.9,0,0,1,15.7.51c.21.11.21.11.17.34s-.12.56-.17.84c0,0,0,.08,0,.14l-.1-.07a1.6,1.6,0,0,0-1-.52A1.24,1.24,0,0,0,14,1.3a.7.7,0,0,0-.24,1.19,6.42,6.42,0,0,0,.6.42c.19.12.38.24.56.38A1.66,1.66,0,0,1,15.55,5a2,2,0,0,1-1.87,1.75A3.49,3.49,0,0,1,12,6.54a3.88,3.88,0,0,1-.45-.24.12.12,0,0,1-.08-.15Z"/><path class="cls-1" d="M35.16.28c0,.08,0,.14,0,.19,0,.24-.09.48-.14.71s0,.2-.24.2H33L32.66,3l1.72,0c0,.06,0,.11,0,.15l-.21.79c0,.15,0,.16-.21.16H32.46c-.06.29-.11.55-.16.82-.11.54-.21,1.09-.31,1.63,0,.09,0,.16-.15.16l-1.25,0-.08,0s0-.11,0-.16c.25-1.25.51-2.5.77-3.75.14-.73.27-1.45.4-2.18l0-.13c0-.08.06-.11.14-.1H32l3,0Z"/><path class="cls-1" d="M21,6.65l.08-.49-.18.16a1.84,1.84,0,0,1-1.23.48,1,1,0,0,1-1-.79,1.73,1.73,0,0,1,1-2,5.76,5.76,0,0,1,1.24-.3l.72-.08a.52.52,0,0,0-.34-.74,1.8,1.8,0,0,0-1.1,0L19.58,3l-.17.06c0-.05,0-.08,0-.11.05-.29.11-.57.16-.85,0-.09.08-.12.16-.14.27-.05.54-.12.81-.15a3.94,3.94,0,0,1,1.41.06,1.13,1.13,0,0,1,.87.78,1.5,1.5,0,0,1,0,.7c-.2,1-.4,2-.61,3.06,0,.16,0,.16-.2.17l-.79,0Zm.43-2.24-.35,0a2.81,2.81,0,0,0-.81.19.83.83,0,0,0-.44.48.54.54,0,0,0,.62.73,1.23,1.23,0,0,0,.81-.58.19.19,0,0,0,0-.07C21.31,4.94,21.36,4.69,21.41,4.41Z"/><path class="cls-1" d="M36.92,3.57a.57.57,0,0,0-.5-.77,1.91,1.91,0,0,0-1.06.09l-.6.21a.32.32,0,0,1,0-.13l.15-.8A.18.18,0,0,1,35,2a4.6,4.6,0,0,1,2.21-.1,1.11,1.11,0,0,1,.36.13,1,1,0,0,1,.57.93,6.73,6.73,0,0,1-.13.9c-.16.84-.33,1.66-.5,2.49v0c0,.24,0,.23-.3.24l-.7,0h-.21l.07-.48-.21.17a1.85,1.85,0,0,1-1.1.46,1.06,1.06,0,0,1-1.19-1,1.87,1.87,0,0,1,.29-1.24A1.47,1.47,0,0,1,34.77,4a3.84,3.84,0,0,1,1.14-.34Zm-.18.84-.31,0a3,3,0,0,0-.83.19.78.78,0,0,0-.46.58.52.52,0,0,0,.54.64c.33,0,1-.41,1-.8,0-.16.06-.3.08-.45A1.09,1.09,0,0,0,36.74,4.41Z"/><path class="cls-1" d="M29.46,5.18a.54.54,0,0,1,0,.13l-.18,1a.26.26,0,0,1-.15.21,5.44,5.44,0,0,1-.57.19,3.09,3.09,0,0,1-1.32,0,1.6,1.6,0,0,1-1.34-1.4A3.56,3.56,0,0,1,26.29,3a2.16,2.16,0,0,1,2.48-1.17,1.34,1.34,0,0,1,1.09,1.23,4.14,4.14,0,0,1-.09,1.31c0,.14-.05.15-.24.15l-2.16,0h-.21a1,1,0,0,0,0,.58.72.72,0,0,0,.58.55,1.74,1.74,0,0,0,1.1-.13,4.34,4.34,0,0,0,.46-.28A.79.79,0,0,0,29.46,5.18Zm-.72-1.5a3.65,3.65,0,0,0,.05-.42.57.57,0,0,0-.47-.61.65.65,0,0,0-.45.1,1.33,1.33,0,0,0-.59.93Z"/><path class="cls-1" d="M25.4,5.61c-.07.32-.12.6-.18.89a.16.16,0,0,1-.14.13,2.32,2.32,0,0,1-1.17,0,.83.83,0,0,1-.65-.72,2.6,2.6,0,0,1,.06-1l.42-2s0-.06,0-.11h-.6q0-.12,0-.21c0-.2.07-.41.11-.61s0-.16.2-.16H24c0-.1.05-.21.07-.31.06-.25.11-.51.16-.77a.19.19,0,0,1,.15-.17L25.45.31h.15l-.36,1.61H26a1,1,0,0,1,0,.18l-.12.63c0,.15-.05.17-.21.17h-.59s0,.05,0,.08c-.16.72-.31,1.44-.46,2.17a.37.37,0,0,0,0,.11c0,.33.15.5.49.46Z"/><path class="cls-1" d="M18.44.3l-.36,1.61h.78c0,.19-.07.35-.1.52l-.06.3c0,.14-.05.16-.19.16h-.62c0,.19-.09.38-.13.58-.12.57-.23,1.14-.35,1.7a.62.62,0,0,0,0,.13.35.35,0,0,0,.38.4,1.47,1.47,0,0,0,.29,0l.16,0c0,.08,0,.13,0,.18-.05.22-.09.44-.13.66a.21.21,0,0,1-.16.19,2.63,2.63,0,0,1-1.08,0,.9.9,0,0,1-.75-1.09c0-.44.14-.88.22-1.32s.18-.84.28-1.27a.57.57,0,0,1,0-.12H16c0-.34.12-.64.17-1h.63c.05-.24.1-.46.14-.68S17,1,17,.81a.18.18,0,0,1,.13-.15L18.36.3S18.39.3,18.44.3Z"/><path class="cls-1" d="M38.17,6.63c0-.24.09-.47.13-.7.25-1.28.51-2.56.76-3.84,0-.24,0-.24.3-.26l.84-.08c.17,0,.18,0,.15.17s-.06.31-.09.5a2.32,2.32,0,0,1,1.55-.7.84.84,0,0,1,0,.16c-.07.38-.14.75-.22,1.13,0,.15-.05.16-.2.15a1.49,1.49,0,0,0-1.32.51A.49.49,0,0,0,40,3.9c-.17.84-.33,1.69-.5,2.53,0,.18,0,.18-.22.19l-.9,0Z"/><path class="cls-1" d="M50,2.51a.69.69,0,0,1-.76.71.7.7,0,0,1-.6-.85.68.68,0,0,1,.75-.58A.69.69,0,0,1,50,2.51Zm-1.26,0a.59.59,0,0,0,.57.62.61.61,0,0,0,.59-.61.59.59,0,0,0-.58-.61A.57.57,0,0,0,48.74,2.5Z"/><path class="cls-1" d="M5.25,3,5.82,3a2.12,2.12,0,0,0,1-.46.78.78,0,0,0,0-1.28A1.75,1.75,0,0,0,6.32.92a3,3,0,0,0-2.1,0,1.55,1.55,0,0,0-.6.37.77.77,0,0,0,0,1.18,1.76,1.76,0,0,0,.49.33A2.68,2.68,0,0,0,5.25,3Z"/><path class="cls-1" d="M2.68,3.83a3,3,0,0,1,1.07.22,2,2,0,0,1,.54.33.76.76,0,0,1,0,1.23,2,2,0,0,1-.5.32A3,3,0,0,1,1.58,6,1.62,1.62,0,0,1,1,5.57.78.78,0,0,1,1,4.42a1.8,1.8,0,0,1,1-.48A5.84,5.84,0,0,1,2.68,3.83Z"/><path class="cls-1" d="M7.84,3.83A3.26,3.26,0,0,1,9,4.09a1.45,1.45,0,0,1,.55.4.74.74,0,0,1,0,1A1.39,1.39,0,0,1,9,5.92a3,3,0,0,1-2.3,0,1.51,1.51,0,0,1-.55-.38.76.76,0,0,1,0-1.14,1.9,1.9,0,0,1,.94-.49Z"/><path class="cls-1" d="M5.25,3A2.68,2.68,0,0,1,4.1,2.79a1.76,1.76,0,0,1-.49-.33.77.77,0,0,1,0-1.18,1.55,1.55,0,0,1,.6-.37,3,3,0,0,1,2.1,0,1.75,1.75,0,0,1,.54.32.78.78,0,0,1,0,1.28,2.12,2.12,0,0,1-1,.46Z"/><path class="cls-1" d="M49.06,2.9V2.1h.31a.22.22,0,0,1,.22.16.19.19,0,0,1-.07.23l-.06,0,.13.35c-.07.06-.11,0-.14,0a1.08,1.08,0,0,1-.08-.19c0-.09-.08-.1-.17-.08s0,.22-.07.33Zm.13-.7v.24a1.33,1.33,0,0,0,.2,0,.15.15,0,0,0,.08-.11.15.15,0,0,0-.08-.11A1,1,0,0,0,49.19,2.2Z"/></g></g></svg>