<svg xmlns="http://www.w3.org/2000/svg" viewBox="0 0 324.9 359.29"><defs><style>.cls-1{fill:#fc6;}.cls-2{fill:#d6ab55;}.cls-3{fill:#ffe0a0;}.cls-4{fill:#6c6;}.cls-5{fill:#448944;}.cls-6{fill:#7fff7f;}.cls-7{fill:#ed40c6;}.cls-8{fill:#cb4d96;}.cls-9{fill:#ed9bd9;}.cls-10{fill:#de9898;}.cls-11{fill:#fae8c5;}.cls-12{fill:#b17979;}.cls-13{fill:#ffdad9;}</style></defs><title>ShroomDotsAsset 1</title><g id="Layer_2" data-name="Layer 2"><g id="Layer_1-2" data-name="Layer 1"><path class="cls-1" d="M37.46,208.82c-2.33.46-4.66,1-7,1.49a28.74,28.74,0,0,0-7.85,3,18.22,18.22,0,0,0-3.45,2.53,16.09,16.09,0,0,0-2.8,3.8,2.26,2.26,0,0,0,.95,3,2.29,2.29,0,0,0,3-1c.29-.49.59-1,.9-1.47a12,12,0,0,1,1.54-1.64,20,20,0,0,1,3.46-2.15q1.08-.49,2.19-.9c1.07-.38,2.18-.65,3.27-.93.85-.22,1.72-.38,2.57-.56,1.52-.33,3-.66,4.57-1a2.13,2.13,0,0,0,1.29-1.1,2.25,2.25,0,0,0-.95-3,2,2,0,0,0-1-.24,4.45,4.45,0,0,0-.78.09Z"/><path class="cls-1" d="M230.05,20.28a3.29,3.29,0,0,0-1.77,4.24,19.42,19.42,0,0,0,4,5.81,35.67,35.67,0,0,0,4,3.85,41.31,41.31,0,0,0,7.13,4.71c1,.5,2.08.92,3.12,1.38.74.32,1.46.67,2.2,1,1.67.72,3.34,1.37,5.06,2s3.41,1,5.12,1.4,3.43.82,5.16,1.17,3.47.52,5.2.73a45.36,45.36,0,0,0,5.59.22,22,22,0,0,0,7.47-1.49A3.26,3.26,0,0,0,284.12,41a3.39,3.39,0,0,0-.55-.9c-.31-.23-.61-.47-.91-.71a3.48,3.48,0,0,0-2.78-.16c-.62.21-1.24.43-1.88.62a22.28,22.28,0,0,1-4.68.43,67,67,0,0,1-7.86-.86c-2.52-.39-5-1.08-7.47-1.7a48.85,48.85,0,0,1-5.63-2c-1.07-.47-2.13-.94-3.18-1.42-1.57-.72-3.16-1.35-4.67-2.19a41.17,41.17,0,0,1-6.77-5.42,28.85,28.85,0,0,1-3.07-3.82,9.1,9.1,0,0,1-.37-.85,3.31,3.31,0,0,0-3-2,3.26,3.26,0,0,0-1.21.24Z"/><path class="cls-1" d="M227.42,16a6.09,6.09,0,0,0-.87,2c0,.18-.09.35-.13.53,0,.48,0,1,0,1.45a10.76,10.76,0,0,0,.43,1.5,9.38,9.38,0,0,0,.9,1.57,17.16,17.16,0,0,0,1.3,1.68,37.81,37.81,0,0,0,4,3.87c1.28,1.17,2.66,2.24,4,3.39.51.45,1,.92,1.56,1.34.76.57,1.52,1.12,2.29,1.67s1.23.92,1.84,1.39a23.41,23.41,0,0,0,4.61,2.77,40.88,40.88,0,0,0,4.59,1.74,45.06,45.06,0,0,0,5.49,1.4c1.81.32,3.61.6,5.42.86,1,.14,1.9.25,2.85.32a12.15,12.15,0,0,0,2.89-.11,61.57,61.57,0,0,0,8.18,2.57,23.94,23.94,0,0,0,6,.55,4.36,4.36,0,0,0,3-1.43,3.67,3.67,0,0,0,.93-2.49l-.13-.11c-3-2.37-6-4.71-9-7.06L274.25,33h0q-3.58-2-7.21-3.85c-3.94-2.05-7.9-4.1-11.86-6.12-.89-.46-1.77-.9-2.66-1.34q-1.14-.41-2.31-.75a45.1,45.1,0,0,0-4.56-1.09l-.27,0-.21-.1a4,4,0,0,0,.11-1c-1.05-.26-2.1-.5-3.15-.71l-6.48-1.3c-1.89-.38-3.77-.87-5.66-1.31l-1.63-.38a5.12,5.12,0,0,0-.93,1.05Z"/><path class="cls-1" d="M229.76,12.19a3.13,3.13,0,0,0-1,.4,5.6,5.6,0,0,0-1.17.82,3.13,3.13,0,0,0-1,2.3A3.26,3.26,0,0,0,229.83,19a3,3,0,0,0,1.56-.43c1,0,2,0,2.9.08,1.56.09,3.1.31,4.65.5a41.19,41.19,0,0,1,5,.89,55.27,55.27,0,0,1,5.91,2c1.68.74,3.37,1.49,5.08,2.18,1.52.62,3.07,1.16,4.61,1.73,1.16.52,2.29,1.06,3.42,1.64,1.36.7,2.71,1.43,4.07,2.15s2.67,1.45,4,2.2a35.19,35.19,0,0,1,7.87,6.45l.13.21c0,.24,0,.48-.05.73a3.11,3.11,0,0,0,.95,2.29,3.24,3.24,0,0,0,4.6,0,3.48,3.48,0,0,0,.95-2.29,7.12,7.12,0,0,0-.07-2.11,6.68,6.68,0,0,0-1.12-2.42A20.51,20.51,0,0,0,280.68,31c-1.21-1-2.49-2-3.78-2.94a54.13,54.13,0,0,0-6.63-4c-2.32-1.24-4.65-2.54-7.06-3.6s-5-1.92-7.42-2.91c-2.16-1-4.3-1.93-6.53-2.69-1-.36-2.07-.69-3.12-1a34.81,34.81,0,0,0-3.52-.71c-2.31-.38-4.63-.73-7-.95-1.11-.1-2.21-.14-3.32-.15h-1.26a5.89,5.89,0,0,0-1.33.14Zm49.08,25.88a2.17,2.17,0,0,1,.15.35h0l-.15-.35Z"/><path class="cls-2" d="M230.73,13a8.94,8.94,0,0,0-2,.79,6.15,6.15,0,0,0-1.36.95,5,5,0,0,0-.78.87c-.2.35-.39.71-.57,1.07a5.21,5.21,0,0,0-.36,1.56,7.48,7.48,0,0,0,.09,2.06,13,13,0,0,0,.63,2.19c.11.35.26.69.4,1a27.06,27.06,0,0,0,1.3,2.58,29.54,29.54,0,0,0,2,3.16,54.57,54.57,0,0,0,4,4.89c2.09,2.21,4.93,3.5,7.63,4.78.52.28,1,.57,1.54.86a25,25,0,0,0,4.55,2.1c.81.27,1.64.48,2.47.7s1.6.49,2.4.73a21.9,21.9,0,0,0,4.45.94c.84.07,1.7.11,2.53.25s1.71.27,2.57.39a19.79,19.79,0,0,0,2.55.12c1.53,0,3,.22,4.56.37.74.08,1.51.06,2.25.07a22.06,22.06,0,0,1,2.58.19,34.47,34.47,0,0,0,5.08.3c1,0,1.94-.05,2.9-.1a7.2,7.2,0,0,0,2.54-.64,4.69,4.69,0,0,0,2-1.49,3.74,3.74,0,0,0,.63-1.91,3.17,3.17,0,0,0-.25-1.64c-.22-.38-.45-.74-.69-1.11A5.36,5.36,0,0,0,285,37.92a13.37,13.37,0,0,0-2-1,24.76,24.76,0,0,0-5.78-1.76c-1.92-.41-3.83-.81-5.74-1.24s-3.78-.52-5.66-.82l-5.75-.94c-1.37-.34-2.73-.71-4.07-1.18a43.39,43.39,0,0,1-4.51-1.89c-2.81-1.56-5.56-3.23-8.35-4.84-1.64-.94-3.3-1.81-4.86-2.87a35.65,35.65,0,0,1-3.89-3.17,3.45,3.45,0,0,0,.65-1.07A3.23,3.23,0,0,0,233.18,13l-.81-.19-.35,0a3.25,3.25,0,0,0-1.29.27Zm7.14,15.68,1.36.76L244,32.21c1.67,1,3.3,2.06,5.06,2.89.89.43,1.78.83,2.69,1.21a27.07,27.07,0,0,1-4.29-1.54c-.69-.38-1.37-.77-2.06-1.14-1.13-.61-2.27-1.17-3.43-1.72a20,20,0,0,1-3.09-2.05c-.34-.38-.68-.78-1-1.17Zm22.66,3.58.3.07-.3-.07Zm21.18,11.31c.06.06.13.11.19.18l-.19-.18Z"/><path class="cls-2" d="M230.8,13.67A3.28,3.28,0,0,0,228.64,15a3.16,3.16,0,0,0-.57,2.38,18,18,0,0,0,1.3,4,22.34,22.34,0,0,0,2.09,3.12c.66.87,1.34,1.73,2,2.58A38.32,38.32,0,0,0,240,33.53a42,42,0,0,0,5.43,3.26c1.19.65,2.4,1.28,3.59,1.92a35.16,35.16,0,0,0,9.12,3.18,41.59,41.59,0,0,0,6.1.7,3.25,3.25,0,1,0,.68-6.46,46.75,46.75,0,0,1-6.45-.79,36.59,36.59,0,0,1-7.11-2.69c-.86-.43-1.71-.91-2.56-1.37l.74.4c-1.32-.72-2.66-1.44-4-2.21a25.31,25.31,0,0,1-4.25-3.32c-1-1.08-2-2.2-3-3.36s-2.09-2.57-3-3.94a10.2,10.2,0,0,1-.6-1.3c-.1-.39-.2-.77-.29-1.15a3.49,3.49,0,0,0-1.32-2.16,3.23,3.23,0,0,0-1.9-.61,2.59,2.59,0,0,0-.48,0Z"/><path class="cls-3" d="M266.65,25.8a1.79,1.79,0,0,0-.53,1.37,2.44,2.44,0,0,0,.65,1.48,6.45,6.45,0,0,0,2.14,1.58,20.39,20.39,0,0,0,2.09.92c.69.25,1.38.51,2.08.75,1.4.48,2.79,1,4.19,1.47A1.25,1.25,0,0,0,278,31l-.54-.19a2,2,0,0,0,.16-.62,1.83,1.83,0,0,0-.15-.77,4.43,4.43,0,0,0-2-1.95A25,25,0,0,0,272,26.05a14.3,14.3,0,0,0-3-.76,4.89,4.89,0,0,0-.66-.05,2.56,2.56,0,0,0-1.73.56Zm1.43,2-.12,0,.12,0Z"/><path class="cls-3" d="M277,28.2a1.24,1.24,0,0,0-.58.3,1.18,1.18,0,0,0-.36.12,1.25,1.25,0,0,0-.55,1.68,5.91,5.91,0,0,0,1,1.31,2.39,2.39,0,0,0,.84.53,1.52,1.52,0,0,0,1.31-.17,1.75,1.75,0,0,0,.76-1,1.8,1.8,0,0,0-.11-1.23,2.87,2.87,0,0,0-1.37-1.38,1.56,1.56,0,0,0-.71-.2l-.25,0Z"/><path class="cls-3" d="M257.26,20.31a1.27,1.27,0,0,0-.1,1.77l.57.54a5.64,5.64,0,0,0,.84.71,1.24,1.24,0,0,0,1.52-.11,1.26,1.26,0,0,0,.36-.55c.4-.9-.46-1.65-1.15-2.05l-.13-.07-.15-.13a1.27,1.27,0,0,0-.87-.42h0a1.3,1.3,0,0,0-.84.31Z"/><path d="M235.74,13.28c-1.16,0-2.31.12-3.45.2,0,0,0,0,0,0l3.38.28c.94.08,1.88.2,2.82.32s2.07.38,3.11.6l1.66.41c.49.13,1,.3,1.46.45l3.15,1c1,.3,1.9.68,2.84,1.06l1.44.68c.46.21.9.44,1.35.67l3,1.46c1,.5,2,1,3,1.52.46.23.94.43,1.43.63l.11,0,0,0c.45.18.91.34,1.38.49.74.23,1.48.45,2.23.65.43.13.86.24,1.3.36s.84.27,1.26.41c1.48.47,2.92,1,4.36,1.61l1.16.54c.4.19.79.4,1.19.6.74.39,1.46.83,2.19,1.26s1.42.79,2.15,1.14l1.23.59a12.91,12.91,0,0,1,2,1.09,8.29,8.29,0,0,1,1.18,1.19,18.81,18.81,0,0,1,1.38,2.16q.35.61.66,1.26c.15.31.28.62.42.94l.33.86a8,8,0,0,1,.32.94,4.48,4.48,0,0,1,.56,2,3,3,0,0,1-.38,1.4c0,.1,0,.2,0,.31a8.08,8.08,0,0,1-.41,1.59,4.34,4.34,0,0,1-.38.66,3.64,3.64,0,0,1-.34.34,4.2,4.2,0,0,1-.72.41,4.49,4.49,0,0,1-1,.27,19.39,19.39,0,0,1-2.41,0c-.6,0-1.19-.06-1.79-.11-1-.07-2-.21-3-.3l-3.32-.33c-1.16-.13-2.31-.27-3.47-.39l-3.74-.44c-1-.15-2-.29-3.05-.46l-1.77-.31c-.58-.11-1.15-.26-1.73-.39s-1-.27-1.57-.42-1-.3-1.51-.46c-1-.32-2.08-.65-3.12-1-.58-.19-1.16-.43-1.74-.65l.18.08c-.92-.39-1.84-.79-2.77-1.17-.78-.32-1.6-.57-2.41-.83l-2.7-.84c-.86-.27-1.7-.62-2.53-1l-1.05-.46a14.94,14.94,0,0,1-2.77-1.59c-1-.8-1.91-1.73-2.86-2.61L232.67,31l-.73-.7a15.31,15.31,0,0,1-1.36-1.53,11.23,11.23,0,0,1-1.39-2.27,19.42,19.42,0,0,1-.81-2.48,26.53,26.53,0,0,1-.56-2.68,16.86,16.86,0,0,1,0-3.55,2.41,2.41,0,0,1,0-.38,2.46,2.46,0,0,1,.66-1.54,2.22,2.22,0,0,1,.56-.45l.17-.11a2.37,2.37,0,0,1,1.3-.38,2.91,2.91,0,0,1,1,.18l.41.12.2,0h0a8,8,0,0,1,1.28.33s0,0,0,0a9.61,9.61,0,0,0-.91-.45,6.41,6.41,0,0,0-1.45-.36,6.54,6.54,0,0,0-1.47-.11,3.06,3.06,0,0,0-1.75.72,3.51,3.51,0,0,0-.92,1.65,11.67,11.67,0,0,0-.4,2.35,14.85,14.85,0,0,0,0,2.11,14.2,14.2,0,0,0,.29,2.16c.15.7.29,1.4.49,2.09a12.7,12.7,0,0,0,.81,2.07,11.94,11.94,0,0,0,1.33,2,21,21,0,0,0,1.47,1.66l.67.63c.41.39.83.77,1.25,1.15.87.81,1.71,1.66,2.61,2.43a18.92,18.92,0,0,0,5.09,2.82l.88.36c.24.1.51.18.76.27.52.19,1,.35,1.55.52,1,.32,2.06.63,3.09,1,.33.11.67.21,1,.35l1.14.45c.46.21.94.4,1.41.61s1.21.46,1.81.68,1,.34,1.55.51,1,.32,1.54.48,1,.3,1.49.45,1.08.3,1.61.44l.56.13,1.14.25c.53.11,1.07.19,1.6.28,2.17.38,4.36.66,6.54.89,1.12.13,2.23.24,3.34.38s2,.24,3.05.34c2.17.22,4.32.52,6.5.6a10.38,10.38,0,0,0,3.29-.21,5.6,5.6,0,0,0,1-.4,5.16,5.16,0,0,0,.82-.56,3.58,3.58,0,0,0,.65-.75,4.7,4.7,0,0,0,.54-1.13,10.11,10.11,0,0,0,.51-2.79c0-.35,0-.7,0-1a9.75,9.75,0,0,0-.12-1.2,9.26,9.26,0,0,0-.55-2,24.83,24.83,0,0,0-1.38-3.07A18.87,18.87,0,0,0,283.5,31a8.74,8.74,0,0,0-2.83-2c-.54-.26-1.09-.52-1.65-.77s-.87-.41-1.29-.64l-1.56-.9c-.42-.24-.84-.49-1.27-.71s-.9-.48-1.37-.69-1.11-.51-1.68-.74l-1.7-.65c-1-.37-2-.71-3-1s-2.15-.62-3.23-.92c-.7-.2-1.38-.43-2.07-.68l-.2-.07a2.17,2.17,0,0,0-.38-.16l-.13-.05-.28-.12h0l0,0s-.05,0-.07,0h0l-.09,0-.06,0h0l-1.32-.65c-.48-.25-.95-.51-1.44-.75l-3.07-1.49c-1-.5-2-1-3.06-1.47a29.34,29.34,0,0,0-3.16-1.2l-1.35-.39-1.7-.47c-.51-.15-1-.28-1.55-.41-.26-.07-.54-.1-.8-.15l-.82-.14c-1.11-.15-2.23-.27-3.35-.34-.44,0-.88,0-1.32,0-.64,0-1.28,0-1.92,0Zm24.86,7.46-.1,0,.1,0Zm.16.06ZM285.5,44.19l0,.07,0-.07Zm-.58.85-.07.05.07-.05Zm-1.94.79-.08,0,.08,0Z"/><path class="cls-1" d="M308.32,88.62a6.41,6.41,0,0,0-1,1.38,8.1,8.1,0,0,0-.77,2c-.89,3.5-.37,7.15.13,10.66a28.56,28.56,0,0,0,.59,3,21.81,21.81,0,0,0,.87,3c0,.15.1.3.16.44q.9,2.73,2,5.38c.3,1.48.61,3,1,4.41a19.89,19.89,0,0,0,1.09,3.09,3.6,3.6,0,0,0,3,2.11,3.07,3.07,0,0,0,1-.08,3.12,3.12,0,0,0,2.34-.25,3.42,3.42,0,0,0,1.59-1.93,4.36,4.36,0,0,0,.58-1.09,12.55,12.55,0,0,0,.76-3.2,16.17,16.17,0,0,0-.16-3.33c0-.12,0-.25,0-.37.09-.5.15-1,.21-1.5a13.86,13.86,0,0,0,.06-3c-.09-1.15-.18-2.29-.34-3.43a40.78,40.78,0,0,0-1-5,42.93,42.93,0,0,0-2.15-6.46,12.67,12.67,0,0,0-1.69-2.61c-.1-.27-.21-.53-.32-.8-.81-1.9-2.3-3.8-4.54-3.87h-.13a4.91,4.91,0,0,0-3.26,1.43Z"/><path class="cls-1" d="M310.5,97.75a3.3,3.3,0,0,0-1.6,2,3.73,3.73,0,0,0-.14,1.13,3.33,3.33,0,0,0-2.05,3.78c.59,3.53,1.18,7.06,2,10.56.39,1.68.89,3.33,1.37,5s.93,3.17,1.33,4.78c.76,3,1.54,6.12,3.46,8.64,1.33,1.75,3.38,3.27,5.69,2.63s3.15-2.92,3.66-5a18,18,0,0,0,.47-5.06c0-1.06-.07-2.14-.2-3.19-.19-1.59-.49-3.14-.78-4.71a46.09,46.09,0,0,0-1-4.77,49.7,49.7,0,0,0-1.92-5.28,23.93,23.93,0,0,0-1.06-2.3,28.31,28.31,0,0,0-1.75-2.7c-.91-1.26-1.85-2.5-2.77-3.74-.09-.13-.18-.25-.26-.38a3.49,3.49,0,0,0-1.95-1.61,3.2,3.2,0,0,0-.92-.13,3.34,3.34,0,0,0-1.52.37Zm7.29,26c-.22-.84-.39-1.7-.65-2.54-.59-2-1.19-3.91-1.7-5.88s-.94-3.93-1.32-5.92c.15.29.3.59.42.89.48,1.1.92,2.2,1.36,3.31q.8,2.7,1.32,5.46c.31,1.66.64,3.3.86,5,0,.34,0,.69.05,1l-.34-1.33Z"/><path class="cls-1" d="M311.63,102.69a3.25,3.25,0,0,0-2.05,1.47,3.13,3.13,0,0,0-.4,2.42c2.23,6.94,4.59,13.83,7,20.71a3.53,3.53,0,0,0,1.47,2,3.25,3.25,0,0,0,4.47-1.07,3.09,3.09,0,0,0,.4-2.42c-2.38-6.89-4.74-13.78-7-20.71a3.41,3.41,0,0,0-1.47-2,3.24,3.24,0,0,0-1.7-.48,3.45,3.45,0,0,0-.72.08Z"/><path class="cls-2" d="M313.16,87.56a16,16,0,0,0-3.2.61,5.53,5.53,0,0,0-1.39.79,7.69,7.69,0,0,0-1.21,1.21,7.51,7.51,0,0,0-.76,1.39,9.36,9.36,0,0,0-.62,2.2,21.82,21.82,0,0,0-.32,5.82c.07,1,.2,2,.3,2.94.19,1.72.24,3.44.31,5.17a28.81,28.81,0,0,0,.63,4.71c.2,1,.51,1.95.79,2.92s.49,1.63.77,2.44c.55,1.6,1.07,3.21,1.67,4.79a33.05,33.05,0,0,0,2.95,6.07,57.18,57.18,0,0,0,3.4,4.66,3.24,3.24,0,1,0,5.07-4.05c-1.14-1.46-2.27-2.92-3.27-4.47a39.78,39.78,0,0,1-2.81-6.54c-.65-1.91-1.31-3.81-1.88-5.74a29.92,29.92,0,0,1-.64-3.13,35.24,35.24,0,0,1-.29-3.7c0-1.12-.07-2.23-.18-3.34-.16-1.43-.34-2.85-.42-4.28a20.28,20.28,0,0,1,.33-3.3l.18-.55c.51-.08,1-.13,1.53-.19a3.24,3.24,0,0,0-.54-6.45l-.4,0Z"/><path class="cls-3" d="M317.63,96.24l-.44.08a1.7,1.7,0,0,0-.64.42,2.72,2.72,0,0,0-.6,1.35,5.53,5.53,0,0,0-.29,1.2,9.89,9.89,0,0,0,0,2.37,12.23,12.23,0,0,0,.41,2.07,2.81,2.81,0,0,0,1.28,1.78,1.29,1.29,0,0,0,.64.15,4,4,0,0,0,.5-.07l.46-.22a1.83,1.83,0,0,0,.55-.59,5.6,5.6,0,0,0,.69-2,9.33,9.33,0,0,0,0-2.42,8.18,8.18,0,0,0-.5-2.12c-.12-.29-.26-.59-.41-.87a5.22,5.22,0,0,0-.54-.7,1.5,1.5,0,0,0-1-.44Z"/><path class="cls-3" d="M319,108a1.39,1.39,0,0,0-.5.57,1.26,1.26,0,0,0-.36,1.71l.31.48c0,.21.08.41.12.61s.13.41.18.61a1.59,1.59,0,0,0,.37.61,1.48,1.48,0,0,0,1,.34,1.22,1.22,0,0,0,.86-.4,1.33,1.33,0,0,0,.33-.91,3,3,0,0,0-.43-1.66c0-.23,0-.46,0-.69a.22.22,0,0,0,0-.08v0a1.21,1.21,0,0,0-.17-.78,1.32,1.32,0,0,0-.79-.55,1.18,1.18,0,0,0-.27,0,1.25,1.25,0,0,0-.67.2Z"/><path d="M310.89,87.61a7.72,7.72,0,0,0-3.65,1.94A5.53,5.53,0,0,0,306,91.48a6.26,6.26,0,0,0-.17,2.55s0,0,0,0,0-.2,0-.3h0a8.32,8.32,0,0,1,.39-1.78l0,0,0,0h0v0h0a5.62,5.62,0,0,1,.48-.83h0a6.5,6.5,0,0,1,1-1h0a7.43,7.43,0,0,1,1.42-.81l-.07,0a8.12,8.12,0,0,1,1.81-.51l.24,0,.32,0h.09a2.64,2.64,0,0,1,1.71.68,2.34,2.34,0,0,1,.49.61,2.24,2.24,0,0,1,.22.4,2,2,0,0,1,.16.43,1.63,1.63,0,0,1,.11.17l.41.49c.34.39.65.8,1,1.2l.75,1.09c.21.29.39.61.59.92s.39.62.56.94c.28.53.56,1,.8,1.6a26.31,26.31,0,0,1,1.35,5.16c.23,1.22.44,2.43.66,3.64.36,2,.73,4.08,1.15,6.1.24,1.15.5,2.3.76,3.44s.43,2.17.6,3.26c.09.76.18,1.52.25,2.28s.1,1.48.12,2.22,0,1.47,0,2.21a27.38,27.38,0,0,1-.06,3.14,9.64,9.64,0,0,1-.32,1.39c-.07.24-.16.48-.25.72s-.19.52-.3.78l-.16.33a2.55,2.55,0,0,1-1.75,2.29l-.27.15a4.46,4.46,0,0,1-.82.2,3.51,3.51,0,0,1-.56,0,3.58,3.58,0,0,1-.54-.14,4.76,4.76,0,0,1-.69-.4h0a2.41,2.41,0,0,1-.75-.74c-.07-.07-.13-.15-.2-.23a11.26,11.26,0,0,1-1-1.51l-.54-1c-.25-.49-.46-1-.68-1.48-.65-1.7-1.25-3.41-2-5.07s-1.52-3.4-2.26-5.1c-.25-.61-.51-1.21-.75-1.83l-.51-1.37c-.1-.27-.18-.56-.26-.84l-.33-1.12a2.45,2.45,0,0,1-.08-.37c-.07-.28-.13-.55-.19-.83-.15-.7-.27-1.4-.39-2.11-.14-1.08-.27-2.16-.38-3.24-.06-.54-.08-1.09-.12-1.63s-.05-1.07-.08-1.6c0-1-.07-2.1-.11-3.14-.05-1.29-.12-2.57-.14-3.85a11.56,11.56,0,0,1,.06-1.44.13.13,0,0,1,0,.06.13.13,0,0,0,0-.06h0s0,0,0,0h0a8,8,0,0,1,.52-1.86,14.55,14.55,0,0,1,1.07-1.93,2.27,2.27,0,0,1,.13-.65l-.25.27a10.28,10.28,0,0,0-2,3,10.79,10.79,0,0,0-.62,3.78l-.06,1.67c-.06,2.21-.11,4.43,0,6.64.06,1,.19,2.08.33,3.12s.3,2.2.53,3.28c.12.52.21,1,.36,1.55.1.34.2.69.31,1s.1.41.17.6c.21.55.41,1.11.62,1.66s.44,1.08.65,1.63c0,.09.08.17.11.26,0-.06-.05-.12-.07-.19.75,1.8,1.53,3.58,2.31,5.36.2.51.41,1,.61,1.52s.38,1,.56,1.57.38,1,.56,1.52.46,1.09.7,1.63.47,1,.71,1.46a11.08,11.08,0,0,0,.81,1.36,7.31,7.31,0,0,0,1.6,1.73,4.16,4.16,0,0,0,2.07.85,4.32,4.32,0,0,0,2.27-.38,5.08,5.08,0,0,0,2.1-2.06,15.93,15.93,0,0,0,1.38-3.17,15.5,15.5,0,0,0,.46-5.26c0-1,0-2-.08-3,0-.58-.08-1.16-.13-1.74s-.13-1.17-.21-1.75c-.14-1.07-.31-2.14-.54-3.19s-.47-2.09-.7-3.14-.47-2.14-.66-3.22-.39-2.17-.59-3.25-.38-2.2-.58-3.3c-.27-1.47-.51-2.95-.92-4.39a18,18,0,0,0-1.29-3.23l-.37-.72c-.13-.25-.29-.49-.44-.73l-.39-.65c-.15-.25-.33-.47-.49-.71l-.45-.61c-.2-.28-.43-.52-.64-.78-.43-.5-.88-1-1.34-1.47a10.75,10.75,0,0,0-1.71-1.52,3.46,3.46,0,0,0-1.2-.51,1.73,1.73,0,0,0-.45,0,3.82,3.82,0,0,0-.81.1Z"/><path class="cls-1" d="M183.31,19.36a3.24,3.24,0,0,0-2.12,1.21,3.27,3.27,0,0,0-.68,2.43,3.1,3.1,0,0,0,1.21,2.13c1.86,1.13,3.72,2.24,5.61,3.33a18,18,0,0,0,6.32,2.19,15.46,15.46,0,0,0,4,0A9.41,9.41,0,0,0,201,29.5a3.53,3.53,0,0,0,1.75-1.72A3.24,3.24,0,0,0,201,23.51a3.1,3.1,0,0,0-2.53,0,10.61,10.61,0,0,1-1.53.72c-.33.06-.64.09-1,.12a15.92,15.92,0,0,1-2.91-.4,31.72,31.72,0,0,1-5.43-2.73L185.75,20,185,19.6a3.25,3.25,0,0,0-1.29-.27l-.43,0Z"/><path class="cls-1" d="M162.46.48a22.83,22.83,0,0,0-5.62,1.36,3.18,3.18,0,0,0-1.75,1.72,3.27,3.27,0,0,0,0,2.53,3.34,3.34,0,0,0,1.72,1.75,3.43,3.43,0,0,0,2.52,0c.68-.22,1.37-.43,2.06-.63A14.12,14.12,0,0,1,164,6.9c.81,0,1.61.1,2.42.2a4.17,4.17,0,0,0-.66,1.68,4.86,4.86,0,0,0,.25,2.14,7.43,7.43,0,0,0,2.5,3.11A21.57,21.57,0,0,0,171.6,16c.54.3,1.09.57,1.64.82.83.39,1.65.78,2.49,1.15,1.7.75,3.42,1.47,5.17,2.14a102.19,102.19,0,0,0,10.43,3.22c.72.19,1.45.34,2.18.49.4.09.8.15,1.21.22a6,6,0,0,0,1.69.07,7.77,7.77,0,0,0,1.06-.25c.35.24.68.49,1,.75a3.25,3.25,0,1,0,4-5.09A21.64,21.64,0,0,0,200,17.82a7.2,7.2,0,0,0-.81-1.53,18.22,18.22,0,0,0-4-3.87,72.64,72.64,0,0,0-8.84-5.79c-1.54-.84-3.12-1.6-4.72-2.34a34.77,34.77,0,0,0-5-1.71,61,61,0,0,0-6.82-1.52,38.72,38.72,0,0,0-6.16-.61c-.39,0-.77,0-1.16,0Z"/><path class="cls-1" d="M160.59,2.84A4.79,4.79,0,0,0,159,4.12l-.68,1.13c-.11.39-.22.78-.32,1.18,0,.11,0,.23,0,.34a3,3,0,0,0,.1,1.33,5.61,5.61,0,0,0,.82,2,10.88,10.88,0,0,0,2.32,2.47c1.11.92,2.34,1.71,3.54,2.53a35,35,0,0,0,4.66,2.73c3.14,1.5,6.32,2.95,9.56,4.22s6.59,2.24,9.94,3.21q2.51.72,5,1.4A3.08,3.08,0,0,0,196.3,26a3.23,3.23,0,0,0,1.27-2.14,3.29,3.29,0,0,0-.62-2.41l-.59-.59a3.23,3.23,0,0,0-1.56-.68l-2-.53c-1.84-.54-3.69-1.07-5.53-1.63-2.2-.67-4.36-1.42-6.5-2.26-1.8-.7-3.57-1.52-5.34-2.31-1-.45-2-.92-3-1.4-.83-.4-1.63-.84-2.43-1.29l-1.63-1,1.75.24a3.25,3.25,0,1,0,.9-6.44c-1.69-.23-3.38-.48-5.06-.75-.76-.13-1.52-.24-2.28-.34a6.16,6.16,0,0,0-.95-.07,5,5,0,0,0-2.16.47ZM193,19.69l.27.08-.27-.08Z"/><path class="cls-1" d="M189.56,9.92a3.31,3.31,0,0,0-2.8,2.77,3.24,3.24,0,0,0,.21,1.69,3.43,3.43,0,0,0,1.71,1.75l1.21.7c1.63,1,3.25,2,4.81,3.15.86.62,1.7,1.25,2.54,1.89l0,0a2.61,2.61,0,0,0,.39.64c.09.12.19.22.29.33-1.32-.14-2.63-.34-3.94-.53-3.58-1.13-7.13-2.34-10.69-3.51-.38-.3-.76-.61-1.12-.94a15.74,15.74,0,0,1-1.43-2.15,3.12,3.12,0,0,0-2.14-1.27A3.26,3.26,0,0,0,175,17.23c0,.29,0,.58,0,.87a3.32,3.32,0,0,0,.63,1.54c.27.46.53.92.82,1.37a3.4,3.4,0,0,0,.24,1.26A3.21,3.21,0,0,0,178.36,24l1.92.61a18.55,18.55,0,0,0,3.83,2.11,33.14,33.14,0,0,0,6.5,1.65c.75.13,1.5.24,2.25.35s1.44.41,2.17.6a46.54,46.54,0,0,0,5.9,1c1.11.14,2.21.28,3.33.31a7.26,7.26,0,0,0,3-.37A3.94,3.94,0,0,0,208.92,29a3.23,3.23,0,0,0,1.72-4.2,6,6,0,0,0-.88-1.31l-.74-.82c-.48-.54-1-1.08-1.45-1.6-1.3-1.35-2.67-2.63-4-3.94-1.14-1.11-2.3-2.19-3.5-3.25a15.46,15.46,0,0,0-5.31-3c-.72-.24-1.45-.42-2.18-.62a9.15,9.15,0,0,0-2.29-.39,4.17,4.17,0,0,0-.71.06Z"/><path class="cls-2" d="M161.18.09A8.65,8.65,0,0,0,158,.78,4.2,4.2,0,0,0,155.85,4a8.33,8.33,0,0,0,.74,4,6.32,6.32,0,0,0,.71,1.2c.35.52.71,1,1.09,1.53a18.52,18.52,0,0,0,2.21,2.39c.86.77,1.76,1.53,2.68,2.23.73.56,1.46,1.08,2.23,1.59s1.32.78,2,1.17c1.56.9,3.13,1.77,4.73,2.6,1.41.72,2.77,1.55,4.2,2.24,1.71.84,3.4,1.76,5.14,2.56,1.53.7,3.07,1.36,4.66,1.94,1.19.44,2.4.91,3.63,1.24a27.25,27.25,0,0,0,4.85.69c.84.06,1.7.09,2.54.17s1.7.19,2.55.26a34.21,34.21,0,0,0,5.9.1l1.19-.12.81-.14a3.67,3.67,0,0,0,2.43-1.56,5.38,5.38,0,0,0,.66-1.86,5.07,5.07,0,0,0-.11-1.65,7.07,7.07,0,0,0-.69-1.69,16.82,16.82,0,0,0-1.11-1.76A3.5,3.5,0,0,0,207,19.57a3.24,3.24,0,0,0-4.11,2.05,3.54,3.54,0,0,0-.08,1.89c-1.29-.05-2.58-.15-3.87-.29-2.26-.23-4.56-.25-6.8-.62a46.21,46.21,0,0,1-5.09-1.73c-1.08-.4-2.13-.89-3.17-1.37-1.51-.76-3-1.52-4.54-2.26-1.69-.83-3.31-1.82-5-2.68s-3.16-1.77-4.73-2.67a28.33,28.33,0,0,1-4-3,19.45,19.45,0,0,1-2.29-2.43c.4,0,.81.06,1.22.11a8,8,0,0,1,1.08.36l.11,0a3.5,3.5,0,0,0,2.45.46,3.25,3.25,0,0,0,2.51-3.85,3.12,3.12,0,0,0-1.41-2,15,15,0,0,0-2.35-1,11.92,11.92,0,0,0-2.45-.47C164,0,163.47,0,163,0a17.88,17.88,0,0,0-1.79.09Z"/><path class="cls-3" d="M189.38,9.91a1.27,1.27,0,0,0-.78.54,1.25,1.25,0,0,0-.17,1,1.31,1.31,0,0,0,.53.77c.49.39,1,.81,1.5,1.17l.85.59c.24.17.51.31.76.46l.13.08.08.12a8.3,8.3,0,0,0,.61.82,4.5,4.5,0,0,0,.77.74,1.54,1.54,0,0,0,.47.26,2.51,2.51,0,0,0,.67.15,1.58,1.58,0,0,0,.79-.21,1.75,1.75,0,0,0,.6-.55,1.61,1.61,0,0,0,.25-.84v0a2,2,0,0,0,.28-.64l.06-.33c0-.15,0-.31,0-.46l-.15-.45a5.42,5.42,0,0,0-.37-.56,4,4,0,0,0-.3-.28c-.19-.16-.38-.31-.58-.45a3.22,3.22,0,0,0-1.85-.73,2,2,0,0,0-1.16.38l-.12.1c-.14-.1-.3-.2-.44-.31l-1.44-1.13a1.11,1.11,0,0,0-.67-.2l-.28,0Z"/><path class="cls-3" d="M191.81,8.71a3.14,3.14,0,0,0-1.36.22,2.49,2.49,0,0,0-1,1,3.81,3.81,0,0,0-.09,3.33,5.6,5.6,0,0,0,2.08,2.47,8.18,8.18,0,0,0,1.41.73,6.8,6.8,0,0,0,1.28.47,2,2,0,0,0,1.72-.31,1.61,1.61,0,0,0,.38-.4,1.64,1.64,0,0,0,.76-.15,1.66,1.66,0,0,0,.8-1.08,3.16,3.16,0,0,0-.75-2.48,6.66,6.66,0,0,0-1.7-1.69,3.93,3.93,0,0,0-.62-.3,2,2,0,0,0-.68-.16,4.34,4.34,0,0,0-1.08.08A1.49,1.49,0,0,0,193,10a1.27,1.27,0,0,0-1.18-1.3ZM194,15.44h0s0,0,0,.07v-.07Z"/><path d="M166.64,1.21c-1.14,0-2.28,0-3.42.05-.56,0-1.11.05-1.67.08a19,19,0,0,0-2,.24,8.45,8.45,0,0,0-2.3.73,3.21,3.21,0,0,0-1.44,1.36,2.35,2.35,0,0,0-.25,1,3.26,3.26,0,0,0,.19,1.07,5.81,5.81,0,0,0,.88,1.78,8.48,8.48,0,0,0,1.19,1.28c.85.76,1.73,1.48,2.61,2.21l1.69,1.41.84.71a12.66,12.66,0,0,0,2,1.32l.87.69a5.32,5.32,0,0,1,.46.37l1.39,1.24c.4.36.77.75,1.16,1.13a18.15,18.15,0,0,0,2.64,2.22c.47.32.93.64,1.41.94s1,.62,1.57.92c.93.55,1.89,1.07,2.84,1.6s1.73,1,2.62,1.46c2,1,4.11,2,6.16,3,.92.45,1.84.89,2.77,1.32s1.61.75,2.43,1.08a19.07,19.07,0,0,0,4.58,1.13,37.73,37.73,0,0,0,5.42.11c1.12,0,2.23-.09,3.34-.17.54-.05,1.07-.13,1.61-.19a14.13,14.13,0,0,0,3.85-.91,4.55,4.55,0,0,0,.87-.52,2.83,2.83,0,0,0,.66-.76,2.2,2.2,0,0,0,.3-1,3.23,3.23,0,0,0-.19-1.19c-.16-.5-.35-1-.55-1.48a20.91,20.91,0,0,0-1.56-3.1,15,15,0,0,0-2-2.62,30.59,30.59,0,0,0-3.37-2.85l-1.84-1.45-1.72-1.31,0,0-2.09-1.64-1.07-.83c-.38-.3-.78-.56-1.18-.84-.16-.11-.34-.21-.51-.31s-.35-.23-.53-.33c-.39-.19-.78-.41-1.18-.59-.91-.4-1.82-.78-2.74-1.16s-1.91-.84-2.84-1.33-1.92-1-2.89-1.52-2.07-1-3.14-1.45-2-.79-3.09-1.14l-1.54-.49c-.52-.17-1.05-.3-1.58-.44s-1.12-.26-1.68-.38-1-.16-1.51-.24c-.3-.05-.61-.06-.91-.09l-.79-.06c-.53,0-1.07-.06-1.6-.06l-2.47,0Zm-6,2A31.79,31.79,0,0,1,164,3l2.06,0,.23-.07a6.39,6.39,0,0,1,1-.12l.26,0A10.42,10.42,0,0,1,169,2.9h0l.91,0,1.57.05c.47,0,.93.06,1.39.1l.19,0a2.59,2.59,0,0,1,.48,0,2.66,2.66,0,0,1,1.19.28l.14.08.48.1.55.13a3,3,0,0,1,1.55.27c.5.21,1,.43,1.49.63l1.35.46c.41.16.84.3,1.25.47l1.13.46,1.27.59c.39.18.77.39,1.16.58.79.41,1.58.85,2.37,1.27s1.44.73,2.18,1.06,1.73.74,2.6,1.1l1.16.5c.37.16.72.37,1.08.55s.7.43,1,.64.63.44,1,.66c.91.72,1.82,1.45,2.75,2.17s1.91,1.46,2.88,2.19l2.73,2.18c.46.37.89.77,1.33,1.18a12.34,12.34,0,0,1,1,1.16c.21.3.42.59.62.9s.49.79.72,1.19.36.66.52,1,.34.73.5,1.1a12.26,12.26,0,0,1,.61,1.86V28a.94.94,0,0,1,0,.16l-.11.18-.17.16a4.71,4.71,0,0,1-.58.32,20.1,20.1,0,0,1-4.42.93c-1.11.1-2.21.19-3.32.23a38.69,38.69,0,0,1-5.8-.11h-.12a19,19,0,0,1-4.29-1.18c-2.1-.9-4.12-2-6.19-2.92s-3.93-1.8-5.8-2.89c-1.3-.76-2.62-1.51-3.93-2.26-.57-.32-1.14-.63-1.69-1l-1.19-.72c-.55-.33-1.08-.69-1.59-1.07-.71-.56-1.41-1.16-2.11-1.74-.49-.41-1-.77-1.53-1.15s-1-.65-1.47-1c-1-.6-2-1.17-2.89-1.86l-.69-.55c-.29-.33-.59-.65-.89-1-.47-.5-.95-1-1.43-1.48l-.78-.81-.39-.15a2.38,2.38,0,0,1-1.28-1.63,2.32,2.32,0,0,1-.08-.91,5.27,5.27,0,0,1-.14-.6,1.93,1.93,0,0,1,0-.34.19.19,0,0,1,0-.08l.13-.23a3,3,0,0,1,.26-.24,4.24,4.24,0,0,1,.59-.33,3.4,3.4,0,0,1,.34-.12.42.42,0,0,1,.14-.09,2.55,2.55,0,0,1,1.45-.38l.26,0,.25,0Zm-3.37,1.27s0,0,0,0,0,0,0,0Zm44.88,12.86.05,0-.05,0Zm2.55,12.42-.13,0,.13,0Z"/><path class="cls-4" d="M144.11,280.7a36.15,36.15,0,0,0-5.38.6,10.09,10.09,0,0,0-2.51.87,6.47,6.47,0,0,0-2.05,1.37,5.89,5.89,0,0,0-1.58,4.74,5.06,5.06,0,0,0,1.48,3.33,4.77,4.77,0,0,0,3.39,1.3,4.44,4.44,0,0,0,1-.13l.12.12a9.26,9.26,0,0,0,2.72,1.65c3.53,1.5,7.48,1.57,11.26,1.43,1.2-.05,2.41-.2,3.61-.31a19.78,19.78,0,0,0,4-.7,5.28,5.28,0,0,0,3.64-3.83,5,5,0,0,0-.21-2.83c-.16-.38-.33-.75-.49-1.13-.37-.49-.76-1-1.15-1.45a15,15,0,0,0-2-1.4,16.7,16.7,0,0,0-2.16-.85c-.76-.28-1.52-.55-2.3-.77-.34-.1-.69-.18-1-.26a4.28,4.28,0,0,0-2.2-1.19,16.51,16.51,0,0,0-2.68-.34h-.11a32.63,32.63,0,0,0-4-.24l-1.29,0Z"/><path class="cls-5" d="M142.63,280.06c-.5.07-1,.15-1.48.24a6.92,6.92,0,0,0-1.67.66c-.32.15-.64.31-.95.49a15.74,15.74,0,0,0-2.54,1.83,4.52,4.52,0,0,0-.51.56l-.5.7a8.63,8.63,0,0,0-.4,1.11,4.23,4.23,0,0,0,.09,2,7.66,7.66,0,0,0,1,1.92,11.67,11.67,0,0,0,4.8,3.89,39.36,39.36,0,0,0,6.23,1.72,22.08,22.08,0,0,0,4.59.4,25.46,25.46,0,0,0,2.88-.26,3.47,3.47,0,0,0,2.27-1,3.26,3.26,0,0,0-.12-4.6,3.14,3.14,0,0,0-2.32-.89,28.58,28.58,0,0,1-4.71.22c-1.06-.16-2.09-.41-3.13-.65a30.72,30.72,0,0,1-3-.82,7.55,7.55,0,0,1-.94-.48l-.21-.18.44-.23a5.75,5.75,0,0,1,.95-.25l-.12,0a3.22,3.22,0,0,0,1.77-.93,3.27,3.27,0,0,0-2.21-5.5Z"/><path class="cls-5" d="M139.84,283.35a3.26,3.26,0,0,0,.12,4.59,18.48,18.48,0,0,0,3.26,2.44c.75.42,1.48.82,2.19,1.28,1.17.9,2.31,1.83,3.47,2.73a3.47,3.47,0,0,0,2.33.9,3.28,3.28,0,0,0,3.16-3.34,3.14,3.14,0,0,0-1-2.27c-1.21-.94-2.39-1.91-3.6-2.83a22.29,22.29,0,0,0-2.28-1.55c-.63-.38-1.28-.7-1.91-1.08-.39-.32-.76-.65-1.14-1a3.39,3.39,0,0,0-2.27-.88,3.18,3.18,0,0,0-2.32,1Z"/><path class="cls-5" d="M141.4,282.05a3.27,3.27,0,0,0,1.34,4.4c2.07,1,4,2.31,5.95,3.51s4.23,2.31,6.38,3.38a3.25,3.25,0,0,0,3.07-5.74c-2.15-1.07-4.34-2.11-6.38-3.37s-3.88-2.51-6-3.52a3.64,3.64,0,0,0-1.54-.35,3.19,3.19,0,0,0-2.86,1.69Z"/><path class="cls-6" d="M153.39,284a3.25,3.25,0,1,0,3.16-3.33,3.3,3.3,0,0,0-3.16,3.33Z"/><path d="M150.57,280.06c-1,.05-2.09.12-3.14.22a32.27,32.27,0,0,0-3.25.5c-1,.23-2.06.46-3.09.71-.52.12-1,.25-1.55.42a13.26,13.26,0,0,0-1.58.62,9.08,9.08,0,0,0-2.42,1.55,4,4,0,0,0-.68.8,3.75,3.75,0,0,0-.48,1,3.66,3.66,0,0,0-.17,1.14c0,.23,0,.46.08.69a9.78,9.78,0,0,0,.22,1.18,5.16,5.16,0,0,0,.86,1.78,3.35,3.35,0,0,0,1.33,1.12l.24.1c.13.12.27.23.42.35l.62.44a14.37,14.37,0,0,0,1.35.83,17.19,17.19,0,0,0,2.94,1.22c.53.16,1.08.3,1.62.42l1.49.32a12.92,12.92,0,0,0,1.62.24l.86.06c.22,0,.44,0,.67,0h.29c1.07,0,2.14,0,3.21,0a28.36,28.36,0,0,0,3.2-.25,14.77,14.77,0,0,0,1.64-.28,12.55,12.55,0,0,0,1.58-.49c.23-.08.44-.18.67-.27a9,9,0,0,0,1-.48,5.36,5.36,0,0,0,1-.77,4.85,4.85,0,0,0,.63-.72,7.24,7.24,0,0,0,.57-.87,3,3,0,0,0,.34-1,3.85,3.85,0,0,0,0-1.31,5.89,5.89,0,0,0-.26-1c-.09-.21-.19-.42-.29-.62s-.24-.46-.37-.68a11,11,0,0,0-.87-1.27,17.28,17.28,0,0,0-2.19-2.49,20.64,20.64,0,0,0-2.73-1.88c-.23-.14-.45-.29-.68-.42a7,7,0,0,0-2-.78,7.14,7.14,0,0,0-1.53-.14l-1.11,0Zm0,1.43h.27l.69.07.91,0h.26a.54.54,0,0,1,.41.23l.46.14a8.6,8.6,0,0,1,1.37.74l.62.41c.46.29.91.59,1.36.9.28.21.56.43.82.66a6.83,6.83,0,0,1,.69.73c.41.5.81,1,1.19,1.54a8.9,8.9,0,0,1,.61.9c.16.28.31.56.45.85a4.36,4.36,0,0,1,.22.75,5,5,0,0,1,.06.87,2.68,2.68,0,0,1-.07.27,5.12,5.12,0,0,1-.47.82,6.52,6.52,0,0,1-.75.82,6.91,6.91,0,0,1-1.08.63c-.26.12-.52.24-.79.34s-.61.23-.92.33a10.94,10.94,0,0,1-1.53.33c-.76.1-1.52.2-2.29.26s-1.44.09-2.16.13l-2.4.15c-.42,0-.83,0-1.25,0s-.73,0-1.09,0l-1.67-.22c-.59-.08-1.19-.15-1.76-.28a25.34,25.34,0,0,1-3.45-1,19.87,19.87,0,0,1-1.79-.89,5.46,5.46,0,0,0,1,0s0,0,0,0l-.12,0h0a4.07,4.07,0,0,1-1-.19,2.66,2.66,0,0,1-.6-.32,3.59,3.59,0,0,1-.6-.57,4.66,4.66,0,0,1-.47-.77,5.28,5.28,0,0,1-.33-1l0-.05c0-.06,0-.11-.07-.18a2.51,2.51,0,0,1,0-.27c0-.1,0-.19,0-.28a.07.07,0,0,1,0-.05l0-.44c0-.32,0-.63,0-.94a3.66,3.66,0,0,1,.12-.5,4.84,4.84,0,0,1,.38-.67,5.77,5.77,0,0,1,.64-.67,7.57,7.57,0,0,1,1.45-.88l-.12.06c.27-.13.55-.26.84-.37s.7-.26,1.06-.38c.64-.21,1.31-.34,2-.49,1.28-.27,2.56-.58,3.86-.84,1-.16,2-.3,3.07-.39l.72-.05a.43.43,0,0,1,.23-.14,2.81,2.81,0,0,1,.65,0,4.07,4.07,0,0,1,.5,0Zm10.15,7.28a.43.43,0,0,1,0,.07l0-.07Zm-2.16,4.08-.09,0,.09,0Z"/><path class="cls-4" d="M183.76,304.77a6.46,6.46,0,0,0-2.4,1.4A5.22,5.22,0,0,0,180.1,308a7.51,7.51,0,0,0-.65,3c0,.45,0,.86,0,1.3a24.85,24.85,0,0,0,.29,3.22c.17,1.1.17,2.22.3,3.32.36,3.26,1.7,7.09,5.21,8.07a6.61,6.61,0,0,0,5-.6,11.56,11.56,0,0,0,4.3-4.06,9,9,0,0,0,1.37-4.65,5.48,5.48,0,0,0-1.71-4.29,4.75,4.75,0,0,0-1.49-1,13.75,13.75,0,0,0-1.88-4.34,10.16,10.16,0,0,0-2.66-2.61,6.55,6.55,0,0,0-1.71-.7,4.06,4.06,0,0,0-1.14-.13,5,5,0,0,0-1.58.21Z"/><path class="cls-5" d="M184.34,304.51a4.76,4.76,0,0,0-3.5,3.85,11.82,11.82,0,0,0-.22,2.31c0,.43-.06.87-.1,1.31-.07.91-.11,1.82-.15,2.73s0,1.9,0,2.85c0,.74,0,1.49.1,2.24a22.77,22.77,0,0,0,.53,3.39,9.51,9.51,0,0,0,3,4.36,3.25,3.25,0,0,0,4.48-4.71c-.38-.37-.75-.73-1.1-1.12l-.06-.09a9.45,9.45,0,0,1-.26-1.08,39.73,39.73,0,0,1-.26-4.87c0-1.09.05-2.17.12-3.25a3.37,3.37,0,0,0,1.42-.44,3.31,3.31,0,0,0,1.11-4.47,6.71,6.71,0,0,0-.57-.92,4.75,4.75,0,0,0-2.72-2.1,7.27,7.27,0,0,0-1-.09,3.37,3.37,0,0,0-.87.1Z"/><path class="cls-6" d="M190.54,315.44a3.31,3.31,0,0,0-1.49,2.05,3.25,3.25,0,0,0,.22,2.05L189,320a3.25,3.25,0,0,0,3.77,4.65,3.4,3.4,0,0,0,2-1.59,6.84,6.84,0,0,0,1.12-2.58,6.15,6.15,0,0,0-.09-2.26,6.75,6.75,0,0,0-.74-1.7,3.12,3.12,0,0,0-2-1.48,3,3,0,0,0-.73-.09,3.35,3.35,0,0,0-1.69.46Zm-1,3.59v0Z"/><path d="M183.65,304.19l.4.28h0a2.88,2.88,0,0,1,.45.41c.21.26.4.53.6.81a.51.51,0,0,1,.32.14,1.56,1.56,0,0,1,.23.28l.32.39c.15.16.29.32.43.49l.44.57.23.32.32.36c.2.27.4.53.58.82s.35.52.54.77a8.17,8.17,0,0,0,1.12,1.31,17,17,0,0,1,1.31,1.24,12,12,0,0,1,.75,1.11,5.14,5.14,0,0,0,.37.54c.34.44.72.84,1.08,1.26a6.13,6.13,0,0,1,.42.58,4.62,4.62,0,0,1,.67,1.11,4.85,4.85,0,0,1,.37,1.39,4.29,4.29,0,0,1,0,.8,2.53,2.53,0,0,1-.06.61,7.58,7.58,0,0,1-.42,1.3,5.72,5.72,0,0,1-.17.59,6.06,6.06,0,0,1-.62,1.15l.09-.11-.09.12,0,.05c-.11.14-.22.29-.35.44a6.44,6.44,0,0,1-.55.61,13.93,13.93,0,0,1-1.12,1.06,7.06,7.06,0,0,1-1,.62,6,6,0,0,1-1.22.39,12.55,12.55,0,0,1-2,.1c-.51,0-1,0-1.52-.07l-.73-.1a6,6,0,0,1-1.05-.3,4.15,4.15,0,0,1-.81-.42c-.13-.11-.24-.22-.36-.34s-.13-.21-.2-.33A7,7,0,0,1,182,323c-.22-2.12-.3-4.26-.41-6.39s-.16-4.12-.09-6.18c0-.9.05-1.79.13-2.68a6.56,6.56,0,0,1,.34-1.52,5.05,5.05,0,0,1,.39-.77h0a3.63,3.63,0,0,1,.48-.48h0l.12-.09s0,0,0,0a3.47,3.47,0,0,0-.72.48,3.24,3.24,0,0,0-.42.54,4.76,4.76,0,0,0-.61,1.38,12.67,12.67,0,0,0-.33,1.51c-.19,1.07-.32,2.15-.42,3.23a62.71,62.71,0,0,0-.24,6.43c0,1.05,0,2.11.09,3.17a16.45,16.45,0,0,0,.19,1.72c.06.34.11.67.19,1a5.64,5.64,0,0,0,.38,1,3.13,3.13,0,0,0,.75,1,4.53,4.53,0,0,0,1.57.89,6.38,6.38,0,0,0,1.29.38,17,17,0,0,0,1.75.15c.5,0,1,0,1.5,0a11.73,11.73,0,0,0,1.33-.11,6.09,6.09,0,0,0,1-.26,6.75,6.75,0,0,0,1-.46,7.46,7.46,0,0,0,1.63-1.22c.33-.31.64-.62.95-.94a9.09,9.09,0,0,0,.73-.91,7.06,7.06,0,0,0,.81-1.4,6,6,0,0,0,.44-1.6A13.33,13.33,0,0,0,196,319a9.5,9.5,0,0,0-.26-2.19,6.17,6.17,0,0,0-1.65-2.85c-.28-.28-.54-.57-.8-.86s-.36-.47-.52-.71a8.9,8.9,0,0,0-.88-1.05,8.42,8.42,0,0,0-1.06-.83,10.62,10.62,0,0,1-1.1-.91c-.28-.27-.53-.57-.79-.87s-.4-.49-.61-.72-.56-.55-.86-.81c-.48-.44-1.05-.8-1.53-1.25-.25-.23-.49-.46-.73-.71l-.44-.45a3.24,3.24,0,0,0-1.08-.66h0s0,0,0,0Zm10.41,17.31a.39.39,0,0,1,0,.09.39.39,0,0,0,0-.09Zm-3.8,4.15,0,0,0,0Z"/><path class="cls-4" d="M124.85,293.92a24.48,24.48,0,0,0-4,.76c-3.07.71-6.51,2.45-6.42,6.14a6.88,6.88,0,0,0,4.24,5.79,14.05,14.05,0,0,0,6,1.1c.93,0,1.87,0,2.8,0a27.23,27.23,0,0,0,4.24-.32l1.2-.19a4.7,4.7,0,0,0,2.12-1.29,4.76,4.76,0,0,0,1.31-3.39,4.82,4.82,0,0,0-1.48-3.33,5.27,5.27,0,0,0-1.64-1,4.75,4.75,0,0,0-.56-1.45,5,5,0,0,0-3-2.17,14,14,0,0,0-4.1-.62l-.68,0ZM122,297.58l.28.21a2.55,2.55,0,0,1-.28-.21Z"/><path class="cls-4" d="M129.76,302.17a4.75,4.75,0,1,0,4.63-4.88,4.81,4.81,0,0,0-4.63,4.88Z"/><path class="cls-5" d="M121.18,295.55a12.71,12.71,0,0,0-4.73,1.38,4.06,4.06,0,0,0-2.17,2.59,3.89,3.89,0,0,0,.61,3,5.9,5.9,0,0,0,2.3,1.84,25,25,0,0,0,7,1.86c1.71.19,3.42.33,5.14.45a3.11,3.11,0,0,0,2.27-1,3.23,3.23,0,0,0,.9-2.32,3.3,3.3,0,0,0-1-2.28,3.48,3.48,0,0,0-2.32-.89c-1.28-.09-2.57-.2-3.85-.32l-1-.13a3.22,3.22,0,0,0,.14-1,3.3,3.3,0,0,0-3.08-3.18Z"/><path class="cls-5" d="M120.63,298.6a3.25,3.25,0,1,0,3.16-3.34,3.28,3.28,0,0,0-3.16,3.34Z"/><path class="cls-6" d="M130.14,299.77a3.25,3.25,0,1,0,3.16-3.34,3.28,3.28,0,0,0-3.16,3.34Z"/><path d="M126.3,294.68l-.35.09a.58.58,0,0,1-.39,0l-.71,0c-.57,0-1.13.1-1.69.17a13.49,13.49,0,0,0-1.65.36,11,11,0,0,0-1.44.56,17.29,17.29,0,0,0-1.56.76c-.73.4-1.44.83-2.14,1.26a7.21,7.21,0,0,0-.92.64,6.65,6.65,0,0,0-.87.89,7.08,7.08,0,0,0-.65.9,2.6,2.6,0,0,0-.27,1.16h0l.12-.42a2.21,2.21,0,0,0,.66,1.19,6.67,6.67,0,0,0,.84.54c.45.27.9.53,1.34.81.9.55,1.85,1,2.74,1.61a10.7,10.7,0,0,0,1.22.74c.48.22,1,.42,1.44.63l.86.34a5.09,5.09,0,0,0,.77.19,8.75,8.75,0,0,0,1.13.15h.57a.25.25,0,0,1,.15.05H126c.25,0,.5,0,.74,0h.17a.25.25,0,0,1,.2.09l.46,0,1.13-.06c.45-.05.9-.12,1.35-.19.78-.13,1.55-.29,2.32-.46s1.47-.36,2.22-.52a23.24,23.24,0,0,0,3-.53A4.4,4.4,0,0,0,139,305a1.68,1.68,0,0,0,.63-.85,2.07,2.07,0,0,0,0-1.13,4.82,4.82,0,0,0-.8-1.68,8.25,8.25,0,0,0-1.11-1.1c-.38-.33-.79-.65-1.17-1s-.73-.7-1.12-1-.94-.72-1.43-1.05-.92-.55-1.38-.82a9.59,9.59,0,0,0-1.36-.68,16.59,16.59,0,0,0-2.25-.77,7.56,7.56,0,0,0-.83-.14c-.2,0-.4,0-.59,0l-.3,0h-.29l-.62,0Zm-9.76,3.87.63-.3,1-.47c.67-.3,1.33-.6,2-.83.36-.12.72-.25,1.09-.34a10.64,10.64,0,0,1,1.09-.24c.42-.06.83-.1,1.25-.13s.88,0,1.31-.05l1.2,0h0l.94,0h.15a.71.71,0,0,1,.25.06h.16a12.7,12.7,0,0,1,2.42.64l.88.37a8.26,8.26,0,0,1,.92.51c.57.35,1.14.7,1.69,1.08.27.21.54.43.79.66s.62.58.92.88c.67.66,1.48,1.18,2.1,1.89a4.15,4.15,0,0,1,.35.57,3.83,3.83,0,0,1,.21.68v.08l-.23.14a9.18,9.18,0,0,1-1.72.5c-.48.07-1,.14-1.44.23s-1,.21-1.47.33c-.91.22-1.84.44-2.77.61h0l-.12,0h.06c-.51.08-1,.16-1.53.22s-1.09.1-1.62.14-1.07.07-1.6.05-1,0-1.56-.07l-.68-.12c-.26-.06-.51-.15-.77-.23l-1.41-.47c-.5-.22-1-.46-1.47-.7s-1-.48-1.59-.69-1.14-.48-1.71-.72l-.76-.33a7.55,7.55,0,0,1-1-.48,1.8,1.8,0,0,1-.29-.26v0h0a3.3,3.3,0,0,1-.34-.57l-.06-.13h0l0-.09h0a3.9,3.9,0,0,1,.19-.35h0a7.88,7.88,0,0,1,1.15-1.16l0,0a7.31,7.31,0,0,1,1.4-.88Zm21.4,5-.07.06.07-.06Z"/><path class="cls-4" d="M163.08,306.11l-.4.13a4.75,4.75,0,0,0-1.3.63,6,6,0,0,0-1.17.95,5.24,5.24,0,0,0-1,5.29,8.61,8.61,0,0,0,4.43,4.74,7.73,7.73,0,0,0,5.26.77h0c.49.15,1,.29,1.48.41a4.75,4.75,0,0,0,2.17-9.25c-.39-.09-.78-.2-1.16-.31A4.5,4.5,0,0,0,168,306.2a19,19,0,0,0-3-.34,6.08,6.08,0,0,0-1.85.25Z"/><path class="cls-5" d="M163.05,305.59a9.18,9.18,0,0,0-1.38.2,3.84,3.84,0,0,0-2.3,1.95,4.32,4.32,0,0,0-.18,3.18,6.38,6.38,0,0,0,1.46,2.35c.42.5.86,1,1.32,1.41a15.45,15.45,0,0,0,2,1.54,17,17,0,0,0,4.36,2,3.12,3.12,0,0,0,2.42-.38,3.27,3.27,0,0,0,1.11-4.46,3.47,3.47,0,0,0-2.05-1.49l-.49-.16a13.79,13.79,0,0,1-2.18-1.16c-.3-.24-.59-.5-.87-.77a3.4,3.4,0,0,0,.13-1,3.29,3.29,0,0,0-3.13-3.17Z"/><path class="cls-6" d="M170.81,307.43a3.24,3.24,0,0,0-3.17,3.33,3.52,3.52,0,0,0,1,2.27c.36.41.71.83,1.06,1.24a3.12,3.12,0,0,0,2.32.89,3.24,3.24,0,0,0,3.17-3.33,3.57,3.57,0,0,0-1-2.28l-1.06-1.23a3.12,3.12,0,0,0-2.25-.89Z"/><path d="M166,306.3a13.18,13.18,0,0,0-1.41.12c-.53.05-1,.13-1.57.22a6.58,6.58,0,0,0-1,.25,4,4,0,0,0-1.64.92,2.27,2.27,0,0,0-.26.28c.12-.17.25-.33.38-.49s0,0,0,0a3,3,0,0,0-1,1.31,3.27,3.27,0,0,0,.1,2,7.6,7.6,0,0,0,1,1.8c.27.41.59.79.89,1.18s.41.52.63.77a10.32,10.32,0,0,0,1.16,1.13l1,.83a8.12,8.12,0,0,0,1.87,1.08,10.71,10.71,0,0,0,1.58.49c.45.11.9.22,1.36.29a10.34,10.34,0,0,0,3.19-.05,4.09,4.09,0,0,0,1.81-.72,2.67,2.67,0,0,0,1.08-1.55,4.89,4.89,0,0,0-.14-1.86,7,7,0,0,0-.83-2.12c-.25-.45-.54-.89-.82-1.31a18.1,18.1,0,0,0-1.28-1.74,6.88,6.88,0,0,0-2.11-1.46,22.68,22.68,0,0,0-2.1-1,5.11,5.11,0,0,0-1.82-.3Zm-2.11,1c.75,0,1.5,0,2.24,0a4.71,4.71,0,0,1,1,.21,13.64,13.64,0,0,1,1.86,1.05c.43.26.86.53,1.28.81a4.54,4.54,0,0,1,.75.7c.42.53.76,1.11,1.12,1.67a16.29,16.29,0,0,1,1,1.76,6.89,6.89,0,0,1,.38,1.27,6.38,6.38,0,0,1,.07.87c0,.06,0,.12,0,.18l-.09.17-.23.24c-.14.1-.29.19-.44.28a3.75,3.75,0,0,1-.81.23,12.66,12.66,0,0,1-2.75.14,12.91,12.91,0,0,1-3-.62,9.52,9.52,0,0,1-1.91-1.09l-.52-.38-.11-.08-.07-.05,0,0a13.34,13.34,0,0,1-1.79-1.66c-.37-.39-.73-.79-1.09-1.2h0l0,0,0,0,0,0a6.18,6.18,0,0,1-.8-1.23,4.36,4.36,0,0,1-.26-.87v0a3.33,3.33,0,0,1,0-.55,1.83,1.83,0,0,1,.07-.32,4.7,4.7,0,0,1,.59-.59h0a4.32,4.32,0,0,1,.79-.49l-.05,0a5.8,5.8,0,0,1,1.1-.32h0a12.37,12.37,0,0,1,1.72-.17Zm-3.79.88h0Zm10.17,1.23.09.06-.09-.06Zm3.14,6.69,0,.05,0-.05Zm-4.28.8h0Zm-5.35-2.13-.07-.06.07.06Zm-3-2.94v0a.05.05,0,0,0,0,0v0Zm-1.07-2.13h0Z"/><path class="cls-7" d="M185.87,168.52c-2,0-4.08.24-6.11.44a65.9,65.9,0,0,0-6.69,1,32.82,32.82,0,0,0-6.07,1.72,8.75,8.75,0,0,0-1.8.93,6.28,6.28,0,0,0-1.75,1.77,3.87,3.87,0,0,0-.69,1.84c0,.35-.07.69-.11,1a3.58,3.58,0,0,0,.4,1.61c.13.31.27.62.4.94l.42.54a4.8,4.8,0,0,0-.05.67,4.53,4.53,0,0,0,.7,2.19,6.13,6.13,0,0,0,3.63,2.44,11.08,11.08,0,0,0,2.38.31,14.77,14.77,0,0,0,1.63,0c.58,0,1.16-.07,1.73-.1a34.22,34.22,0,0,0,3.64-.49c1-.17,2.07-.33,3.07-.6l.28-.08.57,0c.83,0,1.67-.09,2.5-.16a39.87,39.87,0,0,0,6.94-1.14,17.34,17.34,0,0,0,2.78-1.07,5.56,5.56,0,0,0,2.79-3.7,3.62,3.62,0,0,0,.11-1,4,4,0,0,0,1.05-2.19,4.71,4.71,0,0,0,0-2.63,5.64,5.64,0,0,0-3.11-3.41,13,13,0,0,0-5.38-.9h-3.28Z"/><path class="cls-8" d="M170.89,171.34a9.5,9.5,0,0,0-1.68.19,3.44,3.44,0,0,0-1.44.69h-.35a2.27,2.27,0,0,0-2.2,2.3,2.21,2.21,0,0,0,.16.78l-.1.17a9.76,9.76,0,0,0-.51.89,5.09,5.09,0,0,0-.49,2,4.4,4.4,0,0,0,.57,2.09,5.33,5.33,0,0,0,1.94,2.06,11.06,11.06,0,0,0,4.22,1.83,17.7,17.7,0,0,0,3.78.22l3.79-.1a42.32,42.32,0,0,0,5.93-.64l1-.14A32,32,0,0,0,189,183a10.06,10.06,0,0,0,3.26-1.4,4.6,4.6,0,0,0,1.5-1.63,3.2,3.2,0,0,0,.17-.43,2.51,2.51,0,0,0,.9-1.95,3,3,0,0,0-1.3-2.32,4.57,4.57,0,0,0-1.21-1.15,11.17,11.17,0,0,0-4.29-1.43c-1.13-.19-2.28-.25-3.42-.33-2.22-.15-4.44-.29-6.67-.34l-3.12-.42a25.39,25.39,0,0,0-3.15-.24h-.8Z"/><path class="cls-9" d="M189.45,168.29a2.7,2.7,0,0,0-1.9.73,2.58,2.58,0,0,0-.69,1.21,2.52,2.52,0,0,0,.72,2.34,6.32,6.32,0,0,0,2.47,1.36,6.65,6.65,0,0,0,1.91.57c.61.08,1.22.15,1.84.21l.55,0a4,4,0,0,0,.49,0,2.69,2.69,0,0,0,1.26-.41,2.18,2.18,0,0,0,1.1-2,3.3,3.3,0,0,0-.39-1.33,4.26,4.26,0,0,0-1.64-1.39,9.06,9.06,0,0,0-2.91-1c-.39-.07-.8-.12-1.21-.17l-.23,0a2.13,2.13,0,0,0-.79-.15,2.32,2.32,0,0,0-.58.08Z"/><path class="cls-9" d="M179.39,169.49a2.29,2.29,0,0,0,2.3,2.2h.11l.3.05a2.25,2.25,0,1,0,1.06-4.37,7.56,7.56,0,0,0-1.57-.18,2.25,2.25,0,0,0-2.2,2.3Z"/><path d="M185.69,168.41c-1,0-2.05.05-3.08.1l-1.45.11-1.61.13c-1.08.1-2.15.24-3.22.44l-.75.14-.85.2c-.47.12-.94.25-1.4.39s-1,.27-1.55.43l-.46.15a2.37,2.37,0,0,0-.34.13,7.43,7.43,0,0,0-.76.35c-.24.12-.47.26-.71.41a6.65,6.65,0,0,0-.63.39A20.27,20.27,0,0,0,167.1,173a4.54,4.54,0,0,0-.63.61,4.89,4.89,0,0,0-.59.84c-.18.3-.34.6-.49.91a10,10,0,0,0-.49,1.17c-.14.4-.25.81-.36,1.21l-.24,1s0,0,0,0l.48-1.26c.13-.32.27-.64.42-.95a1.13,1.13,0,0,1,0,.15,6.31,6.31,0,0,0-.14.87c0,.28,0,.55,0,.83s0,.59,0,.88a7.71,7.71,0,0,0,.24,1.79,5.49,5.49,0,0,0,.95,1.94,5.64,5.64,0,0,0,.66.72,5.17,5.17,0,0,0,.71.52,9.37,9.37,0,0,0,1.91.87,11.29,11.29,0,0,0,1.7.39c.28,0,.56.09.84.11a14.69,14.69,0,0,0,1.62.11h.83l1,0,1.66-.12,1.4-.11,1-.09c.28,0,.57-.07.85-.1l.66-.1.73-.12,1-.19c.27-.05.53-.12.8-.18,1.06-.25,2.11-.54,3.16-.83l.6-.17.74-.25c.24-.08.49-.16.73-.26l.91-.4c.22-.09.44-.2.65-.3l.65-.31.5-.25.3-.16.78-.45,1.3-.79q.47-.27.93-.57a8.81,8.81,0,0,0,1.66-1.39,16.54,16.54,0,0,0,1.35-1.77,8.44,8.44,0,0,0,.8-1.32,5.73,5.73,0,0,0,.51-2,2.51,2.51,0,0,0-.27-1.5,4.06,4.06,0,0,0-1.52-1.36,8.43,8.43,0,0,0-1.2-.5c-.25-.1-.52-.17-.78-.26l-1.55-.47c-.24-.07-.49-.12-.73-.18s-.49-.12-.74-.16c-.53-.1-1.06-.2-1.61-.27l-1.5-.18c-.55-.07-1.1-.12-1.66-.14h-1.81Zm-19.21,6.07c.13-.16.27-.31.41-.46a1.18,1.18,0,0,1,.11-.19c.06-.08.12-.14.18-.21a1.62,1.62,0,0,1,.45-.34,1,1,0,0,1,.41-.15h0l1.08-.65,1.38-.78.5-.24a3,3,0,0,1,.32-.12l.29-.11c.2-.06.4-.13.6-.18l.69-.19c.85-.25,1.7-.49,2.55-.7l1.38-.26c.5-.09,1-.16,1.51-.23s.95-.1,1.42-.14l1.54-.11c.52,0,1-.08,1.56-.1l1.61-.07c1,0,2.05,0,3.07,0h-.11l1,.06,1,.11.9.11c.37,0,.73.1,1.09.15.65.11,1.29.27,1.92.42s1.22.37,1.82.56a10.29,10.29,0,0,1,2,.83l.16.11a.7.7,0,0,1,.17.09.52.52,0,0,1,.11.1.46.46,0,0,1,.18.16.56.56,0,0,1,.05.08l.09.09a3.12,3.12,0,0,1,.25.35l.09.27a3.77,3.77,0,0,1,0,.68v-.11a1,1,0,0,1,0,.17h0a1.76,1.76,0,0,1-.08.65c0,.15-.08.3-.12.44h0v0s0,0,0,0,0,0,0,0c-.08.22-.16.44-.26.65a7.78,7.78,0,0,1-.48.85c-.19.29-.38.56-.58.83a11.54,11.54,0,0,1-1.35,1.6,10.6,10.6,0,0,1-1.56,1.12l-.86.51c-.55.33-1.09.66-1.65,1h0l-.89.44c-.34.17-.69.34-1,.49s-.7.32-1,.45l-.72.26c-.17.07-.35.11-.53.17-1.47.46-3,.82-4.49,1.17l-1.1.2-1.17.18c-.43.05-.86.1-1.29.13l-1.36.11c-.78.06-1.56.13-2.34.16-.44,0-.87,0-1.31,0h-.62l-.71,0h.1c-.34,0-.69-.06-1-.11l-.55-.09a11.34,11.34,0,0,1-1.51-.34,9.35,9.35,0,0,1-1.83-.88c-.18-.12-.34-.24-.5-.37a6.14,6.14,0,0,1-.45-.43,0,0,0,0,1,0,0s0,0,0,0h0l0,0h0s0,0,0,0l0,0a6.62,6.62,0,0,1-.67-1h0v0h0v0h0a7,7,0,0,1-.46-1.26c-.07-.38-.13-.77-.17-1.17,0-.2,0-.4-.05-.59a11.69,11.69,0,0,1,0-1.32c0-.23,0-.46.07-.68a2.75,2.75,0,0,1,.15-.63,6.27,6.27,0,0,1,.51-1h0l.38-.54s0,0,0,0l-.16.17,0-.07Zm31.68-2v0a0,0,0,0,1,0,0ZM166,175.12l0,0,0,0Zm31.32.91,0,0,0,0Z"/><path class="cls-10" d="M233.16,326.79a8.42,8.42,0,0,0-.8,1.69A10.78,10.78,0,0,0,232,331a7.84,7.84,0,0,0,.3,2.26,8.4,8.4,0,0,0,.95,2.12c1.52,2.67,4.49,4.07,7.42,4.48a20.06,20.06,0,0,0,2.68.24l1.66-.22,1.32-.55a23.09,23.09,0,0,0,2.88.08,3.75,3.75,0,1,0,0-7.5h-.65l-.18-.33a10.22,10.22,0,0,0-1.65-2,12.14,12.14,0,0,0-2.26-1.63,13.42,13.42,0,0,0-3.84-1.58,13,13,0,0,0-1.41-.23,3.61,3.61,0,0,0-.88-.71,3.66,3.66,0,0,0-1.86-.5,3.78,3.78,0,0,0-3.27,1.84Z"/><path class="cls-8" d="M233.65,327.46a2.23,2.23,0,0,0-.66,1.6,11.6,11.6,0,0,0,.38,2.26,7.62,7.62,0,0,0,.89,1.84,14.68,14.68,0,0,0,2.09,2.49,11.61,11.61,0,0,0,6,3A28.91,28.91,0,0,0,246,339a2.25,2.25,0,1,0,0-4.5c-.65,0-1.3-.07-2-.13a15.36,15.36,0,0,1-2.49-.62,11.4,11.4,0,0,1-1.59-.93,14.77,14.77,0,0,1-1.47-1.49,9.62,9.62,0,0,1-.73-1.18,5.77,5.77,0,0,1-.2-.82l0-.26a2.37,2.37,0,0,0-.65-1.6,2.28,2.28,0,0,0-3.19,0Z"/><path class="cls-11" d="M241,330.19a2.27,2.27,0,0,0,1.57,2.77c1,.24,1.93.56,2.89.88a2.25,2.25,0,0,0,2.76-1.57,2.28,2.28,0,0,0-1.57-2.77c-1-.32-1.9-.64-2.88-.88a2.22,2.22,0,0,0-.57-.07,2.26,2.26,0,0,0-2.2,1.64Z"/><path d="M236.62,326.33c-.52,0-1,0-1.56.08a4.22,4.22,0,0,0-1.74.47,1.73,1.73,0,0,0-.83,1.33,3.64,3.64,0,0,0,.06,1,5.56,5.56,0,0,0,.29,1.22,6,6,0,0,0,.43.93,2.85,2.85,0,0,0,.23.37,3.32,3.32,0,0,0,.26.36,6,6,0,0,0,.5.63l.36.94a6.58,6.58,0,0,0,.29.66,8.72,8.72,0,0,0,1,1.61,8.26,8.26,0,0,0,1.37,1.46,8.62,8.62,0,0,0,1.51,1,13.12,13.12,0,0,0,1.31.63,4.81,4.81,0,0,0,1.06.25,5.59,5.59,0,0,0,.91.08c1.1,0,2.19,0,3.28,0,.48,0,1-.06,1.43-.12a19,19,0,0,0,2.1-.32,4.62,4.62,0,0,0,1.7-.74,2.11,2.11,0,0,0,.57-.65,1.69,1.69,0,0,0,.19-.8,5.48,5.48,0,0,0-.05-.57c0-.14,0-.28-.07-.42s-.05-.23-.07-.34A2.78,2.78,0,0,0,251,335c-.1-.27-.2-.53-.32-.79a5.25,5.25,0,0,0-.36-.66,8.92,8.92,0,0,0-.9-1.22,9.91,9.91,0,0,0-1.06-1.09l-.67-.52c-.23-.17-.47-.33-.72-.49-.44-.29-.91-.54-1.37-.8s-.84-.47-1.25-.72c-.23-.13-.46-.27-.7-.39s-.52-.26-.79-.39c-.5-.23-1-.42-1.54-.61s-1-.36-1.52-.54a6.81,6.81,0,0,0-2.6-.48Zm-.35.88a11.19,11.19,0,0,1,1.92,0h-.12a7.55,7.55,0,0,1,1.14.27l.61.21.89.31c.6.21,1.18.43,1.77.67l-.1,0c.19.09.4.17.58.27s.46.24.69.38c.46.27.91.54,1.38.8l.68.38.64.38c.39.23.76.5,1.13.77l.41.33.18.18.2.2c.26.28.51.57.74.86s.38.54.56.82a5.2,5.2,0,0,1,.32.62l.07.05a.94.94,0,0,1,.25.47.64.64,0,0,0,0,.07s0,.08.05.13a3.32,3.32,0,0,1,.18.77,1.84,1.84,0,0,1,0,.62.4.4,0,0,1-.08.16l0,.12c-.05.09-.09.17-.15.26l-.17.16a3.73,3.73,0,0,1-.7.4,11.35,11.35,0,0,1-2.24.5,11.82,11.82,0,0,1-1.18.13c-.47,0-.93.06-1.4.06l-1.34,0a15.09,15.09,0,0,1-1.9-.07c-.22,0-.43-.08-.65-.13a4.44,4.44,0,0,1-.61-.22c-.33-.15-.65-.31-1-.48a9,9,0,0,1-1.54-1h0l0,0a9.45,9.45,0,0,1-.75-.67,8.59,8.59,0,0,1-.84-1h0a8.09,8.09,0,0,1-.53-.77l-.33-.57c-.05-.09-.09-.19-.14-.28l0-.06,0,0c.24.22.49.43.72.65s.48.48.71.72c0,0,0,0,0,0-.15-.22-.31-.43-.47-.64s-.23-.29-.35-.44-.5-.57-.74-.86l-.25-.33c-.1-.13-.19-.28-.28-.42a8.67,8.67,0,0,1-.5-.9l-.16-.4a4.72,4.72,0,0,1-.3-1.16,7.05,7.05,0,0,1-.05-1.12c0-.1.05-.2.08-.3a2.54,2.54,0,0,1,.16-.28l.08-.08a2.5,2.5,0,0,1,.35-.21,3.73,3.73,0,0,1,.86-.21h0c.5-.05,1-.09,1.49-.11Zm-2.83.65s0,0,0,0,0,0,0,0Zm17,9s0,0,0,.06,0,0,0-.06Zm-1,.91-.07,0,.07,0Zm-2.2.52h0Z"/><path class="cls-10" d="M208.4,327.51a7.8,7.8,0,0,0-3.8,1.77,8.07,8.07,0,0,0-2.41,4q-.23.19-.45.42a12.34,12.34,0,0,0-1.26,1.62c-.07.11-.13.22-.19.33a19,19,0,0,0-1.44,1.81c-1.32,1.88-2.51,4.77-1.23,7a5.06,5.06,0,0,0,1.57,1.62,9,9,0,0,0,1.64.76,6.59,6.59,0,0,0,2,.27l.59-.05a7.5,7.5,0,0,0,1.49-.26c.47-.17.93-.35,1.38-.56a15.46,15.46,0,0,0,1.47-.73,11.56,11.56,0,0,0,2.83-2.53l.08-.09a14.94,14.94,0,0,0,3-2.88,17.23,17.23,0,0,0,2-2.93,10.19,10.19,0,0,0,1-3.61,5.4,5.4,0,0,0-.76-3.3,6.06,6.06,0,0,0-3.54-2.47c-.53-.11-1.07-.18-1.61-.24l-.76,0a9.21,9.21,0,0,0-1.63.14Z"/><path class="cls-8" d="M201.09,333.53c-.37.55-.78,1.1-1.09,1.68a11.23,11.23,0,0,0-.89,2.08,11.34,11.34,0,0,0-.34,1.83,20.14,20.14,0,0,0-.13,2.2,9.92,9.92,0,0,0,.13,1.8c.1.27.21.53.33.79l.54.7c.24.19.48.38.74.55a3.89,3.89,0,0,0,.94.39,7.16,7.16,0,0,0,2,.3,7.49,7.49,0,0,0,2.66-.3,11.32,11.32,0,0,0,2.25-1c.42-.22.81-.48,1.21-.74a17.79,17.79,0,0,0,2.28-1.88l.11-.07a12.08,12.08,0,0,0,1.53-1.13,3.49,3.49,0,0,0,1.05-1.21,2.4,2.4,0,0,0,.23-1.74A2.35,2.35,0,0,0,213,336.2a2.84,2.84,0,0,0-2.8.88,9,9,0,0,1-1.27,0,8.77,8.77,0,0,1-1.12-.29,2.33,2.33,0,0,0-.5-.76l-.23-.2a1.92,1.92,0,0,0-.63-1.06,2.56,2.56,0,0,0-1.27-.64,2.39,2.39,0,0,0-1.05-1.4,2.12,2.12,0,0,0-1.1-.3,2.4,2.4,0,0,0-2,1.11Z"/><path class="cls-8" d="M211.7,336.77a15.49,15.49,0,0,1-1.6,1.64c-.29.25-.59.49-.89.73s-.38.26-.58.37-.63,0-.94,0l-.72-.15a2.4,2.4,0,0,0-1.74.23,2.25,2.25,0,0,0,.54,4.11,8.09,8.09,0,0,0,4.31.09,9.38,9.38,0,0,0,2.7-1.76l.75-.62a13,13,0,0,0,1.35-1.43,2.35,2.35,0,0,0,.66-1.59,2.27,2.27,0,0,0-.66-1.59,2.4,2.4,0,0,0-1.66-.66,2,2,0,0,0-1.52.66Zm-4.47,2.65.16,0-.16,0Z"/><path class="cls-11" d="M210.32,329.2a2.25,2.25,0,0,0,0,4.5l.41,0a10.7,10.7,0,0,1,.68.83,2.17,2.17,0,0,0,1.59.66,2.24,2.24,0,0,0,2.25-2.25,2.49,2.49,0,0,0-.65-1.6,7.41,7.41,0,0,0-1.62-1.59,3.76,3.76,0,0,0-2.15-.55l-.51,0Z"/><path d="M211.16,328.45c-.33,0-.66.08-1,.14a7.06,7.06,0,0,0-2,.73,11.35,11.35,0,0,0-1,.62l-1,.7c-.7.51-1.42,1-2.07,1.58a10.42,10.42,0,0,0-1.2,1.29c-.09.11-.17.23-.25.34l-.31.44-.56.91c-.27.46-.53.92-.79,1.38,0,0,0,0,0,0,.37-.48.74-1,1.12-1.45h0l.49-.6c.14-.18.29-.34.45-.52s.31-.33.47-.49.62-.58,1-.85h0c.37-.27.76-.54,1.14-.79a3.07,3.07,0,0,1,.29-.24l.43-.34c.15-.11.3-.24.46-.34s.63-.39.95-.58c.14-.08.28-.16.43-.23l.49-.23a2,2,0,0,1,.26-.09l.21-.09h0l.09,0-.06,0a7.53,7.53,0,0,1,1.48-.4,8.92,8.92,0,0,1,1.71-.09,2.64,2.64,0,0,1,.48.14c.2.11.39.23.58.36a17.14,17.14,0,0,1,1.34,1.22c.22.2.43.4.63.62s.33.39.5.59l.25.35a4,4,0,0,1,.31.58v0h0c.07.2.14.4.2.6s.08.42.11.62v-.05a8.37,8.37,0,0,1,0,1.73,1.58,1.58,0,0,1-.11.37,10.76,10.76,0,0,1-1,1.73l-.51.72-1.08,1.47h0c-.09.11-.17.22-.26.32s-.18.22-.28.32a4.32,4.32,0,0,1-.5.45,28.68,28.68,0,0,1-2.64,1.52c-.37.21-.73.45-1.09.69l-.56.41a6,6,0,0,1-1,.6l0,0,0,0a11.75,11.75,0,0,1-1.31.42c-.43.11-.87.19-1.32.26h.05c-.92.11-1.84.16-2.76.23,0,0,0,0,0,0a22.2,22.2,0,0,0,3.26.09,12.92,12.92,0,0,0,1.52-.21,5.43,5.43,0,0,0,2-.86c.43-.28.85-.54,1.29-.78s.94-.49,1.41-.72a11,11,0,0,0,1.59-.93,4.92,4.92,0,0,0,.64-.57,3.87,3.87,0,0,0,.32-.37c.17-.2.33-.43.49-.64.33-.44.66-.88,1-1.33.15-.2.29-.41.44-.62a13.79,13.79,0,0,0,1-1.69,2.2,2.2,0,0,0,.24-.83,3.18,3.18,0,0,0,0-.62c0-.27,0-.54-.05-.81s0-.27,0-.41a6.53,6.53,0,0,0-.19-.9,4,4,0,0,0-.38-.94,4.31,4.31,0,0,0-.56-.83c-.17-.2-.33-.4-.5-.59s-.41-.42-.62-.62c-.42-.41-.84-.82-1.29-1.18a3.12,3.12,0,0,0-1.67-.78h-.35c-.3,0-.6,0-.9,0Zm-.46.89h0Zm0,0h0Zm-2.89,15.29h0Z"/><path class="cls-4" d="M39.47,343.48a3.19,3.19,0,0,0-1.2.07,7.36,7.36,0,0,0-1.19.43,11.21,11.21,0,0,0-1.18.87,13.06,13.06,0,0,0-1.84,2c-.37.46-.73.92-1.08,1.41a17.64,17.64,0,0,0-1.9,3.46c-.14.33-.26.67-.39,1a8.61,8.61,0,0,0-.4,2.14,6.91,6.91,0,0,0,.18,1.29,4.73,4.73,0,0,0,1.69,2.34l.4.26a3.47,3.47,0,0,0,1.66.48c1.78.21,3.49-.88,4.81-1.95A21.65,21.65,0,0,0,41,355.54c.85-.91,1.67-1.83,2.48-2.78s1.7-2,2.48-3a4.34,4.34,0,0,0,.89-3.6,4.88,4.88,0,0,0-4.54-3.25h-.17a6.72,6.72,0,0,0-2.64.57Z"/><path class="cls-5" d="M36.05,346.68c-.52,0-1,.11-1.53.18l-.58.1a2,2,0,0,0-.65.2,2.19,2.19,0,0,0-.71.71,1.46,1.46,0,0,0-.26,1.12,2.34,2.34,0,0,0-.45.75,9.06,9.06,0,0,0-.45,1.7,20.35,20.35,0,0,0-.28,2.2,6.18,6.18,0,0,0,0,.86,4.6,4.6,0,0,0,.05.64v.14a3.11,3.11,0,0,0,.4,1.86,1.85,1.85,0,0,0,1,.84,2,2,0,0,0,1.22,0,5.82,5.82,0,0,0,1.31-.62h.42a5.88,5.88,0,0,0,1.83-.51,6.34,6.34,0,0,0,1.55-1,8.49,8.49,0,0,0,.91-.89,14.28,14.28,0,0,0,1-1.28l.34-.47a2.56,2.56,0,0,0,.22-.39,5.18,5.18,0,0,0,1.3-.89,2.33,2.33,0,0,0,.85-1.76,1.9,1.9,0,0,0-.92-1.57,1.74,1.74,0,0,0-.78-.28l-.16-.05a1.75,1.75,0,0,0-.79-.34l-.13-.18a4.07,4.07,0,0,0-3.24-1.15h-.06c-.51,0-1,0-1.52.09Z"/><path class="cls-6" d="M38.87,344a1.76,1.76,0,0,0,1.19,2.17c1.26.31,2.49.68,3.73,1.07a1.75,1.75,0,0,0,1-3.36c-1.23-.39-2.47-.76-3.73-1.07a1.89,1.89,0,0,0-.47-.06,1.74,1.74,0,0,0-1.7,1.25Z"/><path d="M41.6,343.08l-.47.05a11.33,11.33,0,0,0-1.54.3l-.31.11-.23.08a8.33,8.33,0,0,0-1,.44c-.23.13-.44.28-.65.42l-.57.39-.53.4-.53.46c-.14.13-.27.28-.41.42a3.51,3.51,0,0,0-.29.36l-.3.27a8.28,8.28,0,0,0-.7.75,6.38,6.38,0,0,0-.46.6c-.32.43-.63.87-.93,1.31s-.7,1-1,1.53a6.62,6.62,0,0,0-.87,2.6c0,.11,0,.24,0,.35s0,.27,0,.4c0,.29,0,.58,0,.87s0,.51,0,.77a9.47,9.47,0,0,0,.13,1.07,3.94,3.94,0,0,0,.29.9,2.28,2.28,0,0,0,.46.61,1.28,1.28,0,0,0,.59.3,1.75,1.75,0,0,0,.32,0l.36,0a8.47,8.47,0,0,0,2-.43,7.23,7.23,0,0,0,1.25-.61q.44-.24.84-.51l1.77-1.09.63-.4a5.81,5.81,0,0,0,.73-.58l.77-.66c.41-.32.82-.64,1.2-1a2.5,2.5,0,0,0,.24-.22l.32-.34c.16-.18.31-.38.47-.57.31-.41.64-.8,1-1.2.18-.21.34-.43.51-.65s.24-.36.36-.54a4.89,4.89,0,0,0,.39-.91c.09-.24.16-.49.24-.74a2.72,2.72,0,0,0,.16-.84,5.64,5.64,0,0,0-.05-.82c0-.2-.07-.41-.12-.61a4.18,4.18,0,0,0-.38-1,3.84,3.84,0,0,0-.56-.84,4,4,0,0,0-.86-.79,3.27,3.27,0,0,0-.73-.35,1.59,1.59,0,0,0-.39-.1,2.21,2.21,0,0,0-.37,0h-.18a5.46,5.46,0,0,0-.57,0Zm-.6.77a12.17,12.17,0,0,1,1.35,0,3,3,0,0,1,.52.13,3.84,3.84,0,0,1,.53.28,4.13,4.13,0,0,1,.62.56,5.15,5.15,0,0,1,.59.92,4.29,4.29,0,0,1,.19.5,3.2,3.2,0,0,1,.1.42,6,6,0,0,1,.07.94,3.42,3.42,0,0,1-.13.62,3.38,3.38,0,0,1-.11.34q-.07.27-.18.54c-.06.15-.13.31-.2.46a4.25,4.25,0,0,1-.27.46l-.28.38a4.58,4.58,0,0,1-.34.43c-.22.27-.44.54-.65.82-.11.13-.21.27-.31.4l-.33.42c-.13.13-.24.28-.38.4l-.44.41.08-.06c-.63.51-1.25,1-1.85,1.56l.07-.06-.48.39a5.69,5.69,0,0,1-.52.33l-.5.31-1,.6a21.56,21.56,0,0,1-2,1.17,4.62,4.62,0,0,1-.62.23l-.35.1a5.78,5.78,0,0,1-.57.12h0l-.1,0h.08a5.42,5.42,0,0,1-1.14.08l-.1,0-.07,0a1.26,1.26,0,0,1-.2-.2,1.24,1.24,0,0,1-.17-.27,4.32,4.32,0,0,1-.23-.8c-.07-.5-.11-1-.14-1.52,0-.21,0-.43,0-.65s0-.2,0-.3,0-.25,0-.37.05-.39.09-.59c.09-.39.18-.77.3-1.15a8.54,8.54,0,0,1,.57-1.13l.27-.44c.17-.3.35-.59.53-.88.39-.61.76-1.22,1.16-1.82l0,0,0-.05h0a7,7,0,0,1,.6-.75,10.22,10.22,0,0,1,.86-.88c.23-.18.46-.34.7-.5s.61-.37.91-.55l.78-.44s0,0,0,0l-1,.43-.65.29,0,0c.24-.16.5-.3.75-.44l.78-.43a5.12,5.12,0,0,1,.65-.25l.42-.14a3.06,3.06,0,0,1,.41-.1l.37-.07a7.53,7.53,0,0,1,.83-.11Zm-2.63.65,0,0,0,0Zm5.6.23,0,0,0,0ZM36,346.19h0Zm8.87.44,0,.09s0-.06,0-.09Zm-.33,2.4v0Zm-9.37,8.46,0,0,0,0Zm-2.92.43,0,0,0,0Zm.09.07h0Zm.07,0,0,0,0,0Zm1.22-.06h0Zm.87-10.11h0Z"/><path class="cls-4" d="M65.94,336.6a6.44,6.44,0,0,0-2.57,1.29A5.18,5.18,0,0,0,61.51,342a3.16,3.16,0,0,0,.4,1.61,6.46,6.46,0,0,0,.72,1.07A7.47,7.47,0,0,0,64.42,346c2.51,1.2,5.59,1.86,8.14.42a5.57,5.57,0,0,0,1.61-1.56,8.33,8.33,0,0,0,.49-1.05,4.19,4.19,0,0,0,.07-2,6.22,6.22,0,0,0-.4-1.12c-.23-.34-.47-.66-.73-1s-.64-.52-1-.76a6.26,6.26,0,0,0-1.37-.62l-.08,0a4.07,4.07,0,0,0-.43-.49,5,5,0,0,0-2.09-1.17,7.21,7.21,0,0,0-1.38-.16l-1.33.15Zm-.21,5.16.14.19a1.33,1.33,0,0,1-.14-.19Zm1,1.24Zm2.72,1.6.1.08-.1-.08Z"/><path class="cls-5" d="M64.67,337.69a3.23,3.23,0,0,0-1.1.27,2.71,2.71,0,0,0-.79.5,6.33,6.33,0,0,0-.62.75,3.12,3.12,0,0,0-.4.85,3.84,3.84,0,0,0-.14.9,2.4,2.4,0,0,0,.25,1,4.64,4.64,0,0,0,2.52,2.21c.5.24,1,.46,1.52.68a40.82,40.82,0,0,0,4.74,1.51,1.75,1.75,0,0,0,1-3.36,46.19,46.19,0,0,1-5.11-1.67l-.3-.14a1.74,1.74,0,0,0-.1-3.32,4.36,4.36,0,0,0-1.24-.21Zm.27,2.61.06.17h0a.58.58,0,0,1-.06-.17Zm-.23.88h0Zm.17.05,0,0a.1.1,0,0,1,0,0Zm1.81.19.11.06-.11-.06Z"/><path class="cls-5" d="M64.68,341.07a1.75,1.75,0,1,0,1.78-1.72,1.77,1.77,0,0,0-1.78,1.72Z"/><path class="cls-6" d="M70.13,337a1.74,1.74,0,0,0-.84,1,1.86,1.86,0,0,0,.14,1.33,23.44,23.44,0,0,0,1.27,2.56,1.75,1.75,0,1,0,3.07-1.68,23.44,23.44,0,0,1-1.27-2.56,1.71,1.71,0,0,0-1-.84,2.07,2.07,0,0,0-.49-.07,1.72,1.72,0,0,0-.84.22Z"/><path d="M67.29,336.62c-.32,0-.64.08-1,.13a5.53,5.53,0,0,0-1,.25,4.37,4.37,0,0,0-1,.51,6.23,6.23,0,0,0-.8.64,4.19,4.19,0,0,0-.69.88,3.34,3.34,0,0,0-.28.57.23.23,0,0,0,0,.11l-.37.2a.87.87,0,0,0-.26.18,1,1,0,0,0-.21.25.63.63,0,0,0-.12.28,1.51,1.51,0,0,0,0,.3,1.85,1.85,0,0,0,.07.41,2.61,2.61,0,0,0,.38.85,4.17,4.17,0,0,0,.6.72l.36.35c.38.36.74.73,1.15,1.05a10.68,10.68,0,0,0,2.18,1.18c.27.13.56.23.85.34a7.37,7.37,0,0,0,1,.28,6,6,0,0,0,.94.11,9.09,9.09,0,0,0,1.28,0,8.49,8.49,0,0,0,2-.37,3.86,3.86,0,0,0,1.64-1.08,2.18,2.18,0,0,0,.22-.31,1.4,1.4,0,0,0,.16-.38l0-.15a2.66,2.66,0,0,0,0-.28,3.87,3.87,0,0,0,0-.48,7.18,7.18,0,0,0-.12-.81c0-.13-.06-.26-.1-.38l-.12-.39a5.22,5.22,0,0,0-.32-.73,4.43,4.43,0,0,0-.36-.59,13.56,13.56,0,0,0-1-1.25c-.21-.24-.44-.47-.67-.7s-.43-.38-.65-.56a5.1,5.1,0,0,0-.83-.57,6,6,0,0,0-1-.45,3.35,3.35,0,0,0-1-.14c-.3,0-.6,0-.9.05Zm-.24.68a11.86,11.86,0,0,1,1.19,0l.37.05a3,3,0,0,1,.51.15,4.85,4.85,0,0,1,1.06.55,11.32,11.32,0,0,1,1.28,1.11,13.57,13.57,0,0,1,.94,1.07h0l.27.34a5.53,5.53,0,0,1,.51.84c.1.22.18.45.26.68s.09.35.13.53v.05l0,.12a1.55,1.55,0,0,1,.06.31.44.44,0,0,1,0,.16,1.79,1.79,0,0,1,0,.24v.24a1.49,1.49,0,0,1-.09.3l0-.1-.09.18a2.31,2.31,0,0,1-.34.36,4.08,4.08,0,0,1-.7.47,4.38,4.38,0,0,1-.66.24,5.88,5.88,0,0,1-.7.16l.1,0a11.72,11.72,0,0,1-1.19.15,8.41,8.41,0,0,1-1.42,0c-.33-.05-.66-.11-1-.19s-.7-.21-1-.33h0l-.07,0-.74-.3-.48-.2a6,6,0,0,1-1-.56h0l0,0c-.33-.25-.65-.52-1-.79a8.27,8.27,0,0,1-1-.9l0,0a3.54,3.54,0,0,1-.42-.64h0v0h0v0h0a1.7,1.7,0,0,1-.09-.24,1.31,1.31,0,0,1-.09-.34h0a2.72,2.72,0,0,1,0-.28v0a.68.68,0,0,0,0-.14v0a.71.71,0,0,1,.13-.26,1.3,1.3,0,0,1,.19-.22h0l.43-.31c0,.12,0,.23,0,.34a2.27,2.27,0,0,0,.14.85h0a3.77,3.77,0,0,1,0-.67h0a2,2,0,0,1,.1-.42h0v0a4.68,4.68,0,0,1,.3-.54h0a3.88,3.88,0,0,1,.69-.77h0l.14-.11a1.73,1.73,0,0,1,.35-.31l.32-.2a3.56,3.56,0,0,1,.6-.27,2.74,2.74,0,0,1,.39-.09,5.47,5.47,0,0,1,.55-.13H66a10.09,10.09,0,0,1,1.09-.12Zm6.64,6.24a.2.2,0,0,0,0,.07.2.2,0,0,1,0-.07Z"/><path class="cls-10" d="M43.43,292.56l-.08,0a17.84,17.84,0,0,0-4.46,2c-.78.5-1.5,1.1-2.24,1.67-1,.75-2,1.5-2.92,2.27-2.42,2-4.71,4-6.94,6.2A55.15,55.15,0,0,0,21.71,310a24.6,24.6,0,0,0-3.91,6.12c-.31.77-.58,1.55-.83,2.34a7.08,7.08,0,0,0-.16,3.17l.27,1.4a11.23,11.23,0,0,0,.84,1.66,8,8,0,0,0,2.84,2.54,20.84,20.84,0,0,0,2.56,1,8.15,8.15,0,0,0,2.79.23,12.85,12.85,0,0,0,5.38-1.69A30,30,0,0,0,40.06,320a53.35,53.35,0,0,0,5.41-7.27c1.38-2.18,2.75-4.38,3.94-6.67a41.89,41.89,0,0,0,3.15-8l.12-.47A5.54,5.54,0,0,0,48.45,291a5.76,5.76,0,0,0-1.15-.12,5.4,5.4,0,0,0-3.87,1.66ZM24.94,317.23l.55.19h0c-.19-.06-.37-.13-.54-.2Z"/><path class="cls-10" d="M47,290a5.37,5.37,0,0,0-3.16,2.69c-.48,1.17-.9,2.37-1.28,3.58-.31,1-.52,2-.79,3a13.16,13.16,0,0,1-.79,1.54c-1.14,1.48-2.41,2.83-3.69,4.19-.83.87-1.63,1.77-2.49,2.6s-1.62,1.64-2.49,2.38l-1.74,1.48-3.16,2.5a5.82,5.82,0,0,0-2.39,3.46,5.5,5.5,0,0,0,4.24,6.53,5.35,5.35,0,0,0,4.14-.76c1.69-1.32,3.37-2.67,5-4.06s3.31-3,4.93-4.5c.73-.71,1.39-1.48,2.09-2.22a45.92,45.92,0,0,0,4.31-5,16.61,16.61,0,0,0,2.15-3.89,32.25,32.25,0,0,0,1-3.21c.18-.71.37-1.41.58-2.11l.15-.37a5.87,5.87,0,0,0,.34-4.26,5.59,5.59,0,0,0-2.69-3.16,5.51,5.51,0,0,0-2.54-.62A5.63,5.63,0,0,0,47,290Z"/><path class="cls-12" d="M45.07,301.25c-.33.15-.66.3-1,.47a3,3,0,0,0-.54.44c-.18.08-.36.16-.54.26l-2.22,1.13q-2.64,1.21-5.26,2.47a26.42,26.42,0,0,1-5.1,1.8c-.66.16-1.33.29-2,.42l-.35.06-.65.05,0,0a3.77,3.77,0,0,0-5.06,1.6c-.49,1-1,2-1.47,3a28.43,28.43,0,0,0-1.38,3.6,13.84,13.84,0,0,0-.49,2.19,6.74,6.74,0,0,0,.28,3.09,3.69,3.69,0,0,0,.75,1.3,3.8,3.8,0,0,0,1.41,1.29,5.38,5.38,0,0,0,2.44.92,3.78,3.78,0,0,0,1,.81,4,4,0,0,0,2.91.23,13,13,0,0,0,2.65-1.09l3.14-1.48a33.71,33.71,0,0,0,4.12-2.28c.68-.44,1.32-.95,2-1.43a28.18,28.18,0,0,0,4.34-4,18,18,0,0,0,1.61-2.34,11.43,11.43,0,0,0,.73-1.44,14.67,14.67,0,0,0,1.15-1.43,12.72,12.72,0,0,0,2.4-5.32A3.86,3.86,0,0,0,48.77,302a4,4,0,0,0-2.59-1,2.82,2.82,0,0,0-1.11.22Z"/><path class="cls-13" d="M46.11,294.87c-1.56.23-3.13.43-4.7.63a3.91,3.91,0,0,0-2.55,1.21,3.74,3.74,0,0,0,3,6.27c1.57-.19,3.14-.4,4.7-.62a4,4,0,0,0,2.56-1.22,3.77,3.77,0,0,0-2.66-6.29,1.94,1.94,0,0,0-.34,0Z"/><path d="M48.59,292.59a4.62,4.62,0,0,0-.65.06,13.6,13.6,0,0,0-1.57.3,12,12,0,0,0-1.39.47c-.54.22-1.08.44-1.6.71l-.49.26-.3.16-.91.57c-.23.14-.44.31-.66.47l-.63.48c-.24.18-.47.37-.7.56l-.76.66h0l-1.13.92-.62.49-.8.59-1.29,1-.52.42-.65.54-.66.6c-.15.15-.31.29-.47.43l-.73.73-.4.42-1.11,1.23c-.37.41-.74.83-1.12,1.23s-.75.78-1.14,1.17l-1.14,1.14-.77.77-.36.38-.71.82q-.39.47-.75.93a26.67,26.67,0,0,0-1.77,2.7c-.27.47-.54,1-.8,1.44l-.48.89c-.11.2-.2.41-.3.61l-.74,1.56a8.78,8.78,0,0,0-.95,3c0,.35,0,.71,0,1.06s0,.41,0,.62l0,1.2h0l.15-1.39c.05-.37.08-.74.14-1.11a6,6,0,0,1,.32-1.25v0a20.62,20.62,0,0,1,1.26-2.48c.27-.49.52-1,.8-1.48s.61-1.08.92-1.61l.61-1.07c.34-.6.72-1.19,1.12-1.76h0c.26-.37.53-.73.82-1.07l.75-.88c.11-.14.22-.27.34-.4l.75-.75,1.12-1.13c.39-.39.77-.79,1.15-1.18.77-.81,1.51-1.65,2.25-2.48.12-.13.23-.27.36-.39l.79-.79c.38-.38.79-.73,1.19-1.09l.09-.09-.08.07c.47-.39.94-.78,1.42-1.14s1.1-.84,1.66-1.24.89-.69,1.33-1.05,1-.8,1.43-1.21l0,0,0,0,.8-.63.39-.28.54-.38.36-.22.6-.37c.12-.08.26-.14.39-.21l.51-.27.78-.35.92-.35.41-.14.11,0,.08-.06a.85.85,0,0,1,.22-.09l.47-.09.27,0c.32-.09.64-.2,1-.27a.32.32,0,0,1,.14,0,.5.5,0,0,1,.37.15h.14a3.74,3.74,0,0,1,.48.12A4.8,4.8,0,0,1,50,294a6.08,6.08,0,0,1,.86.82h0s0,0,0,0c.27.32.51.67.75,1,.1.15.19.32.28.48s.18.36.27.53a.31.31,0,0,1,0-.1c.11.27.22.53.31.81s.09.27.12.4.08.33.11.5h0c0,.17.06.34.09.51a7.12,7.12,0,0,1,.09,1.66,5.84,5.84,0,0,1-.11.73,5.91,5.91,0,0,1-.24.82h0v0l0,.07s0,0,0,0a12.48,12.48,0,0,1-.93,1.82l-.5.82c-.35.56-.7,1.12-1.07,1.68-.69,1.06-1.4,2.11-2.11,3.15-.32.4-.62.8-1,1.19-.17.2-.33.4-.51.59s-.46.51-.7.76-.64.67-1,1-.84.82-1.27,1.22-.74.72-1.09,1.09l-1,1.1-.61.65c-.21.23-.44.43-.66.65s-.75.71-1.13,1.06c-.13.13-.29.25-.43.37l-.51.44.08-.07c-.39.31-.78.62-1.19.91l-1.43,1c-.43.31-.86.62-1.3.92a14.27,14.27,0,0,1-1.92,1.14s0,0-.07,0h0a16.32,16.32,0,0,1-2.85.91l-1,.23-.95.19h-.08c-.46.08-.92.13-1.39.17-.21,0-.43,0-.65.05l-.45,0a6.41,6.41,0,0,1-1.16,0,3.61,3.61,0,0,1-.65-.15,2.25,2.25,0,0,1-.38-.19,2.09,2.09,0,0,1-.28-.24,3.51,3.51,0,0,1-.33-.52,6.46,6.46,0,0,1-.36-1.21v0a7,7,0,0,1-.12-1.51,0,0,0,0,1,0,0v0a7.1,7.1,0,0,1,.17-1,1.17,1.17,0,0,1,0-.2l-.06,0h0a.41.41,0,0,1-.22,0h0c-.1.27-.19.55-.27.83a5.61,5.61,0,0,0-.12,2,6.71,6.71,0,0,0,.14.88,4.13,4.13,0,0,0,.37,1,2.35,2.35,0,0,0,.56.65,2.29,2.29,0,0,0,.74.39,5.48,5.48,0,0,0,2,.2c.53,0,1.06-.08,1.59-.15s1.15-.18,1.72-.28,1-.22,1.53-.34a18.28,18.28,0,0,0,1.92-.55,11.74,11.74,0,0,0,1.8-.83c.34-.19.66-.41,1-.61s.87-.61,1.3-.92.78-.53,1.16-.81l.77-.55c.24-.17.46-.36.7-.54.43-.34.84-.7,1.26-1.06.21-.17.39-.36.58-.54l.5-.47.68-.68c.21-.2.39-.41.59-.62.7-.75,1.38-1.51,2.12-2.21l1.27-1.22c.32-.32.66-.64,1-1l.69-.74c.18-.19.34-.39.5-.58l.41-.48.61-.79c.16-.2.3-.43.45-.64l.39-.57,1-1.49c.29-.43.57-.87.86-1.31s.54-.85.8-1.28.34-.55.5-.84.36-.64.52-1a9.79,9.79,0,0,0,.43-1.06,6.46,6.46,0,0,0,.29-2.1,10.08,10.08,0,0,0-.18-1.55,7.2,7.2,0,0,0-.42-1.51c-.05-.15-.11-.29-.17-.44s-.11-.22-.16-.33a3.18,3.18,0,0,0-.16-.32c-.09-.15-.18-.3-.26-.45l-.21-.31c-.06-.08-.11-.17-.18-.25l-.3-.41a8.27,8.27,0,0,0-.55-.63,4.88,4.88,0,0,0-.69-.59,3.83,3.83,0,0,0-.89-.48l-.48-.12a1.93,1.93,0,0,0-.42,0Z"/><path class="cls-10" d="M14.09,338.93a19.32,19.32,0,0,0-4.67,1.84,23.26,23.26,0,0,0-3.81,2.59c-1.07.83-2.13,1.69-3.12,2.61a7,7,0,0,0-2.35,3.62,6.58,6.58,0,0,0,.13,3.24A6.44,6.44,0,0,0,2,355.41a7.41,7.41,0,0,0,5,1.72,19.82,19.82,0,0,0,5.19-.67,22.45,22.45,0,0,0,4.64-1.57A37.26,37.26,0,0,0,20.57,353a24,24,0,0,0,4.58-3.71,5.54,5.54,0,0,0-.36-7.77,5.33,5.33,0,0,0-3.67-1.41,5.42,5.42,0,0,0-2.46-1.24,5.94,5.94,0,0,0-1.11-.16,9.25,9.25,0,0,0-1.2-.08,11.19,11.19,0,0,0-2.26.28Z"/><path class="cls-12" d="M6.83,343.66a21.4,21.4,0,0,0-2.52,1.07,5.07,5.07,0,0,0-1.39,1.18,6.13,6.13,0,0,0-1,1.56,5.84,5.84,0,0,0-.43,4.87,3.86,3.86,0,0,0,1,1.6,8.22,8.22,0,0,0,1.66,1.19l.4.15a7,7,0,0,0,1.36.44,9.51,9.51,0,0,0,2.13.15,16.39,16.39,0,0,0,3.76-.45c1.29-.27,2.55-.62,3.82-1,3.53-1,7-2.26,10.44-3.61A3.9,3.9,0,0,0,28.28,349a3.75,3.75,0,0,0-4.51-5.29c-1.95.77-3.93,1.46-5.9,2.16-1,.37-2.11.67-3.17,1s-2,.63-3,.9a3.76,3.76,0,0,0-.15-1.72A3.81,3.81,0,0,0,8,343.47a3.51,3.51,0,0,0-1.15.19Z"/><path class="cls-13" d="M12.33,340.45a3.76,3.76,0,0,0,2.88,4.45l2.49.43A3.75,3.75,0,1,0,19.26,338l-2.48-.43a4.34,4.34,0,0,0-.71-.06,3.76,3.76,0,0,0-3.74,2.94Z"/><path d="M18.19,338.14c-.37,0-.74.08-1.12.13s-.85.11-1.28.2a6.7,6.7,0,0,0-1.09.28,8.24,8.24,0,0,0-1.07.43c-.44.2-.86.43-1.28.67a30.76,30.76,0,0,0-3.53,2.22A15.74,15.74,0,0,0,7.5,343.2a18.13,18.13,0,0,0-1.34,1.43c-.16.18-.31.38-.46.58l-.34.42c-.28.37-.56.75-.81,1.14-.41.64-.82,1.28-1.19,2a10.14,10.14,0,0,0-.68,1.59,6.26,6.26,0,0,0-.31,1.82,10.06,10.06,0,0,0,.15,2.05c.1.66.21,1.32.32,2,0,0,0,0,0,0,0-.6,0-1.2,0-1.8a17,17,0,0,1,0-1.89s0,0,0,.06v-.08a3.43,3.43,0,0,1,0-.64,5.45,5.45,0,0,1,.33-1.18c.14-.31.27-.62.42-.93.08-.16.17-.32.26-.48s.2-.33.31-.49l.18-.26c.11-.2.22-.39.34-.57a5.58,5.58,0,0,1,.57-.78l.19-.21.38-.52c.15-.21.3-.4.46-.6l.69-.86a16,16,0,0,1,1.69-1.7,20,20,0,0,1,2.06-1.5l1-.62.75-.43c.47-.27.94-.53,1.43-.77l-.1,0a10.86,10.86,0,0,1,1.07-.43,8.25,8.25,0,0,1,1.19-.29c.44-.08.88-.13,1.33-.18a11.49,11.49,0,0,1,2.11-.11,5.12,5.12,0,0,1,1.22.27,7.12,7.12,0,0,1,1.3.71c.17.13.34.26.5.4a5.51,5.51,0,0,1,.41.43,5.42,5.42,0,0,1,.67,1.08,6.38,6.38,0,0,1,.34.92c.09.32.15.65.21,1s.13.92.18,1.39c0,.13,0,.27.05.41a8.46,8.46,0,0,1,0,1.51c0,.2-.05.4-.08.59a4.68,4.68,0,0,1-.21.73h0a6.4,6.4,0,0,1-.74,1.36,8.33,8.33,0,0,1-1.33,1.39h0a13.58,13.58,0,0,1-1.29,1c-.45.3-.92.57-1.39.83s-.69.36-1,.55l.1,0-1.14.51c-.21.1-.44.17-.65.25s-.56.2-.83.28c-.42.13-.84.25-1.27.34l-.73.16-.52.11-1.15.22c-.49.08-1,.16-1.46.21l-1.76.2-1.36.14-.76.07a10.76,10.76,0,0,1-1.5.07h0a2.59,2.59,0,0,1-.4-.09,1.35,1.35,0,0,1-.29-.16h0a1.63,1.63,0,0,1-.34-.3h0c-.17-.21-.33-.42-.49-.64,0,0,0,0,0,0a7.71,7.71,0,0,0,.49.82,1.76,1.76,0,0,0,.55.46,1.17,1.17,0,0,0,.31.12,3.69,3.69,0,0,0,.46.08,7.87,7.87,0,0,0,.84,0H8l1.77-.05.63,0,.75-.05,1-.11.72-.11c.24,0,.5-.07.74-.12l1-.21c.4-.08.79-.18,1.19-.29l1-.32c.28-.1.57-.21.85-.33l.91-.4.64-.32.84-.45a17.68,17.68,0,0,0,2-1.3,12.69,12.69,0,0,0,1.6-1.42,6.74,6.74,0,0,0,1.21-1.87,5.51,5.51,0,0,0,.46-1.9,8.54,8.54,0,0,0,0-1.13c0-.22,0-.42-.05-.63a16.36,16.36,0,0,0-.56-3.11,5.79,5.79,0,0,0-.91-1.74,4.85,4.85,0,0,0-.65-.71,6.2,6.2,0,0,0-.92-.7,5.57,5.57,0,0,0-1.88-.79,5.4,5.4,0,0,0-1.21-.12c-.32,0-.65,0-1,0Zm-2,1.08h0Zm8,4.56a0,0,0,0,0,0,0,0,0,0,0,1,0,0Zm-.07,4.64s0,0,0,.05,0,0,0-.05Z"/><path class="cls-3" d="M68.44,205.44a8.51,8.51,0,0,0-1.76.54,1.29,1.29,0,0,0-.39,0c-.75.2-1.49.39-2.21.64a11.72,11.72,0,0,0-2,.93c-.87.49-1.71,1-2.55,1.56s-1.9,1.26-2.82,1.93l-.63.44a9.13,9.13,0,0,0-1.6.62A13.73,13.73,0,0,0,49,217.78l-.29.26a10,10,0,0,0-2.72,4.12,7.77,7.77,0,0,0-.45,2.57,4,4,0,0,0,.91,2.41,4.14,4.14,0,0,0,2.36,1.4,5.45,5.45,0,0,0,2.63-.17,6.55,6.55,0,0,0,1-.42,8.2,8.2,0,0,0,.85-.1,8.88,8.88,0,0,0,2.45-.89,22.55,22.55,0,0,0,2.08-1.21c2.71.3,5.4-1.25,7.63-2.73a25.29,25.29,0,0,0,3.88-3.2,20.79,20.79,0,0,0,3.23-4.23,17.09,17.09,0,0,0,1-2c.18-.19.34-.39.5-.59a7.74,7.74,0,0,0,1.62-3.48,3.8,3.8,0,0,0-.81-3.12,2.32,2.32,0,0,0-.9-.71,1,1,0,0,0-.35-.17,4.58,4.58,0,0,0-1.47-.25,8.18,8.18,0,0,0-1.41.07,4.24,4.24,0,0,0-.88-.08,9.1,9.1,0,0,0-1.4.13Z"/><path class="cls-1" d="M70.8,208.26l-.62.53c-.41.36-.84.71-1.25,1.08-.93.8-1.83,1.63-2.72,2.48s-1.51,1.52-2.3,2.24l-.76.67-.63-.23a6.23,6.23,0,0,0-1.22,0,8.41,8.41,0,0,0-1.21.26,13.4,13.4,0,0,0-2.72,1.18l-.17.08a2.24,2.24,0,0,0-1.76-2.42,2.37,2.37,0,0,0-1.69.31A4.55,4.55,0,0,0,53,215l-.36.36-.24.23a2.28,2.28,0,0,0-2.13.16l-.75.48A9.33,9.33,0,0,0,48,217.49a11,11,0,0,0-1.36,1.75,7,7,0,0,0-.53,1,16.12,16.12,0,0,0-.76,2,3.68,3.68,0,0,0-.17,1.74,3.13,3.13,0,0,0,.43,1.29,4.74,4.74,0,0,0,.78.89,2.08,2.08,0,0,0,.12.32c.08.17.17.34.25.52a3.14,3.14,0,0,0,.34.4,2.84,2.84,0,0,0,.87,1.07,4,4,0,0,0,1.28.65,4.19,4.19,0,0,0,.87.17,8,8,0,0,0,3-.29,12.23,12.23,0,0,0,2.45-1c.54-.26,1.06-.56,1.59-.84l1.71-.91a33.32,33.32,0,0,0,3.2-2c.94-.64,1.9-1.26,2.84-1.9a58.34,58.34,0,0,0,5.78-4.75l1.22-1.07a11.53,11.53,0,0,0,1.25-1.27c.32-.38.59-.79.88-1.18a2.43,2.43,0,0,0,.58-1.65,2.18,2.18,0,0,0-.19-.8,5.22,5.22,0,0,0,.37-.75,2.46,2.46,0,0,0,.14-1.75,2.29,2.29,0,0,0-1.66-1.5,2.58,2.58,0,0,0-.6-.07,2.62,2.62,0,0,0-1.82.8Z"/><path class="cls-1" d="M76,208c-1.37.25-2.75.5-4.12.79a42.53,42.53,0,0,0-5,1.56c-.54.19-1.07.42-1.62.61s-1.12.39-1.69.56c-1.12.32-2.24.61-3.38.87-1.48.26-3,.44-4.43.79A15.49,15.49,0,0,0,52,214.65a14.9,14.9,0,0,0-3.14,2.57,2.25,2.25,0,0,0,3.32,3l1-1a10.68,10.68,0,0,1,1.66-1.07,17.34,17.34,0,0,1,3.23-.95c1.42-.21,2.82-.43,4.22-.75s2.49-.65,3.72-1,2.32-.85,3.49-1.27c.87-.3,1.75-.59,2.64-.85s2-.45,3-.65l-.24,0,1.4-.25a2.48,2.48,0,0,0,1.53-.73,2.24,2.24,0,0,0-.14-3.18,2.34,2.34,0,0,0-1.43-.6Zm-17.57,9.18-.18,0,.18,0Z"/><path class="cls-11" d="M72.07,204.15l-2,.66a2.43,2.43,0,0,0-1.74-.14,11,11,0,0,0-2.22.82c-.26.12-.51.25-.76.39A2.48,2.48,0,0,0,64,208.3a2.27,2.27,0,0,0,2.37,2.12,16.84,16.84,0,0,0,4-.94l3.2-1a2.25,2.25,0,0,0-.72-4.39,2,2,0,0,0-.68.11Z"/><path d="M72.43,203.54c-.4,0-.8,0-1.19.07l-.87.09a32.06,32.06,0,0,0-3.22.48,27.75,27.75,0,0,0-3.31,1l-.6.24c-.23.1-.46.19-.68.31-.57.3-1.14.6-1.7.92l-2.21,1.28c-.76.45-1.5.92-2.24,1.39s-1.31.89-1.93,1.38c-.32.26-.64.5-.94.77l-1.12,1,0,0c-.51.47-1,.95-1.52,1.44-.34.35-.69.69-1,1a17.64,17.64,0,0,0-1.86,2.37,19.52,19.52,0,0,0-1.32,2.47c-.23.54-.47,1.08-.67,1.63a15.16,15.16,0,0,0-.6,2.65s0,0,0,0c.18-.52.36-1,.58-1.55.11-.26.23-.51.37-.77A12.79,12.79,0,0,0,46,223.8a11.23,11.23,0,0,0,0,2.39,7.36,7.36,0,0,0,.21,1.06,3.86,3.86,0,0,0,.38.94,2.2,2.2,0,0,0,.64.72,2.68,2.68,0,0,0,1,.43,3.64,3.64,0,0,0,.93.11h.67l.86-.06a17.46,17.46,0,0,0,6.14-1.66c1-.51,2-1,3-1.56a30,30,0,0,0,2.78-1.66c.48-.34,1-.69,1.43-1.05l1.17-.9c.87-.65,1.78-1.25,2.71-1.81a18,18,0,0,0,3.41-2.47c1-.93,1.64-2.07,2.49-3.07.71-.84,1.46-1.64,2.16-2.49a5.39,5.39,0,0,0,1-1.91,5.23,5.23,0,0,0,.15-2.19c0-.34-.11-.67-.18-1a7.13,7.13,0,0,0-.26-1,6,6,0,0,0-.52-1.16A3.83,3.83,0,0,0,74.66,204a4.47,4.47,0,0,0-2.1-.45Zm-9.11,3.54c.44-.18.87-.37,1.32-.52.84-.27,1.68-.51,2.54-.73.37-.08.74-.15,1.12-.2l1.29-.18,1.38-.13a15,15,0,0,1,1.78-.09,4.13,4.13,0,0,1,.77.13,3.61,3.61,0,0,1,.56.27,3.52,3.52,0,0,1,.35.31,3.68,3.68,0,0,1,.39.58,6.76,6.76,0,0,1,.45,1.31,10,10,0,0,1,.22,1.8,5,5,0,0,1-.15.75,5.12,5.12,0,0,1-.39.82c-.39.55-.84,1.05-1.29,1.57-.32.36-.63.71-.94,1.08l-.48.76c0,.09-.1.18-.16.27a.51.51,0,0,1-.27.25l-.13,0a18.86,18.86,0,0,1-1.81,2.18,21.17,21.17,0,0,1-3.15,2.16c-.89.55-1.74,1.15-2.58,1.78l-1.27,1c-.44.34-.9.66-1.35,1s-.81.52-1.23.77-1.06.63-1.61.93c-.3.17-.61.32-.91.48-.87.44-1.74.9-2.64,1.25-.51.2-1,.38-1.53.55s-.93.26-1.4.38-.92.18-1.39.24a13.22,13.22,0,0,1-2.09.21,4.2,4.2,0,0,1-.47-.08,2.16,2.16,0,0,1-.34-.17l-.14-.12a3.41,3.41,0,0,1-.3-.44A6.45,6.45,0,0,1,47,226L47,225.9a2.44,2.44,0,0,1-.28-1.27,1.08,1.08,0,0,1,.07-.31,7.89,7.89,0,0,1,0-1.19h0v0c0-.81.16-1.62.28-2.43.2-.32.4-.63.59-.95s.53-.81.82-1.21a20.24,20.24,0,0,1,2.63-2.92h0l0,0,0,0c.75-.66,1.5-1.33,2.27-2,.41-.34.8-.7,1.23-1s.85-.68,1.29-1c.91-.63,1.82-1.27,2.78-1.85s1.83-1.08,2.76-1.61l1-.55-.18.1c.35-.18.7-.39,1.07-.54Zm6.5,10.31,0,0,0,0Zm-22.24,2.36,0,0,0,0Z"/><path class="cls-3" d="M77.77,180.74a13.11,13.11,0,0,0-1.75.78,4.16,4.16,0,0,0-1.8,1.91,4.09,4.09,0,0,0-.31,2.62,5.65,5.65,0,0,0,2.66,3.36,12.32,12.32,0,0,0,3.93,1.36c1.15.25,2.32.38,3.49.53a54,54,0,0,0,14.57-.6,2.15,2.15,0,0,0,.34.57,5.9,5.9,0,0,0,.51.49,2.53,2.53,0,0,0,1.38.48,4.94,4.94,0,0,0,2.17-.39,12.39,12.39,0,0,0,1.66-.75c.72-.39,1.4-.84,2.09-1.28s1.22-.8,1.81-1.22c.44-.14.87-.29,1.29-.46A12.25,12.25,0,0,0,112,186.8l0,0c-1.12-.53-2.22-1.08-3.31-1.67-1.63-.89-3.24-1.82-4.85-2.75-1-.28-2-.54-3-.79-1.39-.34-2.76-.72-4.16-1l-2.37-.49c-.64-.1-1.28-.19-1.91-.26-2-.23-3.87-.42-5.83-.54-1.69-.11-3.38-.17-5.07-.24-1.33.47-2.54,1.2-3.85,1.72Z"/><path class="cls-3" d="M93.05,177h-.6c-.88,0-1.76,0-2.63.07l-.51,0-3.25,0a19.85,19.85,0,0,0-4,.29,9.62,9.62,0,0,0-1.4.37c-.42.15-.82.37-1.23.56l-.38.19a3.77,3.77,0,0,0-.94.67,2.25,2.25,0,0,0,1.2,3.7,6.43,6.43,0,0,0,2.84-.32c.34-.08.69-.14,1-.2,2.07-.29,4.16-.6,6.25-.73,1.24,0,2.48.1,3.72.2a41.21,41.21,0,0,1,7,1.54l1.59.61a2.46,2.46,0,0,0,1.69.15,2.24,2.24,0,0,0,1.07-.72l.43.18a12,12,0,0,1,1.24.63,13.45,13.45,0,0,1-2.47.73,39,39,0,0,1-4.83.24c-1.31,0-2.62,0-3.93,0a2.26,2.26,0,0,0-2.15,2.34,2.29,2.29,0,0,0,2.33,2.16c1.25,0,2.49,0,3.74,0a42.09,42.09,0,0,0,4.9-.23,14.41,14.41,0,0,0,4.68-1.36,7.65,7.65,0,0,0,1.88-1.31,3.66,3.66,0,0,0,1.21-2.07c.33-1.86-1.25-3.15-2.62-4.07a17.38,17.38,0,0,0-1.51-.87,25.07,25.07,0,0,0-3.55-1.38,21.46,21.46,0,0,0-3.37-.8,53,53,0,0,0-7.34-.57Z"/><path class="cls-1" d="M81.69,178.37c-1.09.46-2.21.85-3.31,1.3a11,11,0,0,0-2.09,1.1A4.6,4.6,0,0,0,74,184.89a5.45,5.45,0,0,0,2.76,3.78A13.6,13.6,0,0,0,80.14,190a26.08,26.08,0,0,0,4.13.85,25.49,25.49,0,0,0,5.31-.07c1.22-.08,2.42-.22,3.64-.36,2.43-.28,4.86-.61,7.3-.9.74-.08,1.49-.2,2.23-.3,1.06-.13,2.11-.22,3.15-.43a2.22,2.22,0,0,0,1.5-1.66,2.29,2.29,0,0,0-.69-2.14c-.9-.87-2.18-.79-3.34-.76l-2,0c-.73,0-1.46,0-2.19-.09-1.51-.15-3-.32-4.5-.59s-3.22-.59-4.82-.93-3.38-.72-5.07-1.08l-.34-.07a2.24,2.24,0,0,0-1-3,2.47,2.47,0,0,0-1.09-.27,1.57,1.57,0,0,0-.65.13Z"/><path class="cls-11" d="M98.21,178.82a2.28,2.28,0,0,0-.62,1.58,2.25,2.25,0,0,0,.7,1.6,2.46,2.46,0,0,0,1.58.63l2.53.29a12.21,12.21,0,0,1,2,.45c.4.13.8.29,1.2.44a2.19,2.19,0,0,0,1.71-.26,2.28,2.28,0,0,0,1-1.38,2.24,2.24,0,0,0-.26-1.7,2.42,2.42,0,0,0-1.38-1c-.49-.18-1-.37-1.49-.53a13.06,13.06,0,0,0-2.57-.46l-2.79-.32h-.13a2.25,2.25,0,0,0-1.47.7Z"/><path class="cls-11" d="M91,179.5a2.25,2.25,0,1,0,2.23-2.28A2.28,2.28,0,0,0,91,179.5Z"/><path d="M89.67,176.66c-1,.09-2,.18-3.07.31-.61.08-1.22.17-1.82.27s-1,.2-1.48.3c-.66.14-1.32.33-2,.53a13.86,13.86,0,0,0-2,.81c-.33.16-.65.34-1,.5a26.3,26.3,0,0,0-2.94,1.84c-1.16.84-2.4,2-2.42,3.56a4.78,4.78,0,0,0,.54,2.05,8.53,8.53,0,0,0,1.32,2,7.57,7.57,0,0,0,1.51,1.31,8.12,8.12,0,0,0,1.61.75c.57.2,1.13.43,1.68.68,0,0,0,0,0,0-.34-.22-.67-.45-1-.66s-.89-.49-1.32-.75a8.17,8.17,0,0,1-1.18-1h0A8.27,8.27,0,0,1,75,187.54a9.25,9.25,0,0,1-.68-1.77,4.37,4.37,0,0,1-.09-.81c0-.13,0-.27.08-.4a3.26,3.26,0,0,1,.26-.53,4.54,4.54,0,0,1,.53-.63,12.58,12.58,0,0,1,1.79-1.27c.34-.21.67-.44,1-.63l0,0,.35-.26.25-.18.35-.23c.29-.16.58-.33.88-.48a4.24,4.24,0,0,1,1.2-.4h0l.49-.18.09,0,.7-.22,1-.27c.52-.14,1-.25,1.57-.37s.73-.12,1.09-.18.71-.09,1.06-.14c.69-.09,1.39-.14,2.08-.2a33.89,33.89,0,0,1,4.62-.24,11.74,11.74,0,0,1,2,.32l.92.23c.45.12.9.23,1.36.32l1.76.31,1.47.22a63.16,63.16,0,0,1,6.23,1.29l1.07.31a6,6,0,0,1,1.07.48,2.64,2.64,0,0,1,.4.35,4.36,4.36,0,0,1,.52.75,6.37,6.37,0,0,1,.44,1.34v0l.09,0a.5.5,0,0,1,.23.66c-.08.19-.16.36-.25.54l0,.16a3.17,3.17,0,0,1-.23.45,5.15,5.15,0,0,1-.43.5c-.19.16-.37.31-.56.45l-.13.14c-.17.17-.35.33-.53.48a.45.45,0,0,1-.37.09l-.92.53a19.9,19.9,0,0,1-4.18,1.52c-.48.13-1,.22-1.46.33l-1.45.27-1.81.28c-.6.09-1.2.14-1.79.22l-1.54.16c-1,.1-2,.2-3,.28-.52,0-1,.11-1.57.11l-2,0h-.06c-.51,0-1-.06-1.53-.09s-1-.1-1.45-.15c-1-.11-1.9-.27-2.84-.42s-2-.32-2.93-.56-2.16-.57-3.23-.89c0,0,0,0,0,0l1.7.76c.53.23,1.07.43,1.61.63s1,.34,1.56.5,1.07.3,1.61.44c1,.29,2.1.52,3.16.73.51.1,1,.16,1.56.23l.69.09c.27,0,.55,0,.82,0l1.14,0,.52,0,2-.08c1.08-.05,2.16-.17,3.24-.27a55.84,55.84,0,0,0,6.3-.89c.93-.2,1.85-.39,2.76-.65A16.61,16.61,0,0,0,109,189.3l.77-.44a9.88,9.88,0,0,0,1.88-1.4,4.57,4.57,0,0,0,.66-.86,3.38,3.38,0,0,0,.4-1,3.63,3.63,0,0,0,.05-1.09,9.12,9.12,0,0,0-.23-1.18,6.39,6.39,0,0,0-.74-1.79,4.8,4.8,0,0,0-.62-.79,4.41,4.41,0,0,0-.91-.7,8,8,0,0,0-1.86-.69l-.87-.24c-1-.28-2-.49-3.06-.69s-2-.4-3-.55-2.21-.34-3.31-.54c-.49-.09-1-.23-1.46-.34l-1.07-.26a12.23,12.23,0,0,0-2.33-.26h-.39c-1.07,0-2.15.11-3.21.2Zm-15.41,8.18s0,0,0,.07a.15.15,0,0,1,0-.07Z"/></g></g></svg>